<svg width="33" height="33" fill="none" xmlns="http://www.w3.org/2000/svg"><g clip-path="url(#clip0)"><path d="M32.97 7.82a2.275 2.275 0 01-.025.216 16.557 16.557 0 01-3.525 9.472c.025-.334.037-.674.037-1.014 0-1.108-.136-2.178-.403-3.205a16.516 16.516 0 002.64-1.108c-.893.285-1.822.495-2.77.631a12.951 12.951 0 00-8.518-8.649A16.627 16.627 0 007.83.08c.075.006.15.013.217.025a16.593 16.593 0 019.472 3.502 13.216 13.216 0 00-4.225.365 16.985 16.985 0 00-1.096-2.611c.285.884.495 1.8.626 2.74a12.975 12.975 0 00-8.661 8.532A16.608 16.608 0 00.074 25.198c.007-.074.013-.148.025-.216a16.56 16.56 0 013.519-9.466 13.078 13.078 0 00.365 4.195c-.916.297-1.802.668-2.645 1.107a16.656 16.656 0 012.782-.631 12.963 12.963 0 008.48 8.624 16.64 16.64 0 0012.614 4.108 2.315 2.315 0 01-.217-.024 16.651 16.651 0 01-9.491-3.52c.34.024.681.043 1.028.043 1.11 0 2.187-.143 3.222-.402.297.915.663 1.8 1.109 2.641a17 17 0 01-.632-2.771 13.006 13.006 0 008.63-8.489 16.597 16.597 0 004.18-11.037 21.008 21.008 0 00-.074-1.54zm-4.337 5.03a16.762 16.762 0 01-2.973.098c-.025-.11-.056-.222-.081-.34 0-.006-.006-.012-.006-.024-.031-.124-.068-.254-.1-.378v-.012c-.037-.13-.074-.254-.11-.384a16.72 16.72 0 00-4.405-7.152 12.675 12.675 0 017.675 8.192zM13.63 9.44a.322.322 0 00.068-.061l.21-.173c.007-.007.013-.007.013-.013.204-.167.415-.328.626-.482.018-.013.037-.031.056-.044.192-.142.39-.278.588-.408l.112-.074c.055-.037.111-.068.16-.105l.15-.093c.067-.044.13-.08.197-.118.069-.043.137-.08.211-.124.044-.024.087-.049.124-.074l.198-.111.106-.056c.099-.055.198-.105.297-.16.025-.013.056-.025.08-.044.081-.043.168-.08.248-.124.031-.012.062-.03.093-.043.105-.05.21-.099.322-.148a16.962 16.962 0 00-.793-.019c-.142 0-.285 0-.427.006-.056 0-.118.006-.174.006-.086 0-.167.007-.247.013-.075.006-.149.012-.23.012-.062.006-.13.006-.192.012a3.7 3.7 0 00-.26.025c-.05.006-.099.006-.155.013-.099.012-.192.018-.29.03-.044.007-.081.007-.125.013-.105.012-.21.03-.31.043-.03.006-.061.006-.099.013-.068.012-.136.018-.204.03a15.923 15.923 0 00-.6-2.926 12.809 12.809 0 014.552-.31 16.802 16.802 0 014.752 6.435c-.112 0-.217-.006-.328-.006a16.68 16.68 0 00-4.225.538A17.152 17.152 0 0016.8 9.645c.371.433.718.885 1.04 1.348a16.678 16.678 0 00-5.563 2.76 15.464 15.464 0 01-.043-1.207 16 16 0 01.112-1.905 16.67 16.67 0 011.462 1.701 15.36 15.36 0 011.56-.792 17.214 17.214 0 00-1.74-2.11zm5.049 2.884a16.536 16.536 0 012.025 6.316 16.575 16.575 0 01-6.35 2.03 16.636 16.636 0 01-2.019-6.317 16.65 16.65 0 016.344-2.03zM12.86 4.398a17.11 17.11 0 01.099 2.995c-.112.025-.223.056-.34.08-.007 0-.013.006-.026.006-.124.031-.254.069-.377.1h-.013c-.13.037-.254.074-.384.11a16.75 16.75 0 00-7.161 4.4 12.687 12.687 0 018.202-7.69zM3.87 16.494c0-.47.026-.935.075-1.393a16.724 16.724 0 016.437-4.732c0 .111-.006.216-.006.328 0 1.453.185 2.864.538 4.213a15.81 15.81 0 00-1.257 1.317 16.66 16.66 0 011.338-1.027 16.638 16.638 0 002.75 5.538c-.396.03-.805.043-1.207.043a16.27 16.27 0 01-1.909-.111 16.668 16.668 0 011.704-1.46 15.326 15.326 0 01-.793-1.56c-.75.52-1.456 1.102-2.112 1.739-.019-.025-.044-.043-.062-.068l-.174-.21c-.006-.007-.006-.013-.012-.013a15.3 15.3 0 01-.483-.625c-.013-.018-.031-.037-.044-.055a13.73 13.73 0 01-.409-.588l-.074-.111c-.037-.056-.068-.112-.105-.161l-.093-.149a3.346 3.346 0 01-.118-.198c-.043-.068-.08-.136-.124-.21a2.173 2.173 0 00-.074-.124c-.037-.068-.074-.13-.112-.198-.018-.037-.037-.068-.055-.105-.056-.099-.106-.198-.161-.297-.013-.025-.025-.056-.044-.08-.043-.08-.08-.168-.124-.248-.012-.03-.03-.062-.043-.093-.05-.105-.1-.21-.149-.321a17.396 17.396 0 00-.012 1.218c0 .056.006.118.006.174 0 .086.006.167.013.247.006.074.012.149.012.229.006.062.006.13.012.192.006.086.013.173.025.26.006.05.006.099.012.154.013.1.02.192.031.291.007.043.007.08.013.124.012.105.03.21.043.31.006.03.006.061.013.098.012.068.018.136.03.204a16.31 16.31 0 00-2.911.6 13.23 13.23 0 01-.384-3.142zm6.753 4.163s0 .006 0 0c0 .006 0 0 0 0zM4.41 20.15a16.68 16.68 0 012.013-.118c.322 0 .638.013.954.025.025.111.056.223.08.34 0 .007.007.013.007.025.03.124.068.254.099.377v.013l.112.383a16.652 16.652 0 004.373 7.121A12.696 12.696 0 014.41 20.15zm14.998 3.421c-.025.019-.044.043-.068.062l-.211.173c-.006.006-.012.006-.012.013a15.32 15.32 0 01-.626.482c-.019.013-.037.031-.056.044-.192.142-.39.278-.588.408l-.112.074c-.056.037-.111.068-.16.105l-.15.093c-.068.043-.13.08-.198.118-.068.043-.136.08-.21.123-.044.025-.087.05-.124.075-.068.037-.13.074-.199.11l-.105.057c-.099.055-.198.105-.297.16-.025.013-.056.025-.08.044-.081.043-.168.08-.249.123-.03.013-.062.031-.093.044-.105.05-.21.099-.322.148.267.013.527.019.793.019.143 0 .285 0 .428-.006.056 0 .117-.006.173-.006.087 0 .167-.007.248-.013.074-.006.149-.012.23-.012.061-.006.13-.006.191-.013a3.63 3.63 0 00.26-.024c.05-.007.1-.007.155-.013.1-.012.192-.018.291-.03.044-.007.081-.007.124-.013.106-.012.211-.031.31-.043.031-.007.062-.007.1-.013.067-.012.136-.018.204-.03.111 1.002.316 1.973.6 2.907a12.749 12.749 0 01-4.571.31 16.742 16.742 0 01-4.727-6.416c.111 0 .217.006.328.006a16.71 16.71 0 004.22-.538c.42.451.873.878 1.343 1.287a16.228 16.228 0 01-1.047-1.361 16.721 16.721 0 005.57-2.766c.03.402.043.81.043 1.219a16 16 0 01-.112 1.905 16.694 16.694 0 01-1.462-1.701 15.37 15.37 0 01-1.56.792 16.458 16.458 0 001.728 2.097zm.768 5.018a16.717 16.717 0 01-.099-2.964c.111-.025.223-.055.34-.08.007 0 .013-.007.025-.007.124-.03.254-.067.378-.099h.013c.13-.037.254-.074.384-.11a16.651 16.651 0 007.142-4.381 12.7 12.7 0 01-8.183 7.64zm8.908-10.666a16.735 16.735 0 01-6.43 4.726c0-.111.006-.216.006-.328 0-1.46-.192-2.876-.545-4.225.446-.415.861-.854 1.258-1.318-.428.365-.874.705-1.338 1.027a16.652 16.652 0 00-2.757-5.537c.402-.03.805-.043 1.214-.043.644 0 1.282.037 1.908.111a16.668 16.668 0 01-1.704 1.46c.291.501.558 1.02.793 1.56.75-.52 1.456-1.108 2.113-1.74.018.025.037.05.062.069l.173.21c.006.006.006.013.013.013.167.204.328.414.483.624.012.019.03.037.043.056a12.508 12.508 0 01.483.7c.038.055.069.11.106.16.03.05.062.099.093.148.043.069.08.13.117.198.044.069.08.136.124.21.025.044.05.087.075.124.037.069.074.13.111.198l.056.106c.056.099.105.198.16.297.013.024.026.055.044.08.044.08.08.167.124.247.012.031.031.062.043.093.05.105.1.21.15.322.012-.266.018-.526.018-.792 0-.142 0-.284-.006-.427 0-.055-.007-.117-.007-.173 0-.087-.006-.167-.012-.248a2.682 2.682 0 01-.012-.228c-.007-.062-.007-.13-.013-.192a3.68 3.68 0 00-.025-.26c-.006-.05-.006-.099-.012-.155-.012-.099-.019-.191-.03-.29-.007-.044-.007-.08-.013-.124-.013-.105-.031-.21-.044-.31-.006-.03-.006-.061-.012-.098-.012-.069-.019-.137-.031-.205a16.267 16.267 0 002.918-.6c.254.996.39 2.042.39 3.118-.006.49-.03.966-.087 1.436z" fill="#A88B65"/></g><defs><clipPath id="clip0"><path fill="#fff" d="M0 0h33v33H0z"/></clipPath></defs></svg>