<svg width="59" height="32" viewBox="0 0 59 32" fill="none" xmlns="http://www.w3.org/2000/svg">
	<path d="M20.7921 24.464C19.392 25.208 17.8219 25.6 16.1952 25.6C13.5972 25.6 11.1611 24.6 9.32397 22.792C7.4868 20.976 6.48323 18.568 6.48323 16C6.48323 13.432 7.49489 11.024 9.32397 9.208C11.1611 7.392 13.5972 6.4 16.1952 6.4C17.83 6.4 19.4001 6.792 20.7921 7.536L23.0178 1.488C20.9459 0.536 18.6312 0 16.1952 0C7.25209 0 0.00860596 7.16 0.00860596 16C0.00860596 24.84 7.25209 32 16.1952 32C18.6312 32 20.9459 31.464 23.0178 30.512L20.7921 24.464Z" fill="white"/>
	<path d="M43.1938 0.00799561L42.9914 0.551995L40.7577 6.61599C41.4294 6.47199 42.1174 6.39999 42.8134 6.39999C45.4113 6.39999 47.8474 7.39999 49.6846 9.20799C51.5218 11.024 52.5253 13.432 52.5253 16C52.5253 18.568 51.5137 20.976 49.6846 22.792C47.8555 24.608 45.4113 25.6 42.8134 25.6C42.1174 25.6 41.4213 25.528 40.7577 25.384L42.9914 31.448L43.1938 31.992C51.9588 31.792 58.9999 24.712 58.9999 16C58.9999 7.28799 51.9588 0.199996 43.1938 0.00799561Z" fill="white"/>
	<path d="M31.7661 0H25.2914L19.3995 16L25.2914 32H31.7661L25.8742 16L31.7661 0Z" fill="white"/>
	<path d="M41.478 0H35.0034L29.1115 16L35.0034 32H41.478L35.5861 16L41.478 0Z" fill="white"/>
</svg>