<svg width="27" height="5" fill="none" xmlns="http://www.w3.org/2000/svg"><path d="M26.604 1.67l-.038-.094-.047-.103v-.038H11.04V1.22l.45-.01.263.048V1.22l1.83.112h.055L13.62.262l-.038-.027-.31-.038-.572.047-.61.066-.45.065h-1.36V.328c.031 0 .054-.012.066-.037l.028-.028L10.28 0h-.01l-.778.047v.15l.02.047v.16l-.264.018-.403.01H8.03L7.655.404l-.526.028-.45.028-.197.019h-.047l-.019.019C6.398.516 6.388.55 6.388.6v.253l.028.404v.028l.02.047.459.028.525-.047.45-.056.235-.038h.29v.235h-.788c-.03.012-.05.028-.056.046l-.094.02-.3.056-.365.065h-.02v.056l-.046.235-.075.234H4.118l-.253-.253a.264.264 0 00-.15-.085H1.482l-.075.057-.047.028-.028.019-.02.018H1.07l-.835.057c-.125.056-.187.109-.187.16v.618L0 3.621V4.7l.019.16.028.028h.065l.225-.047.3-.066.291-.047.188-.028h.619l.32.065.112-.065c.03 0 .05-.025.056-.075l.094-.6h1.228l.179.131.281.253.263.282.356.122.638.103L5.92 5l.44-.047.132-.188.113-.356.065-.375.01-.29h.075l.037-.02c.207.125.391.194.554.207l.431-.038.282-.15.15-.122c.025-.031.093-.047.206-.047v.675l2.148-.225v-.656c.013-.02.085-.044.216-.075l.45-.123.432-.122.234-.065 1.82.019a.816.816 0 01-.31.075c-.037-.044-.134-.066-.29-.066h-.028c-.075 0-.113.038-.113.113-.05.093-.043.212.02.356l.121.282.047.047h.376l.046-.141-.066-.066-.046-.028.046-.094h3.846l.047-.112V3.34l.02-.029.018-.075c0-.106-.028-.181-.084-.225l-.104-.103V2.27h-.731v-.169h9.962l.028-.047c.075-.112.113-.2.113-.262l-.029-.122zM7.747 3.555h-.525c-.144 0-.216-.078-.216-.234 0-.132.072-.197.216-.197h.525c.144 0 .216.065.216.197 0 .156-.072.234-.216.234z" fill="#fff"/></svg>