<svg width="13" height="8" fill="none" xmlns="http://www.w3.org/2000/svg"><path d="M11.694 1.093c0-.16-.08-.241-.24-.241H6.667a.212.212 0 00-.153.066l-.088.175v3.06l.088.174.153.044h4.787c.16 0 .24-.073.24-.219v-3.06zm.896-.874c.117.145.175.32.175.524v6.535a.7.7 0 01-.175.482.647.647 0 01-.524.24H.722a.664.664 0 01-.503-.24A.626.626 0 010 7.277V.743A.72.72 0 01.219.218.693.693 0 01.722 0h11.344a.67.67 0 01.524.219zM9.333 2.667l-.174-.11.065-.109.196.11V2.36h.154l-.022.196.196-.109.066.11-.219.109.219.108-.066.132-.196-.11.022.22H9.42v-.22l-.196.11-.065-.132.174-.108zm-.48-.11l-.197.11.197.108-.066.132-.219-.11.044.22h-.175v-.22l-.175.11-.088-.132.197-.108-.197-.11.088-.109.175.11V2.36h.175l-.044.196.22-.109.065.11zm.022 3.869l-.044-.132-.153-.087h-.612c-.058 0-.102.028-.132.087-.043.028-.064.073-.064.132v.611l.064.154.132.043h.612l.153-.043.044-.154v-.611zm.546-.219l-.131.088c-.044.029-.065.073-.065.131v.612l.065.153.132.044h.632l.132-.044.044-.153v-.612l-.045-.131-.13-.088H9.42zm-.546-1.224l-.044-.152-.154-.044h-.611l-.132.044-.064.152v.612l.064.13.132.09h.612l.153-.09.044-.13v-.612zm1.31-.152l-.13-.044H9.42l-.131.044c-.044.058-.066.108-.066.152v.612l.066.13.13.09h.634l.132-.09.044-.13v-.612l-.045-.152zm1.356 1.463l-.153-.087h-.59l-.153.087c-.045.03-.065.074-.065.132v.611l.065.154.153.043h.59l.153-.043.066-.154v-.611l-.066-.132zm0-1.463l-.153-.044h-.59l-.154.044-.065.152v.612l.065.13.154.09h.59l.153-.09.066-.13v-.612l-.066-.152zm-3.65-2.274l-.197.11.196.108-.042.132-.241-.11.043.22h-.153v-.22l-.197.11-.065-.132.175-.108-.175-.11.065-.109.197.11V2.36h.153l-.043.196.24-.109.043.11zm-3.76 2.58l.175-.306.131-.328h.044l-.022.328-.022.305v.722h-.7l.394-.722zm3.17 1.07h-.59c-.044 0-.096.029-.154.087l-.087.132v.612l.087.153.153.044h.59l.154-.044.065-.153v-.612l-.065-.131-.154-.088zm0-1.42h-.59l-.154.044-.087.152v.612l.087.13c.058.06.11.09.153.09h.59l.154-.09.065-.13v-.612l-.065-.152-.154-.044zM3.015 5.923v.503h1.421v.765h.722v-.765h.415v-.568H5.16V3.934h-.92l-1.225 1.99zm-.765-.655l.241.02.175.045.132-.546-.263-.066L2.23 4.7c-.466 0-.823.123-1.07.371-.22.234-.328.532-.328.896 0 .393.109.707.327.94.22.219.532.328.94.328l.394-.044.284-.065-.065-.59-.22.087h-.24a.668.668 0 01-.458-.175c-.146-.102-.219-.27-.219-.503a.63.63 0 01.197-.459c.102-.146.262-.218.48-.218z" fill="#fff"/></svg>