<svg width="20" height="10" fill="none" xmlns="http://www.w3.org/2000/svg"><path d="M19.996 1.32c-.022-.167-.062-.336-.055-.504.008-.178.082-.302-.153-.296-.073-.028-.339-.055-.357-.123-.045-.159-.094-.301-.299-.251-.211.051-.367.156-.55.254-.15.08-.224.075-.397.075-.142 0-.5-.062-.625 0-.069.035-.057.142-.1.164a.754.754 0 01-.235 0c-.073-.056.048-.193-.096-.194l-.363-.002-3.023-.02-.939-.007c-.1-.001-.098.149-.156.149-.127 0-.23-.059-.335-.06L9.748.465 8.538.449C8.334.444 8.284.266 8.11.267L5.381.28c-.272.002-.457.12-.735.126-.15.003-.405.063-.517-.037-.069-.06-.3-.342-.393-.342-.112 0-.532-.061-.61 0-.09.07.065.376-.035.427-.278.142-.593.314-.758.572-.12.187-.21.136-.46.136-.065 0-.157.017-.213-.016-.035-.02-.131-.095-.172-.085-.066.016-.261.028-.305.072-.03.03 0 .198 0 .239 0 .137.148.3.217.419.078.133.194.216.235.372.042.158-.025.313-.065.466-.074.284-.3.28-.586.36-.306.083-.682.196-.878.437-.193.236-.113.304.167.304.175 0 .35.007.526.012.324.008.665.006.987.047.466.076.698.288.8.698.054.223.004.411.004.63 0 .106-.098.235-.143.33l-.294.615a21.26 21.26 0 00-.759 1.847c-.17.465-.279.957-.259 1.45.007.186.048.548.33.584.128.016.256.019.386.025.836.04 1.623.044 2.458.004.67-.033 1.346-.184 2.015-.182-.07-.176-.307-.524-.26-.705.063-.238.12-.472.166-.713.096-.501.222-.998.313-1.5.082-.45.098-.821.54-1.106.238-.154.69.096.973.083.37-.018.74-.025 1.108-.07.191-.023.39-.033.578-.075.224-.05.316-.007.316-.21 0-.354.031-.724.184-1.055.116-.249.286-.625.542-.787.228-.144.468-.37.767-.37h7.467c.182 0 .308.025.386-.163.128-.31.244-.625.342-.943.076-.252.285-.599.25-.856zM9.523 5.066c-.15.282-.51.216-.812.216-.244 0-.63.068-.862-.005-.207-.065-.257-.056-.33-.238-.039-.1-.039-.165-.039-.27v-.904c0-.415.458-.36.783-.36h.908c.518 0 .418.526.418.83 0 .246.052.507-.066.73z" fill="#fff"/></svg>