<svg width="14" height="5" fill="none" xmlns="http://www.w3.org/2000/svg"><path d="M13.775 1.6l.043.129c.012.094-.05.178-.043.264-.207.003-.416.028-.623.033-.176.004-.332-.055-.507-.055h-.88c-.207 0-.372.11-.575.122l-.065-.05h-.028a1.142 1.142 0 01-.193.478c-.17.057-.306.05-.485.05H8.291c-.175 0-.341-.016-.508.036 0 .184.03.413-.079.571-.16.103-.425.04-.606.02a2.65 2.65 0 01-.473-.084l-.128.086c-.11.082-.086.25-.086.371-.086.035-.128.151-.164.229.004.04.006.081.014.121l.043.057h-.043a.612.612 0 00-.15.429l.029.043c-.152 0-.313-.058-.463-.087-.067-.014-.132-.043-.196-.066-.03-.01-.062-.02-.09-.033-.078-.036-.092-.1-.15-.143.023-.325.041-.697.186-.995.096-.197.307-.322.327-.54 0-.043-.038-.086-.114-.129a.984.984 0 00-.571.043.976.976 0 00-.49.385c-.1.153-.132.4-.367.4.002.211.022.42.03.63.009.252.047.513.041.764C3.945 4.925 3.56 5 3.148 5c-.04-.733-.087-1.466-.1-2.2-.263.045-.52.091-.78.157-.009.057-.01.222-.084.222-.114.027-.246.077-.358.086a.723.723 0 00-.093-.115l-.014-.064c-.435.226-.896.262-1.379.286a.112.112 0 00-.05-.036 5.5 5.5 0 01-.26-1.182c-.025-.275-.082-.71.097-.947.072-.105.159-.187.226-.295C.397.84.45.77.498.7V.664h1.35V.7c.083.119.161.22.264.322.174-.081.3-.179.45-.3.7-.006 1.393.106 2.093.028a3.34 3.34 0 00.092-.3c.02-.081.072-.203.072-.286.164-.155.539-.17.759-.163l.89.029 2.353.075c.37.012.741.02 1.112.03.368.01.74.03 1.107.03.038-.01.073.016.107.078.17.189.149.53.135.771-.01.17-.051.333-.07.5.127-.005.254.03.377.057.01.018.015.037.015.057h.563c.165 0 .36.031.522-.014.34-.095.685-.087 1.036-.072l.05.03V1.6zm-3.45-.993H5.733c-.157 0-.236.084-.236.25v.229c0 .162.08.243.236.243h4.225c.134 0 .443.049.539-.072.118-.094.108-.481 0-.578-.038-.048-.095-.072-.172-.072z" fill="#fff"/></svg>