<svg width="9" height="12" fill="none" xmlns="http://www.w3.org/2000/svg"><path d="M8.502 1.924c.187 1.703.093 3.254-.28 4.653l-.594 1.645-.84 1.47-.84 1.014-.735.7-.56.35-.21.174-.105.07-.14-.07c-1.212-.84-2.17-1.866-2.868-3.079C.792 7.894.408 6.81.175 5.597L0 4.163V3.008l.07-.804.105-.63.28.176c.56.326 1.132.42 1.714.28l.77-.385.595-.49L3.919.7l.175-.21.175-.49.209.42c.677 1.025 1.446 1.574 2.31 1.644.42.023.862-.082 1.329-.315l.175-.175.14-.07.07.278v.142zm-1.75.56C5.82 2.46 4.991 1.957 4.27.98l-.07.104-.105.105-.49.525-.665.455c-.77.466-1.574.513-2.415.139l-.034.525-.035.699.175 1.96c.21 1.166.571 2.216 1.085 3.15a8.023 8.023 0 002.624 2.833l.35-.245.525-.42.594-.595.595-.805.84-1.4.559-1.539.316-2.903v-.665l-.036-.595-1.33.175zm.28.874l.035 1.82-.279 1.434-.42 1.155-.525.875-.56.665-.49.455-.455.35-1.19-1.015-.805-1.085-.49-1.084-.244-1.015-.105-.98V3.604l.07-.246h.035c.42.28.862.35 1.33.21l.559-.279.42-.385.245-.315.07-.14h.035c.256.396.524.676.804.84l.77.315.664-.035.456-.211h.07zm-3.219.874l-.84.246-.315.315-.28.455-.21.595-.069.104-.105.105-.035.036h.14l.175-.036h.42l.28-.035.245.035.315.14.314.176.246.104.07.034.105.071.174.035h1.19l.314.07.316.071v-.175c0-1.05-.28-1.75-.84-2.1a1.2 1.2 0 00-.77-.28l-.84.034z" fill="#fff"/></svg>