<svg width="9" height="12" fill="none" xmlns="http://www.w3.org/2000/svg"><path d="M8.493 1.814c-.014.343.056.7.074 1.044.022.433.024.868.005 1.301a12.01 12.01 0 01-.331 2.345c-.305 1.232-.874 2.455-1.669 3.448-.204.256-.396.535-.62.775-.22.236-.48.445-.717.665-.191.176-.436.303-.643.458-.12.09-.214.192-.363.132-.318-.127-.632-.468-.89-.692C1.412 9.609.276 7.238.05 4.695a12.129 12.129 0 01.12-3.129c.516.334 1.063.581 1.694.506.58-.068 1.004-.383 1.437-.738.232-.189.41-.4.604-.63C4.08.5 4.108.253 4.167 0c.437.667.892 1.342 1.605 1.742.392.22.839.332 1.288.309a2.41 2.41 0 00.856-.213c.217-.096.373-.2.577-.024zm-1.47 1.565c.21 2.135-.233 4.327-1.716 5.934-.19.205-.406.408-.64.56-.133.086-.302.279-.443.183a5.886 5.886 0 01-.91-.759c-1.002-1.03-1.558-2.302-1.74-3.716-.069-.533-.127-1.06-.071-1.6.014-.136.024-.274.042-.411.004-.026.007-.18.025-.19.057-.031.31.153.377.18.56.218 1.207.028 1.642-.363a5.43 5.43 0 00.572-.595c.13-.158.054-.25.222-.006.18.266.398.52.676.686.434.285.783.316 1.272.295.243-.009.463-.212.692-.198zM6.749 2.5C5.712 2.44 4.877 1.783 4.276.976a4.436 4.436 0 01-.966.915c-.84.609-1.786.859-2.77.39a10.641 10.641 0 00.302 4.192c.413 1.476 1.145 2.857 2.237 3.943a8.555 8.555 0 001.266 1.04c.032-.003.099-.075.123-.093.297-.224.611-.435.885-.69 2.304-2.13 2.957-5.383 2.7-8.393l-.654.191c-.19.056-.45.02-.65.03z" fill="#fff"/></svg>