<svg width="13" height="5" fill="none" xmlns="http://www.w3.org/2000/svg"><path d="M8.3 3.122c-.073.11-.043.285-.04.41 0 .01-.002.1.006.1h.191c.014 0 .106-.008.106.006 0 .031-.018.138.013.147.163.047.244.194.438.12.228-.087.322-.294.203-.512-.076-.139-.226-.19-.317-.317-.06-.083-.072-.112-.188-.095-.144.022-.308.023-.412.14zm-1.747.232c0-.12-.047-.367-.193-.367h-.843c-.032 0-.09-.012-.119 0-.055.022-.118.112-.16.152-.052.05-.121.098-.162.158-.048.068-.014.183-.008.26 0 .165.05.302.185.4.213.154.363.064.578-.017.233-.086.722-.292.722-.586zm3.584-1.867c.05-.075-.1-.09-.135-.09H8.987c-.34 0-.684-.033-1.024-.052 0 .026-.006.225.004.225h2.078c.08 0 .055-.008.092-.083zm.263-.12c-.09 0-.12-.024-.12.071 0 .045-.016.07.03.075.042.006.108.038.087.094-.023.059-.074.111-.07.17.01.1.017.2.025.3.004.041.092.041.092.01v-.274c0-.089.053-.386-.044-.446zm1.949.787c.116.098.176.52-.018.566-.115.028-.259.004-.376.004h-.688c-.019 0-.027-.045-.042-.045-.02 0-.063.04-.075.053.065.074.145.15.174.249.022.074-.01.174-.019.247-.02.165-.039.328-.053.494-.006.072.003.17-.02.24-.026.079-.089.074-.162.074-.153 0-.406.073-.443-.118-.03-.16-.02-.317-.058-.477-.023-.096-.385-.054-.457-.05-.054.004-.13.143-.133.183l-.03.315c-.027.298-.166.603-.404.792a1.42 1.42 0 01-.79.278l-.34.02c-.06.003-.136.021-.193.004-.087-.025-.17-.013-.162-.114.005-.066.034-.138.05-.203l.078-.328c.013-.054.048-.124.027-.178-.058-.144-.336-.093-.473-.098-.1-.003-.123.01-.18.095-.04.06-.127.113-.184.157-.412.316-.917.664-1.45.682a7.81 7.81 0 01-.973-.032l-.312-.029c-.099-.01-.064-.077-.067-.172-.002-.068.012-.076-.046-.098l-.26-.097-.633-.237c-.033-.012-.076-.038-.11-.04-.024 0-.229-.026-.238-.009-.048.083-.117.197-.224.197H.235c-.282 0-.205-.531-.205-.712 0-.325.003-.65-.003-.975A52.245 52.245 0 000 1.708c-.006-.148.058-.153.163-.153h3.11c.2 0 .422.028.62-.007.252-.045.484-.06.74-.06H6.98c.045 0 .007-.284.028-.335.07-.165.137-.33.2-.498.037-.094.062-.158.164-.2.1-.042.071-.18.098-.281.033-.123.213-.266.29-.096.035.072.03.163.03.24 0 .033.009.08 0 .112-.004.015-.037.03-.037.066 0 .03-.02.16.013.16H9.88c.05 0 .144-.083.187-.108.089-.052.16-.049.16-.163 0-.09-.029-.022-.045-.06-.012-.028 0-.09 0-.121 0-.068.044-.15.126-.156.052-.005.188-.05.198.033.01.088.006.177.006.265 0 .085.006.144.028.226.027.1.047.12.142.12.076 0 .103-.012.152.04l.23.248c.107.117.258.227.258.398v.633c0 .03-.021.144.017.144h1.01z" fill="#fff"/></svg>