<svg width="19" height="10" fill="none" xmlns="http://www.w3.org/2000/svg"><path d="M17.228.369c-.818 0-1.483.682-1.483 1.52 0 .204.04.398.112.576l-4.39 4.188a1.447 1.447 0 00-1.267-.184L8.798 4.657c.104-.21.166-.442.166-.686 0-.838-.665-1.52-1.483-1.52-.818 0-1.483.682-1.483 1.52 0 .077.014.15.024.225l-3.54 2.846a1.45 1.45 0 00-.791-.239c-.818 0-1.483.682-1.483 1.52 0 .839.665 1.52 1.483 1.52.818 0 1.483-.681 1.483-1.52 0-.155-.03-.301-.071-.442L6.526 5.13c.01.008.016.019.025.026a1.464 1.464 0 001.493.223l1.35 1.742a1.52 1.52 0 00-.23.797c0 .838.664 1.52 1.482 1.52s1.483-.682 1.483-1.52c0-.14-.024-.273-.059-.401l4.486-4.28c.203.108.429.173.672.173.818 0 1.483-.682 1.483-1.52 0-.837-.665-1.52-1.483-1.52zM1.69 8.79a.462.462 0 01-.456-.468c0-.257.204-.467.456-.467s.456.21.456.467a.462.462 0 01-.456.468zm5.505-4.455a.472.472 0 01-.171-.364c0-.258.204-.468.456-.468.251 0 .456.21.456.468a.47.47 0 01-.133.33c-.181.184-.5.124-.608.034zm3.45 4.05a.462.462 0 01-.456-.469c0-.146.065-.28.179-.37l.007-.004a.44.44 0 01.27-.093c.252 0 .457.21.457.467a.463.463 0 01-.457.468zm6.582-6.029a.462.462 0 01-.456-.467c0-.258.204-.467.456-.467.251 0 .456.21.456.467a.462.462 0 01-.456.467z" fill="#BABABA"/></svg>