<svg width="14" height="14" fill="none" xmlns="http://www.w3.org/2000/svg"><path d="M11.88.769c-.417 0-.805.115-1.134.312V.466A.48.48 0 0010.255 0H3.746a.48.48 0 00-.492.466v.615A2.196 2.196 0 002.12.769C.95.769 0 1.667 0 2.772s.95 2.003 2.12 2.003h.813c.177 0 .32.136.32.303a.312.312 0 01-.32.303.48.48 0 00-.493.466c0 .257.22.466.493.466.236 0 .457-.06.648-.163.179.465.426.886.739 1.243a3.58 3.58 0 001.362.974 4.205 4.205 0 01-.27 1.18c-.33.817-.876 1.215-1.666 1.215h-.813a.48.48 0 00-.493.466v2.306c0 .257.22.466.493.466h8.134a.48.48 0 00.493-.466v-2.306a.48.48 0 00-.493-.466h-.813c-.79 0-1.335-.398-1.666-1.215a4.203 4.203 0 01-.27-1.18 3.579 3.579 0 001.362-.974c.313-.357.56-.778.739-1.243.191.103.412.163.648.163a.48.48 0 00.493-.466.48.48 0 00-.493-.466.312.312 0 01-.32-.303c0-.167.143-.303.32-.303h.813c1.17 0 2.12-.898 2.12-2.003S13.05.769 11.88.769zM2.933 3.844H2.12c-.625 0-1.134-.481-1.134-1.072 0-.59.509-1.071 1.134-1.071.625 0 1.133.48 1.133 1.071v1.11a1.379 1.379 0 00-.32-.038zm7.64 7.85v1.374H3.427v-1.374h7.148zm-2.916-1.84c.139.35.317.654.53.908H5.813c.213-.254.391-.558.53-.908.185-.465.268-.928.306-1.253a3.627 3.627 0 00.702 0c.038.325.121.788.306 1.253zM7 7.687c-1.6 0-2.76-1.42-2.76-3.378V.933h5.52V4.31C9.76 6.268 8.6 7.688 7 7.688zm4.88-3.843h-.813c-.11 0-.218.013-.32.037V2.772c0-.59.508-1.071 1.133-1.071s1.134.48 1.134 1.071c0 .59-.509 1.072-1.134 1.072z" fill="#2B7BFB"/></svg>