<svg width="16" height="20" fill="none" xmlns="http://www.w3.org/2000/svg"><path d="M14.675 2.537h-.984V1.385c0-.557-.396-1.033-.953-1.033H3.44c-.556 0-1.008.476-1.008 1.033v1.152H1.425c-.434 0-1.262.233-1.262 1.24V5.43c0 1.793 1.238 3.305 2.908 3.747.716 1.438 1.973 2.531 3.484 2.98a.704.704 0 00-.418.642c0 .152.05.323.133.407h-.027c-.38 0-.69.336-.712.672h-.92a.913.913 0 00-.653.27.912.912 0 00-.268.653l.015 3.026H3.28c-.545 0-1.015.442-1.015.988v.042c0 .545.47.987 1.015.987h9.536c.546 0 .96-.442.96-.987v-.042c0-.546-.414-.988-.96-.988h-.342l.015-3.027a.91.91 0 00-.268-.652.913.913 0 00-.653-.27h-.92c-.021-.336-.332-.672-.711-.672h-.028c.083-.084.133-.255.133-.408a.706.706 0 00-.42-.642c1.511-.448 2.742-1.541 3.458-2.98a3.868 3.868 0 002.88-3.746V3.835c0-1.053-.823-1.298-1.284-1.298zm-13 3.26V4.048h.757V6.42c0 .537.062 1.058.189 1.553a2.989 2.989 0 01-.945-2.178zM9.82 7.92L8.09 6.664 6.36 7.92l.661-2.03-1.73-1.254H7.43l.66-2.033.66 2.033h2.139L9.159 5.89l.66 2.03zm4.628-2.125a2.99 2.99 0 01-.945 2.179 6.244 6.244 0 00.189-1.554V4.05h.756v1.747z" fill="#fff"/></svg>