<svg width="13" height="15" fill="none" xmlns="http://www.w3.org/2000/svg"><path fill-rule="evenodd" clip-rule="evenodd" d="M7.532 3.093H7.09v-.08c.125 0 .194-.026.138-.12-.082-.16.276-.147.332-.12.083.067.027.24-.028.32zm-.607.107h.538c-.055.093-.22.387-.331.387-.055-.067-.193-.254-.207-.387zm1.739-.627a.2.2 0 01-.083.027c-.166.226-.069.2-.373.4 0 .387.014.427.11.774V3.8c0 .014-.013.014-.013.014-.069.013-.18.04-.235.053 0 .013.028.227 0 .4-.055.254-.69.814-.828.854-.207.04-.441-.133-.814-.293-.097-.04-.442-.254-.621-.32-.152-.054-.29.293-.11.386.082.04.22.107.262.214.124.32-.014 1.548-.276 1.788-.125 0-.235-.107-.318-.08-.166.093-.055.574 0 .654 1.008 1 .897 1.747 1.325 2.308.193 0 .07.2.221.44.041.12-.014.32-.028.4v.307a.241.241 0 00-.027.094v.267c-.028.133-.07.306-.097.427-.055.253.166.453.028.693 0 .147 0 .12-.097.24 0 .227-.055.721 0 .894.042.12.483.628.607.68.277.121.677.094.539.508-.8.24-1.298-.133-1.726-.133l-.013.066c-.276 0-.483-.066-.552-.08 0-.067.082-.614.124-.707.027-.04.055-.093.096-.133.028-.094-.027-.774-.041-.961-.166-.12-.207-.494-.207-.694-.055-.16-.055-.347-.055-.547 0-.093-.07-.24-.028-.36.028-.08.124-.12.138-.187v-.227c.042-.24.028-.347-.124-.494-.373 0-.428.027-.621-.28-.07-.093-.58-.894-.635-.907-.428-.187-.345-.107-.538-.44-.014 0-.125.04-.221.187-.152.226-.428.947-.511 1.2-.041.147 0 .294-.069.414-.041.08-.207.107-.235.173-.151.267-.041.24-.33.427-.056.067-.056.16-.098.24-.027.027-.04.054-.069.094-.055.107.056.28.028.347-.055.16-.11.333-.18.48-.137.307-.11.707-.248.894-.069.094-.234 0-.359.08-.013.067-.207.494-.248.614v.694c.041.12.138.227.11.373-.027.16-.593.16-.897.107-.207-.027-.262-.173-.262-.347 0-.2.414-1.494.4-1.574-.317-.347.083-.694.207-1.014.055-.16.028-.374.083-.52.11-.2.22-.388.331-.588.207-.187.11-.2.221-.36.097-.147.207-.24.138-.467-.138-.44.152-1.067.18-1.534-.056-.054-.221-.04-.249-.174-.041-.293.11-.8.207-.84.042-.027.097 0 .124-.027 0-.214-.22-1.414-.055-1.481.11-.04.345-.053.387-.08 0-.053-.042-.16-.083-.16-.07-.014-.221-.04-.345-.067-.373-.08-.028-1.494-.028-1.508.097-.133.58.04.635-.173.152-.2-.124-.947.414-1.881.18-.307.538-.627.939-.494.138.04.055.24.29.027 0-.12-.056-.214-.083-.32C3.378.237 4.73-.39 5.683.264c.11.04.165.066.248.12.055.267.317.72.055 1.027-.11.027-.248.08-.331.134 0 .106.014.2.028.266.013.054.055.08-.042.12-.014 0 0 .04 0 .054.221.04.456-.04.607-.094h.18V1.68h.083v-.174h.083V1.8h.22v.093h3.272v.16h.138v-.6h.124v.494h.276v.28h.87v-.08h.138v.04h.414v.227h-.414v.04h-.139v-.08h-.87v.08h-.386V2.4h-.165v.174H8.664z" fill="#979797"/></svg>