<svg width="32" height="32" fill="none" xmlns="http://www.w3.org/2000/svg"><path d="M6.806 24.226c.268 0 .484.217.484.484h.968c0-.8-.651-1.452-1.452-1.452v-.968H5.84v.968H4.387v1.452c0 .8.651 1.451 1.452 1.451h.967c.268 0 .484.217.484.484v.484H5.84a.484.484 0 01-.484-.484h-.968c0 .8.651 1.452 1.452 1.452v.967h.967v-.967h1.452v-1.452c0-.8-.651-1.451-1.452-1.451H5.84a.484.484 0 01-.484-.484v-.484h1.451zM24.71 5.355c0-.8-.652-1.452-1.452-1.452a1.452 1.452 0 101.452 1.452zm-1.936 0a.484.484 0 11.968 0 .484.484 0 01-.968 0zm4.355 1.451c-.8 0-1.452.652-1.452 1.452 0 .8.652 1.452 1.452 1.452.8 0 1.452-.652 1.452-1.452 0-.8-.652-1.452-1.452-1.452zm0 1.936a.484.484 0 110-.968.484.484 0 010 .968zm-4.267.702l3.873-5.806.805.537-3.873 5.806-.805-.537z" fill="#25549E"/><path d="M22.774 18.37H20.84c-.828 0-1.502.673-1.502 1.501v7.742c0 .828.674 1.502 1.502 1.502h1.935c.828 0 1.502-.674 1.502-1.502V19.87c0-.828-.674-1.502-1.502-1.502zm.434 9.243c0 .24-.194.434-.434.434H20.84a.434.434 0 01-.434-.434V19.87c0-.24.194-.434.434-.434h1.935c.24 0 .434.194.434.434v7.742zm-6.24-3.437h-1.936c-.828 0-1.501.674-1.501 1.501v1.936c0 .828.673 1.502 1.501 1.502h1.936c.828 0 1.501-.674 1.501-1.502v-1.936c0-.828-.673-1.501-1.501-1.501zm.434 3.437c0 .24-.195.434-.434.434h-1.936a.434.434 0 01-.434-.434v-1.936c0-.24.195-.433.434-.433h1.936c.24 0 .434.194.434.433v1.936zm-.434-9.243h-1.936c-.828 0-1.501.673-1.501 1.501v1.935c0 .828.673 1.502 1.501 1.502h1.936c.828 0 1.501-.674 1.501-1.502v-1.935c0-.828-.673-1.502-1.501-1.502zm.434 3.436c0 .24-.195.434-.434.434h-1.936a.434.434 0 01-.434-.434v-1.935c0-.24.195-.434.434-.434h1.936c.24 0 .434.194.434.434v1.935zm-.434-9.243h-1.936c-.828 0-1.501.674-1.501 1.502V16c0 .828.673 1.502 1.501 1.502h1.936c.828 0 1.501-.674 1.501-1.502v-1.935c0-.828-.673-1.502-1.501-1.502zM17.402 16c0 .24-.195.434-.434.434h-1.936a.434.434 0 01-.434-.434v-1.935c0-.24.195-.434.434-.434h1.936c.24 0 .434.194.434.434V16zm-6.241-3.437H9.226c-.828 0-1.502.674-1.502 1.502V16c0 .828.674 1.502 1.502 1.502h1.935c.828 0 1.502-.674 1.502-1.502v-1.935c0-.828-.674-1.502-1.502-1.502zM11.595 16c0 .24-.194.434-.434.434H9.226A.434.434 0 018.792 16v-1.935c0-.24.194-.434.434-.434h1.935c.24 0 .434.194.434.434V16zm7.742-1.935V16c0 .828.674 1.502 1.502 1.502h1.935c.828 0 1.502-.674 1.502-1.502v-1.935c0-.828-.674-1.502-1.502-1.502H20.84c-.828 0-1.502.674-1.502 1.502zm3.871 0V16c0 .24-.194.434-.434.434H20.84a.434.434 0 01-.434-.434v-1.935c0-.24.194-.434.434-.434h1.935c.24 0 .434.194.434.434z" fill="#25549E" stroke="#25549E" stroke-width=".1"/><path d="M31.05 6.806A5.863 5.863 0 0025.193.95H8.259a2.472 2.472 0 00-2.47 2.47v16.914A5.378 5.378 0 00.95 25.677a5.379 5.379 0 005.373 5.373h17.419a2.472 2.472 0 002.47-2.47V12.568c2.744-.483 4.838-2.879 4.838-5.76zM2.018 25.677a4.31 4.31 0 014.305-4.304 4.31 4.31 0 014.304 4.304 4.31 4.31 0 01-4.304 4.305 4.31 4.31 0 01-4.305-4.305zm6.774-4.765V19.87c0-.24.194-.434.434-.434h1.935c.24 0 .434.194.434.434v1.936a.433.433 0 01-.434.433h-.712a5.416 5.416 0 00-1.657-1.328zm16.352 7.669c0 .772-.63 1.401-1.402 1.401H9.528a5.365 5.365 0 002.167-4.305 5.34 5.34 0 00-.556-2.369h.022c.828 0 1.502-.674 1.502-1.502v-1.935c0-.828-.674-1.502-1.502-1.502H9.226c-.828 0-1.502.674-1.502 1.502v.624a5.371 5.371 0 00-.868-.161V3.419c0-.772.63-1.401 1.402-1.401H21.83a5.94 5.94 0 00-.973.867H8.742a1.02 1.02 0 00-1.018 1.018V9.71c0 .561.457 1.017 1.018 1.017h12.114a5.837 5.837 0 004.287 1.936V28.58zM8.791 3.953h11.294a5.81 5.81 0 000 5.707H8.792V3.953zm16.401 7.642a4.794 4.794 0 01-4.788-4.789 4.794 4.794 0 014.788-4.788 4.794 4.794 0 014.79 4.788 4.794 4.794 0 01-4.79 4.79z" fill="#25549E" stroke="#25549E" stroke-width=".1"/></svg>