<svg width="26" height="26" fill="none" xmlns="http://www.w3.org/2000/svg"><path d="M13 0C5.832 0 0 5.832 0 13s5.832 13 13 13 13-5.832 13-13S20.168 0 13 0zm0 24.478c-6.329 0-11.478-5.15-11.478-11.478C1.522 6.671 6.672 1.522 13 1.522c6.329 0 11.478 5.15 11.478 11.478 0 6.329-5.15 11.478-11.478 11.478z" fill="#fff"/><path d="M13 8.728A4.277 4.277 0 008.728 13 4.277 4.277 0 0013 17.272 4.277 4.277 0 0017.272 13 4.277 4.277 0 0013 8.728zm0 7.022A2.753 2.753 0 0110.25 13 2.753 2.753 0 0113 10.25 2.753 2.753 0 0115.75 13 2.753 2.753 0 0113 15.75z" fill="#fff"/><path d="M12.232 12.239h1.536v1.522h-1.536v-1.522zm2.141-9.334A10.265 10.265 0 0013 2.813v1.522c.39 0 .784.026 1.169.079l.204-1.509zm1.304.265l-.4 1.468A8.686 8.686 0 0121.665 13h1.522c0-4.582-3.088-8.625-7.51-9.83zm-4.05 19.925c.452.061.914.092 1.373.092v-1.522a8.72 8.72 0 01-1.169-.079l-.204 1.509zM4.335 13H2.813c0 4.582 3.088 8.625 7.51 9.83l.4-1.468A8.686 8.686 0 014.335 13z" fill="#fff"/><path d="M7.248 13H5.726c0 4.011 3.263 7.274 7.274 7.274v-1.522A5.758 5.758 0 017.248 13zM13 5.726v1.522A5.759 5.759 0 0118.752 13h1.522c0-4.011-3.263-7.274-7.274-7.274z" fill="#fff"/></svg>