<svg width="22" height="28" fill="none" xmlns="http://www.w3.org/2000/svg"><path fill-rule="evenodd" clip-rule="evenodd" d="M13.712 5.68h-.811v-.147c.228 0 .355-.049.253-.22-.152-.294.507-.27.609-.22.152.122.05.44-.051.587zm-1.115.196h.988c-.101.172-.405.71-.608.71-.101-.122-.355-.465-.38-.71zm3.193-1.151a.369.369 0 01-.152.049c-.304.416-.127.367-.684.735 0 .71.025.784.203 1.42v.05c0 .024-.026.024-.026.024-.126.025-.33.074-.43.098 0 .025.05.417 0 .735-.102.466-1.268 1.495-1.521 1.568-.38.074-.811-.245-1.496-.539-.177-.073-.81-.465-1.14-.588-.279-.098-.533.54-.203.71.152.074.405.197.482.393.228.588-.026 2.842-.507 3.283-.229 0-.431-.196-.583-.147-.304.171-.102 1.053 0 1.2 1.85 1.838 1.647 3.21 2.433 4.239.355 0 .127.368.405.809.077.22-.025.588-.05.735v.563a.444.444 0 00-.051.171v.49c-.05.246-.127.564-.177.785-.102.465.304.833.05 1.274 0 .27 0 .22-.177.44 0 .417-.101 1.324 0 1.642.076.22.887 1.152 1.115 1.25.507.22 1.242.171.989.93-1.47.442-2.383-.244-3.169-.244l-.025.122c-.507 0-.887-.122-1.014-.147 0-.122.152-1.127.228-1.298.051-.074.102-.172.178-.245.05-.172-.05-1.421-.076-1.764-.304-.22-.38-.907-.38-1.274-.102-.294-.102-.637-.102-1.005 0-.171-.127-.44-.05-.662.05-.146.228-.22.253-.343v-.416c.076-.441.05-.637-.228-.907-.685 0-.786.05-1.14-.514-.127-.172-1.065-1.642-1.167-1.666-.785-.343-.633-.196-.988-.809-.025 0-.228.074-.406.343-.278.417-.785 1.74-.937 2.206-.077.269 0 .538-.127.759-.076.147-.38.196-.431.319-.279.49-.076.44-.608.784-.102.122-.102.293-.178.44-.05.05-.076.099-.127.172-.1.196.102.515.051.637-.101.294-.203.613-.33.882-.253.564-.202 1.299-.456 1.642-.126.171-.43 0-.659.147-.025.122-.38.906-.456 1.127v1.274c.076.22.254.416.203.686-.05.294-1.09.294-1.647.196-.38-.05-.482-.319-.482-.637 0-.368.76-2.744.735-2.891-.583-.637.152-1.274.38-1.862.102-.294.05-.686.152-.956.203-.367.406-.71.609-1.078.38-.343.202-.367.405-.662.178-.269.38-.44.254-.857-.254-.808.278-1.96.33-2.818-.102-.098-.406-.073-.457-.318-.076-.54.203-1.47.38-1.544.076-.049.177 0 .228-.049 0-.392-.405-2.597-.101-2.72.203-.073.633-.097.71-.146 0-.098-.077-.294-.153-.294-.126-.025-.405-.074-.633-.123-.685-.147-.051-2.744-.051-2.768.177-.245 1.065.073 1.166-.319.279-.367-.228-1.74.76-3.454.33-.564.989-1.152 1.724-.907.253.074.101.441.532.049 0-.22-.101-.392-.152-.588C6.083.437 8.567-.715 10.316.486c.202.073.304.122.456.22.101.49.583 1.323.101 1.887a2.236 2.236 0 00-.608.245c0 .196.025.368.05.49.026.098.102.147-.075.22-.026 0 0 .074 0 .099.405.073.836-.074 1.115-.172h.33v-.392h.151v-.319h.152v.54h.406v.171h6.007v.294h.253V2.666h.229v.907h.506v.515h1.597V3.94h.254v.073H22v.417h-.76v.073h-.254v-.147H19.39v.147h-.71v-.098h-.303v.319H15.79z" fill="#2B7BFB"/></svg>