<svg width="60" height="25" fill="none" xmlns="http://www.w3.org/2000/svg"><path fill-rule="evenodd" clip-rule="evenodd" d="M57.994 11.738h-6.027c-1.081 0-1.978.867-1.978 1.912v5.004c0 1.045.897 1.912 1.978 1.912h6.027c1.081 0 1.978-.867 1.978-1.912V13.65c0-1.045-.897-1.912-1.978-1.912zM35.887 5.155h-.736v-.133c.207 0 .322-.045.23-.2-.138-.267.46-.245.552-.2.138.11.046.4-.046.533zm-1.012.178h.897c-.092.156-.368.645-.552.645-.092-.111-.322-.422-.345-.645zm17.138 8.317h5.958v5.004h-5.958V13.65zm-12.238 0h8.281c0-1.045-.897-1.912-1.978-1.912h-6.373c-1.08 0-1.978.867-1.978 1.912v5.004c0 1.045.897 1.912 1.979 1.912h6.372c1.08 0 1.978-.867 1.978-1.912v-3.292H41.34c0 .823.69 1.468 1.518 1.468h3.313v1.824h-6.395V13.65zm-25.88 0h7.913c0-1.045-.897-1.912-1.978-1.912h-6.12c-1.08 0-1.978.867-1.978 1.912v1.557c0 1.045.897 1.912 1.979 1.912h6.142v1.557h-8.12c0 1.045.896 1.912 1.978 1.912h6.326c1.081 0 1.978-.867 1.978-1.912v-1.557c0-1.045-.897-1.912-1.978-1.912h-6.142V13.65zm-11.388 0h7.477c0-1.045-.897-1.912-1.978-1.912H1.978C.898 11.738 0 12.605 0 13.65v5.004c0 1.045.897 1.912 1.978 1.912h6.028c1.08 0 1.978-.867 1.978-1.912H2.507V13.65zm35.266-9.362c-.046.022-.092.045-.138.045-.276.378-.115.333-.621.667 0 .645.023.711.184 1.29v.044c0 .022-.023.022-.023.022a8.735 8.735 0 00-.391.09c0 .021.046.377 0 .666-.092.423-1.15 1.357-1.38 1.424-.345.066-.736-.223-1.358-.49-.16-.066-.736-.422-1.035-.533-.253-.09-.483.489-.184.644.138.067.368.178.437.356.207.534-.023 2.58-.46 2.98-.207 0-.39-.178-.529-.133-.276.155-.092.956 0 1.09 1.68 1.667 1.495 2.912 2.209 3.846.322 0 .114.334.368.734.069.2-.023.534-.046.667v.512a.402.402 0 00-.046.155v.445c-.046.223-.115.512-.161.712-.092.422.276.756.046 1.156 0 .245 0 .2-.162.4 0 .378-.091 1.201 0 1.49.07.2.806 1.046 1.013 1.134.46.2 1.127.156.897.846-1.334.4-2.163-.223-2.876-.223l-.023.111c-.46 0-.805-.11-.92-.133 0-.111.138-1.023.207-1.179.046-.066.092-.155.161-.222.046-.156-.046-1.29-.069-1.601-.276-.2-.345-.823-.345-1.157-.092-.266-.092-.578-.092-.911 0-.156-.115-.4-.046-.6.046-.134.207-.2.23-.312v-.378c.07-.4.046-.578-.207-.823-.621 0-.713.045-1.035-.467-.115-.155-.966-1.49-1.058-1.512-.713-.311-.575-.178-.897-.734-.023 0-.207.067-.368.311-.254.379-.714 1.58-.852 2.002-.069.244 0 .49-.115.69-.069.133-.345.177-.39.288-.254.445-.07.4-.553.712-.092.111-.092.267-.16.4-.047.045-.07.09-.116.156-.092.178.092.467.046.578-.092.267-.184.556-.299.8-.23.512-.184 1.18-.414 1.49-.115.156-.391 0-.598.134-.023.111-.345.823-.414 1.023v1.156c.069.2.23.378.184.623-.046.267-.99.267-1.495.178-.346-.045-.438-.29-.438-.578 0-.334.69-2.491.668-2.624-.53-.579.138-1.157.345-1.69.092-.267.046-.623.138-.868.184-.333.368-.645.552-.978.345-.311.184-.334.368-.6.16-.245.345-.4.23-.779-.23-.734.253-1.779.299-2.557-.092-.09-.368-.067-.414-.29-.07-.489.184-1.334.345-1.4.069-.045.16 0 .207-.045 0-.356-.368-2.357-.092-2.468.184-.067.575-.09.644-.134 0-.088-.069-.266-.138-.266-.115-.023-.368-.067-.575-.112-.621-.133-.046-2.49-.046-2.512.161-.223.966.066 1.058-.29.253-.333-.207-1.578.69-3.135.3-.511.897-1.045 1.565-.823.23.067.092.4.483.045 0-.2-.092-.356-.138-.534C28.962.397 31.217-.649 32.804.441c.184.067.276.111.414.2.092.445.53 1.201.092 1.712a2.03 2.03 0 00-.552.223c0 .178.023.333.046.445.023.089.092.133-.069.2-.023 0 0 .066 0 .089.368.066.76-.067 1.012-.156h.3v-.356h.138V2.51h.137V3h.369v.155h5.452v.267h.23v-1h.207v.822h.46v.467h1.449v-.133h.23v.066h.69v.378h-.69v.067h-.23v-.133h-1.45v.133h-.643V4h-.276v.29h-2.347z" fill="#2B7BFB"/></svg>