<svg width="26" height="26" fill="none" xmlns="http://www.w3.org/2000/svg"><path d="M21.125 1.625V.812A.812.812 0 0020.312 0H5.688a.812.812 0 00-.812.813v.812H0v4.374a10.17 10.17 0 005.887 9.22 8.107 8.107 0 004.676 3.866v.821a1.22 1.22 0 01-1.22 1.219A2.847 2.847 0 006.5 23.969v1.218c0 .45.363.813.813.813h11.375a.812.812 0 00.812-.813V23.97a2.847 2.847 0 00-2.844-2.844 1.22 1.22 0 01-1.218-1.219v-.82a8.106 8.106 0 004.675-3.867A10.171 10.171 0 0026 6V1.625h-4.875zm-19.5 4.374V3.25h3.25v8.125c0 .49.061.966.145 1.432A8.546 8.546 0 011.625 6zM16.656 22.75a1.22 1.22 0 011.219 1.219v.406h-9.75v-.406a1.22 1.22 0 011.219-1.219 2.847 2.847 0 002.844-2.844v-.488c.27.027.534.082.812.082s.541-.055.813-.082v.488a2.847 2.847 0 002.843 2.844zM13 17.875a6.507 6.507 0 01-6.5-6.5v-9.75h13v9.75c0 3.584-2.916 6.5-6.5 6.5zM24.375 5.999a8.546 8.546 0 01-3.395 6.808c.084-.466.145-.942.145-1.432V3.25h3.25V6z" fill="#fff"/></svg>