<svg width="27" height="27" fill="none" xmlns="http://www.w3.org/2000/svg"><path d="M13.5 0C6.044 0 0 6.044 0 13.5S6.044 27 13.5 27 27 20.956 27 13.5C26.992 6.048 20.952.008 13.5 0zm.482 3.892l4.693-1.876c.533.241 1.048.519 1.542.831l.012.008c.486.308.95.648 1.39 1.019l.037.033c.197.167.389.341.575.52l.072.069c.195.19.384.387.567.59l.045.052a12.198 12.198 0 01.572.69c.163.211.32.426.469.647l-.936 3.977-4.603 1.534-4.434-3.548-.001-4.546zm-10.47 1.94c.035-.045.07-.09.107-.135.148-.188.301-.371.46-.55a12.233 12.233 0 01.615-.647c.022-.022.044-.045.068-.065.185-.178.375-.351.57-.518l.045-.038a12.72 12.72 0 011.376-1.012l.018-.012a12.64 12.64 0 011.532-.83l4.715 1.867v4.545l-4.434 3.547-4.603-1.531-.936-3.977c.15-.221.306-.435.467-.644zM2.97 20.405a12.526 12.526 0 01-.38-.616l-.029-.05a11.83 11.83 0 01-.34-.636l-.004-.007a12.532 12.532 0 01-.593-1.395v-.004c-.08-.225-.152-.456-.22-.688l-.024-.085a12.423 12.423 0 01-.168-.66l-.014-.064a12.53 12.53 0 01-.238-1.525l2.747-3.296 4.571 1.523 1.327 5.307-2.18 2.9-4.455-.704zm13.527 5.332c-.225.056-.456.104-.687.147l-.098.018a11.29 11.29 0 01-.595.09l-.159.02c-.184.021-.371.038-.558.051l-.176.014a11.798 11.798 0 01-1.388.005c-.026 0-.052-.004-.079-.006-.195-.011-.39-.026-.585-.045l-.022-.004a12.85 12.85 0 01-1.269-.202L8.22 21.657l2.146-2.86h6.27l2.18 2.879-2.318 4.06zm9.309-9.537l-.015.064c-.05.222-.106.442-.168.66l-.024.086c-.067.232-.14.461-.22.687v.005c-.17.476-.367.942-.593 1.395l-.004.006a12.47 12.47 0 01-.34.636l-.03.05c-.12.21-.246.415-.378.616l-4.44.7-2.195-2.898 1.326-5.305 4.571-1.524 2.747 3.297a12.506 12.506 0 01-.237 1.525z" fill="#25549E"/></svg>