<svg width="27" height="27" fill="none" xmlns="http://www.w3.org/2000/svg"><path d="M12.926 0h-2.354v22.472h2.354V0zM7.04 0H4.687v22.472h2.355V0z" fill="#25549E"/><path d="M3.885 26.996H1.059l4.025-5.765 1.957 1.248-3.156 4.517zm18.392 0h-2.825l4.723-6.761H27l-4.723 6.761z" fill="#25549E"/><path d="M24.306 22.474V20.23H10.572v2.244h13.736zM4.686 5.211L1.376 0h11.55v2.244h-8.24v2.967zm17.049 21.786v-2.245H2.747v2.245h18.988zM15.28 4.826s4.62.771 7.019 5.092c2.398 4.32.581 8.087.581 8.087h2.501s1.95-4.202-1.17-9.483c-3.119-5.282-8.93-6.004-8.93-6.004v2.308zM2.332 7.589v14.112S0 19.204 0 14.406C0 9.61 2.332 7.59 2.332 7.59z" fill="#25549E"/></svg>