<svg width="27" height="27" fill="none" xmlns="http://www.w3.org/2000/svg"><g clip-path="url(#clip0)" fill="#274E8C"><path d="M11.039 17.7a1.666 1.666 0 001.616 1.268c.917 0 1.663-.746 1.663-1.663 0-.918-.746-1.664-1.663-1.664-.781 0-1.438.541-1.616 1.268h-.525v-.948a1.666 1.666 0 001.268-1.616c0-.917-.746-1.663-1.664-1.663-.917 0-1.663.746-1.663 1.663 0 .781.54 1.438 1.268 1.616v.948h-.525a1.666 1.666 0 00-1.616-1.268c-.917 0-1.664.746-1.664 1.664 0 .917.747 1.663 1.664 1.663.781 0 1.438-.541 1.616-1.268h.525v.763l-1.212 2.02a.395.395 0 00.34.599h2.535a.396.396 0 00.34-.6l-1.212-2.019V17.7h.525zm1.616-1.268a.874.874 0 010 1.745.874.874 0 010-1.745zm-3.41-2.087a.874.874 0 011.746 0 .874.874 0 01-1.745 0zm-1.663 3.832a.874.874 0 010-1.745.874.874 0 010 1.745zm1.967 2.114l.57-.95.569.95h-1.14z"/><path d="M16.882 0c-2.236 0-4.355.714-6.128 2.066a10.196 10.196 0 00-3.561 5.13C3.036 8.452 0 12.318 0 16.881 0 22.46 4.539 27 10.118 27c4.563 0 8.429-3.035 9.687-7.193a10.195 10.195 0 005.112-3.54A10.025 10.025 0 0027 10.119C27 4.54 22.461 0 16.882 0zm6.937 3.89a9.33 9.33 0 011.927 3.326 2.969 2.969 0 01-1.572-1.315 2.97 2.97 0 01-.355-2.01zM16.882.792c.658 0 1.3.069 1.92.2a2.97 2.97 0 01-1.92.7 2.97 2.97 0 01-1.924-.703 9.42 9.42 0 011.924-.197zM9.937 3.896c.12.684 0 1.39-.356 2.005a3.071 3.071 0 01-.883.963c-.2.028-.4.062-.597.102a9.404 9.404 0 011.836-3.07zm.181 3.659a9.35 9.35 0 011.921.199 2.97 2.97 0 01-1.92.7c-.714 0-1.389-.25-1.922-.7.62-.13 1.263-.2 1.921-.2zm-6.944 3.107a2.97 2.97 0 01-.356 2.002 2.968 2.968 0 01-1.563 1.312 9.331 9.331 0 011.919-3.314zm0 12.44a9.33 9.33 0 01-1.919-3.315A2.969 2.969 0 012.818 21.1a2.97 2.97 0 01.356 2.002zm6.944 3.107c-.66 0-1.305-.07-1.928-.2a2.97 2.97 0 011.92-.7c.714 0 1.389.251 1.923.702a9.334 9.334 0 01-1.915.198zm6.938-3.1a2.97 2.97 0 01.354-2.01 2.968 2.968 0 011.573-1.315 9.332 9.332 0 01-1.927 3.325zm2.17-4.215a3.756 3.756 0 00-2.5 1.81 3.758 3.758 0 00-.32 3.061 9.33 9.33 0 01-3.48 2.012 3.756 3.756 0 00-2.816-1.259 3.758 3.758 0 00-2.812 1.255 9.332 9.332 0 01-3.474-2.014 3.758 3.758 0 00-.321-3.055 3.757 3.757 0 00-2.492-1.808 9.32 9.32 0 010-4.029 3.757 3.757 0 002.492-1.807c.54-.935.653-2.036.321-3.055a9.33 9.33 0 013.48-2.016 3.757 3.757 0 002.814 1.256 3.758 3.758 0 002.814-1.256 9.33 9.33 0 013.474 2.01 3.758 3.758 0 00.32 3.061 3.757 3.757 0 002.5 1.81 9.33 9.33 0 010 4.024zm-.376-7.119a10.194 10.194 0 00-3.625-3.625l1.657-1.657 3.625 3.625-1.657 1.657zm.133 2.205a2.968 2.968 0 01-1.573-1.316 2.97 2.97 0 01-.354-2.01 9.332 9.332 0 011.927 3.326zm5.306 1.807a9.25 9.25 0 01-.469.564 2.97 2.97 0 01.354-2.015 2.968 2.968 0 011.578-1.318 9.275 9.275 0 01-1.462 2.769zm-.8-1.847a3.759 3.759 0 00-.319 3.064 9.407 9.407 0 01-3.136 1.894 10.131 10.131 0 00.162-2.915 6.736 6.736 0 00-3.314-12.601c-1.8 0-3.491.7-4.764 1.973a.396.396 0 00.56.56 5.907 5.907 0 014.204-1.742 5.945 5.945 0 013.202 10.955 10.039 10.039 0 00-.844-2.624l2.106-2.106a.395.395 0 000-.56l-4.184-4.184a.396.396 0 00-.56 0L14.496 7.76a10.058 10.058 0 00-4.378-.996c-.057 0-.115 0-.172.002a3.758 3.758 0 00.64-3.529 9.27 9.27 0 013.478-2.016 3.757 3.757 0 002.818 1.261 3.759 3.759 0 002.813-1.257 9.33 9.33 0 013.474 2.01 3.759 3.759 0 00.32 3.061 3.757 3.757 0 002.5 1.81 9.408 9.408 0 01.003 4.024 3.757 3.757 0 00-2.503 1.81z"/><path d="M10.118 10.145a6.744 6.744 0 00-6.736 6.737 6.744 6.744 0 006.736 6.736 6.744 6.744 0 006.737-6.736c0-1.484-.48-2.895-1.386-4.081a.396.396 0 00-.628.48 5.886 5.886 0 011.223 3.6 5.952 5.952 0 01-5.946 5.946 5.952 5.952 0 01-5.945-5.945 5.952 5.952 0 015.945-5.946c1.309 0 2.554.423 3.601 1.223a.395.395 0 10.48-.628 6.672 6.672 0 00-4.08-1.386z"/></g><defs><clipPath id="clip0"><path fill="#fff" d="M0 0h27v27H0z"/></clipPath></defs></svg>