<svg width="8" height="8" fill="none" xmlns="http://www.w3.org/2000/svg"><path d="M4.251 8h-.502a.737.737 0 01-.737-.736v-.17a3.23 3.23 0 01-.501-.208l-.12.12a.736.736 0 01-1.042 0L.994 6.65a.736.736 0 010-1.042l.12-.12a3.23 3.23 0 01-.208-.502h-.17A.737.737 0 010 4.252V3.75c0-.406.33-.736.736-.736h.17a3.23 3.23 0 01.208-.502l-.12-.12a.736.736 0 010-1.042L1.35.994a.736.736 0 011.042 0l.12.12c.161-.083.329-.153.502-.208v-.17c0-.406.33-.736.736-.736h.502c.406 0 .736.33.736.736v.17c.173.055.34.125.502.208l.12-.12a.736.736 0 011.042 0l.355.355a.736.736 0 010 1.042l-.12.12c.083.161.153.329.208.502h.17c.406 0 .736.33.736.736v.502c0 .406-.33.736-.736.736h-.17a3.23 3.23 0 01-.208.502l.12.12a.736.736 0 010 1.042l-.355.355a.736.736 0 01-1.042 0l-.12-.12a3.233 3.233 0 01-.502.208v.17c0 .406-.33.736-.736.736zM2.589 6.393c.224.133.465.233.716.298.104.026.176.12.176.226v.347c0 .147.12.267.268.267h.502c.148 0 .268-.12.268-.267v-.347c0-.106.072-.2.176-.226.25-.065.492-.165.716-.298a.234.234 0 01.285.036l.245.245a.268.268 0 00.378 0l.355-.355a.268.268 0 000-.378l-.245-.245a.234.234 0 01-.036-.285c.133-.224.233-.465.298-.716a.234.234 0 01.227-.176h.346c.147 0 .267-.12.267-.268V3.75a.268.268 0 00-.267-.268h-.346a.234.234 0 01-.227-.176 2.763 2.763 0 00-.298-.716.234.234 0 01.036-.285l.245-.245a.268.268 0 000-.378l-.355-.355a.268.268 0 00-.378 0l-.245.245a.234.234 0 01-.285.036 2.763 2.763 0 00-.716-.298.234.234 0 01-.176-.226V.736A.268.268 0 004.25.47h-.5a.268.268 0 00-.268.267v.347c0 .106-.072.2-.176.226a2.763 2.763 0 00-.716.298.234.234 0 01-.285-.036l-.245-.245a.268.268 0 00-.378 0l-.355.355a.268.268 0 000 .378l.245.245c.075.076.09.193.036.285a2.762 2.762 0 00-.298.716.234.234 0 01-.226.176H.736a.268.268 0 00-.267.268v.502c0 .148.12.268.267.268h.347c.106 0 .2.072.226.176.065.25.165.492.298.716a.235.235 0 01-.036.285l-.245.245a.268.268 0 000 .378l.355.355a.268.268 0 00.378 0l.245-.245a.235.235 0 01.285-.036z" fill="#2B7BFB"/><path d="M4 5.74a1.741 1.741 0 010-3.48 1.741 1.741 0 010 3.48zm0-3.012c-.701 0-1.272.57-1.272 1.272 0 .701.57 1.272 1.272 1.272.701 0 1.272-.57 1.272-1.272 0-.701-.57-1.272-1.272-1.272z" fill="#2B7BFB"/></svg>