<svg width="85" height="29" fill="none" xmlns="http://www.w3.org/2000/svg"><path d="M.01 28.088v-6.502h4.712c1.029 0 1.687.021 1.986.052.586.062 1.008.216 1.286.453.298.257.483.658.576 1.224.041.267.072.74.072 1.41 0 .863-.041 1.46-.113 1.79-.103.452-.278.792-.515 1.008-.164.154-.36.257-.596.34a4.426 4.426 0 01-.947.164c-.308.03-.895.04-1.749.04H0l.01.021zm1.965-1.656h2.778c.566 0 .988-.02 1.266-.062.308-.051.504-.226.586-.514.062-.206.093-.545.093-.998 0-.483-.031-.843-.093-1.07a.659.659 0 00-.525-.514c-.216-.052-.658-.072-1.337-.072H1.986v3.23h-.01zm7.459 1.656v-6.502h4.815c1.142 0 1.81.01 2.017.031.236.02.442.093.638.206.195.113.339.257.442.432.113.185.175.38.195.587a6.9 6.9 0 01.041.864c0 .535-.04.905-.113 1.11-.113.31-.329.526-.638.65a2.28 2.28 0 01-.473.112c.422.031.72.155.906.36a.877.877 0 01.175.32c.03.123.061.287.072.524v1.327h-1.976v-.35c0-.39-.02-.668-.051-.833-.052-.237-.185-.38-.391-.432-.134-.031-.422-.041-.864-.041H11.43v1.656H9.434v-.02zm1.996-3.271h2.799c.421-.01.668-.01.74-.02.278-.021.463-.104.535-.258.052-.103.083-.288.083-.555 0-.227-.021-.391-.072-.494-.072-.155-.227-.247-.484-.268-.093-.01-.36-.01-.802-.01H11.43v1.605zm6.842-3.23h7.232v1.532h-5.278v.937h5.02v1.44h-5.02v1.029h5.33v1.564h-7.284v-6.502z" fill="#FEFEFE"/><path d="M33.271 28.088l-.565-1.09h-4.332l-.555 1.09h-2.274l3.467-6.502h3.097l3.426 6.503H33.27zm-1.255-2.52l-1.265-2.47h-.401l-1.266 2.47h2.932zm3.818-3.981h3.61l1.945 4.218 1.944-4.218h3.601v6.502H44.97l.041-4.877h-.319l-2.469 4.877h-1.656l-2.47-4.877h-.339l.041 4.877h-1.965v-6.502zm12.016 0h2.088V23.9h4.496v-2.314h2.099v6.502h-2.1v-2.367h-4.495v2.366h-2.089v-6.502zm16.697 6.501l-.566-1.09H59.65l-.566 1.09H56.81l3.467-6.502h3.097L66.8 28.09h-2.263.01zm-1.265-2.52l-1.256-2.47h-.4l-1.256 2.47h2.922-.01zm9.968.01h1.996c.01.32.02.535.02.648 0 .474-.071.854-.225 1.132-.155.298-.453.504-.895.628-.484.133-1.317.195-2.5.195-1.307 0-2.181-.02-2.634-.062a4.871 4.871 0 01-.998-.164 1.566 1.566 0 01-.607-.33c-.216-.195-.35-.452-.412-.781-.061-.34-.092-.998-.092-1.965 0-.926.02-1.554.072-1.883.072-.484.257-.833.566-1.06.236-.164.617-.277 1.131-.35.535-.072 1.502-.102 2.891-.102.823 0 1.42.02 1.77.051.535.052.915.154 1.162.309.299.185.494.463.566.812.062.258.082.546.082.885v.38h-1.995c-.01-.164-.01-.267-.021-.328-.03-.196-.113-.32-.267-.37-.227-.073-.844-.114-1.852-.114-.69 0-1.163.02-1.43.062-.32.041-.515.216-.597.514-.062.247-.093.638-.093 1.183 0 .556.031.947.093 1.153.072.277.288.432.628.483.277.031.771.052 1.481.052.761 0 1.286-.021 1.564-.052.257-.03.432-.123.494-.278.061-.133.092-.35.092-.648h.01zm2.697-3.991h1.995v2.366h1.09l2.583-2.408h3.056l-3.786 3.23 4.105 3.314h-3.035l-2.922-2.49h-1.09v2.49h-1.996v-6.502z" fill="#FEFEFE"/><path d="M22.345 2.358c-.195.278-.205.237-.267.103l-.268-.669c-.051-.144-.072-.164.165-.452l.874-1.09c.206-.279.278-.31.299-.166l.134.7c.03.144-.01.247-.186.504l-.74 1.06-.01.01zm.762 1.564c-.144.257-.154.226-.226.093l-.36-.638c-.073-.134-.093-.165.082-.432l.668-1.05c.165-.267.216-.298.258-.154l.216.679c.051.134.02.236-.103.483l-.535 1.009v.01zm11.873 9.321c.256.165.215.144 0 .051l-.999-.442a1.717 1.717 0 01-.473-.288l-.844-.68c-.205-.174-.216-.195-.04-.102l.853.473c.185.093.278.165.515.33l.977.648.01.01zm-2.521-1.183c.206.175.165.154-.03.061l-.906-.473c-.185-.103-.226-.123-.391-.308l-.628-.741c-.154-.185-.154-.216 0-.103l.762.504c.164.103.247.175.432.35l.761.7v.01zm-2.294-1.358c.144.195.113.164-.062.062l-.813-.494c-.164-.103-.206-.124-.308-.33l-.402-.792c-.092-.206-.092-.226.042-.113l.668.535c.144.113.206.185.34.37l.545.751-.01.01zm-1.852-1.214c.082.206.062.175-.093.072l-.72-.525c-.144-.113-.185-.134-.236-.35l-.186-.843c-.04-.216-.03-.247.093-.124l.576.566c.123.113.165.196.247.401l.33.813-.011-.01zm-1.626-1.286c.031.216.01.195-.134.082l-.627-.556c-.124-.113-.165-.144-.154-.37l.03-.895c.01-.226.031-.257.134-.134l.494.587c.103.123.134.205.154.422l.113.864h-.01zm-1.409-1.358c-.031.236-.041.205-.165.082l-.535-.586c-.103-.124-.134-.144-.072-.391l.237-.947c.062-.236.092-.267.175-.144l.4.617c.093.124.093.216.073.443l-.103.915-.01.01zm-1.194-1.43c-.082.247-.103.216-.195.092l-.453-.617c-.093-.123-.113-.154 0-.412l.453-.997c.113-.247.154-.289.216-.145l.308.649c.072.133.062.226-.02.463l-.32.967h.011zm-8.95 5.072c-.319.308-.35.288-.607.195l-1.204-.422c-.247-.092-.329-.103.062-.432l1.471-1.275c.36-.32.514-.381.7-.278l.946.494c.206.102.155.205-.154.504l-1.224 1.214h.01zm2.911 1.008c-.226.288-.257.257-.525.175l-1.265-.401c-.257-.083-.34-.093-.052-.402l1.08-1.172c.268-.299.402-.35.608-.258l1.028.474c.216.092.196.195-.01.473l-.854 1.11h-.01zm25.051 5.546c.36.133.288.112-.072.06l-1.749-.256c-.36-.052-.442-.062-.761-.206l-1.214-.566c-.298-.144-.298-.175.02-.113l1.564.298c.33.062.484.113.823.247l1.39.525v.01zm-4.074-.639c.288.155.227.134-.133.083l-1.677-.278c-.34-.062-.432-.072-.669-.226l-.926-.638c-.226-.165-.206-.196.093-.124l1.491.33c.309.061.443.123.71.277l1.111.597v-.02zm-3.909-.689c.216.165.154.154-.185.093l-1.616-.299c-.329-.062-.411-.072-.576-.257l-.627-.72c-.155-.185-.124-.216.174-.144l1.41.35c.298.072.401.133.597.298l.813.669.01.01zm-3.745-.741c.134.185.083.175-.247.103l-1.543-.319c-.319-.072-.401-.082-.483-.278l-.309-.802c-.072-.206-.02-.237.247-.165l1.337.37c.278.073.36.145.484.34l.514.751zm-3.58-.791c.051.215 0 .195-.309.123l-1.47-.34c-.3-.072-.382-.082-.382-.309l.021-.884c0-.227.072-.268.33-.186l1.254.402c.268.082.32.154.37.37l.196.833-.01-.01zm-3.415-.845c-.042.237-.083.216-.381.144l-1.41-.36c-.288-.072-.37-.082-.277-.34l.36-.976c.092-.247.175-.299.422-.206l1.183.422c.247.082.277.164.247.4l-.144.927v-.01zm-3.242-.895c-.123.258-.164.237-.452.165l-1.338-.38c-.277-.083-.35-.093-.164-.371l.72-1.08c.175-.268.288-.32.514-.227l1.101.443c.237.092.237.175.113.432l-.494 1.018zm-10.874 2.51c-.38.33-.432.31-.823.258l-1.862-.237c-.38-.051-.504-.051-.041-.401l1.77-1.368c.432-.34.637-.422.956-.35l1.554.33c.329.071.277.164-.083.493l-1.47 1.286v-.01zm4.424.587c-.267.298-.319.278-.72.237l-1.904-.227c-.39-.051-.514-.051-.174-.37l1.296-1.245c.319-.309.494-.38.833-.319l1.605.309c.34.062.32.154.072.452l-1.008 1.163zm33.775 3.21c.412.113.33.103-.133.072l-2.181-.144c-.453-.03-.556-.03-.926-.165l-1.4-.514c-.35-.134-.329-.154.073-.113l1.985.195a4.6 4.6 0 01.988.196l1.584.463.01.01zm-5.123-.36c.33.134.247.123-.195.093l-2.14-.155c-.442-.03-.556-.041-.833-.185l-1.08-.597c-.268-.154-.237-.185.164-.144l1.934.206a2.5 2.5 0 01.875.226l1.275.546v.01zm-5.031-.401c.247.154.165.144-.267.113l-2.099-.165c-.432-.03-.545-.04-.74-.216l-.731-.69c-.185-.174-.134-.215.257-.164l1.872.227c.391.04.525.102.762.257l.956.627-.01.01zm-4.928-.422c.154.185.082.164-.35.134l-2.068-.175c-.421-.041-.534-.041-.637-.237l-.37-.782c-.093-.195-.021-.247.36-.195l1.82.247c.381.051.484.113.638.298l.607.72v-.01zM28.55 17.1c.061.207-.01.196-.433.155l-2.027-.195c-.421-.041-.524-.041-.524-.268l.01-.885c0-.226.103-.277.463-.216l1.77.258c.37.051.442.123.504.329l.226.823h.01zm-4.723-.493c-.041.237-.103.216-.525.175l-1.985-.206c-.412-.04-.525-.04-.412-.298l.422-.998c.103-.257.226-.309.576-.247l1.718.278c.36.062.401.133.37.37l-.164.926zm-4.63-.514c-.144.267-.205.247-.617.205l-1.944-.216c-.402-.04-.515-.051-.299-.329l.844-1.121c.206-.278.36-.34.7-.278l1.666.298c.35.062.36.144.226.412l-.576 1.039v-.01zm-14.681 3.59c-.442.35-.514.34-1.07.33l-2.654-.021c-.556 0-.72.01-.185-.37l2.057-1.462c.505-.37.782-.462 1.256-.442l2.294.124c.473.02.432.123.01.473l-1.708 1.368zm6.224.082c-.298.31-.38.299-.936.299l-2.654-.02c-.556 0-.71.01-.319-.33l1.502-1.306c.37-.33.607-.412 1.08-.392l2.315.114c.484.02.473.113.185.422l-1.173 1.213zm43.787.463c.463.103.36.093-.196.093l-2.654-.02c-.556 0-.69 0-1.09-.114l-1.575-.452c-.39-.114-.37-.144.134-.134l2.438.072c.515.01.72.051 1.163.154l1.79.401h-.01zm-6.277-.051c.381.123.279.113-.277.113l-2.665-.02c-.555 0-.689 0-1.008-.134l-1.224-.545c-.309-.145-.257-.175.247-.165l2.417.082c.505.02.69.052 1.05.186l1.45.483h.01zm-6.265-.062c.278.144.185.144-.37.134l-2.665-.02c-.555 0-.689 0-.915-.165l-.844-.648c-.206-.165-.134-.206.36-.196l2.407.082c.505.021.659.062.926.217l1.091.586.01.01zm-6.265-.072c.185.175.082.165-.463.165l-2.654-.02c-.556 0-.7 0-.813-.196l-.432-.762c-.103-.195-.01-.246.494-.226l2.386.093c.494.02.628.072.793.247l.7.689-.011.01zm-6.255-.061c.072.205-.02.195-.576.195l-2.654-.02c-.556 0-.7 0-.7-.217l.01-.884c0-.227.134-.289.628-.268l2.366.093c.494.02.587.082.659.288l.267.813zm-6.245-.072c-.041.236-.134.226-.69.226l-2.653-.02c-.556 0-.7 0-.577-.258l.474-1.018c.123-.258.277-.33.771-.299l2.346.103c.484.02.556.093.514.33l-.175.936h-.01zm-6.245-.073c-.175.268-.257.258-.803.258l-2.654-.02c-.555 0-.71.01-.453-.289l.978-1.163c.247-.288.442-.37.926-.35l2.325.114c.483.02.514.103.35.37l-.659 1.07-.01.01zm2.192-13.549c-.257.288-.278.268-.422.144l-.669-.566c-.133-.123-.185-.144.134-.442l1.173-1.183c.288-.299.39-.35.483-.216l.474.617c.103.124.051.226-.186.514l-.987 1.142v-.01zm1.687 1.327c-.185.268-.206.247-.36.134l-.751-.545c-.155-.113-.196-.134.03-.422l.875-1.111c.216-.278.298-.33.412-.206l.565.587c.124.123.093.216-.072.483l-.689 1.06-.01.02zm17.592 7.49c.309.144.258.134-.03.062l-1.348-.35a1.8 1.8 0 01-.607-.247l-1.03-.627c-.256-.165-.256-.186-.02-.103l1.194.39c.247.083.37.134.668.289l1.184.586h-.01zm-3.126-.885c.246.165.194.144-.073.062l-1.265-.38c-.258-.083-.32-.093-.525-.268l-.772-.69c-.185-.174-.185-.205.041-.113l1.101.422c.237.082.34.144.566.32l.936.647h-.01zm-2.923-.936c.175.175.134.165-.113.072l-1.183-.412c-.237-.082-.299-.102-.432-.288l-.515-.75c-.123-.196-.103-.227.103-.124l1.008.453c.216.092.299.154.463.34l.68.709h-.011zm-2.717-1.008c.114.195.073.175-.164.082l-1.09-.432c-.227-.093-.278-.113-.35-.319l-.247-.823c-.062-.206-.03-.247.154-.144l.916.483c.195.103.257.175.36.37l.422.783zm-2.52-1.07c.041.216 0 .195-.216.092l-1.008-.463c-.206-.092-.257-.113-.257-.339l.02-.895c.01-.226.052-.257.216-.154l.834.504c.175.103.216.185.257.4l.154.844v.01zm-2.304-1.132c-.031.237-.062.206-.258.113l-.925-.483c-.186-.103-.237-.124-.165-.37l.298-.968c.072-.247.134-.277.288-.175l.741.535c.154.114.175.196.144.422l-.123.916v.01zM22.757 8.88c-.103.258-.133.227-.308.124l-.844-.514c-.175-.103-.216-.124-.062-.391l.587-1.04c.144-.256.216-.298.35-.184l.648.565c.144.114.133.206.04.453l-.4.988h-.01z" fill="#F27135"/></svg>