<svg width="10" height="8" fill="none" xmlns="http://www.w3.org/2000/svg"><path d="M6.841 0c-1.28 0-2.324 1.052-2.334 2.35L3.054 4.466a1.666 1.666 0 00-1.064.24L0 3.888v2.235l1.177.481C1.347 7.4 2.047 8 2.877 8c.9 0 1.647-.704 1.729-1.6l2.237-1.662c1.284 0 2.328-1.058 2.328-2.37C9.17 1.062 8.125 0 6.84 0zM2.876 7.529c-.492 0-.915-.282-1.13-.692.209.081.42.17.628.254A1.006 1.006 0 003.7 6.518a1.037 1.037 0 00-.567-1.343L2.6 4.956a1.286 1.286 0 011.556 1.27c0 .724-.57 1.303-1.28 1.303zm3.967-3.573a1.576 1.576 0 01-1.566-1.588c0-.875.7-1.587 1.566-1.587.858 0 1.56.712 1.56 1.587 0 .882-.702 1.59-1.56 1.588z" fill="#fff"/><path d="M6.847 1.095A1.26 1.26 0 005.6 2.365c0 .702.557 1.27 1.248 1.27a1.26 1.26 0 001.249-1.27 1.26 1.26 0 00-1.249-1.27z" fill="#fff"/></svg>