<svg width="10" height="8" fill="none" xmlns="http://www.w3.org/2000/svg"><path d="M9.846.947c-.366.16-.756.267-1.163.319.419-.25.738-.643.888-1.116-.39.233-.82.397-1.28.489A2.018 2.018 0 004.8 2.019c0 .16.014.314.047.46A5.713 5.713 0 01.686.368a2.021 2.021 0 00.62 2.698 1.994 1.994 0 01-.912-.249v.022c0 .981.7 1.796 1.617 1.984a2.015 2.015 0 01-.53.066c-.128 0-.259-.007-.381-.034A2.038 2.038 0 002.986 6.26 4.056 4.056 0 010 7.094 5.683 5.683 0 003.097 8C6.81 8 8.842 4.923 8.842 2.256c0-.09-.003-.175-.008-.26.401-.285.738-.64 1.012-1.049z" fill="#fff"/></svg>