<svg width="19" height="10" viewBox="0 0 19 10" fill="none" xmlns="http://www.w3.org/2000/svg">
<path d="M17.2279 0.368958C16.4098 0.368958 15.7448 1.05106 15.7448 1.88896C15.7448 2.09264 15.7854 2.28685 15.8568 2.46475L11.4668 6.65264C11.2316 6.49159 10.9497 6.39685 10.6462 6.39685C10.4921 6.39685 10.3432 6.42264 10.2004 6.46896L8.79752 4.65738C8.90228 4.44633 8.9639 4.21475 8.9639 3.97106C8.9639 3.13317 8.2989 2.45106 7.48087 2.45106C6.66284 2.45106 5.99784 3.13317 5.99784 3.97106C5.99784 4.04791 6.01171 4.12159 6.02249 4.19633L2.48182 7.04212C2.25227 6.89317 1.98268 6.80317 1.691 6.80317C0.872977 6.80317 0.207977 7.48527 0.207977 8.32317C0.207977 9.16159 0.872977 9.8437 1.691 9.8437C2.50903 9.8437 3.17403 9.16159 3.17403 8.32317C3.17403 8.16843 3.14476 8.02159 3.10265 7.88106L6.52625 5.12948C6.53549 5.13738 6.54217 5.14791 6.55141 5.15527C6.81381 5.37212 7.144 5.49159 7.48138 5.49159C7.67755 5.49159 7.86806 5.45212 8.04419 5.37791L9.39319 7.12001C9.24941 7.35685 9.16314 7.62791 9.16314 7.91685C9.16314 8.75527 9.82814 9.43738 10.6462 9.43738C11.4637 9.43738 12.1292 8.75527 12.1292 7.91685C12.1292 7.77685 12.1045 7.64422 12.0701 7.5158L16.5562 3.23685C16.759 3.34369 16.985 3.40948 17.2284 3.40948C18.0459 3.40948 18.7114 2.72738 18.7114 1.88948C18.7114 1.05159 18.0459 0.368958 17.2279 0.368958ZM1.691 8.79001C1.43938 8.79001 1.235 8.58054 1.235 8.32212C1.235 8.06475 1.43938 7.85475 1.691 7.85475C1.94263 7.85475 2.147 8.06422 2.147 8.32212C2.14752 8.58054 1.94263 8.79001 1.691 8.79001ZM7.19587 4.33527C7.08752 4.24527 7.02487 4.11264 7.02487 3.97054C7.02487 3.71317 7.22925 3.50317 7.48087 3.50317C7.73249 3.50317 7.93687 3.71264 7.93687 3.97054C7.93687 4.09527 7.88963 4.21264 7.80387 4.30054C7.80387 4.30054 7.80387 4.30054 7.80387 4.30106C7.80387 4.30159 7.80387 4.30106 7.80336 4.30106C7.6226 4.48527 7.30473 4.42475 7.19587 4.33527ZM10.6462 8.38422C10.3945 8.38422 10.1902 8.17475 10.1902 7.91633C10.1902 7.77001 10.2549 7.6358 10.3689 7.5458C10.3709 7.54422 10.374 7.5437 10.3761 7.54159L10.3766 7.54106C10.4325 7.49843 10.5224 7.44896 10.6467 7.44896C10.8978 7.44896 11.1027 7.65843 11.1027 7.91633C11.1022 8.17422 10.8978 8.38422 10.6462 8.38422ZM17.2279 2.35633C16.9762 2.35633 16.7719 2.14685 16.7719 1.88896C16.7719 1.63106 16.9762 1.42159 17.2279 1.42159C17.479 1.42159 17.6839 1.63106 17.6839 1.88896C17.6839 2.14685 17.4795 2.35633 17.2279 2.35633Z" fill="#BABABA"/>
</svg>
