<svg width="136" height="108" fill="none" xmlns="http://www.w3.org/2000/svg"><g filter="url(#filter0_f)"><path d="M57.669 82.886l-1.588 4.188c2.271 0 3.255-.183 4.435-.403l10.652-1.909 22.072 3.031c4.048.423 6.9.2 7.992-.698l14.488-12.729h.004c1.284-1.123-2.164-1.561-6.108-1.286l-85.16 6.113c-5.811.423-5.723 1.03-.987 1.306l21.772 1.27 50.571-5.934c2.38-.295 4.544-.132 2.764.164L57.67 82.886z" fill="#265196"/></g><path d="M57.5 50l.318 19.95c1.94 0 2.781-.834 3.79-1.835l9.098-8.696 18.855 13.808c3.457 1.927 5.894.912 6.826-3.181l12.376-57.991.004-.004c1.097-5.111-1.849-7.11-5.218-5.856l-72.745 27.85c-4.964 1.928-4.89 4.695-.844 5.95L49 48.5l42.758-29.752c2.033-1.346 3.763-.594 2.242.752L57.5 50z" fill="url(#paint0_linear)"/><path d="M57.669 52.725L56.08 75.061c2.271 0 3.255-.976 4.435-2.148l10.652-10.18L93.24 78.897c4.048 2.256 6.9 1.068 7.992-3.724L115.72 7.286l.004-.004c1.284-5.984-2.164-8.324-6.108-6.856l-85.16 32.603c-5.811 2.256-5.723 5.496-.987 6.964l21.772 6.772 50.571-31.644c2.38-1.575 4.544-.704 2.764.872L57.67 52.725z" fill="#fff"/><defs><linearGradient id="paint0_linear" x1="67.999" y1="5.831" x2="67.999" y2="74.169" gradientUnits="userSpaceOnUse"><stop stop-color="#B5B5B5"/><stop offset="1" stop-color="#fff"/></linearGradient><filter id="filter0_f" x="0" y="53" width="135.997" height="55" filterUnits="userSpaceOnUse" color-interpolation-filters="sRGB"><feFlood flood-opacity="0" result="BackgroundImageFix"/><feBlend in="SourceGraphic" in2="BackgroundImageFix" result="shape"/><feGaussianBlur stdDeviation="10" result="effect1_foregroundBlur"/></filter></defs></svg>