<svg width="165" height="102" fill="none" xmlns="http://www.w3.org/2000/svg"><g filter="url(#filter0_f)"><path d="M146.59 75.271c-.33-.126-2.37-1.14-12.185-3.222-10.276-2.18-8.895-1.826 3.481-5.596 7.538-2.296 10.552-3.698 9.608-4.298-.897-.571-6.441-.42-6.441-.42l-18.434.024s-1.365-.042-2.385.096c-.989.137-1.626.453-1.626.453s-2.921 1.777-6.817 3.288c-8.213 3.188-11.502 3.356-12.844 3.158-3.121-.46-2.34-1.854-2.34-2.843 0-3.09 2.048-4.378-3.994-4.711-2.01-.11-3.482-.184-8.612-.196-6.58-.016-12.154.005-15.306.357-2.1.235-3.719.76-2.73.789 1.22.037 3.98.17 5.445.626 1.894.587 1.825 1.908 1.825 1.908s1.089 3.637-2.538 4.09c-2.492.31-5.905-.323-13.228-3.217-3.75-1.48-6.587-3.12-6.587-3.12s-.544-.305-1.518-.468c-1.181-.198-2.837-.26-2.837-.26l-17.53.024s-2.63.017-3.596.279c-.86.233-.07.713-.07.713s13.727 7.339 29.262 11.039c14.256 3.391 30.436 3.169 30.436 3.169h7.33s2.217-.057 3.344-.335c1.043-.256 1.005-.736 1.005-.736s-.146-2.25 4.424-2.58c4.501-.326 10.283 2.173 16.41 3.135 4.632.728 8.152.568 8.152.568l16.387-.052s8.573-.121 4.509-1.662z" fill="#265196"/></g><path d="M138.597 62.436c-.302-.553-2.173-4.985-11.175-14.095-9.424-9.539-8.158-7.99 3.193-24.484 6.913-10.046 9.677-16.18 8.812-18.803-.823-2.5-5.907-1.84-5.907-1.84l-16.907.107s-1.252-.184-2.188.422c-.907.598-1.491 1.978-1.491 1.978s-2.679 7.776-6.252 14.386C99.15 34.055 96.133 34.79 94.902 33.925c-2.862-2.017-2.145-8.113-2.145-12.438 0-13.519 1.878-19.155-3.664-20.612C87.251.392 85.9.07 81.195.016 75.161-.053 70.048.039 67.158 1.58c-1.927 1.028-3.411 3.32-2.504 3.451 1.118.161 3.65.744 4.993 2.738 1.737 2.569 1.674 8.35 1.674 8.35s.999 15.912-2.328 17.89c-2.285 1.358-5.415-1.41-12.131-14.07-3.44-6.48-6.041-13.65-6.041-13.65s-.5-1.335-1.393-2.048C48.345 3.375 46.826 3.1 46.826 3.1l-16.077.107s-2.412.077-3.298 1.22c-.788 1.02-.064 3.12-.064 3.12s12.589 32.107 26.837 48.295C67.298 70.68 82.138 69.706 82.138 69.706h6.723s2.033-.245 3.066-1.465c.957-1.12.922-3.22.922-3.22s-.134-9.839 4.058-11.288c4.128-1.426 9.431 9.509 15.05 13.719 4.248 3.182 7.476 2.484 7.476 2.484l15.029-.23s7.863-.529 4.135-7.27z" fill="url(#paint0_radial)"/><path d="M143.59 62.436c-.33-.553-2.37-4.985-12.185-14.095-10.276-9.539-8.895-7.99 3.481-24.484 7.538-10.046 10.552-16.18 9.608-18.803-.897-2.5-6.441-1.84-6.441-1.84l-18.434.107s-1.365-.184-2.385.422c-.989.598-1.626 1.978-1.626 1.978s-2.921 7.776-6.817 14.386c-8.213 13.948-11.502 14.684-12.844 13.818-3.121-2.017-2.34-8.113-2.34-12.438 0-13.519 2.048-19.155-3.994-20.612C87.603.392 86.13.07 81 .016 74.42-.053 68.846.039 65.694 1.58c-2.1 1.028-3.719 3.32-2.73 3.451 1.22.161 3.98.744 5.445 2.738 1.894 2.569 1.825 8.35 1.825 8.35s1.089 15.912-2.538 17.89c-2.492 1.358-5.905-1.41-13.228-14.07-3.75-6.48-6.587-13.65-6.587-13.65s-.544-1.335-1.518-2.048c-1.18-.866-2.836-1.141-2.836-1.141l-17.53.107s-2.63.077-3.596 1.22c-.86 1.02-.07 3.12-.07 3.12s13.727 32.107 29.262 48.295C65.85 70.679 82.03 69.705 82.03 69.705h7.33s2.217-.245 3.344-1.465c1.043-1.12 1.005-3.22 1.005-3.22s-.146-9.839 4.424-11.288c4.501-1.426 10.283 9.509 16.41 13.719 4.632 3.182 8.152 2.484 8.152 2.484l16.387-.23s8.573-.529 4.509-7.27z" fill="#fff"/><defs><radialGradient id="paint0_radial" cx="0" cy="0" r="1" gradientUnits="userSpaceOnUse" gradientTransform="matrix(0 35 -56.2584 0 83.342 35)"><stop stop-color="#B5B5B5"/><stop offset="1" stop-color="#FAFAFA"/></radialGradient><filter id="filter0_f" x="0" y="36" width="172.683" height="66" filterUnits="userSpaceOnUse" color-interpolation-filters="sRGB"><feFlood flood-opacity="0" result="BackgroundImageFix"/><feBlend in="SourceGraphic" in2="BackgroundImageFix" result="shape"/><feGaussianBlur stdDeviation="12.5" result="effect1_foregroundBlur"/></filter></defs></svg>