<svg width="191" height="160" fill="none" xmlns="http://www.w3.org/2000/svg"><path d="M156.82 176.422c.402-.929 4.743-7.747 3.371-27.704-1.433-20.894-1.728-17.806 50.985-22.074 32.104-2.599 48.799-5.866 51.85-9.621 2.912-3.578-8.44-8.745-8.44-8.745l-33.947-19.371s-2.164-1.637-5.135-2.078c-2.901-.416-6.581.363-6.581.363s-19.517 5.09-38.692 7.926c-40.451 5.991-47.815 3.288-48.694.959-2.039-5.42 10.5-11.006 18.38-15.555 24.632-14.22 38.65-17.985 30.241-25.904-2.798-2.632-4.907-4.526-14.202-10.005-11.92-7.027-22.295-12.823-30.874-14.533-5.719-1.14-12.858-.438-11.285.744 1.939 1.458 5.932 4.99 4.981 8.634-1.213 4.705-11.874 10.713-11.874 10.713S79.907 68.06 69.661 66.306c-7.036-1.207-8.24-7.725 1.42-28.782 4.94-10.78 12.809-21.32 12.809-21.32s1.434-1.979.95-3.758c-.583-2.16-3.113-4.2-3.113-4.2L49.437-10.17s-4.956-2.7-8.806-2.52c-3.431.166-5.813 3.21-5.813 3.21S1.45 38.8.4 72.249c-.935 30.675 30.463 46.753 30.463 46.753l13.422 7.748s4.505 2.084 8.79 1.993c3.95-.075 7.707-2.325 7.707-2.325s17.659-10.503 28.667-7.197c10.84 3.258 1.503 20.871 5.05 31.775 2.682 8.243 10.398 11.229 10.398 11.229l30.422 17.079s16.66 8.505 21.5-2.881z" fill="url(#paint0_linear)"/><defs><linearGradient id="paint0_linear" x1="160.27" y1="47.069" x2="96.508" y2="157.517" gradientUnits="userSpaceOnUse"><stop stop-color="#448CFF"/><stop offset="1" stop-color="#44BCFF"/></linearGradient></defs></svg>