<svg width="8" height="8" fill="none" xmlns="http://www.w3.org/2000/svg"><path d="M4 6.305a.39.39 0 100-.782.39.39 0 000 .782z" fill="#2B7BFB"/><path d="M4 0C1.79 0 0 1.789 0 4c0 2.21 1.789 4 4 4 2.21 0 4-1.789 4-4 0-2.21-1.789-4-4-4zm0 7.375A3.373 3.373 0 01.625 4 3.373 3.373 0 014 .625 3.373 3.373 0 017.375 4 3.373 3.373 0 014 7.375z" fill="#2B7BFB"/><path d="M4 2.008c-.69 0-1.25.56-1.25 1.25a.312.312 0 10.625 0A.626.626 0 114 3.883a.312.312 0 00-.313.312v.782a.312.312 0 10.626 0v-.509A1.25 1.25 0 004 2.008z" fill="#2B7BFB"/></svg>