<svg width="8" height="8" fill="none" xmlns="http://www.w3.org/2000/svg"><path d="M6.825 1.175A3.972 3.972 0 004 0a3.972 3.972 0 00-2.825 1.175A3.972 3.972 0 000 4a3.97 3.97 0 001.175 2.825A3.972 3.972 0 004 8a3.972 3.972 0 002.825-1.175A3.972 3.972 0 008 4a3.972 3.972 0 00-1.175-2.825zm-.5.17l-1.01 1.008a2.1 2.1 0 00-2.63 0l-1.01-1.009A3.516 3.516 0 014 .47c.89 0 1.703.33 2.324.875zM4 5.64a1.64 1.64 0 11-.001-3.281A1.64 1.64 0 014 5.64zM.469 4c0-.89.33-1.703.875-2.324l1.009 1.008a2.1 2.1 0 000 2.632L1.344 6.324A3.516 3.516 0 01.47 4zm1.207 2.656l1.008-1.009a2.1 2.1 0 002.632 0l1.008 1.009A3.516 3.516 0 014 7.53a3.51 3.51 0 01-2.324-.875zm4.98-.332L5.647 5.316a2.1 2.1 0 000-2.632l1.009-1.008C7.2 2.297 7.53 3.11 7.53 4c0 .89-.33 1.703-.875 2.324z" fill="#979797"/><path d="M2.89 1.674A2.549 2.549 0 014 1.422c.389 0 .762.085 1.11.252l.203-.423A3.014 3.014 0 004 .953c-.46 0-.901.1-1.313.298l.202.423zm2.22 4.652A2.548 2.548 0 014 6.578c-.389 0-.762-.085-1.11-.252l-.203.423c.412.198.854.298 1.313.298.46 0 .901-.1 1.313-.298l-.202-.423z" fill="#979797"/></svg>