<svg width="8" height="8" fill="none" xmlns="http://www.w3.org/2000/svg"><path d="M7.42 2.978l-.39-.066a3.233 3.233 0 00-.118-.284l.23-.321c.2-.28.167-.66-.076-.901L6.597.937a.695.695 0 00-.9-.075l-.322.23a3.214 3.214 0 00-.303-.126L5.008.584A.698.698 0 004.317 0h-.662a.698.698 0 00-.69.584l-.07.396a3.01 3.01 0 00-.282.119L2.297.872A.693.693 0 001.889.74a.69.69 0 00-.495.206l-.47.468a.698.698 0 00-.075.901l.233.328a3.177 3.177 0 00-.116.285l-.382.065a.698.698 0 00-.584.69v.663c0 .343.246.634.584.69l.397.068c.035.096.075.19.119.283l-.227.316c-.2.28-.168.66.075.901l.469.469a.695.695 0 00.9.075l.327-.233c.087.04.176.077.268.11l.065.39a.698.698 0 00.69.584h.664a.698.698 0 00.69-.584l.067-.39c.096-.035.191-.074.284-.117l.32.229a.695.695 0 00.902-.075l.469-.469a.698.698 0 00.075-.901l-.23-.323a3.2 3.2 0 00.118-.283l.39-.065A.698.698 0 008 4.332V3.67a.691.691 0 00-.58-.692zm.111 1.353a.23.23 0 01-.193.228l-.516.087a.253.253 0 00-.201.175 2.74 2.74 0 01-.187.452.253.253 0 00.018.264l.305.428a.23.23 0 01-.026.298l-.468.468a.226.226 0 01-.164.069.228.228 0 01-.134-.043l-.426-.304a.253.253 0 00-.265-.019 2.76 2.76 0 01-.453.187.253.253 0 00-.174.2l-.088.517a.23.23 0 01-.228.193h-.664a.23.23 0 01-.228-.192l-.086-.517a.253.253 0 00-.174-.2 2.744 2.744 0 01-.438-.18.254.254 0 00-.264.018l-.433.308a.226.226 0 01-.295-.026l-.47-.47a.229.229 0 01-.025-.295l.302-.421a.252.252 0 00.018-.268 2.68 2.68 0 01-.19-.45.253.253 0 00-.198-.174l-.524-.089a.23.23 0 01-.193-.228v-.662a.23.23 0 01.193-.229l.51-.086a.252.252 0 00.2-.176c.05-.158.111-.31.185-.453a.253.253 0 00-.018-.264l-.308-.432a.23.23 0 01.025-.298l.47-.469.002-.002a.224.224 0 01.161-.066c.05 0 .096.014.134.042l.423.305c.08.057.182.063.268.017a2.68 2.68 0 01.45-.19.253.253 0 00.173-.198l.09-.524a.23.23 0 01.228-.193h.662a.23.23 0 01.228.193l.086.51a.253.253 0 00.177.201c.158.048.316.113.47.193a.253.253 0 00.264-.018l.429-.305a.226.226 0 01.295.026l.47.47c.08.078.09.203.024.296l-.305.426a.253.253 0 00-.018.265c.075.143.138.296.187.453a.253.253 0 00.2.174l.517.087a.225.225 0 01.19.226v.665z" fill="#979797"/><path d="M4 2.445a1.556 1.556 0 000 3.11 1.556 1.556 0 000-3.11zm0 2.642a1.088 1.088 0 010-2.174 1.088 1.088 0 010 2.174z" fill="#979797"/></svg>