<svg width="60" height="25" viewBox="0 0 60 25" fill="none" xmlns="http://www.w3.org/2000/svg">
<path fill-rule="evenodd" clip-rule="evenodd" d="M57.994 11.7377H51.9668C50.8856 11.7377 49.9885 12.605 49.9885 13.6501V18.6536C49.9885 19.6987 50.8856 20.566 51.9668 20.566H57.994C59.0752 20.566 59.9723 19.6987 59.9723 18.6536V13.6501C59.9723 12.605 59.0752 11.7377 57.994 11.7377ZM35.8868 5.1554H35.1507V5.02197C35.3577 5.02197 35.4727 4.9775 35.3807 4.82183C35.2427 4.55498 35.8408 4.57722 35.9328 4.6217C36.0708 4.73288 35.9788 5.02197 35.8868 5.1554ZM34.8746 5.33329H35.7718C35.6798 5.48896 35.4037 5.97818 35.2197 5.97818C35.1276 5.86699 34.8976 5.55567 34.8746 5.33329ZM52.0128 13.6501H57.971V18.6536H52.0128V13.6501ZM39.7745 13.6501H48.0561C48.0561 12.605 47.1589 11.7377 46.0777 11.7377H39.7055C38.6243 11.7377 37.7271 12.605 37.7271 13.6501V18.6536C37.7271 19.6987 38.6243 20.566 39.7055 20.566H46.0777C47.1589 20.566 48.0561 19.6987 48.0561 18.6536V15.3624H41.3388C41.3388 16.1852 42.029 16.8301 42.8571 16.8301H46.1697V18.6536H39.7745V13.6501ZM13.8946 13.6501H21.8081C21.8081 12.605 20.911 11.7377 19.8298 11.7377H13.7106C12.6294 11.7377 11.7322 12.605 11.7322 13.6501V15.2068C11.7322 16.2519 12.6294 17.1192 13.7106 17.1192H19.8528V18.6758H11.7322C11.7322 19.721 12.6294 20.5882 13.7106 20.5882H20.0368C21.118 20.5882 22.0152 19.721 22.0152 18.6758V17.1192C22.0152 16.074 21.118 15.2068 20.0368 15.2068H13.8946V13.6501ZM2.50748 13.6501H9.9839C9.9839 12.605 9.08672 11.7377 8.00551 11.7377H1.97837C0.897164 11.7377 0 12.605 0 13.6501V18.6536C0 19.6987 0.897164 20.566 1.97837 20.566H8.00551C9.08672 20.566 9.9839 19.6987 9.9839 18.6536H2.50748V13.6501ZM37.7732 4.28813C37.7271 4.31037 37.6811 4.3326 37.6351 4.3326C37.3591 4.71064 37.5201 4.66617 37.014 4.99973C37.014 5.64462 37.037 5.71134 37.198 6.28951C37.198 6.31175 37.198 6.31175 37.198 6.33399C37.198 6.35623 37.175 6.35622 37.175 6.35622C37.06 6.37846 36.876 6.42294 36.784 6.44518C36.784 6.46741 36.83 6.82322 36.784 7.1123C36.692 7.53482 35.6338 8.46879 35.4037 8.5355C35.0586 8.60221 34.6676 8.31312 34.0464 8.04627C33.8854 7.97956 33.3103 7.62376 33.0112 7.51258C32.7582 7.42363 32.5282 8.00179 32.8272 8.15746C32.9652 8.22417 33.1953 8.33537 33.2643 8.51327C33.4713 9.04697 33.2413 11.0928 32.8042 11.4931C32.5972 11.4931 32.4131 11.3152 32.2751 11.3597C31.9991 11.5153 32.1831 12.3159 32.2751 12.4493C33.9544 14.1171 33.7704 15.3624 34.4835 16.2964C34.8056 16.2964 34.5985 16.63 34.8516 17.0302C34.9206 17.2304 34.8286 17.5639 34.8056 17.6974C34.8056 17.8753 34.8056 18.0309 34.8056 18.2088C34.7826 18.2533 34.7596 18.32 34.7596 18.3645C34.7596 18.5202 34.7596 18.6536 34.7596 18.8092C34.7136 19.0316 34.6446 19.3207 34.5986 19.5208C34.5065 19.9434 34.8746 20.2769 34.6446 20.6772C34.6446 20.9218 34.6446 20.8773 34.4835 21.0775C34.4835 21.4555 34.3915 22.2783 34.4835 22.5674C34.5525 22.7675 35.2887 23.6126 35.4957 23.7015C35.9558 23.9016 36.6229 23.8572 36.3929 24.5465C35.0586 24.9468 34.2305 24.3242 33.5173 24.3242L33.4943 24.4353C33.0342 24.4353 32.6892 24.3242 32.5742 24.3019C32.5742 24.1907 32.7122 23.279 32.7812 23.1233C32.8272 23.0566 32.8732 22.9677 32.9422 22.901C32.9882 22.7453 32.8962 21.6112 32.8732 21.2999C32.5972 21.0997 32.5282 20.4771 32.5282 20.1435C32.4361 19.8766 32.4361 19.5653 32.4361 19.2318C32.4361 19.0761 32.3211 18.8315 32.3901 18.6313C32.4361 18.4979 32.5972 18.4312 32.6202 18.32C32.6202 18.1866 32.6202 18.0754 32.6202 17.942C32.6892 17.5417 32.6662 17.3638 32.4131 17.1192C31.792 17.1192 31.7 17.1637 31.3779 16.6522C31.2629 16.4965 30.4118 15.1623 30.3197 15.14C29.6066 14.8287 29.7446 14.9622 29.4226 14.4062C29.3996 14.4062 29.2155 14.4729 29.0545 14.7175C28.8014 15.0956 28.3414 16.2964 28.2033 16.7189C28.1343 16.9635 28.2033 17.2081 28.0883 17.4083C28.0193 17.5417 27.7433 17.5862 27.6972 17.6974C27.4442 18.1421 27.6282 18.0976 27.1451 18.409C27.0531 18.5202 27.0531 18.6758 26.9841 18.8092C26.9381 18.8537 26.9151 18.8982 26.8691 18.9649C26.7771 19.1428 26.9611 19.4319 26.9151 19.5431C26.8231 19.8099 26.7311 20.099 26.616 20.3436C26.386 20.8551 26.432 21.5222 26.202 21.8335C26.0869 21.9892 25.8109 21.8336 25.6038 21.967C25.5808 22.0782 25.2588 22.7898 25.1898 22.9899C25.1898 23.3679 25.1898 23.746 25.1898 24.1463C25.2588 24.3464 25.4198 24.5243 25.3738 24.7689C25.3278 25.0358 24.3846 25.0357 23.8785 24.9468C23.5335 24.9023 23.4414 24.6577 23.4414 24.3686C23.4414 24.0351 24.1316 21.878 24.1086 21.7446C23.5795 21.1664 24.2466 20.5882 24.4536 20.0545C24.5456 19.7877 24.4996 19.4319 24.5917 19.1873C24.7757 18.8537 24.9597 18.5424 25.1438 18.2088C25.4888 17.8975 25.3278 17.8753 25.5118 17.6084C25.6729 17.3638 25.8569 17.2081 25.7419 16.8301C25.5118 16.0963 25.9949 15.0511 26.0409 14.2728C25.9489 14.1838 25.6729 14.2061 25.6269 13.9837C25.5578 13.4945 25.8109 12.6494 25.9719 12.5827C26.0409 12.5383 26.1329 12.5827 26.179 12.5383C26.179 12.1825 25.8109 10.1811 26.0869 10.0699C26.271 10.0032 26.6621 9.98094 26.7311 9.93646C26.7311 9.84751 26.662 9.66962 26.593 9.66962C26.478 9.64738 26.225 9.60291 26.0179 9.55843C25.3968 9.42501 25.9719 7.06782 25.9719 7.04558C26.133 6.8232 26.9381 7.1123 27.0301 6.75649C27.2832 6.42293 26.8231 5.17763 27.7202 3.62101C28.0193 3.10954 28.6174 2.57584 29.2845 2.79821C29.5146 2.86493 29.3766 3.19849 29.7676 2.84269C29.7676 2.64255 29.6756 2.48689 29.6296 2.30899C28.9625 0.396558 31.2169 -0.648605 32.8042 0.441034C32.9882 0.507747 33.0803 0.552221 33.2183 0.641171C33.3103 1.08592 33.7474 1.842 33.3103 2.35346C33.1263 2.39794 32.8962 2.48689 32.7582 2.57584C32.7582 2.75374 32.7812 2.9094 32.8042 3.02059C32.8272 3.10954 32.8962 3.15401 32.7352 3.22073C32.7122 3.22073 32.7352 3.28744 32.7352 3.30968C33.1033 3.37639 33.4943 3.24297 33.7474 3.15402H34.0464V2.79821H34.1155H34.1845V2.50913H34.3225V2.99835H34.6906V3.15402H40.1426V3.42086H40.3726V2.42017H40.5797V3.24297H41.0398V3.70996H42.489V3.57653H42.7191V3.64324H43.4092V4.02128H42.7191V4.08799H42.489V3.95457H41.0398V4.08799C40.8327 4.08799 40.6257 4.08799 40.3956 4.08799V3.99904H40.1196V4.28813H37.7732Z" fill="#2B7BFB"/>
</svg>
