<svg width="27" height="27" viewBox="0 0 27 27" fill="none" xmlns="http://www.w3.org/2000/svg">
<path d="M27 0H23.6492L22.2539 0.697623L20.8586 0H14.291L12.709 0.791016H8.33636L6.75432 0H0V12.709L0.791016 14.291V18.6636L0 20.2457V27H13.5L14.8953 26.3024L16.2906 27H27V16.2906L26.3024 14.8953L27 13.5V0ZM7.11914 22.2539L4.74609 19.8809V15.1348L11.8652 22.2539H7.11914ZM21.4629 22.2539H18.2988L16.2483 19.8443L15.8254 18.1268L14.1977 17.4346L13.5 16.6148L4.74609 6.32812L6.32812 4.74609L13.5 10.1369L22.2539 16.7168L21.4629 22.2539ZM22.2539 11.8652L15.1348 4.74609H19.8809L22.2539 7.11914V11.8652Z" fill="white"/>
</svg>
