<svg width="27" height="27" viewBox="0 0 27 27" fill="none" xmlns="http://www.w3.org/2000/svg">
<path d="M13.5 0C6.04424 0 0 6.04424 0 13.5C0 20.9558 6.04424 27 13.5 27C20.9558 27 27 20.9558 27 13.5C26.9916 6.04775 20.9522 0.00834964 13.5 0ZM13.9819 3.89202L18.675 2.01599C19.2076 2.25703 19.7229 2.53477 20.217 2.84722L20.2293 2.85491C20.7149 3.16252 21.179 3.50288 21.6185 3.87356L21.6562 3.90652C21.8533 4.07439 22.0449 4.24819 22.2313 4.42749C22.2548 4.45056 22.2794 4.47253 22.3029 4.49604C22.4982 4.68677 22.6874 4.88342 22.8705 5.08579C22.8856 5.10293 22.9001 5.12095 22.9153 5.13809C23.0759 5.31804 23.2304 5.50437 23.3802 5.69377C23.4163 5.73882 23.4523 5.78386 23.4872 5.82891C23.6498 6.0394 23.8072 6.25364 23.9557 6.47468L23.0201 10.4517L18.417 11.9863L13.983 8.43838L13.9819 3.89202ZM3.51233 5.83154C3.54727 5.7865 3.58286 5.74146 3.6189 5.69663C3.76699 5.50876 3.92014 5.32551 4.07834 5.14666C4.09548 5.12776 4.1113 5.10842 4.12822 5.08953C4.31016 4.88672 4.49846 4.69028 4.69358 4.5C4.71599 4.47803 4.7384 4.45496 4.76191 4.43474C4.9467 4.25654 5.13677 4.08384 5.3321 3.91685L5.37715 3.87905C5.81265 3.51101 6.27231 3.17285 6.75308 2.86655L6.77065 2.85535C7.26196 2.54355 7.77393 2.26626 8.30347 2.025L13.0181 3.89202V8.43706L8.58384 11.9843L3.98079 10.4526L3.04519 6.47556C3.19504 6.25496 3.35061 6.04116 3.51233 5.83154ZM2.97004 20.4053C2.83777 20.2036 2.71121 19.9982 2.59058 19.7888L2.56135 19.7383C2.44138 19.53 2.32778 19.3181 2.22078 19.103L2.21704 19.0962C1.9916 18.6436 1.79363 18.1778 1.62444 17.7012V17.6968C1.54446 17.4718 1.47151 17.2413 1.40405 17.0095L1.37966 16.924C1.31792 16.7062 1.26189 16.4861 1.21179 16.2635C1.2074 16.2417 1.2019 16.2211 1.19751 16.1996C1.08699 15.6968 1.00767 15.1879 0.959766 14.6753L3.70701 11.3788L8.2782 12.9023L9.60491 18.2087L7.425 21.1091L2.97004 20.4053ZM16.4966 25.7368C16.2716 25.7926 16.0407 25.8407 15.8098 25.884C15.7775 25.8904 15.7445 25.8957 15.7122 25.9016C15.5156 25.9367 15.3167 25.9668 15.1174 25.9915C15.0642 25.9983 15.0115 26.0055 14.9585 26.0119C14.7735 26.0334 14.5868 26.0497 14.3996 26.0631C14.3407 26.067 14.2824 26.073 14.2236 26.0767C13.9843 26.0914 13.743 26.1 13.5 26.1C13.2774 26.1 13.0562 26.0941 12.8362 26.0824C12.8096 26.0824 12.7841 26.078 12.7575 26.076C12.5618 26.0648 12.3669 26.0501 12.1724 26.0312L12.15 26.0271C11.7239 25.9809 11.3003 25.9132 10.8811 25.8247L8.21931 21.6571L10.3649 18.7961H16.6351L18.8158 21.676L16.4966 25.7368ZM25.8058 16.2C25.8012 16.2215 25.7959 16.2424 25.7913 16.2639C25.741 16.4863 25.6849 16.7065 25.6234 16.9244L25.5992 17.0099C25.5316 17.2417 25.4588 17.4713 25.3786 17.6972V17.7016C25.2094 18.1782 25.0117 18.644 24.786 19.0967L24.7823 19.1035C24.6746 19.3188 24.5613 19.5306 24.4417 19.7387L24.4125 19.7892C24.2925 19.9993 24.1662 20.2043 24.0337 20.4049L19.5939 21.105L17.3988 18.207L18.7249 12.9019L23.2961 11.3783L26.0433 14.6749C25.9956 15.1877 25.9163 15.697 25.8058 16.2Z" fill="#25549E"/>
</svg>
