<svg width="27" height="27" viewBox="0 0 27 27" fill="none" xmlns="http://www.w3.org/2000/svg">
<path d="M12.9262 0H10.572V22.4724H12.9262V0Z" fill="#25549E"/>
<path d="M7.04062 0H4.6864V22.4724H7.04062V0Z" fill="#25549E"/>
<path d="M3.88451 26.9964H1.05945L5.08369 21.231L7.04063 22.4794L3.88451 26.9964Z" fill="#25549E"/>
<path d="M22.2768 26.9964H19.4518L24.1749 20.235H27L22.2768 26.9964Z" fill="#25549E"/>
<path d="M24.3065 22.474V20.2295L10.5711 20.2295V22.474L24.3065 22.474Z" fill="#25549E"/>
<path d="M4.68641 5.2113L1.37579 0H12.9262V2.24444H4.68641V5.2113Z" fill="#25549E"/>
<path d="M21.7353 26.9968V24.7524L2.74705 24.7524V26.9968L21.7353 26.9968Z" fill="#25549E"/>
<path d="M15.2803 4.82554C15.2803 4.82554 19.9005 5.59706 22.2989 9.9176C24.6972 14.2381 22.8801 18.0046 22.8801 18.0046H25.3814C25.3814 18.0046 27.331 13.8033 24.2117 8.52184C21.0923 3.2404 15.2803 2.51797 15.2803 2.51797V4.82554Z" fill="#25549E"/>
<path d="M2.33215 7.589V21.7009C2.33215 21.7009 0 19.204 0 14.4065C0 9.609 2.33215 7.589 2.33215 7.589Z" fill="#25549E"/>
</svg>
