<svg width="27" height="27" viewBox="0 0 27 27" fill="none" xmlns="http://www.w3.org/2000/svg">
<g clip-path="url(#clip0)">
<path d="M11.0388 17.7C11.2168 18.427 11.8735 18.9682 12.6546 18.9682C13.5719 18.9682 14.3182 18.2219 14.3182 17.3045C14.3182 16.3872 13.5719 15.6409 12.6546 15.6409C11.8735 15.6409 11.2168 16.182 11.0388 16.909H10.5138V15.9612C11.2407 15.7832 11.7819 15.1265 11.7819 14.3454C11.7819 13.4281 11.0356 12.6818 10.1182 12.6818C9.20088 12.6818 8.45458 13.4281 8.45458 14.3454C8.45458 15.1265 8.99574 15.7832 9.72273 15.9612V16.909H9.19771C9.01973 16.182 8.36298 15.6409 7.58193 15.6409C6.66456 15.6409 5.91821 16.3872 5.91821 17.3045C5.91821 18.2219 6.66456 18.9682 7.58193 18.9682C8.36303 18.9682 9.01973 18.427 9.19771 17.7H9.72273V18.4631L8.51095 20.4829C8.43765 20.6051 8.4357 20.7573 8.50594 20.8812C8.57613 21.0052 8.7076 21.0819 8.85009 21.0819H11.3865C11.5289 21.0819 11.6604 21.0052 11.7306 20.8812C11.8008 20.7572 11.7989 20.6051 11.7256 20.4829L10.5138 18.4631V17.7H11.0388ZM12.6546 16.4319C13.1358 16.4319 13.5272 16.8233 13.5272 17.3045C13.5272 17.7857 13.1358 18.1772 12.6546 18.1772C12.1734 18.1772 11.7819 17.7857 11.7819 17.3045C11.7819 16.8233 12.1734 16.4319 12.6546 16.4319ZM9.24554 14.3454C9.24554 13.8642 9.63699 13.4728 10.1182 13.4728C10.5994 13.4728 10.9908 13.8642 10.9908 14.3454C10.9908 14.8266 10.5994 15.2181 10.1182 15.2181C9.63699 15.2181 9.24554 14.8266 9.24554 14.3454ZM7.58182 18.1772C7.10062 18.1772 6.70912 17.7857 6.70912 17.3045C6.70912 16.8233 7.10062 16.4319 7.58182 16.4319C8.06303 16.4319 8.45447 16.8233 8.45447 17.3045C8.45447 17.7857 8.06303 18.1772 7.58182 18.1772ZM9.54855 20.2908L10.1182 19.3414L10.6878 20.2908H9.54855Z" fill="#274E8C"/>
<path d="M16.8818 0C14.6463 0 12.5274 0.714393 10.754 2.06597C9.06425 3.35375 7.80284 5.1724 7.19281 7.19539C3.03555 8.45332 0 12.3194 0 16.8818C0 22.461 4.53901 27 10.1182 27C14.6805 27 18.5466 23.9645 19.8046 19.8073C21.8191 19.1996 23.63 17.9474 24.9173 16.2679C26.2798 14.4901 27 12.3636 27 10.1182C27 4.53901 22.461 0 16.8818 0V0ZM23.8192 3.89079C24.6752 4.84339 25.338 5.97248 25.7462 7.21617C25.0877 6.97982 24.5314 6.52045 24.1736 5.90082C23.8179 5.28451 23.6976 4.57639 23.8192 3.89079ZM16.8818 0.791016C17.5401 0.791016 18.1826 0.859992 18.8028 0.990352C18.2694 1.44007 17.5948 1.69087 16.8818 1.69087C16.167 1.69087 15.4918 1.43928 14.9581 0.988137C15.584 0.857672 16.2275 0.791016 16.8818 0.791016ZM9.93679 3.8957C10.057 4.57977 9.93647 5.28599 9.58147 5.90087C9.36283 6.27966 9.05217 6.61405 8.69785 6.8638C8.49714 6.89212 8.29812 6.92582 8.10132 6.96579C8.50769 5.83817 9.1357 4.7916 9.93679 3.8957ZM10.1182 7.55462C10.7765 7.55462 11.419 7.6236 12.0391 7.75396C11.5057 8.20368 10.8312 8.45448 10.1182 8.45448C9.40465 8.45448 8.73039 8.20373 8.19714 7.75396C8.81735 7.62365 9.45981 7.55462 10.1182 7.55462ZM3.17371 10.6624C3.293 11.3455 3.17229 12.0505 2.81781 12.6645C2.4618 13.2812 1.9092 13.739 1.25492 13.9764C1.66208 12.7375 2.322 11.6124 3.17371 10.6624ZM3.17371 23.1012C2.322 22.1512 1.66208 21.0261 1.25497 19.7872C1.9092 20.0246 2.46185 20.4825 2.81786 21.0991C3.17229 21.7131 3.293 22.4181 3.17371 23.1012ZM10.1182 26.209C9.45749 26.209 8.81271 26.1394 8.19049 26.0082C8.72364 25.5594 9.39748 25.3091 10.1097 25.3091C10.824 25.3091 11.499 25.5604 12.0325 26.0111C11.4144 26.1405 10.7742 26.209 10.1182 26.209ZM17.0556 23.1092C16.934 22.4236 17.0542 21.7155 17.4101 21.0992C17.7678 20.4796 18.3241 20.0202 18.9826 19.7838C18.5744 21.0275 17.9115 22.1566 17.0556 23.1092ZM19.2261 18.8944C18.1709 19.1134 17.2678 19.7635 16.7251 20.7036C16.1843 21.6402 16.0715 22.7444 16.4056 23.7651C15.4166 24.6693 14.2327 25.3636 12.9251 25.7771C12.2081 24.9743 11.1943 24.5181 10.1097 24.5181C9.02791 24.5181 8.01494 24.9727 7.29802 25.7728C5.99279 25.3578 4.81122 24.663 3.82419 23.7589C4.15579 22.7399 4.04251 21.6383 3.50288 20.7036C2.96167 19.7662 2.06202 19.1173 1.01087 18.8964C0.867322 18.2474 0.791016 17.5734 0.791016 16.8818C0.791016 16.1902 0.867322 15.5162 1.01081 14.8672C2.06202 14.6463 2.96162 13.9974 3.50288 13.06C4.04256 12.1253 4.15579 11.0236 3.82419 10.0047C4.81296 9.099 5.99685 8.40333 7.30477 7.98863C8.0218 8.79014 9.03472 9.2455 10.1182 9.2455C11.201 9.2455 12.2148 8.79003 12.9318 7.98863C14.2368 8.40238 15.4183 9.09578 16.4056 9.99844C16.0715 11.0191 16.1843 12.1233 16.7251 13.06C17.2679 14.0001 18.171 14.6502 19.2261 14.8692C19.3692 15.5177 19.4454 16.1909 19.4454 16.8818C19.4454 17.5726 19.3692 18.2459 19.2261 18.8944ZM18.8501 11.7754C17.9719 10.2795 16.7206 9.02812 15.2247 8.14994L16.8818 6.49276L20.5073 10.1182L18.8501 11.7754ZM18.9826 13.9798C18.3241 13.7435 17.7678 13.2841 17.4101 12.6645C17.0542 12.0481 16.934 11.34 17.0556 10.6544C17.9115 11.607 18.5744 12.7361 18.9826 13.9798ZM24.2895 15.7867C24.1405 15.9811 23.9838 16.1692 23.8202 16.3508C23.697 15.6636 23.817 14.9534 24.1737 14.3355C24.5324 13.7142 25.0908 13.254 25.7516 13.0183C25.4287 14.0074 24.9384 14.9401 24.2895 15.7867ZM23.4886 13.94C22.9474 14.8775 22.8349 15.9828 23.1701 17.0043C22.2599 17.8337 21.1896 18.4819 20.0343 18.8984C20.1666 18.2465 20.2363 17.5721 20.2363 16.8818C20.2363 16.5789 20.2222 16.2793 20.1959 15.9831C22.3096 14.7867 23.6181 12.551 23.6181 10.1182C23.6181 6.40369 20.5962 3.3818 16.8818 3.3818C15.0824 3.3818 13.3907 4.08254 12.1184 5.35486C11.964 5.50932 11.964 5.75975 12.1184 5.91416C12.2729 6.06862 12.5233 6.06862 12.6777 5.91416C13.8006 4.79123 15.2937 4.17282 16.8818 4.17282C20.16 4.17282 22.8271 6.83991 22.8271 10.1182C22.8271 12.157 21.7861 14.0394 20.0839 15.1283C19.9219 14.2049 19.6345 13.3241 19.2396 12.5044L21.3462 10.3978C21.4204 10.3237 21.4621 10.2231 21.4621 10.1182C21.4621 10.0133 21.4204 9.91269 21.3462 9.83855L17.1615 5.65376C17.0873 5.57956 16.9867 5.5379 16.8818 5.5379C16.7769 5.5379 16.6763 5.57956 16.6022 5.65376L14.4956 7.76039C13.1702 7.12178 11.6853 6.76366 10.1182 6.76366C10.0607 6.76366 10.0033 6.76487 9.94591 6.76587C10.0632 6.61859 10.1707 6.46239 10.2665 6.29643C10.8068 5.36055 10.9198 4.25735 10.5866 3.23731C10.7938 3.0472 11.0094 2.86596 11.2335 2.6952C12.0985 2.03597 13.0528 1.54127 14.065 1.22154C14.7822 2.02532 15.7966 2.482 16.8818 2.482C17.9645 2.482 18.9784 2.02653 19.6954 1.22513C21.0003 1.63888 22.1818 2.33228 23.1692 3.23494C22.8351 4.25561 22.9479 5.35982 23.4886 6.29643C24.0314 7.23653 24.9346 7.88669 25.9897 8.10569C26.1328 8.75412 26.209 9.42738 26.209 10.1182C26.209 10.8035 26.1358 11.4765 25.9929 12.13C24.9364 12.3483 24.032 12.9989 23.4886 13.94Z" fill="#274E8C"/>
<path d="M10.1182 10.1454C6.40367 10.1454 3.38177 13.1674 3.38177 16.8818C3.38177 20.5963 6.40372 23.6182 10.1182 23.6182C13.8326 23.6182 16.8546 20.5963 16.8546 16.8818C16.8546 15.3984 16.3755 13.9872 15.4692 12.8006C15.3366 12.6271 15.0885 12.5939 14.9148 12.7264C14.7412 12.859 14.708 13.1072 14.8406 13.2808C15.6407 14.3282 16.0635 15.5734 16.0635 16.8818C16.0635 20.1601 13.3965 22.8272 10.1182 22.8272C6.83988 22.8272 4.17279 20.1601 4.17279 16.8818C4.17279 13.6035 6.83988 10.9364 10.1182 10.9364C11.4266 10.9364 12.6718 11.3593 13.7192 12.1593C13.8927 12.292 14.141 12.2587 14.2736 12.0851C14.4062 11.9115 14.3729 11.6633 14.1994 11.5307C13.0128 10.6244 11.6016 10.1454 10.1182 10.1454Z" fill="#274E8C"/>
</g>
<defs>
<clipPath id="clip0">
<rect width="27" height="27" fill="white"/>
</clipPath>
</defs>
</svg>
