<svg width="8" height="8" viewBox="0 0 8 8" fill="none" xmlns="http://www.w3.org/2000/svg">
<path d="M4.25103 8H3.74895C3.34287 8 3.01248 7.66963 3.01248 7.26355V7.09369C2.83984 7.03853 2.67211 6.96891 2.51097 6.88552L2.39059 7.00589C2.09905 7.2978 1.63203 7.28923 1.34895 7.00578L0.994094 6.65094C0.710516 6.36767 0.702359 5.90081 0.994187 5.6093L1.11447 5.48902C1.03108 5.32787 0.961469 5.16017 0.906297 4.9875H0.736453C0.330391 4.9875 0 4.65712 0 4.25105V3.74895C0 3.34287 0.330391 3.0125 0.736469 3.0125H0.906313C0.961484 2.83984 1.03109 2.67213 1.11448 2.51098L0.994109 2.39062C0.702453 2.09928 0.7105 1.63237 0.994203 1.34898L1.34909 0.994109C1.63283 0.709984 2.09973 0.702891 2.39072 0.994203L2.51098 1.11447C2.67213 1.03109 2.83986 0.961469 3.0125 0.906297V0.736453C3.0125 0.330375 3.34288 0 3.74897 0H4.25105C4.65712 0 4.9875 0.330375 4.9875 0.736453V0.906313C5.16014 0.961469 5.32787 1.03109 5.48902 1.11448L5.60939 0.994109C5.90094 0.702203 6.36795 0.710766 6.65103 0.994219L7.00589 1.34906C7.28947 1.63233 7.29763 2.09919 7.0058 2.3907L6.88552 2.51098C6.96891 2.67213 7.03852 2.83983 7.09369 3.0125H7.26353C7.66961 3.0125 8 3.34287 8 3.74895V4.25105C8 4.65712 7.66961 4.9875 7.26353 4.9875H7.09369C7.03852 5.16016 6.96891 5.32787 6.88552 5.48902L7.00589 5.60939C7.29755 5.90073 7.2895 6.36764 7.0058 6.65103L6.65091 7.00591C6.36717 7.29003 5.90027 7.29713 5.60928 7.00581L5.48902 6.88555C5.32787 6.96892 5.16014 7.03855 4.9875 7.09372V7.26358C4.9875 7.66962 4.65713 8 4.25103 8V8ZM2.58933 6.39328C2.81319 6.52567 3.05413 6.62569 3.30544 6.69055C3.40894 6.71725 3.48125 6.81059 3.48125 6.91748V7.26355C3.48125 7.41116 3.60136 7.53125 3.74897 7.53125H4.25105C4.39866 7.53125 4.51877 7.41116 4.51877 7.26355V6.91748C4.51877 6.81059 4.59108 6.71725 4.69458 6.69055C4.94589 6.62569 5.18683 6.52567 5.41069 6.39328C5.5028 6.33881 5.62006 6.35363 5.69573 6.4293L5.94086 6.67444C6.04655 6.78025 6.21627 6.7778 6.31936 6.67455L6.67447 6.31945C6.77731 6.21673 6.78075 6.04698 6.67456 5.94094L6.42933 5.6957C6.35367 5.62005 6.33886 5.50277 6.39331 5.41067C6.5257 5.18683 6.6257 4.94589 6.69056 4.69456C6.71728 4.59106 6.81063 4.51877 6.9175 4.51877H7.26355C7.41116 4.51877 7.53127 4.39867 7.53127 4.25106V3.74897C7.53127 3.60136 7.41116 3.48127 7.26355 3.48127H6.9175C6.81061 3.48127 6.71728 3.40895 6.69056 3.30547C6.6257 3.05414 6.52569 2.8132 6.39331 2.58936C6.33886 2.49727 6.35367 2.37998 6.42933 2.30433L6.67447 2.05919C6.78044 1.95334 6.77767 1.78366 6.67456 1.68067L6.31948 1.32559C6.21656 1.22253 6.04681 1.21952 5.94097 1.3255L5.69575 1.57073C5.62009 1.64641 5.50278 1.66122 5.4107 1.60675C5.18684 1.47436 4.94591 1.37434 4.69459 1.30948C4.59109 1.28278 4.51878 1.18944 4.51878 1.08255V0.736453C4.51878 0.588844 4.39867 0.46875 4.25106 0.46875H3.74898C3.60137 0.46875 3.48127 0.588844 3.48127 0.736453V1.08252C3.48127 1.18941 3.40895 1.28275 3.30545 1.30945C3.05414 1.37431 2.8132 1.47433 2.58934 1.60672C2.49722 1.66117 2.37995 1.64636 2.3043 1.5707L2.05917 1.32556C1.95348 1.21975 1.78375 1.2222 1.68067 1.32545L1.32556 1.68055C1.22272 1.78327 1.21928 1.953 1.32547 2.05906L1.5707 2.3043C1.64636 2.37995 1.66117 2.49723 1.60672 2.58933C1.47433 2.81317 1.37433 3.05411 1.30947 3.30544C1.28275 3.40894 1.18941 3.48123 1.08253 3.48123H0.736469C0.588859 3.48125 0.46875 3.60134 0.46875 3.74895V4.25105C0.46875 4.39866 0.588859 4.51875 0.736469 4.51875H1.08252C1.18941 4.51875 1.28273 4.59106 1.30945 4.69455C1.37431 4.94587 1.47433 5.18681 1.6067 5.41066C1.66116 5.50275 1.64634 5.62003 1.57069 5.69569L1.32555 5.94083C1.21958 6.04667 1.22234 6.21636 1.32545 6.31934L1.68053 6.67442C1.78345 6.77748 1.9532 6.7805 2.05905 6.67452L2.30427 6.42928C2.36002 6.37355 2.476 6.32625 2.58933 6.39328V6.39328Z" fill="#2B7BFB"/>
<path d="M4.00002 5.74062C3.04023 5.74062 2.2594 4.95978 2.2594 3.99999C2.2594 3.04021 3.04023 2.25937 4.00002 2.25937C4.95982 2.25937 5.74065 3.04021 5.74065 3.99999C5.74065 4.95978 4.95982 5.74062 4.00002 5.74062V5.74062ZM4.00002 2.72812C3.2987 2.72812 2.72815 3.29868 2.72815 3.99999C2.72815 4.70131 3.29871 5.27187 4.00002 5.27187C4.70134 5.27187 5.2719 4.70131 5.2719 3.99999C5.2719 3.29868 4.70135 2.72812 4.00002 2.72812V2.72812Z" fill="#2B7BFB"/>
</svg>
