<svg width="54" height="60" fill="none" xmlns="http://www.w3.org/2000/svg"><path d="M53.565 8.066L51 5.808l2.564-2.257c.399-.352.535-.9.348-1.397a1.257 1.257 0 00-1.185-.819h-10.61V.88a.88.88 0 10-1.758 0v11.86l-7.222 3.922a2.782 2.782 0 00-.286-.924l-1.018-1.987a2.782 2.782 0 00-3.74-1.206l-.787.402a2.761 2.761 0 00-1.378 1.621 2.758 2.758 0 00.172 2.12l1.017 1.987c.238.464.59.83 1.002 1.088-.54.727-.797 1.622-1.06 2.551l-.19.671a.879.879 0 101.693.479l.19-.67c.385-1.36.621-2.087 1.375-2.496l1.35-.734.167-.085c.056-.029.107-.06.16-.092l9.628-5.228a3.721 3.721 0 01-1.776 2.988l-6.26 3.804a.38.38 0 00-.022.013l-1.949 1.184a.88.88 0 00.84 1.542l-1.478 4.47-1.08.443-2.94 1.204.848-2.993a.88.88 0 00-1.693-.48l-1.338 4.733a.841.841 0 00-.032.191l-.35 6.433c-.01.245.041.709-.072.948l-3.89 8.182h-2.825a3.006 3.006 0 00-3.003 3.002v2.538c-.379-.173-.8-.27-1.243-.27H5.993a3.005 3.005 0 00-3.002 3.002v3.15H.879A.88.88 0 10.88 60h51.848a.88.88 0 100-1.759h-2.286V35.575a3.005 3.005 0 00-3.003-3.002h-5.32v-15.34a5.484 5.484 0 00.884-4.7.878.878 0 00-.884-.646V10.28h10.61c.532 0 .996-.321 1.184-.818a1.257 1.257 0 00-.347-1.397zm-25.962 7.041c.084-.26.263-.47.506-.595l.787-.403a1.022 1.022 0 011.373.443l1.018 1.987a1.022 1.022 0 01-.339 1.311l-.287.155-.604.31c-.5.256-1.117.058-1.373-.443l-1.018-1.987a1.014 1.014 0 01-.063-.778zm-1.767 31.984a2.986 2.986 0 00-.965-.258l.965-1.282v1.54zm4.175-7.086c.423-.507.54-1.099.634-1.576.024-.113.458-2.484.458-2.484s.41.256.454.275c.03.013.05.042.054.077l.478 4.862h-2.947l.87-1.154zm5.2-4.854l-.742 6.004h-.613l-.495-5.03a1.853 1.853 0 00-1.036-1.487l-.884-.561.59-3.265s2.481 2.948 2.539 3.023c.514.668.69.935.642 1.316zm-9.498 4.256c.178-.535.26-1.079.246-1.632l.32-5.867 4.067-1.667-.74 4.095a.433.433 0 00-.005.034l-.612 3.386c-.08.35-.149.883-.368 1.171L22.68 46.82h-.49l3.524-7.413zM4.749 55.091c0-.685.558-1.242 1.244-1.242h7.177c.686 0 1.244.557 1.244 1.242v3.15H4.749v-3.15zm11.423 0v-5.269c0-.686.558-1.243 1.244-1.243h7.177c.686 0 1.243.557 1.243 1.243v8.42h-9.664v-3.15zm32.51-19.516v22.666h-9.664V52.97a.88.88 0 10-1.76 0v5.272h-9.663v-14.08c0-.685.558-1.243 1.243-1.243h7.178c.685 0 1.243.558 1.243 1.243v4.408a.88.88 0 101.758 0V35.575c0-.686.558-1.243 1.244-1.243h7.177c.686 0 1.244.558 1.244 1.243zm-8.42-3.002a3.005 3.005 0 00-3.003 3.002v5.855a2.978 2.978 0 00-1.02-.261l.718-5.801c.141-1.13-.436-1.88-.993-2.605a2246.3 2246.3 0 00-3.477-4.136l2.097-6.34 5.776-3.51v13.796h-.099zm1.856-24.05v-5.43h9.303L49.419 4.86a1.266 1.266 0 000 1.9l2.004 1.764h-9.304z" fill="#2B7BFB"/></svg>