<svg width="54" height="60" fill="none" xmlns="http://www.w3.org/2000/svg"><path d="M53.603 10.433a2.914 2.914 0 00-2.918-2.67h-7.58V6.647h.148a1.965 1.965 0 001.963-1.963V1.963C45.216.88 44.336 0 43.253 0H20.945a.879.879 0 100 1.758h22.308c.113 0 .205.092.205.205v2.72a.205.205 0 01-.205.206H10.395a.205.205 0 01-.206-.205V1.963c0-.113.092-.205.206-.205h6.43a.879.879 0 100-1.758h-6.43C9.312 0 8.431.88 8.431 1.963v2.72c0 1.083.88 1.964 1.963 1.964h.147v1.116h-7.58a2.914 2.914 0 00-2.917 2.67c-.018.199-.413 4.936 1.527 10.182 1.774 4.8 5.846 10.929 15.175 13.334a16.265 16.265 0 005.077 2.717l.442.73c.837 1.38 1.279 3.012 1.279 4.72a9.401 9.401 0 01-.494 3.026l-.614 1.81h-2.044a3.808 3.808 0 00-3.804 3.804v1.841H13.39a1.64 1.64 0 00-1.637 1.638v4.128c0 .903.735 1.637 1.637 1.637h26.868c.902 0 1.637-.734 1.637-1.637v-4.128a1.64 1.64 0 00-1.637-1.638h-3.199v-1.84a3.808 3.808 0 00-3.804-3.804h-2.044l-.614-1.81a9.397 9.397 0 01-.494-3.028c0-1.707.442-3.338 1.278-4.719l.443-.73A16.261 16.261 0 0036.9 33.95c9.329-2.405 13.4-8.534 15.175-13.334 1.94-5.246 1.545-9.983 1.527-10.182zM10.867 24.416C9.23 22.88 7.973 20.978 7.115 18.71a19.725 19.725 0 01-1.161-5.087h4.588v7.548c0 1.11.112 2.196.325 3.245zm-7.647-4.41c-1.804-4.88-1.44-9.234-1.425-9.417a1.166 1.166 0 011.168-1.068h7.579v2.344h-4.66a1.695 1.695 0 00-1.685 1.85 21.516 21.516 0 001.274 5.617c1.304 3.445 3.414 6.135 6.303 8.05a16.287 16.287 0 002.223 3.804c-6.368-2.64-9.367-7.368-10.777-11.18zm36.917 34.35v3.886H13.511v-3.887h26.626zm-6.882-5.646c1.128 0 2.046.918 2.046 2.046v1.841H18.347v-1.84c0-1.129.918-2.047 2.046-2.047h12.862zm-4.322-3.003l.422 1.245h-5.063l.423-1.245c.39-1.148.587-2.357.587-3.592 0-1.729-.386-3.398-1.12-4.878a16.32 16.32 0 005.285 0 10.966 10.966 0 00-1.121 4.878c0 1.235.197 2.444.587 3.592zm-2.11-10.012c-8.008 0-14.523-6.516-14.523-14.524V6.647h29.048V21.17c0 8.008-6.515 14.524-14.524 14.524zm23.605-15.69c-1.41 3.814-4.41 8.542-10.777 11.181a16.292 16.292 0 002.225-3.81c2.481-1.648 4.392-3.866 5.707-6.644a.879.879 0 10-1.588-.753c-.815 1.72-1.889 3.202-3.215 4.442.213-1.05.326-2.137.326-3.25v-7.548h4.588a20.88 20.88 0 01-.432 2.667.879.879 0 101.713.394c.222-.964.382-1.963.476-2.97a1.695 1.695 0 00-1.684-1.85h-4.661V9.522h7.58c.61 0 1.112.46 1.167 1.068.016.183.378 4.537-1.425 9.417z" fill="#2B7BFB"/><path d="M32.603 17.07l-2.52-.367a.337.337 0 01-.254-.184l-1.127-2.284a2.082 2.082 0 00-1.878-1.167 2.08 2.08 0 00-1.878 1.167l-1.128 2.284a.337.337 0 01-.253.184l-2.52.366a2.081 2.081 0 00-1.691 1.426 2.082 2.082 0 00.53 2.147l1.823 1.778c.08.077.116.189.097.298l-.43 2.51a2.082 2.082 0 00.833 2.049c.65.472 1.495.533 2.206.16l2.254-1.186a.336.336 0 01.314 0l2.254 1.185a2.087 2.087 0 002.206-.16 2.08 2.08 0 00.833-2.048l-.43-2.51a.336.336 0 01.096-.298l1.824-1.778c.575-.56.778-1.383.53-2.147a2.082 2.082 0 00-1.69-1.426zm-.066 2.313l-1.823 1.778a2.095 2.095 0 00-.603 1.854l.43 2.51a.323.323 0 01-.134.33.323.323 0 01-.354.025l-2.255-1.185a2.093 2.093 0 00-1.949 0l-2.254 1.185a.324.324 0 01-.355-.025.324.324 0 01-.134-.33l.43-2.51a2.094 2.094 0 00-.602-1.854l-1.824-1.777a.324.324 0 01-.085-.346.324.324 0 01.272-.23l2.52-.365a2.095 2.095 0 001.578-1.146l1.127-2.284a.323.323 0 01.302-.188c.078 0 .221.025.302.188l1.127 2.284a2.095 2.095 0 001.577 1.146l2.52.366c.18.026.248.155.272.23a.323.323 0 01-.085.344z" fill="#2B7BFB"/></svg>