<svg width="60" height="60" fill="none" xmlns="http://www.w3.org/2000/svg"><path d="M20.22 45.928a1.221 1.221 0 00-.174-.422 1.12 1.12 0 00-.323-.324 1.157 1.157 0 00-.422-.175 1.153 1.153 0 00-.678.067 1.189 1.189 0 00-.525.432 1.115 1.115 0 00-.174.422 1.157 1.157 0 00.32 1.057 1.183 1.183 0 00.829.343 1.157 1.157 0 00.447-.09 1.157 1.157 0 00.634-.634 1.18 1.18 0 00.067-.676z" fill="#2B7BFB"/><path d="M53.905 46.288a1.054 1.054 0 00-.014-.034c-1.078-2.524-3.608-3.457-6.602-2.435l-8.164 2.258c-.472-1.43-1.65-2.646-3.314-3.264a1.038 1.038 0 00-.031-.01l-8.974-3.047c-.747-.966-3.087-3.436-7.468-3.436-3.062 0-5.77 2.1-7.32 4.39H1.173A1.17 1.17 0 000 41.88v14.776c0 .648.525 1.172 1.172 1.172h6.967c.648 0 1.172-.524 1.172-1.172v-1.011h3.268c.647 0 1.172-.525 1.172-1.172v-.338c1.905.166 2.531.528 4.28 1.537 1.346.776 3.379 1.948 7.04 3.594l.052.022c.703.277 2.077.711 3.77.711a9.34 9.34 0 003.883-.831l18.046-6.462c.032-.012.063-.025.094-.039 1.725-.793 4.295-3.03 2.99-6.38zM6.968 55.485H2.344V43.053h4.624v12.432zm4.439-2.184H9.311V43.053h2.096v10.248zm38.573-2.783l-18.038 6.46a1.254 1.254 0 00-.1.04c-2.512 1.155-4.9.463-5.836.1-3.537-1.592-5.425-2.68-6.804-3.476-1.917-1.106-2.842-1.64-5.451-1.855v-9.439c1.11-1.82 3.265-3.685 5.587-3.685 3.983 0 5.67 2.591 5.737 2.696.143.232.363.408.622.496l9.313 3.16c1.488.56 2.274 1.833 1.912 3.104a2.269 2.269 0 01-1.084 1.37 2.27 2.27 0 01-1.721.206l-10.5-3.328a1.172 1.172 0 10-.707 2.235l10.517 3.333.034.01a4.602 4.602 0 003.518-.409 4.596 4.596 0 002.27-3.061l8.798-2.438c1.27-.434 2.939-.59 3.682 1.12.768 2.009-1.23 3.114-1.749 3.361zm-7.903-35.104a1.142 1.142 0 00-.175-.422 1.124 1.124 0 00-.324-.324 1.196 1.196 0 00-.42-.174 1.162 1.162 0 00-.88.175 1.125 1.125 0 00-.324.323 1.19 1.19 0 00-.198.65 1.157 1.157 0 00.09.448 1.156 1.156 0 00.634.634 1.18 1.18 0 00.677.067 1.239 1.239 0 00.421-.175 1.125 1.125 0 00.324-.323c.043-.063.078-.131.107-.203a1.108 1.108 0 00.09-.447c0-.077-.006-.154-.022-.23z" fill="#2B7BFB"/><path d="M58.828 3.97H51.86a1.17 1.17 0 00-1.171 1.171v1.012H47.42c-.647 0-1.172.525-1.172 1.172v.337c-1.905-.166-2.531-.527-4.28-1.536-1.346-.776-3.379-1.948-7.04-3.595a.977.977 0 00-.052-.022c-1.192-.469-4.316-1.391-7.653.12L22.51 4.32 18.534.342a1.172 1.172 0 00-1.657 0L3.827 13.394a1.162 1.162 0 000 1.658l22.3 22.3c.356.358 1.192.466 1.657 0l11.913-11.914c.31.027.632.041.965.041 3.062 0 5.77-2.1 7.319-4.39h10.847c.647 0 1.172-.524 1.172-1.172V5.141c0-.647-.525-1.172-1.172-1.172zM17.705 2.83l2.671 2.67a5.058 5.058 0 01-2.67.754 5.06 5.06 0 01-2.672-.753l2.671-2.672zM8.984 16.893l-2.671-2.671 2.67-2.671a5.06 5.06 0 01.755 2.67 5.06 5.06 0 01-.754 2.672zm17.971 17.973l-2.67-2.671a5.102 5.102 0 015.34 0l-2.67 2.67zm4.359-4.36a7.446 7.446 0 00-8.718 0L10.672 18.583a7.379 7.379 0 001.41-4.36c0-1.588-.495-3.1-1.41-4.359l2.674-2.674a7.377 7.377 0 004.36 1.41c1.588 0 3.1-.495 4.359-1.41l2.534 2.535c-.547.08-1.08.261-1.577.538a4.593 4.593 0 00-1.91 2.017 6.677 6.677 0 00-3.505 1.845 6.689 6.689 0 000 9.448 6.66 6.66 0 004.723 1.954 6.66 6.66 0 004.724-1.954 6.654 6.654 0 001.738-3.024l3.957 1.343a7.483 7.483 0 001.241 5.94l-2.676 2.677zm-7.125-11.522l.031.012 2.343.795a4.317 4.317 0 01-1.166 2.123 4.341 4.341 0 01-6.133 0 4.342 4.342 0 011.414-7.077c.216 1.8 1.512 3.406 3.511 4.147zm11.49 7.157a5.128 5.128 0 01-.75-2.437 9.115 9.115 0 002.068 1.12l-1.319 1.317zm10.57-6.692c-1.11 1.821-3.265 3.685-5.587 3.685-.435 0-.842-.031-1.223-.086h-.004c-2.531-.368-3.892-1.807-4.341-2.377-.024-.035-.126-.168-.141-.19a1.167 1.167 0 00-.646-.537l-9.317-3.163c-1.487-.558-2.273-1.831-1.913-3.101l.001-.003v-.003a2.268 2.268 0 011.084-1.366 2.267 2.267 0 011.721-.205l10.5 3.327a1.172 1.172 0 10.707-2.235l-8.35-2.646-.073-.073-.002-.002-4.323-4.324 3.716-1.33c.012-.005.028-.01.04-.016l.012-.004.048-.02c2.512-1.156 4.9-.464 5.835-.1 3.538 1.591 5.425 2.68 6.805 3.475 1.917 1.106 2.841 1.64 5.451 1.855v9.44zm4.44-.705h-2.096V8.497h2.096v10.248zm6.967 0h-4.624V6.313h4.624v12.432z" fill="#2B7BFB"/></svg>