<svg width="60" height="60" fill="none" xmlns="http://www.w3.org/2000/svg"><path d="M29.895 7.624c.654 0 1.184-.528 1.184-1.18V1.18c0-.652-.53-1.18-1.184-1.18-.654 0-1.184.528-1.184 1.18v5.264c0 .652.53 1.18 1.184 1.18zm28.949 32.921l-2.092-2.08a3.932 3.932 0 00-2.793-1.148c-.676 0-1.325.168-1.9.482l-3.942-3.925.192-.19a4.086 4.086 0 00-2.062-6.895c.107-.369.164-.754.164-1.149a4.047 4.047 0 00-1.201-2.892 4.07 4.07 0 00-2.062-1.11c.107-.369.163-.754.163-1.149a4.047 4.047 0 00-1.202-2.893 4.09 4.09 0 00-2.06-1.108 4.093 4.093 0 00-1.037-4.044 4.12 4.12 0 00-3.343-1.169l-7.813-1.473c-1.191-.225-2.68-.374-3.619.48-.059.053-.12.115-.179.184a4.129 4.129 0 00-4.32.947 4.053 4.053 0 00-1.2 2.893c0 .395.055.78.162 1.149-.776.16-1.488.54-2.058 1.108a4.047 4.047 0 00-1.203 2.89c0 .396.056.783.163 1.152a4.076 4.076 0 00-2.06 1.107 4.056 4.056 0 00-1.202 2.895c0 .839.25 1.638.717 2.313a4.087 4.087 0 00-1.576 6.766l.19.19-3.943 3.922a3.97 3.97 0 00-4.48.773l-2.093 2.08A3.9 3.9 0 000 43.436a3.9 3.9 0 001.155 2.784l2.612 2.6c.463.461 1.213.46 1.675 0a1.177 1.177 0 000-1.67l-2.613-2.6a1.56 1.56 0 01-.46-1.114c0-.423.163-.818.459-1.113l2.093-2.08a1.59 1.59 0 011.932-.236 1.191 1.191 0 00.49.417L19.347 52.37a1.18 1.18 0 00.571.575c.254.286.395.651.395 1.041 0 .423-.164.819-.46 1.114l-2.092 2.082a1.595 1.595 0 01-2.24.002L12.91 54.58a1.187 1.187 0 00-1.675 0 1.177 1.177 0 000 1.669l2.615 2.605A3.95 3.95 0 0016.64 60a3.955 3.955 0 002.794-1.147l2.093-2.083a3.9 3.9 0 001.154-2.784c0-.752-.21-1.47-.6-2.09l4.438-4.417a.97.97 0 01.014-.014c.508-.524 1.923-.426 3.292-.331.972.067 2.056.142 3.115.02l4.86 4.838a3.907 3.907 0 00-.483 1.89c0 1.053.41 2.04 1.155 2.782l2.093 2.083a3.932 3.932 0 002.793 1.149 3.932 3.932 0 002.793-1.15l12.693-12.633A3.9 3.9 0 0060 43.329a3.9 3.9 0 00-1.156-2.784zM27.415 12.12l5.138.969-3.075 3.063c-.476-.228-1.128-.652-1.843-1.334-.98-.934-1.68-2.011-1.743-2.683v-.001a1.023 1.023 0 01-.006-.117c.155-.037.567-.079 1.53.103zm-6.004.962a1.752 1.752 0 012.21-.209c.384 1.606 1.758 3.06 2.376 3.65.459.437 1.929 1.747 3.413 2.107.2.287.31.628.31.99a1.727 1.727 0 01-1.736 1.729 1.736 1.736 0 01-1.232-.507l-5.341-5.314a1.712 1.712 0 01-.505-1.223c0-.464.18-.899.505-1.223zm-3.095 5.15a1.726 1.726 0 011.229-.504c.467 0 .904.18 1.232.506l4.3 4.277c.678.676.678 1.776.003 2.45a1.738 1.738 0 01-1.233.504c-.468 0-.907-.18-1.233-.503l-3.263-3.25-.015-.016-1.021-1.016a1.715 1.715 0 01-.508-1.226c0-.463.18-.896.51-1.222zm-3.1 5.15a1.732 1.732 0 011.23-.504c.464 0 .898.176 1.223.495l3.272 3.26c.327.324.506.758.506 1.222 0 .464-.18.898-.507 1.223a1.73 1.73 0 01-1.23.503c-.467 0-.905-.18-1.232-.503l-1.186-1.181h-.001l-2.075-2.066a1.715 1.715 0 01-.508-1.225c0-.464.18-.9.508-1.225zm-2.063 6.185a1.734 1.734 0 011.232-.505c.467 0 .905.179 1.232.505l1.188 1.182c.327.324.507.758.507 1.222a1.727 1.727 0 01-1.738 1.729 1.73 1.73 0 01-1.233-.507l-.148-.147-.006-.006-.007-.006-1.026-1.02a1.729 1.729 0 01-.001-2.447zM37.288 42.98a1.187 1.187 0 00-1.675 0l-1.053 1.048c-1.002.998-2.816.872-4.57.75-1.906-.131-3.876-.267-5.15 1.037l-4.363 4.342L9.568 39.303l3.86-3.84c.639.39 1.375.599 2.146.599 1.1 0 2.132-.426 2.903-1.195a4.048 4.048 0 001.204-2.895l-.001-.03h.03c1.1 0 2.13-.423 2.903-1.192a4.049 4.049 0 001.203-2.894v-.03h.03c1.1 0 2.131-.423 2.908-1.194a4.075 4.075 0 001.198-2.924l.032.001c1.1 0 2.133-.425 2.905-1.196a4.053 4.053 0 001.2-2.893 4.06 4.06 0 00-.6-2.133l3.384-3.37a1.74 1.74 0 01.89-.473 1.746 1.746 0 011.576.47c.677.676.677 1.776.002 2.45l-1.03 1.022-.01.01-1.188 1.18a1.177 1.177 0 000 1.67 1.187 1.187 0 001.674 0l1.035-1.029.157-.156a1.75 1.75 0 012.458.006c.326.324.506.758.506 1.222 0 .464-.18.898-.51 1.224l-1.035 1.035-1.188 1.179a1.177 1.177 0 00-.003 1.669 1.187 1.187 0 001.675.003l1.192-1.183a1.727 1.727 0 011.23-.505 1.73 1.73 0 011.23 2.953l-2.066 2.06a1.177 1.177 0 000 1.669c.231.23.534.345.837.345.303 0 .607-.115.838-.346l1.012-1.01.018-.015a1.727 1.727 0 011.23-.505 1.728 1.728 0 011.23 2.952l-1.029 1.025-.001.001-.001.001-1.634 1.627a1.177 1.177 0 00-.001 1.669 1.184 1.184 0 001.675.001l.799-.796 3.83 3.813-10.907 10.857-3.908-3.89a4.7 4.7 0 00.778-.624l1.053-1.048c.463-.46.463-1.208.001-1.669zm19.883 1.462L44.478 57.077a1.574 1.574 0 01-1.12.458c-.424 0-.822-.163-1.119-.458l-2.093-2.083a1.557 1.557 0 01-.46-1.112c0-.422.164-.817.46-1.112L52.84 40.136a1.575 1.575 0 011.12-.459c.424 0 .822.163 1.12.46l2.091 2.078c.297.296.46.691.46 1.114 0 .423-.163.819-.46 1.114zM14.169 6.63a1.184 1.184 0 001.674-.003 1.177 1.177 0 00-.001-1.669L11.526.666a1.187 1.187 0 00-1.675.002 1.177 1.177 0 00.002 1.669l4.316 4.292zm30.616.344c.303 0 .606-.115.837-.345l4.312-4.292a1.177 1.177 0 000-1.67 1.187 1.187 0 00-1.674 0l-4.312 4.292a1.177 1.177 0 00-.001 1.669c.231.23.534.346.838.346z" fill="#2B7BFB"/><path d="M7.282 50.766a1.177 1.177 0 00.015 1.669l.003.003a1.184 1.184 0 001.673-.016 1.18 1.18 0 00-.016-1.67 1.187 1.187 0 00-1.675.014zm32.903-9.485a1.178 1.178 0 001.059-1.712 1.186 1.186 0 00-1.591-.522l-.007.003a1.175 1.175 0 00-.52 1.584c.207.41.625.647 1.059.647z" fill="#2B7BFB"/></svg>