<svg width="60" height="60" fill="none" xmlns="http://www.w3.org/2000/svg"><path d="M9.969 53.312a1.18 1.18 0 00-.829-.343c-.308 0-.61.125-.828.343a1.18 1.18 0 00-.344.829c0 .308.126.61.344.828.218.218.52.343.828.343.308 0 .61-.125.829-.343a1.18 1.18 0 00.343-.828c0-.309-.125-.61-.343-.829zm45.052-31.874a1.178 1.178 0 00-.828-.343c-.308 0-.61.125-.829.343a1.18 1.18 0 00-.343.829c0 .308.125.61.343.828.218.218.52.343.829.343a1.178 1.178 0 001.173-1.171c0-.309-.126-.611-.345-.829z" fill="#2B7BFB"/><path d="M59.655.343A1.172 1.172 0 0058.826 0L30 .002c-.647 0-1.172.524-1.172 1.171v3.352L17.72 7.5c-.625.168-.996.81-.829 1.435l5.758 21.486-4.98 4.98a3.514 3.514 0 00-2.903-1.534H3.515A3.52 3.52 0 000 37.383v19.101A3.52 3.52 0 003.515 60h11.25a3.521 3.521 0 003.412-2.67l1.393 1.215A5.905 5.905 0 0023.451 60h35.376c.647 0 1.171-.525 1.171-1.172V1.172c0-.31-.123-.609-.343-.829zM15.937 56.484c0 .646-.526 1.172-1.172 1.172H3.515a1.173 1.173 0 01-1.171-1.172v-19.1c0-.647.525-1.172 1.171-1.172h4.453V49.71a1.172 1.172 0 002.344 0v-13.5h4.453c.646 0 1.172.526 1.172 1.172v19.101zm3.52-47.022l9.37-2.511v4.342l-.785.21a1.172 1.172 0 00-.829 1.436 3.159 3.159 0 01-2.231 3.864 1.172 1.172 0 00-.828 1.438l4.568 16.915H26.37l-1.212-4.742a1.171 1.171 0 00-.197-.411L19.458 9.462zm9.37 7.205v9.889l-2.137-7.914a5.49 5.49 0 002.137-1.975zm16.836 40.99H23.45a3.56 3.56 0 01-2.34-.878l-2.83-2.468V38.103l5.116-5.116.928 3.63c.132.52.6.882 1.135.882l23.04.001a1.642 1.642 0 010 3.281H36.694a1.172 1.172 0 000 2.344h15.473a1.642 1.642 0 01.001 3.281H36.693a1.172 1.172 0 000 2.344H49.66a1.641 1.641 0 010 3.281H36.694a1.172 1.172 0 000 2.344h8.969c.904 0 1.64.736 1.64 1.641 0 .904-.736 1.64-1.64 1.64zm11.992 0h-8.363a3.958 3.958 0 000-3.282h.368a3.989 3.989 0 003.984-3.984c0-.641-.153-1.247-.423-1.784a3.99 3.99 0 002.93-3.841c0-.889-.292-1.71-.786-2.374V27.54a1.172 1.172 0 00-2.344 0v13.335a3.989 3.989 0 00-.854-.093h-.038a3.96 3.96 0 00.355-1.641 3.989 3.989 0 00-3.985-3.984h-1.883A5.616 5.616 0 0050.02 30a5.615 5.615 0 00-5.608-5.608A5.615 5.615 0 0038.803 30a5.618 5.618 0 003.405 5.157h-6.406V12.875a5.516 5.516 0 004.202-4.202h8.815a5.516 5.516 0 004.201 4.201v3.644a1.172 1.172 0 002.344 0v-4.69c0-.647-.525-1.172-1.172-1.172a3.159 3.159 0 01-3.155-3.155c0-.647-.525-1.172-1.172-1.172H38.96c-.647 0-1.172.525-1.172 1.172a3.159 3.159 0 01-3.155 3.155c-.647 0-1.172.525-1.172 1.172v23.329H31.17V2.345l26.484-.001v55.312zM44.413 33.264A3.268 3.268 0 0141.148 30c0-1.8 1.465-3.265 3.265-3.265S47.677 28.2 47.677 30s-1.464 3.264-3.264 3.264z" fill="#2B7BFB"/></svg>