<svg width="60" height="60" fill="none" xmlns="http://www.w3.org/2000/svg"><path d="M30.015 45.86a4.03 4.03 0 004.029-4.023 4.03 4.03 0 00-8.058 0 4.03 4.03 0 004.029 4.022zm0-6.288a2.27 2.27 0 012.268 2.264 2.27 2.27 0 01-4.537 0 2.27 2.27 0 012.269-2.264z" fill="#2B7BFB"/><path d="M57.07 54.15h-2.843l.877-.843a4.987 4.987 0 001.324-5.068l-3.031-9.98a8.385 8.385 0 00-6.697-5.868l-1.218-.202a3.672 3.672 0 00-2.786-1.279h-4.887a1.752 1.752 0 01-1.303-1.54l-.164-1.784c2.184-1.634 3.941-4.1 4.272-7.3h.37a2.65 2.65 0 002.65-2.645v-1.957c0-1.04-.606-1.943-1.483-2.375v-2.317a.88.88 0 00-1.761 0v2.047h-.653c-.488 0-.929-.361-.929-.89v-1.761a2.778 2.778 0 00-2.777-2.773c-.14.01-1.066-.066-2.246.334-.158.04-1.615.647-3.677.647-2.055 0-3.524-.608-3.676-.647-1.241-.42-2.195-.319-2.433-.334a2.778 2.778 0 00-2.777 2.773v1.761c0 .52-.449.89-.93.89h-.654V6.585a2.432 2.432 0 012.83-2.397c1.235.192 2.333-.603 2.46-1.847.255-.363.67-.583 1.122-.583h9.895a4.437 4.437 0 014.444 4.435v.534c.003.754.578.953.881.953a.88.88 0 00.88-.879v-.608A6.196 6.196 0 0035.945 0H26.05a3.12 3.12 0 00-2.768 1.669c-.117.221-.1.42-.102.433 0 .276-.175.39-.441.349-2.58-.402-4.862 1.576-4.862 4.134v6.725a2.648 2.648 0 00-1.48 2.373v1.958a2.65 2.65 0 002.649 2.645h.37c.198 1.88.907 3.649 2.075 5.16a11.39 11.39 0 002.196 2.149l-.164 1.775a1.752 1.752 0 01-1.303 1.54h-4.886a3.671 3.671 0 00-2.787 1.279l-1.218.201a8.386 8.386 0 00-6.697 5.87l-3.03 9.98a4.987 4.987 0 001.323 5.066l.878.844H2.93A2.93 2.93 0 000 57.075 2.931 2.931 0 002.93 60h54.14A2.93 2.93 0 0060 57.075a2.93 2.93 0 00-2.93-2.925zm-16.4-39.354h.315a.89.89 0 01.889.888v1.957c0 .49-.4.887-.889.887h-.317l.002-3.732zm-21.623 3.732a.889.889 0 01-.89-.887v-1.957a.89.89 0 01.89-.888h.315v3.732h-.316zm27.366 15.597a6.636 6.636 0 015.3 4.644l3.03 9.98a3.239 3.239 0 01-.86 3.291l-2.194 2.11h-1.912c.178-.48.271-.992.271-1.517a1.825 1.825 0 00-1.825-1.821h-1.85V34.58c0-.158-.01-.314-.03-.467l.07.012zm1.81 18.445c.036 0 .065.028.065.064 0 .55-.172 1.077-.49 1.516H12.233a2.576 2.576 0 01-.49-1.516c0-.036.028-.064.064-.064h36.416zm-27.1-33.173v-4.729c1.063-.337 1.86-1.313 1.86-2.52v-1.76c0-.56.456-1.015 1.016-1.015.258.015.946-.072 1.868.24.168.044 1.854.74 4.242.74 2.346 0 4.128-.71 4.242-.74.873-.295 1.55-.231 1.68-.24.561 0 1.017.455 1.017 1.015v1.76c0 1.21.8 2.182 1.861 2.52l-.002 4.73c-.07 3.127-1.74 5.199-3.128 6.387-1.677 1.434-3.884 2.34-5.763 2.363-3.699-.046-8.77-3.344-8.892-8.75zM35.175 30.91h-10.32c.229-.415.376-.882.421-1.378l.082-.884c1.475.777 2.974 1.24 4.647 1.258h.02c1.427-.016 3.077-.448 4.645-1.268l.083.894c.046.496.192.963.42 1.378zM5.287 48.749l3.03-9.98a6.637 6.637 0 015.3-4.644l.07-.012c-.02.153-.03.309-.03.467v5.393a.88.88 0 001.761 0V34.58c0-1.055.86-1.912 1.916-1.912h25.362c1.056 0 1.915.857 1.915 1.912v16.232H15.418V44.13a.88.88 0 00-1.76 0v6.68h-1.851a1.825 1.825 0 00-1.825 1.822c0 .525.093 1.037.271 1.517H8.342l-2.196-2.11a3.239 3.239 0 01-.86-3.291zm51.783 9.493H2.93a1.17 1.17 0 01-1.17-1.167 1.17 1.17 0 011.17-1.168h54.14c.645 0 1.17.524 1.17 1.168a1.17 1.17 0 01-1.17 1.167z" fill="#2B7BFB"/></svg>