<svg width="11" height="11" fill="none" xmlns="http://www.w3.org/2000/svg"><path fill-rule="evenodd" clip-rule="evenodd" d="M5 1.5a.5.5 0 01-.5.5H3a2 2 0 00-2 2v4a2 2 0 002 2h4a2 2 0 002-2V6.5a.5.5 0 011 0V8a3 3 0 01-3 3H3a3 3 0 01-3-3V4a3 3 0 013-3h1.5a.5.5 0 01.5.5z" fill="#fff"/><rect x="9" y="1" width="1" height="4" rx=".5" fill="#fff"/><rect x="10" y="1" width="1" height="4" rx=".5" transform="rotate(90 10 1)" fill="#fff"/><rect x="9.5" y=".793" width="1" height="7" rx=".5" transform="rotate(45 9.5 .793)" fill="#fff"/></svg>