<svg width="13" height="10" fill="none" xmlns="http://www.w3.org/2000/svg"><path d="M10.79 2.632H1.315C.59 2.632 0 3.222 0 3.947v2.106c0 .725.59 1.315 1.316 1.315h9.473c.726 0 1.316-.59 1.316-1.315V3.947c0-.725-.59-1.315-1.316-1.315zm.789 3.42a.79.79 0 01-.79.79H1.316a.79.79 0 01-.79-.79V3.948a.79.79 0 01.79-.79h9.473a.79.79 0 01.79.79v2.106z" fill="#fff"/><path d="M6.053 0a.263.263 0 00-.264.263v2.632a.263.263 0 00.527 0V.263A.263.263 0 006.053 0zm0 6.842a.263.263 0 00-.264.263v2.632a.263.263 0 00.527 0V7.105a.263.263 0 00-.263-.263z" fill="#fff"/><path d="M8.661 2.825C8.179 1.082 7.18 0 6.053 0 4.925 0 3.926 1.082 3.444 2.825a.263.263 0 10.507.14C4.361 1.484 5.186.526 6.053.526c.866 0 1.691.958 2.102 2.439a.262.262 0 00.323.183.263.263 0 00.183-.323zm-.183 4.027a.263.263 0 00-.324.183c-.41 1.481-1.235 2.439-2.101 2.439-.867 0-1.692-.958-2.102-2.439a.262.262 0 10-.507.14C3.926 8.918 4.925 10 6.053 10 7.18 10 8.179 8.918 8.66 7.175a.263.263 0 00-.183-.323z" fill="#fff"/><path d="M10.527 2.777A4.972 4.972 0 006.053 0a4.972 4.972 0 00-4.475 2.778.263.263 0 00.471.234A4.45 4.45 0 016.053.526a4.45 4.45 0 014.003 2.486.262.262 0 10.47-.235zm-.119 4.093a.263.263 0 00-.352.118 4.45 4.45 0 01-4.003 2.486 4.45 4.45 0 01-4.004-2.486.263.263 0 00-.47.235A4.972 4.972 0 006.052 10a4.972 4.972 0 004.474-2.778.263.263 0 00-.119-.353zm-3.24-3.178a.261.261 0 00-.319.192l-.306 1.228-.24-.721c-.072-.215-.428-.215-.5 0l-.24.721-.308-1.228a.263.263 0 10-.51.127l.526 2.105a.263.263 0 00.245.2.246.246 0 00.26-.18l.277-.83.276.83c.036.108.137.18.25.18h.01a.263.263 0 00.245-.2l.526-2.105a.263.263 0 00-.192-.319zm-3.157 0a.262.262 0 00-.32.192l-.306 1.228-.24-.721c-.072-.215-.428-.215-.5 0l-.24.721-.308-1.228a.263.263 0 00-.51.127l.526 2.105a.263.263 0 00.245.2.245.245 0 00.26-.18l.277-.83.276.83c.036.108.137.18.25.18h.01a.263.263 0 00.245-.2l.527-2.105a.263.263 0 00-.192-.319zm6.315 0a.261.261 0 00-.319.192l-.306 1.228-.241-.721c-.072-.215-.427-.215-.5 0l-.24.721-.307-1.228a.263.263 0 10-.51.127l.526 2.105a.263.263 0 00.245.2.248.248 0 00.26-.18l.277-.83.276.83c.036.108.137.18.25.18h.01a.263.263 0 00.245-.2l.526-2.105a.263.263 0 00-.192-.319z" fill="#fff"/></svg>