<svg width="8" height="7" fill="none" xmlns="http://www.w3.org/2000/svg"><path d="M.535 3.73v2.803c0 .258.21.467.468.467h2.336V3.73H.535zm6.542-1.87H5.6c.106-.072.197-.144.26-.209a.977.977 0 000-1.374.987.987 0 00-1.37 0c-.203.203-.74 1.03-.666 1.583H3.79c.074-.553-.463-1.38-.666-1.583a.988.988 0 00-1.37 0 .978.978 0 000 1.374c.064.065.155.137.26.21H.536a.468.468 0 00-.467.466v.701c0 .13.105.234.234.234H3.34v-.935h.934v.935h3.038a.234.234 0 00.233-.234v-.7a.468.468 0 00-.467-.468zm-3.766-.015s-.02.015-.086.015c-.323 0-.94-.335-1.14-.538a.51.51 0 010-.716.496.496 0 01.707 0c.315.317.628 1.126.52 1.239zm1.076.015c-.066 0-.086-.015-.086-.015-.109-.113.204-.922.52-1.24a.51.51 0 01.707 0 .509.509 0 010 .717c-.201.203-.818.538-1.141.538zm-.114 1.87V7H6.61c.258 0 .467-.21.467-.467V3.729H4.273z" fill="#2B7BFB"/></svg>