<svg width="13" height="11" fill="none" xmlns="http://www.w3.org/2000/svg"><path d="M11.947 4.88c-.118.059-.252.13-.392.11-.202-.027-.435-.232-.597-.331-.636-.391-1.308-.707-2.04-.868-.418-.093-.793-.073-1.216-.057-.545.021-1.077.147-1.621.183-.31.02-.544.026-.829-.09-.105-.043-.215-.075-.322-.11-.068-.024-.13-.077-.17-.01-.04.069-.073.14-.135.191-.106.089-.131.075-.059.189.056.087.108.177.166.262.076.111.328.333.328.465 0 .097.363.319.44.382.037.032.113.003.058.086-.02.03-.082.114-.126.092-.092-.047-.171-.112-.255-.174.06.249.143.503.175.757.05.385.082.772.186 1.147a4.743 4.743 0 001.02 1.904c.23.254.488.48.767.68.12.085.382.217.397.388.01.116.02.255-.03.364-.026.054-.093.088-.11.146-.028.107-.017.124-.122.155-.067.02-.146.07-.21.082-.12.021-.24-.073-.335-.13a6.262 6.262 0 01-.841-.609c-.946-.805-1.677-1.99-1.808-3.24-.06-.572-.136-1.136-.207-1.705-.013-.113-.108-.154-.165-.246-.083-.136-.157-.282-.25-.411-.143-.202-.34-.512-.567-.606-.265-.109-.524-.22-.793-.32-.17-.064-.308-.216-.447-.33L.13 1.831a.681.681 0 01-.13-.14c.003.004.051-.15.07-.169.04-.04.102-.034.15-.017l.849.326 1.113.426c.266.102.333.098.366.396.017.154.246.144.336.045.016-.018.038-.116.065-.15l.18-.237c.102-.135-.052-.192-.16-.157-.104.035-.187-.004-.25-.087L1.447.386 1.281.168C1.157.004 1.361 0 1.455 0c.048 0 .111.067.148.093l.41.287c.337.234.674.47 1.01.705l.326.226c.034.025.152.053.162.066.177.247.355.494.53.741.078.108.16.2.25.297.064.068.274.087.371.117.277.083.554.163.838.216.272.05.588-.027.863-.05.543-.045 1.094-.042 1.637-.063.427-.016.899-.017 1.313.091.228.06.478.095.689.208l.777.417c.436.235.838.573 1.248.853.156.157.155.558-.08.675zm-5.84-.152c-.08-.158-.143-.161-.31-.227-.102-.039-.259-.145-.372-.1-.116 0-.04.18.033.198l.255.064c.09.022.308.122.393.065zm-.845-.085c-.088-.029-.115.078-.057.136.103.103.31.174.435.247.073.043.274.122.218-.062-.14-.08-.281-.158-.422-.237-.058-.033-.11-.063-.174-.084zm1.028-.4c-.053-.04-.125-.042-.189-.053l-.453-.077c-.08 0-.096.21 0 .21.033.022.132.015.17.02.151.019.303.045.455.045.076 0 .046-.11.017-.144z" fill="#2B7BFB"/></svg>