<svg width="12" height="14" fill="none" xmlns="http://www.w3.org/2000/svg"><path d="M11.502 5.424c-1.994.796-3.733 2.078-.202 5.021-4.03-1.994-4.291.208-4.422 3.371C5.822 10.03 4.226 9.045.374 11.128 2.777 7.822 3.786 6.825.19 3.323c0 0 5.098 3.306 5.086-2.67.588 5.003 3.353 2.172 4.071 1.044-.742 1.448-2.112 3.852 2.155 3.727z" fill="#F1C40F"/><path d="M5.78 4.415c.025.909.683 1.478 1.781.837-1.365 1.33.914 1.211.914 1.211-1.121.29-2.213.677-2.118 3.4 0 0-.202-2.723-2.885-1.038 0 0 2.41-1.335.653-2.766 1.674.25 1.656-1.65 1.656-1.65v.006zM3.94 9.181l-2.432 2.386s1.543-.902 2.433-2.386zm1.366.582l.54 3.092s.071-2.107-.54-3.092zm1.258.843l.694 1.697s-.498-.683-.694-1.697zM5.18 3.674L4.048 0s.309 1.786 1.134 3.674zm.666-.226V1.597s.243.967 0 1.851zm2.86 2.297L12 4.617s-1.626.31-3.294 1.128zM8.47 8.801l2.195 2.7s-.849-1.418-2.196-2.7zm.64-2.326l1.264-.018s-.7.202-1.264.018zm-6.386-.564L0 4.778S1.632 5.846 2.724 5.91zm.315-.938L1.508 3.448s1.08.754 1.53 1.525zm0 3.567c.154-.035-1.881.92-1.881.92s.652-.611 1.881-.92z" fill="#F1C40F"/></svg>