<svg width="5" height="5" fill="none" xmlns="http://www.w3.org/2000/svg"><path fill-rule="evenodd" clip-rule="evenodd" d="M2.84.588S2.393-.015 1.439 0C.484.016-.052.8.004 1.362c0 .394.094.752.17 1.046.05.189.092.352.098.48.016.33-.015.462-.062.589-.046.127-.051.402-.051.402s.682.726.908.805c.058.03.115.064.173.099.206.123.415.248.714.21.381-.048.49-.127.64-.258.149-.13.02-.289.02-.289s-.08-.199.143-.33c.223-.13.373-.835.373-.835s.228-.457.196-.691l-.062-.454s.046-.21.103-.361c.045-.12.006-.258-.027-.38a1.504 1.504 0 01-.025-.095c0-.02-.015-.047-.032-.074-.038-.064-.08-.132.084-.132h.949l.175-.02.413-.228S4.516.647 4.481.64L4.285.599 2.841.589zM1.893.98c.012-.012.103-.088.103-.088s.09-.038-.02-.093c-.113-.054-.25-.157-.25-.157S1.675.56 1.665.487c-.01-.072-.034-.09-.034-.09s-.04-.046-.196.013c-.085.031-.141.02-.141.02S1.275.396 1.27.285C1.266.2 1.217.269 1.185.315a.231.231 0 01-.023.029.118.118 0 00-.02.03c-.021.036-.049.084-.08.052A.264.264 0 00.947.364L.945.365C.933.37.882.39.882.504.882.608.804.6.746.596A.236.236 0 00.704.595C.683.597.659.595.637.594.604.592.575.59.568.601a.045.045 0 01-.005.007C.552.621.543.631.607.764.662.878.58.894.513.907a.191.191 0 00-.059.016L.448.927c-.05.031-.13.08.114.121h.006c.092.011.142.017.14.107v.005c-.004.089-.005.14.097.125a.54.54 0 01.031.118l.018.075.001.005c.013.05.048.184.109.105.063-.082.118-.128.139-.105 0 0 .167.16.192.162.026.002.08-.017.132-.112.05-.092.058-.091.172-.082h.012s.046.01.077.014.05-.023.052-.073a.15.15 0 00-.007-.041c-.012-.046-.025-.097.089-.104h.001c.148-.01.244-.016.1-.126-.125-.094-.07-.121-.043-.135.005-.002.009-.004.01-.006zm.428.699c-.042-.016-.159-.013-.159-.013s-.118.005-.172.022l-.015.005a.336.336 0 00-.183.117c-.062.077-.056.118-.05.153l.001.016c.004.038.07.114.126.16a.615.615 0 00.393.07.5.5 0 00.1-.031c.023-.01.153-.12.174-.145.022-.025.02-.112.014-.145a.268.268 0 00-.069-.107.624.624 0 00-.16-.102zm.647.399c.013.18.205.208.231.208h.003c.025 0 .05.001.03-.154a.657.657 0 01.063-.258c.019-.031.025-.069-.029-.069-.054 0-.31.092-.298.273zm-.01 1.042H2.69s-.141-.004-.233.025c-.292.117-.3.192-.153.288.03.02.053.036.071.05.073.052.094.067.337.106.306.048.355-.16.357-.31.002-.149-.111-.16-.111-.16z" fill="#fff"/></svg>