<svg width="40" height="50" fill="none" xmlns="http://www.w3.org/2000/svg"><path d="M37.776 6.52C36.366 3.436 33.943.837 31.652 0c-.88 2.423-7.313 20.617-7.313 20.617l-4.713-7.621-4.89 7.709S8.348 2.51 7.423.088C5.133.925 2.71 3.524 1.3 6.608c-1.718 3.788-1.718 7.885-.088 11.586 1.277 2.82 1.806 4.097 2.158 4.89H1.388l.705 6.74 5.286 2.82-1.277 1.585.132 7.49H8.7l.88-5.287 1.41-.75L19.626 50l8.458-14.405 1.41.749.88 5.286h2.468l.132-7.489-1.278-1.586 5.287-2.82.704-6.74h-1.982s.881-2.026 2.159-4.845c1.63-3.745 1.586-7.842-.088-11.63z" fill="#000"/><path d="M14.163 22.511S8.701 7.357 6.94 1.938c-4.141 1.102-8.194 9.604-4.406 16.74 1.806 3.436 7.005 12.07 7.005 12.07l4.625-8.237zm10.837 0s5.463-15.154 7.225-20.573c4.185 1.102 8.238 9.604 4.45 16.785-1.807 3.436-7.005 12.07-7.005 12.07L25 22.511zM6.366 28.987l-1.85-1.278-1.234-3.304h-.88l.44 4.317 5.462 3.26-1.938-2.995zm28.37-1.277l-2.511 1.056-1.938 3.04 6.123-3.084.44-4.317h-.88l-1.234 3.304zm-15.11 10.176l-5.419-1.366-.528 1.145 5.947 10.132 5.903-10.132L25 36.52l-5.374 1.365z" fill="#fff"/><path d="M23.679 22.335c-1.41-2.687-4.053-6.52-4.053-6.564 0 0-2.688 3.832-4.053 6.564l4.053 6.476 4.053-6.476z" fill="#FFC629"/><path d="M28.128 31.101a72.773 72.773 0 01-3.789-6.74l-4.713 8.106-4.714-8.062c-1.366 2.732-2.731 5.022-3.788 6.74l-3.657 2.952-.44 6.916h.88l1.234-5.859 1.718-.705 8.767 1.19 8.766-1.19 1.718.705 1.234 5.815h.88l-.44-6.916-3.656-2.952z" fill="#FFC629"/></svg>