<svg width="79" height="30" fill="none" xmlns="http://www.w3.org/2000/svg"><g opacity=".15" filter="url(#filter0_f)"><path d="M72.535-17.48C69.83-23.403 65.176-28.394 60.778-30 59.086-25.348 46.736 9.588 46.736 9.588L37.685-5.046l-9.39 14.803S16.03-25.18 14.254-29.831c-4.399 1.607-9.051 6.598-11.758 12.52-3.3 7.274-3.3 15.14-.17 22.246 2.454 5.414 3.469 7.867 4.145 9.39H2.665l1.353 12.942L14.17 32.68l-2.453 3.045.254 14.38h4.737l1.691-10.15 2.707-1.438 16.58 27.491 16.24-27.66 2.708 1.438 1.691 10.15h4.737l.254-14.38-2.453-3.045 10.15-5.414 1.354-12.942H68.56s1.691-3.89 4.145-9.304c3.13-7.19 3.045-15.057-.17-22.332z" fill="#000"/><path d="M27.196 13.225s-10.49-29.099-13.873-39.503C5.372-24.163-2.41-7.838 4.864 5.866c3.468 6.598 13.45 23.177 13.45 23.177l8.882-15.818zm20.809 0s10.489-29.099 13.872-39.503c8.036 2.115 15.818 18.44 8.544 32.228-3.469 6.598-13.45 23.178-13.45 23.178l-8.966-15.903zM12.223 25.66l-3.552-2.454-2.369-6.344H4.61l.846 8.29 10.49 6.26-3.723-5.753zm54.476-2.454l-4.822 2.03-3.722 5.837 11.758-5.921.846-8.29h-1.692L66.7 23.206z" fill="#fff"/><path d="M45.467 12.887C42.76 7.727 37.685.367 37.685.283c0 0-5.16 7.36-7.782 12.604l7.782 12.434 7.782-12.434z" fill="#FFC629"/><path d="M54.01 29.72c-2.03-3.215-4.652-7.613-7.274-12.942l-9.051 15.564-9.051-15.48c-2.622 5.245-5.245 9.643-7.275 12.942l-7.02 5.668-.847 13.28h1.692l2.369-11.25 3.299-1.354 16.833 2.284 16.833-2.284 3.299 1.354 2.368 11.166h1.692l-.846-13.28-7.02-5.668z" fill="#FFC629"/></g><defs><filter id="filter0_f" x="-4" y="-34" width="83" height="104.008" filterUnits="userSpaceOnUse" color-interpolation-filters="sRGB"><feFlood flood-opacity="0" result="BackgroundImageFix"/><feBlend in="SourceGraphic" in2="BackgroundImageFix" result="shape"/><feGaussianBlur stdDeviation="2" result="effect1_foregroundBlur"/></filter></defs></svg>