<svg width="316" height="122" viewBox="0 0 316 122" fill="none" xmlns="http://www.w3.org/2000/svg">
<path d="M111.332 131.047C103.832 135.032 95.4211 137.132 86.707 137.132C72.7906 137.132 59.7412 131.776 49.8999 122.091C40.0587 112.363 34.6828 99.4638 34.6828 85.7077C34.6828 71.9516 40.102 59.0526 49.8999 49.3248C59.7412 39.597 72.7906 34.2831 86.707 34.2831C95.4644 34.2831 103.875 36.3829 111.332 40.3683L123.254 7.97082C112.156 2.87121 99.7564 0 86.707 0C38.8014 0 0 38.3542 0 85.7077C0 133.061 38.8014 171.415 86.707 171.415C99.7564 171.415 112.156 168.544 123.254 163.445L111.332 131.047Z" fill="#1A4384"/>
<path d="M231.33 0.0428467L230.247 2.9569L218.281 35.4401C221.879 34.6688 225.564 34.2831 229.293 34.2831C243.209 34.2831 256.259 39.6398 266.1 49.3248C275.941 59.0526 281.317 71.9516 281.317 85.7077C281.317 99.4638 275.898 112.363 266.1 122.091C256.302 131.818 243.209 137.132 229.293 137.132C225.564 137.132 221.836 136.747 218.281 135.975L230.247 168.458L231.33 171.373C278.282 170.301 316 132.376 316 85.7077C316 39.0398 278.282 1.07134 231.33 0.0428467Z" fill="#1A4384"/>
<path d="M170.116 0H135.433L103.872 85.7077L135.433 171.415H170.116L138.555 85.7077L170.116 0Z" fill="#1A4384"/>
<path d="M222.14 0H187.457L155.896 85.7077L187.457 171.415H222.14L190.579 85.7077L222.14 0Z" fill="#1A4384"/>
</svg>
