<svg width="25" height="16" viewBox="0 0 25 16" fill="none" xmlns="http://www.w3.org/2000/svg">
<path d="M24.7771 13.3288C24.7099 13.2163 24.2943 12.3131 22.2941 10.4567C20.2002 8.51279 20.4815 8.82844 23.0036 5.46726C24.5396 3.42024 25.1537 2.17014 24.9615 1.63573C24.7787 1.12632 23.6489 1.2607 23.6489 1.2607L19.8924 1.28258C19.8924 1.28258 19.6143 1.24508 19.4064 1.36852C19.2048 1.49041 19.0752 1.77168 19.0752 1.77168C19.0752 1.77168 18.4798 3.35617 17.686 4.70314C16.0124 7.54554 15.3421 7.69555 15.0686 7.51897C14.4326 7.108 14.592 5.86573 14.592 4.98441C14.592 2.22952 15.0092 1.081 13.7779 0.784105C13.3685 0.685661 13.0685 0.620031 12.0231 0.609093C10.6824 0.595029 9.54634 0.61378 8.90411 0.927866C8.47596 1.13726 8.14624 1.60448 8.34782 1.63104C8.59628 1.66386 9.15882 1.78262 9.45728 2.1889C9.84324 2.71237 9.82918 3.89058 9.82918 3.89058C9.82918 3.89058 10.0511 7.13301 9.31195 7.53616C8.8041 7.81274 8.10874 7.24864 6.61645 4.66876C5.85233 3.34835 5.27416 1.88731 5.27416 1.88731C5.27416 1.88731 5.16322 1.61542 4.96477 1.47009C4.72412 1.29352 4.3866 1.23726 4.3866 1.23726L0.81447 1.25914C0.81447 1.25914 0.278494 1.27477 0.0816047 1.5076C-0.0934079 1.71542 0.0675412 2.14358 0.0675412 2.14358C0.0675412 2.14358 2.86462 8.68624 6.03047 11.9849C8.93536 15.0086 12.2325 14.8101 12.2325 14.8101H13.7263C13.7263 14.8101 14.1779 14.7601 14.4076 14.5117C14.6201 14.2835 14.6123 13.8554 14.6123 13.8554C14.6123 13.8554 14.5826 11.8505 15.514 11.5552C16.4312 11.2646 17.6094 13.4928 18.858 14.3507C19.8018 14.9992 20.519 14.857 20.519 14.857L23.8583 14.8101C23.8583 14.8101 25.6053 14.7023 24.7771 13.3288Z" fill="#1E4179"/>
</svg>
