<svg width="25" height="18" viewBox="0 0 25 18" fill="none" xmlns="http://www.w3.org/2000/svg">
<g clip-path="url(#clip0)">
<path d="M24.461 2.72859C24.1736 1.66378 23.3314 0.824396 22.2632 0.537674C20.3118 0.00549316 12.5062 0.00549316 12.5062 0.00549316C12.5062 0.00549316 4.70089 0.00549316 2.74952 0.517497C1.70192 0.803915 0.83909 1.66393 0.551734 2.72859C0.038208 4.67345 0.038208 8.70683 0.038208 8.70683C0.038208 8.70683 0.038208 12.7605 0.551734 14.6851C0.839394 15.7497 1.68137 16.5891 2.74967 16.8758C4.72143 17.4082 12.5065 17.4082 12.5065 17.4082C12.5065 17.4082 20.3118 17.4082 22.2632 16.8962C23.3315 16.6096 24.1736 15.7702 24.4613 14.7055C24.9747 12.7605 24.9747 8.72731 24.9747 8.72731C24.9747 8.72731 24.9952 4.67345 24.461 2.72859ZM10.0211 12.433V4.98065L16.5118 8.70683L10.0211 12.433Z" fill="#1E4179"/>
</g>
<defs>
<clipPath id="clip0">
<rect width="25" height="17.4157" fill="white"/>
</clipPath>
</defs>
</svg>
