<svg width="238" height="172" fill="none" xmlns="http://www.w3.org/2000/svg"><g filter="url(#filter0_f)" fill="#000" fill-opacity=".06"><path d="M192.656 331.375H8.844A37.884 37.884 0 01-29 293.531V44.844A37.887 37.887 0 018.844 7h183.812A37.885 37.885 0 01230.5 44.844V293.53a37.881 37.881 0 01-11.097 26.747 37.881 37.881 0 01-26.747 11.097zM8.844 17.812a27.064 27.064 0 00-27.032 27.032V293.53a27.065 27.065 0 0027.032 27.031h183.812a27.064 27.064 0 0027.032-27.031V44.844a27.068 27.068 0 00-27.032-27.032H8.844z"/><path d="M116.969 180H84.531a16.22 16.22 0 01-16.219-16.219v-21.625a16.218 16.218 0 0116.22-16.218h32.437a16.216 16.216 0 0116.219 16.218v21.625A16.219 16.219 0 01116.969 180zm-32.438-43.25a5.41 5.41 0 00-5.406 5.406v21.625a5.407 5.407 0 005.406 5.407h32.438a5.407 5.407 0 005.406-5.407v-21.625a5.41 5.41 0 00-1.583-3.823 5.41 5.41 0 00-3.823-1.583H84.531zM41.281 180H8.844a16.221 16.221 0 01-16.219-16.219v-21.625a16.218 16.218 0 0116.219-16.218H41.28a16.217 16.217 0 0116.22 16.218v21.625A16.22 16.22 0 0141.281 180zM8.844 136.75a5.41 5.41 0 00-5.406 5.406v21.625a5.407 5.407 0 005.406 5.407H41.28a5.406 5.406 0 005.407-5.407v-21.625a5.407 5.407 0 00-5.407-5.406H8.844zM192.656 180h-32.437a16.222 16.222 0 01-11.469-4.75 16.222 16.222 0 01-4.75-11.469v-21.625a16.22 16.22 0 0116.219-16.218h32.437a16.218 16.218 0 0116.219 16.218v21.625c0 4.302-1.709 8.427-4.75 11.469a16.222 16.222 0 01-11.469 4.75zm-32.437-43.25a5.41 5.41 0 00-5.407 5.406v21.625a5.407 5.407 0 005.407 5.407h32.437a5.407 5.407 0 005.406-5.407v-21.625a5.406 5.406 0 00-5.406-5.406h-32.437zm32.437-32.438H8.844A16.217 16.217 0 01-7.375 88.094v-43.25A16.219 16.219 0 018.844 28.625h183.812a16.22 16.22 0 0116.219 16.219v43.25a16.22 16.22 0 01-16.219 16.218zM8.844 39.438a5.406 5.406 0 00-5.406 5.406v43.25A5.406 5.406 0 008.843 93.5h183.812a5.407 5.407 0 005.406-5.406v-43.25a5.405 5.405 0 00-5.406-5.407H8.844z"/><path d="M83.6 96.716c11.76 0 20.173-6.469 20.147-15.418.026-6.52-4.116-11.173-11.812-12.145v-.409c5.855-1.048 9.895-5.19 9.869-11.07.026-8.26-7.21-14.754-18.051-14.754-10.739 0-18.818 6.29-18.972 15.341h10.611c.128-3.988 3.784-6.57 8.31-6.57 4.474 0 7.466 2.71 7.44 6.647.026 4.117-3.477 6.904-8.514 6.904h-4.884v8.13h4.884c5.932 0 9.639 2.966 9.614 7.185.025 4.167-3.555 7.031-8.617 7.031-4.883 0-8.54-2.557-8.744-6.392H63.733c.179 9.153 8.36 15.52 19.866 15.52zM111.704 96h37.33v-9.051h-21.989v-.358l7.645-7.492c10.764-9.818 13.653-14.727 13.653-20.684 0-9.077-7.414-15.495-18.639-15.495-10.994 0-18.537 6.572-18.511 16.85h10.508c-.025-5.012 3.145-8.08 7.927-8.08 4.602 0 8.028 2.864 8.028 7.466 0 4.168-2.557 7.032-7.313 11.608l-18.639 17.259V96zm45.352 0h37.329v-9.051h-21.988v-.358l7.645-7.492c10.764-9.818 13.653-14.727 13.653-20.684 0-9.077-7.415-15.495-18.639-15.495-10.995 0-18.537 6.572-18.512 16.85h10.509c-.026-5.012 3.145-8.08 7.926-8.08 4.602 0 8.029 2.864 8.029 7.466 0 4.168-2.557 7.032-7.313 11.608l-18.639 17.259V96z"/></g><defs><filter id="filter0_f" x="-36" y="0" width="273.5" height="338.375" filterUnits="userSpaceOnUse" color-interpolation-filters="sRGB"><feFlood flood-opacity="0" result="BackgroundImageFix"/><feBlend in="SourceGraphic" in2="BackgroundImageFix" result="shape"/><feGaussianBlur stdDeviation="3.5" result="effect1_foregroundBlur"/></filter></defs></svg>