<svg width="316" height="122" fill="none" xmlns="http://www.w3.org/2000/svg"><path d="M111.332 131.047c-7.5 3.985-15.91 6.085-24.625 6.085-13.916 0-26.966-5.356-36.807-15.041-9.841-9.728-15.217-22.627-15.217-36.383 0-13.756 5.419-26.655 15.217-36.383 9.841-9.728 22.89-15.042 36.807-15.042 8.757 0 17.168 2.1 24.625 6.085l11.922-32.397C112.156 2.87 99.756 0 86.707 0 38.801 0 0 38.354 0 85.708c0 47.353 38.801 85.707 86.707 85.707 13.05 0 25.449-2.871 36.547-7.97l-11.922-32.398zM231.33.043l-1.083 2.914-11.966 32.483a52.489 52.489 0 0111.012-1.157c13.916 0 26.966 5.357 36.807 15.042 9.841 9.728 15.217 22.627 15.217 36.383 0 13.756-5.419 26.655-15.217 36.383-9.798 9.727-22.891 15.041-36.807 15.041-3.729 0-7.457-.385-11.012-1.157l11.966 32.483 1.083 2.915c46.952-1.072 84.67-38.997 84.67-85.665C316 39.04 278.282 1.07 231.33.043z" fill="#1A4384"/><path d="M170.116 0h-34.683l-31.561 85.708 31.561 85.707h34.683l-31.561-85.707L170.116 0z" fill="#1A4384"/><path d="M222.14 0h-34.683l-31.561 85.708 31.561 85.707h34.683l-31.561-85.707L222.14 0z" fill="#1A4384"/></svg>