<svg width="59" height="32" fill="none" xmlns="http://www.w3.org/2000/svg"><path d="M20.792 24.464a9.769 9.769 0 01-4.597 1.136 9.73 9.73 0 01-6.871-2.808A9.474 9.474 0 016.484 16a9.507 9.507 0 012.84-6.792A9.697 9.697 0 0116.195 6.4c1.635 0 3.205.392 4.597 1.136l2.226-6.048A16.314 16.314 0 0016.195 0C7.252 0 .01 7.16.01 16s7.243 16 16.186 16c2.436 0 4.75-.536 6.823-1.488l-2.226-6.048zM43.194.008l-.203.544-2.233 6.064a9.799 9.799 0 012.055-.216c2.598 0 5.034 1 6.872 2.808A9.474 9.474 0 0152.525 16a9.507 9.507 0 01-2.84 6.792c-1.83 1.816-4.274 2.808-6.872 2.808a9.742 9.742 0 01-2.055-.216l2.233 6.064.203.544C51.959 31.792 59 24.712 59 16S51.959.2 43.194.008z" fill="#fff"/><path d="M31.766 0h-6.475L19.4 16l5.892 16h6.475l-5.892-16 5.892-16z" fill="#fff"/><path d="M41.478 0h-6.475l-5.892 16 5.892 16h6.475l-5.892-16 5.892-16z" fill="#fff"/></svg>