<svg width="59" height="32" fill="none" xmlns="http://www.w3.org/2000/svg"><g clip-path="url(#clip0)" fill="#2B7BFB"><path d="M20.795 24.464a9.772 9.772 0 01-4.597 1.136c-2.599 0-5.035-1-6.873-2.808A9.473 9.473 0 016.485 16a9.506 9.506 0 012.84-6.792A9.7 9.7 0 0116.198 6.4c1.635 0 3.205.392 4.597 1.136l2.226-6.048A16.318 16.318 0 0016.198 0C7.253 0 .008 7.16.008 16s7.245 16 16.19 16c2.436 0 4.751-.536 6.823-1.488l-2.226-6.048zM43.2.008l-.202.544-2.234 6.064A9.802 9.802 0 0142.82 6.4c2.598 0 5.035 1 6.872 2.808A9.473 9.473 0 0152.533 16a9.506 9.506 0 01-2.841 6.792c-1.83 1.816-4.274 2.808-6.872 2.808a9.746 9.746 0 01-2.056-.216l2.234 6.064.202.544c8.767-.2 15.809-7.28 15.809-15.992S51.967.2 43.2.008z"/><path d="M31.77 0h-6.475l-5.893 16 5.893 16h6.476l-5.893-16 5.893-16z"/><path d="M41.484 0H35.01l-5.893 16 5.893 16h6.475l-5.893-16 5.893-16z"/></g><defs><clipPath id="clip0"><path fill="#fff" d="M0 0h59v32H0z"/></clipPath></defs></svg>