<svg width="85" height="114" fill="none" xmlns="http://www.w3.org/2000/svg"><path d="M10.905 85.099H2.753v-51.88h12.303c3.483 0 6.447 1.112 8.597 3.114 1.705 1.556 3.705 4.52 3.705 9.634V51.6c0 5.187-2 8.152-3.705 9.708-2.15 2.001-5.114 3.039-8.597 3.039h-4.15v20.752zm0-28.904h4.15c.965 0 2.224-.148 3.04-.89.89-.813 1.111-2.445 1.111-3.705v-5.633c0-1.186-.222-2.817-1.112-3.706-.813-.74-2.075-.89-3.038-.89h-4.15v14.824zm44.961 28.904h-8.3L43.34 64.273h-3.706v20.826h-8.152v-51.88h12.303c3.483 0 6.447 1.112 8.597 3.114 1.704 1.556 3.705 4.52 3.705 9.634v5.558c0 5.189-2 8.153-3.705 9.709-.362.36-.76.683-1.187.963l4.67 22.902zm-7.93-39.132c0-1.186-.222-2.817-1.112-3.706-.813-.74-2.075-.89-3.038-.89h-4.15v14.75h4.15c.963 0 2.223-.149 3.038-.89.89-.813 1.112-2.446 1.112-3.706v-5.558zm24.761 39.724c-3.483 0-6.448-1.037-8.598-3.038-1.704-1.63-3.705-4.52-3.705-9.708v-27.57c0-5.188 2.001-8.08 3.705-9.71 2.15-2 5.115-3.037 8.598-3.037 3.483 0 6.447 1.036 8.597 3.038C82.999 37.296 85 40.187 85 45.374v27.57c0 5.188-2.001 8.078-3.706 9.708-2.15 2.002-5.114 3.04-8.597 3.04zm0-44.912c-.963 0-2.224.148-3.039.89-.889.813-1.111 2.52-1.111 3.705v27.57c0 1.186.222 2.89 1.111 3.706.813.741 2.076.89 3.039.89.963 0 2.298-.149 3.038-.89.964-.813 1.112-2.52 1.112-3.706v-27.57c0-1.186-.148-2.89-1.111-3.705-.741-.741-2.076-.89-3.04-.89zm-61.204 68.843l-1.537 3.315H2.753V91.84H6.07v17.782h5.424zm12.115-14.466H19.42v5.304h4.67l-1.506 3.315H19.42v5.847h5.724l-1.537 3.316h-7.505V91.84h9.042l-1.537 3.316zm13.47 14.436H33.28l-.603 3.348h-3.375l4.219-21.098h3.315l4.22 21.098H37.68l-.603-3.348zm-.574-3.315l-1.326-7.565-1.326 7.565h2.652zm15.461-7.625v-1.87c0-.48-.06-1.174-.421-1.506a1.942 1.942 0 00-1.266-.362 1.908 1.908 0 00-1.236.362 2.19 2.19 0 00-.452 1.507v11.212a2.19 2.19 0 00.452 1.506c.358.26.795.388 1.236.362.451.03.899-.098 1.266-.362.361-.331.421-1.024.421-1.506v-3.948h-1.657l1.537-3.315h3.436v7.263c0 2.11-.813 3.285-1.507 3.948a5 5 0 01-3.496 1.236 5.103 5.103 0 01-3.496-1.236 5.257 5.257 0 01-1.507-3.948V96.783a5.267 5.267 0 011.507-3.948 5.106 5.106 0 013.496-1.235 5 5 0 013.496 1.235c.693.663 1.507 1.838 1.507 3.948v1.869h-3.316zm13.35 14.526a5 5 0 01-3.496-1.236c-.693-.662-1.507-1.838-1.507-3.947V91.84h3.315v16.155c0 .482.06 1.175.422 1.506.367.264.815.392 1.266.362a1.91 1.91 0 001.236-.362 2.19 2.19 0 00.452-1.506V91.84h3.315v16.155a5.26 5.26 0 01-1.507 3.947 5.102 5.102 0 01-3.496 1.236zm17.781-18.022h-4.19v5.304h4.672l-1.508 3.315h-3.164v5.847h5.726l-1.537 3.315h-7.504V91.84h9.042l-1.537 3.316z" fill="#FFFF09"/><path d="M32.52 19.925a4.805 4.805 0 004.804 4.803h11.714v-4.803H38.01V16.48h10.303v-4.263H38.011V8.892h11.027V4.087H37.32a4.801 4.801 0 00-4.802 4.801v11.037zm34.94-1.455a6.255 6.255 0 00-6.255-6.252h-4.97V8.892h10.232V4.087h-9.525a6.198 6.198 0 100 12.394h5.026v3.444H51.737v4.803h9.47a6.253 6.253 0 006.253-6.258zm6.767 6.258h10.404v-4.803h-9.716V4.087h-5.491v15.838a4.805 4.805 0 004.803 4.803zm-57.755 2.166c6.87-1.114 11.536-7.585 10.422-14.455C25.78 5.569 19.309.903 12.439 2.016 5.569 3.13.903 9.602 2.016 16.472c1.114 6.87 7.586 11.536 14.456 10.422z" fill="#fff"/><path d="M14.937 4.123L5.348 19.35c.316.588.689 1.144 1.112 1.66L21.017 6.455a10.293 10.293 0 00-6.08-2.332zm7.553 3.814L7.943 22.484c.52.422 1.081.793 1.674 1.108l15.175-9.557a10.292 10.292 0 00-2.302-6.098zm2.078 8.708l-12.498 7.87a10.352 10.352 0 0012.498-7.87z" fill="#000"/></svg>