<svg width="43" height="60" fill="none" xmlns="http://www.w3.org/2000/svg"><path d="M35.973 44.576c-.336-.18-.691-.316-1.043-.46a31.791 31.791 0 00-4.063-1.336c-.11-.029-.22-.058-.336-.026-.832.222-1.649.484-2.405.904-.487.27-.962.564-1.445.841-1.318.756-2.65 1.485-4.035 2.11-1.049.474-2.119.887-3.238 1.165-1.004.25-2.024.38-3.059.388-1.405.011-2.78-.178-4.112-.64-1.17-.404-2.235-.987-3.159-1.819a7.423 7.423 0 01-.545-.542c-.064-.072-.117-.083-.205-.038a22.25 22.25 0 00-2.543 1.495c-.05.035-.092.087-.178.087-.025-.13 0-.258.01-.384.04-.556.085-1.112.13-1.669l.152-1.89.151-1.942.158-2.01.15-1.925c.054-.675.109-1.35.162-2.026l.11-1.396.074-.954a.709.709 0 00-.033-.285c-.117-.351-.226-.704-.34-1.056-.052-.163-.054-.164-.181-.056-.87.745-1.486 1.657-1.809 2.76-.233.795-.295 1.61-.272 2.433.017.605.096 1.203.185 1.8.024.157.051.314.076.471a.38.38 0 01.003.085.076.076 0 01-.06.073c-.039.01-.068-.007-.086-.04a.426.426 0 01-.036-.077c-.194-.582-.416-1.156-.56-1.754-.186-.778-.3-1.565-.278-2.367v-.08c-.057-.009-.058.033-.07.06-.37.817-.674 1.655-.834 2.54-.081.454-.124.913-.156 1.374-.005.072.028.183-.092.185-.101.002-.092-.102-.102-.17-.11-.727-.205-1.455-.18-2.194a7.064 7.064 0 011.71-4.436 9.307 9.307 0 011.718-1.605c.135-.095.264-.2.394-.3.15-.119.15-.12.088-.296-.049-.14-.099-.278-.147-.418-.061-.177-.056-.187.119-.27a4.69 4.69 0 01.79-.268 17.67 17.67 0 011.399-.311 1.06 1.06 0 00.393-.154c.458-.298.918-.593 1.365-.908.242-.17.392-.386.428-.685.044-.356.1-.71.128-1.068.014-.17-.005-.19-.175-.186-.462.009-.882.157-1.274.392a2.971 2.971 0 00-.947.921 1.473 1.473 0 00-.24.738c-.012.176-.008.353-.01.53-.001.05-.014.108-.075.062-.277-.208-.608-.21-.927-.249a13.763 13.763 0 00-1.04-.072c-.127-.006-.216.028-.267.157-.27.689-.534 1.38-.673 2.11-.04.208-.064.416-.057.628.001.038.016.083-.032.105-.046.02-.074-.014-.104-.04-.674-.587-1.357-1.165-1.974-1.815a3.132 3.132 0 01-.553-.755 1.265 1.265 0 01-.124-.796.802.802 0 00-.058-.418 13.58 13.58 0 01-.413-1.371c-.002-.011-.008-.021-.01-.032-.131-.54.086-.908.626-1.063.184-.053.266-.152.282-.34.002-.029 0-.058.002-.086.012-.288.086-.396.362-.49.436-.147.87-.302 1.298-.47a34.81 34.81 0 001.613-.695.75.75 0 00.43-.475 5.84 5.84 0 01.706-1.416c.403-.6.934-1.035 1.62-1.277.317-.112.628-.237.941-.356a.587.587 0 00.21-.143c.41-.415.9-.693 1.461-.843a.85.85 0 00.399-.25 53.471 53.471 0 012.002-1.986c.533-.497 1.068-.992 1.642-1.443.184-.144.374-.28.574-.401.083-.05.17-.092.26-.129.153-.062.289-.045.403.081.092.101.091.126.221-.013.657-.704 1.316-1.406 1.971-2.11A87.272 87.272 0 0021.2 8.257c.18-.214.182-.214.326.02.227.369.425.752.55 1.17.008.026.01.056.04.074.04.008.058-.023.079-.049.861-1.057 1.65-2.163 2.26-3.389a8.714 8.714 0 00.648-1.72c.005-.023.014-.044.02-.066.014-.053.038-.096.1-.1.072-.006.096.044.116.102.105.312.197.63.268.952.286 1.31.125 2.578-.36 3.816-.107.276-.233.543-.364.809l-.088.182c.056.035.08-.01.11-.03.789-.503 1.614-.932 2.52-1.188a3.876 3.876 0 011.062-.149c.085 0 .17.01.254.025.149.026.18.076.148.226a.98.98 0 01-.11.268 4.117 4.117 0 01-.655.892.972.972 0 00-.068.076c-.007.008-.006.021-.008.032.048.03.088-.005.128-.02 1.75-.609 3.544-1.044 5.365-1.376.145-.026.29-.06.435-.087a.775.775 0 01.169-.018c.093.003.131.069.093.152-.017.035-.042.067-.064.1-.42.625-.944 1.154-1.502 1.653-.254.228-.518.445-.778.667-.01.037 0 .053.04.037.846-.357 1.723-.58 2.646-.595a5.319 5.319 0 011.519.196c.049.014.098.03.144.05.105.048.125.1.072.204-.087.168-.21.31-.348.44a4.25 4.25 0 01-.926.635 1.56 1.56 0 00-.131.078c-.008.005-.008.02-.016.043 1.945.416 3.728 1.215 5.417 2.26-.062.083-.14.086-.207.103-.443.105-.894.167-1.336.276-.26.065-.522.118-.782.178-.038.008-.075.024-.112.036.005.075.067.074.111.092.565.23 1.11.5 1.61.853.37.26.707.556.969.93.174.249.31.516.367.819.034.18.006.233-.17.293-.25.085-.51.112-.774.095-.21-.014-.415-.055-.615-.092-.044.056-.003.084.016.114.655 1.021 1.007 2.145 1.13 3.346a9.3 9.3 0 01.055 1.365 3.28 3.28 0 01-.03.34c-.017.107-.066.136-.169.1-.064-.021-.124-.056-.185-.086-.384-.194-.718-.46-1.046-.734-.121-.101-.238-.21-.402-.317.21 2.133-.18 4.112-1.25 5.956.338.074.659.143.98.216.349.079.696.168 1.03.296.075.029.15.058.221.092.165.076.169.081.105.258a85.59 85.59 0 00-.978 2.892 1.7 1.7 0 00-.068.69c.059.64.107 1.282.158 1.923.053.665.103 1.33.155 1.993l.154 1.959.195 2.452c.036.448.078.896.103 1.345.032.563.135 1.115.224 1.671.238 1.49.031 2.915-.722 4.24a5.114 5.114 0 01-1.66 1.762c-.032.02-.073.033-.102.095.12.013.234.032.348.036.193.007.387.007.58-.012a3.12 3.12 0 01.273-.015c.135-.003.145.01.092.132a2.89 2.89 0 01-.841 1.102c-.443.357-.953.574-1.5.71a6.05 6.05 0 01-2.052.134 8.515 8.515 0 01-3.456-1.088c-.814-.467-1.524-1.057-2.06-1.838a4.35 4.35 0 01-.698-1.727c-.006-.038-.021-.078 0-.118.064-.02.107.023.154.05a5.44 5.44 0 002.903.754c1.256-.026 2.38-.408 3.315-1.276.666-.62 1.115-1.374 1.415-2.225.02-.06.044-.117.067-.175.034-.084.067-.018.1 0 .107.06.148.17.197.27.31.636.384 1.311.319 2.007a2.878 2.878 0 01-.093.57l-.015.046c-.008.02-.002-.008-.006.014 0 .002.005-.008.01-.011.184-.383.34-.773.383-1.2.04-.415.032-.83-.058-1.24a.302.302 0 00-.173-.219c-.128-.062-.253-.13-.383-.188-.051-.023-.109-.038-.134-.098z" fill="#011320"/><path d="M36.304 47.518c.07-.374.114-.749.11-1.13a3.334 3.334 0 00-.453-1.687c-.014-.024-.023-.05-.035-.076l.047-.049c.21.07.404.178.603.271.073.035.109.096.125.173.188.899.115 1.76-.364 2.565-.06.002-.047-.032-.033-.067z" fill="#fff"/><path d="M31.934 11.319c-.021.03-.052.052-.079.018-.015-.02.005-.05.04-.055.004.022.021.029.04.037z" fill="#919196"/><path d="M24.989 6.427c-.022.388-.1.767-.187 1.143-.396 1.716-1.113 3.295-2.05 4.78-.86 1.364-1.882 2.6-3.007 3.753a2.61 2.61 0 00-.216.242c-.068.088-.063.178 0 .25.064.074.17.09.263.031.057-.036.105-.087.155-.132.173-.157.315-.344.497-.49.214.155.32.565.214.835a.981.981 0 01-.074.154c-.14.236-.328.435-.502.645-.188.227-.388.445-.57.678a3.59 3.59 0 00-.69 1.466.949.949 0 00.032.555c.068-.017.066-.082.091-.128.118-.272.32-.484.515-.697.79-.868 1.666-1.633 2.694-2.214a12.965 12.965 0 014.48-1.546 14.91 14.91 0 012.927-.162c.095.005.191.01.285.033l1.369.19c.32.045.645.069.963.135.855.178 1.578.598 2.202 1.202.713.69 1.16 1.537 1.453 2.475.154.492.26.993.222 1.511a5.227 5.227 0 01-.618 2.096c-.148.277-.313.543-.48.807a47.53 47.53 0 00-1.419 2.354c-.011.011-.024.02-.03.037l-.002.001c-.096-.013-.079-.099-.092-.157a8.035 8.035 0 00-.68-1.906 8.55 8.55 0 00-1.235-1.791c-.311-.349-.662-.653-.999-.974-.017-.006-.026-.02-.037-.032-.38-.32-.787-.608-1.242-.809a6.855 6.855 0 00-1.392-.45 10.528 10.528 0 00-2.48-.188c-1.334.046-2.632.298-3.914.65-.28.076-.28.077-.408-.18-.144-.287-.31-.558-.548-.779a1.059 1.059 0 00-.45-.268c-.155-.04-.183-.013-.142.147l.011.032c.068.18.01.347-.058.51a2.234 2.234 0 01-.373.61c-.254.29-.516.572-.794.842-.502.487-1.024.955-1.506 1.462-1.044 1.096-1.969 2.282-2.701 3.611-.135.245-.278.483-.412.727v.001c-.025.016-.016.05-.037.067-.573.96-1.024 1.98-1.432 3.02-.079.201-.165.4-.248.599-.303.797-1.117 1.086-1.933.999a4.086 4.086 0 01-1.15-.306c-.096-.04-.095-.041-.167-.14.128-.045.261.006.386-.03.326-.014.641-.091.96-.155.053-.01.117-.019.13-.09.014-.07-.039-.101-.086-.133-.078-.053-.168-.09-.228-.192.097-.023.169.017.241.033.342.077.5-.055.48-.408-.01-.153-.039-.305-.033-.46.004-.13.021-.146.153-.142.056.002.113.007.17.014a.866.866 0 00.835-.36 3.09 3.09 0 00.35-.624c.251-.562.431-1.15.615-1.737.304-.971.606-1.944.994-2.887.306-.744.66-1.463 1.144-2.111.275-.368.61-.676.936-.995.134-.131.268-.264.4-.398.026-.026.068-.046.056-.094-.032-.037-.066-.011-.095 0-1.065.394-2.03.95-2.816 1.784a4.016 4.016 0 00-.96 1.691l-.003.017c-.05.167-.05.167-.205.102-.053-.022-.105-.045-.159-.064-.32-.11-.579-.032-.785.238a1.13 1.13 0 00-.145.252c-.033.08-.085.098-.163.07a2.997 2.997 0 00-.477-.126c-.848-.15-1.616.046-2.311.542-.568.405-.987.94-1.326 1.542-.02.035-.038.07-.056.106-.062.125-.162.186-.304.174-.244-.02-.488-.037-.731-.06-.278-.025-.555-.06-.832-.084-.201-.019-.238.004-.3.197-.234.743-.497 1.477-.684 2.235l-.007.033c-.035.119-.054.125-.141.044a17.91 17.91 0 01-1.303-1.377 2.58 2.58 0 01-.305-.433.782.782 0 01-.099-.525c.028-.15.03-.305.074-.453.027.017.017.046.023.07-.003-.02.003-.041.006-.062a9.134 9.134 0 01.695-2.324 2.8 2.8 0 01.61-.892l.582-.236c.518-.206 1.02-.449 1.522-.689.554-.264 1.013-.645 1.437-1.08a56.265 56.265 0 002.012-2.208c.187-.215.37-.432.585-.621.458-.403.996-.628 1.592-.726l1.179-.191c.033-.006.067-.013.101-.012.065.001.08.03.05.087-.037.067-.115.112-.115.2.077.043.151-.001.223.01.518.014.938-.186 1.32-.535.743-.68 1.492-1.352 2.244-2.022.252-.224.508-.445.738-.693.001.125-.015.25.006.374.026.145.077.275.222.34.101.047.148.017.157-.093.006-.083-.02-.17.026-.25.069-.003.114-.05.159-.092.412-.391.833-.773 1.244-1.166.387-.369.776-.737 1.146-1.122 1.174-1.223 2.325-2.466 3.304-3.856.505-.717.973-1.457 1.29-2.282.035-.09.065-.182.096-.274.012-.039.011-.096.078-.092zM12.884 43.28c.468-.175.95-.306 1.43-.44l.147-.04c.131-.045.185.05.241.136a3.45 3.45 0 001.052 1.032c.154.098.315.182.486.245.07.025.142.047.175.124.116.072.249.08.377.097a5.82 5.82 0 002.888-.314c1.235-.469 2.438-1.01 3.649-1.536 1.403-.61 2.815-1.198 4.271-1.673a20.209 20.209 0 013.06-.762c.971-.156 1.948-.21 2.928-.111 1.279.128 2.467.522 3.538 1.243 1.134.762 1.792 1.818 1.961 3.177.212 1.7-.27 3.18-1.437 4.423-.807.86-1.825 1.231-3.001 1.165-.125-.007-.248-.033-.372-.05a.817.817 0 00-.199-.008c.058.08.136.122.215.163.397.205.826.286 1.267.307.204.01.39.05.57.15.242.134.51.19.782.23.06.01.12.013.177.046-.048.062-.116.063-.173.082-.69.226-1.394.375-2.123.394-1.709.044-3.245-.433-4.58-1.516a2.932 2.932 0 01-.573-.607c-.035-.051-.078-.099-.08-.167.048-.036.1-.004.149-.008.834.094 1.667.202 2.505.259.558.037 1.114.043 1.67-.004.17-.015.336-.071.51-.051.08-.008.156.022.235.034.425.065.826-.017 1.213-.191.653-.295 1.1-.796 1.407-1.43.206-.425.316-.876.363-1.345.028-.278.033-.556.025-.835a.633.633 0 01.014-.169c.237.342.367.724.425 1.13.058.409.02.815-.058 1.222.067-.007.083-.053.104-.092.304-.59.492-1.209.484-1.881-.01-.687-.222-1.308-.572-1.888-.608-1.012-1.5-1.663-2.606-2.04-.633-.216-1.286-.28-1.95-.288-1.68-.023-3.272.355-4.804 1.022-.998.434-1.95.96-2.895 1.496-.986.557-1.966 1.125-2.989 1.613-1.253.597-2.551 1.061-3.915 1.332-.997.199-2.004.3-3.021.248-1.611-.083-3.133-.477-4.524-1.318a8.897 8.897 0 01-1.542-1.183c-.037-.036-.075-.07-.11-.11-.058-.066-.056-.087.027-.122.475-.203.946-.417 1.438-.579.223.187.395.422.596.63.446.462.941.858 1.5 1.173a6.1 6.1 0 002.448.751c.87.083 1.725-.014 2.572-.212 1.542-.36 2.947-1.04 4.292-1.858.447-.272.872-.578 1.313-.86.092-.065.19-.119.28-.181l-.008.004c-.098.06-.193.122-.289.181-.211.147-.443.258-.67.375a17.92 17.92 0 01-2.284.999c-.857.302-1.735.522-2.641.611-1.232.122-2.422-.02-3.537-.594a4.63 4.63 0 01-1.688-1.462c-.044-.061-.1-.109-.143-.17z" fill="#A3B9C4"/><path d="M33.713 32.513l-.01-.906c-.002-.182-.001-.364-.004-.546-.002-.157-.02-.175-.172-.196-.253-.035-.268-.023-.267.227 0 .341 0 .683.006 1.025.001.098-.025.157-.123.195-.556.217-1.11.44-1.664.66-.01.005-.022.003-.046.005-.032-.045-.022-.1-.023-.155-.021-.917-.021-1.834-.023-2.751a.493.493 0 00-.143-.37 1.132 1.132 0 01-.318-.665c-.016-.126-.004-.143.121-.134.426.032.852.065 1.278.102.43.037.861.08 1.292.12.72.069 1.438.142 2.156.233l2.27.287c.302.038.315.053.24.35-.048.192-.13.368-.272.506a.472.472 0 00-.142.368c.004 1.014.003 2.028.004 3.042 0 .029.002.058 0 .086 0 .027.01.06-.02.077-.04.022-.062-.014-.088-.033l-1.148-.89c-.145-.11-.288-.223-.44-.323a.36.36 0 01-.178-.34c.007-.371 0-.741-.002-1.112 0-.172-.008-.178-.181-.197l-.051-.006c-.163-.011-.18.002-.18.162-.001.405 0 .81.001 1.214l.01 2.888c0 .029-.005.057-.008.085-.063.045-.132.024-.198.014-.482-.076-.962-.168-1.444-.241-.212-.032-.219-.049-.219-.263v-2.334c0-.061.013-.125-.014-.184z" fill="#fff"/><path d="M27.28 34.496c.02.21.012.421-.005.63a1.004 1.004 0 01-.453.768c-.115.08-.235.153-.352.229.041.064.098.05.146.056.113.014.227.021.337.052.217.059.305.156.33.38.011.113.02.227.021.34.004.797.007 1.595.007 2.392 0 .19-.01.379.137.523-.043.056-.096.057-.143.073-.424.15-.849.297-1.27.452a.938.938 0 01-.417.06c-.193-.017-.387-.024-.58-.038-.114-.009-.128-.022-.115-.137.024-.229.11-.434.29-.582a.429.429 0 00.165-.37c-.008-.649-.007-1.298-.01-1.947 0-.018.002-.035 0-.052-.005-.103-.027-.122-.125-.087-.171.06-.34.13-.51.193-.134.049-.268.094-.402.143-.143.052-.156.07-.156.224 0 .382.004.763.004 1.145 0 .125.001.25-.005.376-.006.11.03.195.113.27.183.165.3.369.343.614.03.182.03.186-.149.182-.694-.016-1.388-.05-2.083-.04-.171.002-.342.006-.513.005-.11 0-.12-.01-.11-.118a.885.885 0 01.3-.613c.127-.108.165-.234.164-.392-.005-.472-.003-.945-.002-1.418l.01-3.298c0-.05.006-.101.01-.152.076-.067.17-.055.26-.055l1.333-.001c.219 0 .23-.012.23-.233.002-1.178 0-2.357.003-3.536 0-.098-.03-.209.07-.284.104.075.069.186.069.283.002 1.487.001 2.974.002 4.462v.53c0 .128.054.173.181.145.179-.04.352-.092.517-.173.262-.128.389-.335.395-.627.003-.162-.04-.33.044-.486a.16.16 0 01.112-.035c.566.04 1.135.042 1.7.1.04.004.077.019.108.047z" fill="#C6D0DA"/><path d="M27.28 34.496c-.349-.017-.699-.024-1.047-.064a1.145 1.145 0 00-.152-.003 5.27 5.27 0 01-.71-.036c-.078-.08-.056-.182-.056-.276a1388.91 1388.91 0 010-3.163c0-.131-.013-.26-.029-.391-.019-.155-.106-.23-.25-.26-.221-.044-.444-.021-.665-.026-.068-.002-.137.013-.202-.02-.061.055-.034.128-.034.193 0 1.225.002 2.45.003 3.674 0 .261.026.235-.24.235h-1.642c-.02-.067-.01-.136-.01-.204 0-1.468 0-2.937.005-4.406.001-.177-.041-.314-.184-.433-.183-.152-.256-.37-.286-.601-.01-.078.014-.122.097-.121l.068-.002c1.172-.001 2.345-.002 3.517.035.313.01.624.038.928.123.487.136.757.453.83.95.03.198.046.397.048.595.01 1.378.013 2.755.019 4.133 0 .022-.005.045-.007.068zm-14.192-.419l.003-1.708c.001-.382.006-.763.004-1.145 0-.173.028-.335.097-.497.22-.518.434-1.038.666-1.551.083-.184.194-.27.399-.276.432-.015.864-.052 1.296-.08.26-.016.522-.03.784-.048a3.49 3.49 0 01.901.048c.471.09.735.367.815.843.06.35.05.704.048 1.057-.003.643-.01 1.287-.014 1.93 0 .034-.003.068-.005.102-.031.271-.009.543-.013.815-.004.273-.005.545.001.818.003.11-.045.157-.147.16-.351.013-.701.049-1.052.072-.102.006-.204.017-.305.025-.134.01-.272.038-.4-.033-.067-.09-.048-.196-.049-.297v-3.447c-.004-.282-.1-.371-.377-.336-.17.021-.34.026-.51.049-.12.016-.17.072-.166.189v.068c.007 1.205-.06 2.41-.036 3.616.002.095.014.194-.039.283-.19.117-.408.083-.614.11a41.04 41.04 0 01-1.067.127c-.218.023-.233.012-.23-.212.003-.228-.014-.455.01-.682z" fill="#fff"/><path d="M10.052 35.383c.433.332.883.64 1.329.957.463.328.705.792.79 1.345.051.345.061.693.056 1.04-.007.54.013 1.082-.022 1.623a2.979 2.979 0 01-.09.572c-.098.37-.311.654-.63.86-.25.162-.519.285-.803.374-1.145.36-2.268.78-3.383 1.223-.041.016-.08.046-.144.036a.414.414 0 01-.003-.223c.048-.278.139-.542.305-.771a.67.67 0 00.127-.415c-.002-.997 0-1.993 0-2.99 0-.062-.012-.125.012-.185.055-.016.086.024.121.05.503.354 1.003.711 1.509 1.061.126.088.184.19.172.344-.01.13-.005.262-.002.393.003.102.015.113.11.085.19-.056.38-.117.569-.178.188-.062.283-.188.292-.393a12.82 12.82 0 00-.012-1.4 1.37 1.37 0 00-.617-1.088 35.598 35.598 0 01-1.432-1.05c-.278-.215-.483-.48-.574-.825.056-.057.131-.066.203-.08.636-.133 1.275-.246 1.913-.363a.547.547 0 01.204-.002zm6.12-.785c.313.01.622-.042.933-.058.261-.013.52-.05.782-.047.161.003.163-.002.164-.16.002-.467 0-.934.003-1.4 0-.061-.02-.127.028-.18.002.221.008.443.007.665-.002.672-.015 1.344-.01 2.016.005.573-.206 1.027-.678 1.36-.195.138-.39.276-.599.394-.544.308-1.087.62-1.636.922-.16.088-.222.202-.22.384.007.49.003.98-.005 1.47-.003.136.03.237.145.322.183.136.27.334.3.556.022.152.016.16-.136.19-.636.127-1.271.255-1.902.406l-.75.18a.376.376 0 010-.241c.058-.24.137-.47.317-.651a.417.417 0 00.116-.295l.006-.564c.008-1.18.018-2.359.025-3.538.004-.695.004-1.39.006-2.085 0-.056-.008-.114.02-.167.023.227.008.454.01.681.002.195-.001.189.186.161.224-.033.449-.055.674-.08.286-.034.572-.067.859-.099.05-.006.102-.004.153-.006.07.063.051.147.052.224.003.358 0 .716.002 1.074.001.177.027.194.19.134.274-.103.522-.247.724-.465a.537.537 0 00.152-.35c.011-.199.041-.396.034-.595-.002-.056 0-.115.048-.158zm4.681-4c.002.057.006.114.006.17 0 1.156 0 2.312-.003 3.468a2182.14 2182.14 0 01-.009 3.432c-.001.547-.004 1.093-.01 1.64a.4.4 0 00.14.33.91.91 0 01.287.549c.03.175.02.183-.154.193-.324.017-.647.039-.971.055a31.77 31.77 0 00-1.412.11l-.137.009c-.169.01-.181-.005-.15-.165a1.11 1.11 0 01.327-.625.437.437 0 00.14-.35c-.003-.574 0-1.15.003-1.724.004-1.048.01-2.095.016-3.142 0-.04.006-.08.01-.119.219-.1.457-.069.686-.085.3-.022.603-.003.904-.035.237-.026.24-.016.24-.265 0-1.06-.002-2.12.003-3.179 0-.092-.046-.21.084-.267z" fill="#C6D0DA"/><path d="M30.5 21.603c.107.034.178.12.258.19 1.405 1.223 2.326 2.734 2.714 4.563.006.028.011.055.034.075-.19.355-.383.71-.57 1.066-.042.08-.101.1-.182.09l-.64-.08c-.226-.03-.45-.06-.675-.088-.349-.044-.697-.088-1.046-.13-.242-.028-.485-.05-.728-.078a99.578 99.578 0 01-.878-.102c-.085-.01-.1-.033-.062-.113.135-.285.194-.592.255-.898a.463.463 0 00-.002-.204c-.02-.08.007-.127.086-.157.213-.083.368-.24.514-.41.367-.43.682-.894.977-1.374.066-.107.086-.112.173-.008.277.332.55.667.772 1.04.253.426.475.867.581 1.357.005.021.02.04.033.067.055-.026.056-.07.057-.113a7.443 7.443 0 00-.09-1.426 8.044 8.044 0 00-.395-1.46 4.4 4.4 0 00-1.031-1.63c-.056-.055-.127-.098-.155-.177z" fill="#465461"/><path d="M23.898 43.522c-.443.337-.912.636-1.384.93-.57.353-1.164.667-1.771.952-.87.41-1.772.733-2.717.925-.444.091-.89.16-1.345.173-.151.005-.305.034-.457.026-.813-.046-1.61-.159-2.368-.485a6.36 6.36 0 01-1.49-.881 7.266 7.266 0 01-1.05-1.04c-.062-.074-.14-.135-.173-.23.388-.171.793-.298 1.193-.437.181-.063.36-.134.548-.176.087-.013.122.053.157.11.208.339.49.615.784.871.413.36.885.634 1.398.833.452.176.917.29 1.399.347.36.042.723.087 1.085.059.377-.029.754-.058 1.13-.12a11.928 11.928 0 001.941-.495 15.356 15.356 0 001.594-.648c.272-.128.545-.257.813-.394.227-.116.452-.237.678-.356.035-.012.044.004.035.036z" fill="#C8D5DB"/><path d="M28.14 34.563c-.004-.352-.01-.705-.012-1.058-.01-1.211-.02-2.423-.022-3.635a.496.496 0 00-.168-.405c-.18-.162-.263-.381-.302-.616-.021-.128-.004-.149.132-.143.398.018.796.036 1.193.058.443.026.886.055 1.329.085.151.01.157.018.14.163-.025.226-.1.436-.273.59-.119.106-.154.225-.152.377.01 1.087.016 2.174.023 3.26 0 .063-.003.126-.005.188.024.408.003.817.011 1.226.003.122-.077.122-.16.115a49.77 49.77 0 01-1.086-.1c-.158-.016-.318-.007-.475-.042-.06-.013-.125-.015-.173-.063zm-7.287-3.965c-.053.06-.029.131-.029.197-.002 1.103-.002 2.206-.003 3.31v.068c0 .186-.002.174-.186.19-.374.032-.75.014-1.123.038-.192.013-.384.02-.577.028-.025-.153-.005-.306-.004-.459.003-1.412.005-2.823.011-4.235a.365.365 0 00-.139-.31.85.85 0 01-.308-.59c-.016-.16-.012-.165.146-.171a90.445 90.445 0 012.458-.061c.214-.004.214.001.18.205a.924.924 0 01-.286.55.425.425 0 00-.134.336c0 .301-.004.603-.006.904z" fill="#fff"/><path d="M16.415 44.337c-.035-.018-.068-.041-.104-.054-.723-.26-1.262-.742-1.677-1.376-.043-.066-.084-.121-.173-.107.219-.054.437-.11.656-.163a35.275 35.275 0 012.366-.482c.492-.085.984-.169 1.478-.233a23.688 23.688 0 012.41-.188c.215-.008.43-.025.646-.017.207.008.413.028.652.027-.112.12-.229.168-.332.23a24.8 24.8 0 01-2.193 1.18c-.902.423-1.818.808-2.794 1.028a5.09 5.09 0 01-.84.127c-.034.002-.069 0-.095.028zm-2.361-16.849c.03-.135.107-.249.17-.369a16.7 16.7 0 012.508-3.558c.645-.714 1.356-1.362 2.047-2.029a6.32 6.32 0 00.781-.878c.146-.205.262-.425.319-.674.019-.085.014-.17.02-.254.255.491.451 1.005.563 1.547.046.222.079.446.087.674a.698.698 0 01-.227.549c-.286.28-.598.525-.93.746-.672.446-1.353.881-2.024 1.33a28.9 28.9 0 00-1.913 1.368c-.449.354-.826.78-1.166 1.238-.078.104-.134.225-.235.31z" fill="#465461"/><path d="M28.14 34.563c.231.02.462.033.692.061.146.017.293.027.44.038.214.016.427.036.64.065.085.011.1-.002.1-.108.002-.336 0-.67 0-1.006 0-.062-.008-.125.01-.186.032.053.02.11.021.167.005 1.287.008 2.574.014 3.86.003.53.012 1.06.017 1.59.001.16 0 .163-.149.192-.553.108-1.097.252-1.64.4-.032.01-.064.026-.101.009-.034-.049-.022-.107-.022-.163l-.025-4.356c0-.187-.015-.375.003-.563z" fill="#C6D0DA"/><path d="M32.646 9.924c-.12.138-.266.249-.404.367-.78.63-1.688 1.029-2.604 1.407-1.567.646-3.186 1.135-4.823 1.564-.419.11-.837.22-1.26.313-.065.014-.15.08-.201-.03a7.58 7.58 0 011.498-1.224c.988-.268 1.968-.562 2.914-.959.72-.302 1.427-.629 2.089-1.043.32-.2.68-.247 1.032-.333.453-.11.911-.195 1.376-.243a.684.684 0 01.27.02c.081.024.13.07.113.161zm3.632 3.341c.265.066.515.173.769.27.588.228 1.157.495 1.717.784.025.013.048.03.072.045-.031.098-.121.077-.185.076-.837-.007-1.674.039-2.51-.024-.148-.01-.296 0-.444-.005-1.343-.04-2.684-.106-4.01-.343-.376-.067-.747-.156-1.095-.322a.96.96 0 01-.319-.225c-.141-.162-.133-.359.016-.496a5.122 5.122 0 011.166-.301c.48.065.937.226 1.41.322.848.173 1.699.317 2.568.306.285-.003.563-.067.845-.087z" fill="#BDF935"/><path d="M23.354 13.545c.027.032.06.02.093.013a56.66 56.66 0 002.8-.74c.546-.16 1.09-.325 1.627-.51.855-.296 1.703-.609 2.525-.99.62-.288 1.224-.604 1.78-1.008.016-.012.042-.013.063-.02a2.632 2.632 0 01-.511.449c-.87.632-1.716 1.3-2.639 1.857-1.403.848-2.893 1.489-4.495 1.85-.577.131-1.16.231-1.756.229-.242-.001-.249-.013-.135-.235.139-.27.313-.516.51-.746.044-.051.092-.1.138-.15zm13.253 13.587c.014-1.507.163-2.997.555-4.457.113-.419.257-.826.443-1.218.012-.025.023-.052.038-.076.056-.092.073-.094.154-.021.232.207.349.477.388.778.102.77.125 1.54.044 2.314a8.92 8.92 0 01-1.139 3.513 1.95 1.95 0 01-.09.145c-.037.058-.09.08-.16.074-.197-.014-.233-.05-.233-.249v-.803zm-6.318-14.107c-.133.163-.07.42.096.538.21.148.44.236.68.306.425.125.861.197 1.3.253.478.062.957.11 1.438.142.39.025.782.043 1.172.068.387.025.773.01 1.158.034.859.052 1.717.015 2.576.027.043.001.092.013.127-.029.044.026.033.058 0 .078-.034.019-.074.028-.112.037-.79.185-1.578.387-2.38.52a12.766 12.766 0 01-2.345.143 13.327 13.327 0 01-1.98-.214 21.667 21.667 0 01-3.18-.829c-.063-.021-.156-.022-.17-.093-.013-.07.073-.108.124-.15a4.576 4.576 0 011.496-.831z" fill="#76A708"/><path d="M33.713 32.513c.048.054.027.12.027.18.003.78.003 1.56.005 2.34 0 .207-.014.175.17.203.441.068.88.15 1.323.219.117.018.233.044.35.066.004.285.009.57.011.854l.01 1.452.009 1.316c0 .028.002.057 0 .085-.004.128-.02.142-.142.105a8.832 8.832 0 00-1.214-.273c-.113-.017-.225-.034-.338-.048-.179-.022-.18-.02-.181-.194l-.006-1.196c-.004-.678-.002-1.356-.015-2.034-.02-.985-.008-1.97-.017-2.956 0-.04.005-.08.008-.12z" fill="#C6D0DA"/><path d="M12.746 25.365c.214.147.256.13.282-.12.034-.329.066-.657.187-.969.275-.704.73-1.268 1.32-1.73.008-.007.02-.007.032-.01.04.024.01.049-.002.068-.72 1.153-1.202 2.411-1.64 3.689-.289.845-.567 1.694-.851 2.54-.058.173-.121.344-.186.514a.48.48 0 01-.469.332c-.16.006-.318.019-.477.03-.21.016-.319.103-.384.304-.05.156-.043.315-.03.474.003.04.01.08.013.119.007.117-.035.15-.14.1-.128-.06-.252-.13-.38-.193-.229-.115-.282-.084-.286.166v.206c-.083-.083-.079-.177-.089-.263a2.3 2.3 0 01.137-1.074c.235-.631.594-1.17 1.133-1.591.827-.646 1.434-1.458 1.763-2.463.014-.044.025-.088.067-.129z" fill="#BDF935"/><path d="M29.846 15.623c-.41 0-.82-.006-1.229.002a14.55 14.55 0 00-2.923.35 12.381 12.381 0 00-3.218 1.199c-.83.45-1.601.98-2.275 1.644-.43.424-.858.85-1.206 1.347-.012.018-.033.03-.05.044-.002-.212.098-.395.183-.579.178-.384.433-.72.699-1.047.437-.538.9-1.054 1.316-1.61.064-.087.145-.16.231-.226.132-.1.252-.215.352-.347a.314.314 0 01.207-.131c.401-.075.8-.16 1.203-.23.442-.077.879-.173 1.318-.264.667-.138 1.326-.31 1.98-.502a3.05 3.05 0 00.675-.282.307.307 0 01.292-.018c.71.286 1.457.431 2.202.586.081.017.17.012.243.064z" fill="#465461"/><path d="M10.052 35.383c-.14.067-.293.074-.44.098-.524.086-1.043.195-1.564.292-.105.02-.208.053-.316.055-.072-.176-.085-.364-.107-.55-.044-.38-.041-.762-.04-1.143 0-.918.002-1.835.004-2.752 0-.176-.002-.352.05-.552.025.122.039.219.064.313.062.227.171.433.305.626.338.485.742.908 1.218 1.259a.452.452 0 01.207.417c-.013.325.012.648.062.97.057.366.219.666.499.906.02.018.038.04.058.06z" fill="#fff"/><path d="M37.236 16.812a.85.85 0 01.24.174c.057.113.054.242.093.36.135.413.375.762.643 1.095.36.448.768.849 1.208 1.217.075.062.135.138.2.209.144.34.227.7.3 1.06.111.54.174 1.087.158 1.64-.002.055.032.127-.044.165-.288-.211-.49-.503-.715-.773-.643-.775-1.24-1.585-1.743-2.46-.344-.597-.656-1.21-.777-1.899-.04-.223-.04-.442.08-.645.087-.147.181-.184.357-.143z" fill="#BDF935"/><path d="M15.869 14.11c.045.129.017.268.057.397.022.069.055.124.132.135.063.009.124 0 .166-.056.037-.047.038-.104.049-.158.085-.158.219-.277.338-.404.467-.498.927-1.002 1.388-1.505.568-.62 1.142-1.235 1.704-1.861.277-.308.558-.615.843-.916.169-.177.315-.376.5-.537.07-.06.058-.16.12-.221.052.122.049.253.06.381.027.272.008.545-.002.818-.115.213-.299.37-.461.54-.667.698-1.328 1.4-2.004 2.089-.262.267-.522.537-.782.807a1.12 1.12 0 01-.195.162c-.73.368-1.344.898-1.955 1.43-.175-.086-.321-.017-.466.08-.28.188-.53.41-.78.632-.5.44-.955.924-1.427 1.392a.612.612 0 01-.165.119c-.136.006-.27.048-.407.032-.011-.104.077-.146.134-.203.973-.976 1.948-1.95 2.924-2.924.076-.076.14-.165.229-.228z" fill="#A3B9C4"/><path d="M4.204 31.551c.186-.231.403-.432.627-.623.982-.836 2.045-1.556 3.158-2.204.802-.467 1.583-.966 2.306-1.55a5.98 5.98 0 001.122-1.164c.18-.252.323-.52.415-.817.005-.016.013-.032.017-.048.059-.238.231-.375.53-.16-.06.67-.346 1.245-.76 1.76-.557.693-1.272 1.201-2.012 1.676-.982.631-2.016 1.178-2.982 1.835-.476.324-.93.675-1.339 1.083-.173.173-.32.37-.473.561a1.077 1.077 0 01-.385.305c-.223.105-.371.004-.367-.24a.746.746 0 01.143-.414zm33.032-14.739c-.269.023-.4.17-.414.463-.015.29.062.564.15.834.178.544.446 1.045.739 1.534a18.38 18.38 0 001.672 2.323c.214.257.434.51.651.766-.073.009-.113-.05-.16-.086-1.199-.946-2.268-2.018-3.124-3.29-.555-.824-1.026-1.69-1.317-2.647a5.526 5.526 0 01-.16-.645c-.024-.139 0-.163.14-.12.26.082.517.174.765.286.367.167.731.342 1.058.582z" fill="#76A708"/><path d="M29.198 24.278a2.099 2.099 0 01-.921.648.764.764 0 01-.582-.027 2.335 2.335 0 00-.878-.184c-.522-.02-1.044-.046-1.566-.073a1.461 1.461 0 01-.402-.064c-.105-.035-.118-.072-.05-.16.143-.185.282-.372.462-.523.526-.363 1.117-.548 1.744-.626.532-.066 1.05.038 1.566.152.162.035.313.101.449.2.235.172.293.385.178.657zm-4.857-.449c-.245.256-.518.468-.892.473a2.768 2.768 0 01-1.036-.17 1.918 1.918 0 01-.308-.145c-.216-.13-.32-.32-.288-.571a1.76 1.76 0 01.273-.78c.226-.248.536-.29.84-.316.42-.038.829.043 1.212.216.554.25.659.731.274 1.203a1.017 1.017 0 00-.04.055c-.012.012-.022.024-.035.035zM4.204 31.551c-.026.145-.105.276-.104.43.002.208.103.282.294.195a.955.955 0 00.385-.303c.42-.577.957-1.032 1.53-1.446.707-.51 1.462-.944 2.21-1.39.684-.406 1.367-.815 1.999-1.303.484-.373.932-.784 1.275-1.294.26-.386.452-.802.517-1.269.01-.066.013-.136.069-.186.094.057.098.134.07.235a4.579 4.579 0 01-1.174 2.032c-.432.443-.93.803-1.446 1.138-.636.412-1.302.772-1.954 1.157-.687.405-1.358.834-1.96 1.362-1.151 1.008-1.85 2.263-2.076 3.777-.04.264-.056.532-.082.798-.047.059.038.156-.058.2-.13-.691-.104-1.382.024-2.07.038-.203.119-.392.181-.587.04-.124.091-.246.103-.378-.014-.024-.031-.01-.047-.004-.115.07-.193.175-.272.28-.384.502-.652 1.065-.882 1.65-.21.534-.393 1.078-.547 1.632-.011.042-.016.086-.061.13-.026-.074-.015-.135-.014-.194.017-1.144.36-2.191.94-3.169.277-.466.595-.902.957-1.306.038-.042.072-.089.123-.117z" fill="#BDF935"/><path d="M24.989 6.427c-.078.2-.14.406-.226.603a9.57 9.57 0 01-.58 1.12c-.36.592-.757 1.159-1.183 1.705-.229.296-.462.589-.711.868-.28.313-.546.637-.823.952-.135.154-.277.303-.418.45-.537.556-1.058 1.13-1.624 1.658-.266.249-.52.51-.788.755-.26.236-.518.477-.778.714a.862.862 0 01-.137.1c-.043.027-.037-.021-.049-.041.02-.343.176-.618.424-.846.297-.274.6-.541.89-.821 1.446-1.39 2.838-2.828 4.074-4.41.561-.716 1.09-1.456 1.53-2.257.117-.214.222-.434.333-.652.022-.018.015-.05.034-.07.085.01.043.067.04.109l-.008.063z" fill="#C8D5DB"/><path d="M34.393 49.266c-.123.065-.262.076-.394.09a8.904 8.904 0 01-1.688.023c-.199-.015-.398-.023-.596-.041a27.722 27.722 0 01-1.32-.157c-.192-.027-.383-.058-.574-.086-.04-.006-.08-.002-.112-.033.245-.008.486.033.73.047.302.018.6.024.902-.002.238-.02.474-.039.71-.078.817-.135 1.565-.427 2.228-.93a5.158 5.158 0 001.397-1.635c.04-.073.086-.143.137-.23.042.145-.007.266-.024.384-.09.622-.25 1.224-.553 1.782a4.267 4.267 0 01-.373.55.352.352 0 01-.311.144c-.134-.006-.268 0-.416 0 .054.134.182.11.257.172z" fill="#465461"/><path d="M38.597 17.366c-.123-.108-.23-.233-.35-.346-.623-.583-1.357-.986-2.13-1.327-.06-.027-.13-.04-.182-.103.048-.048.114-.05.17-.062.338-.07.678-.137 1.017-.204a.414.414 0 01.267.024c.581.273 1.15.57 1.692.915.014.009.023.024.034.036.162.19.337.365.445.596.159.341.039.542-.338.552-.213.006-.417-.047-.625-.081z" fill="#76A708"/><path d="M9.473 31.698c-.11.058-.234.006-.358.04.07.073.162.09.242.12.449.172.907.291 1.393.28.671-.015 1.193-.285 1.525-.884.016-.03.03-.062.062-.08-.038.203-.131.386-.204.575-.162.419-.338.83-.56 1.222-.205.36-.428.356-.748.315-.119-.015-.228-.066-.338-.113a5.46 5.46 0 01-1.895-1.39c-.026-.029-.055-.057-.056-.116.155-.03.305.043.46.031.158-.012.318-.001.477 0z" fill="#465461"/><path d="M28.202 9.377a4.703 4.703 0 01-1.095 1.119c-.016.021-.048.013-.064.034a3.265 3.265 0 01-1.372.51 1.78 1.78 0 01-.916-.12c-.083-.034-.188-.06-.203-.18a9.62 9.62 0 011.355-.885c.072.01.13-.035.192-.058a15.624 15.624 0 011.654-.519.83.83 0 01.288-.021c.076.008.147.027.161.12z" fill="#BDF935"/><path d="M25.9 26.707c-.091.057-.141.133-.203.196-.171.174-.345.16-.48-.043-.052-.078-.097-.163-.194-.25l-.069.734c-.003.034 0 .07-.005.103-.01.058-.044.09-.106.085-.091-.005-.182-.005-.273-.013-.113-.01-.126-.023-.12-.139.007-.17.021-.34.034-.511.028-.403.057-.807.087-1.21.012-.152.014-.149.157-.155a.419.419 0 01.416.243c.094.177.2.344.31.51.016.023.028.051.076.068l.491-.526c.134-.145.29-.186.472-.12.069.025.1.072.086.145-.092.476-.129.96-.204 1.437a19.62 19.62 0 00-.048.338c-.008.065-.044.088-.105.081-.085-.01-.17-.018-.254-.03-.125-.017-.137-.028-.126-.151.016-.17.04-.34.057-.51.008-.086.035-.175 0-.282z" fill="#fff"/><path d="M29.198 24.278c.002-.046-.002-.092.005-.136.035-.207-.039-.364-.208-.485a1.517 1.517 0 00-.6-.232c-.283-.058-.571-.085-.86-.115-.627-.065-1.2.119-1.765.352-.172.071-.34.155-.509.233a3.656 3.656 0 011.006-.807 3.42 3.42 0 011.267-.434c.34-.041.67.007.996.086.38.092.728.259 1.05.479.176.12.194.175.107.37-.118.261-.263.504-.489.689z" fill="#76A708"/><path d="M32.646 9.924c-.05-.145-.177-.147-.293-.14a5.672 5.672 0 00-.59.07c-.509.09-1.012.203-1.513.327a.766.766 0 00-.22.09 16 16 0 01-2.345 1.172 18.32 18.32 0 01-2.72.88c-.038.009-.075.025-.113-.002.595-.394 1.23-.712 1.88-1.003 1.439-.642 2.936-1.106 4.466-1.471.592-.141 1.186-.272 1.78-.407.032-.008.066-.016.11.005-.037.114-.14.17-.212.251-.072.08-.153.153-.23.228z" fill="#FAFFAD"/><path d="M21.54 25.452h.41c.084 0 .124.036.12.124-.003.074 0 .148.005.222.006.09-.036.119-.122.12a23.35 23.35 0 00-.647.025c-.11.005-.118.019-.12.137-.001.126.02.165.118.165.198 0 .397-.01.596-.014.159-.003.165.004.169.158.002.063.001.126.004.188.005.087-.036.123-.122.123-.188 0-.376.003-.563.007-.15.004-.22.142-.141.27.03.049.077.04.121.038l.58-.014c.146-.003.146-.002.162.149.032.307.022.305-.28.318-.301.012-.603.014-.903.049-.16.018-.163.009-.175-.146l-.128-1.685c-.012-.153-.003-.167.15-.178.255-.018.51-.046.766-.056z" fill="#fff"/><path d="M17.261 14.94c-.045.112-.045.112-.176.233-.3.276-.598.556-.902.829-.35.314-.704.623-1.05.943-.215.2-.436.397-.658.59-.175.151-.332.325-.535.445-.27.159-.555.256-.872.243-.039-.002-.08.005-.109-.032.207-.065.369-.196.523-.343a65.12 65.12 0 012.996-2.691c.262-.22.53-.431.808-.629.036-.025.065-.066.143-.06a2.27 2.27 0 00-.168.473z" fill="#C8D5DB"/><path d="M24.241 27.48c-.145.021-.292-.004-.439-.007-.063-.001-.096-.04-.116-.104-.058-.184-.104-.21-.295-.21-.114 0-.227-.006-.341-.008-.134-.003-.156.011-.207.13-.072.171-.072.171-.262.17h-.301c-.022-.078.021-.124.04-.175.215-.563.45-1.118.691-1.67.081-.186.226-.244.414-.168.078.03.102.104.129.172.161.4.322.802.48 1.204.067.17.125.342.186.513.017.047.043.094.021.153z" fill="#fff"/><path d="M36.278 13.265c-.11.085-.245.083-.371.098-.396.047-.792.05-1.19.013a15.318 15.318 0 01-2.528-.44c-.247-.064-.499-.111-.734-.212a6.979 6.979 0 011.68-.095 11.95 11.95 0 013.002.579c.048.015.094.038.141.057z" fill="#FAFFAD"/><path d="M32.581 11.49c.48-.182.977-.293 1.487-.344.129-.013.258-.045.39-.025.248.031.49.09.716.198.112.054.228.116.203.276-.228.163-.478.28-.741.373a2.61 2.61 0 01-1.66-.02c-.146-.05-.29-.113-.386-.241-.05-.066-.116-.14-.009-.217z" fill="#BDF935"/><path d="M24.375 23.794c.02-.098.095-.166.132-.255.058-.143.105-.284.082-.444a.581.581 0 00-.247-.393c-.23-.172-.5-.24-.774-.296a2.24 2.24 0 00-1.014.021c-.167.044-.312.133-.464.209.168-.391.467-.604.886-.655.44-.053.882-.095 1.326-.032.18.025.36.058.525.14.265.131.359.325.3.614a.69.69 0 01-.036.131 2.47 2.47 0 01-.716.96z" fill="#76A708"/><path d="M9.753 28.816c0 .103-.037.167-.073.23a2.689 2.689 0 00-.303.9c-.06.39-.059.779.102 1.152.048.113.027.15-.095.181a1.267 1.267 0 01-1.125-.237c-.036-.027-.066-.063-.096-.097s-.034-.076-.002-.108c.187-.189.24-.433.282-.68a.243.243 0 01.16-.203c.227-.088.371-.275.525-.45.121-.136.217-.29.298-.454.062-.126.195-.164.327-.234z" fill="#253039"/><path d="M24.552 10.74c.228.197.508.247.792.263.397.023.774-.08 1.14-.227.143-.057.281-.124.418-.192.045-.023.085-.06.141-.053-.157.16-.352.264-.554.354-.441.197-.876.406-1.293.651-.427.251-.9.37-1.37.5-.113.03-.224.084-.356.06.215-.577.548-1.046 1.082-1.355z" fill="#76A708"/><path d="M20.062 25.56c.369-.038.301.019.33.313.01.089-.03.122-.116.125-.102.003-.204.013-.306.022-.127.01-.15.031-.138.158.024.26.054.52.082.78.017.17.037.339.051.509.01.115.003.122-.115.14-.073.012-.147.015-.22.024-.14.017-.152.01-.17-.134l-.143-1.218c-.02-.166-.021-.17-.19-.155a5.784 5.784 0 00-.304.035c-.087.012-.125-.023-.13-.111-.003-.068-.021-.135-.028-.203-.009-.1.008-.121.105-.134l.643-.079c.214-.026.427-.061.65-.072zm-3.054.196c.06.247.11.495.15.745.022.133-.03.258-.036.389-.003.046-.048.062-.084.075-.193.068-.384.143-.589.166-.428.05-.857.098-1.286.146-.027.003-.056 0-.083 0-.027-.05.014-.075.038-.102.175-.195.373-.365.586-.519.386-.28.774-.557 1.163-.834.04-.029.076-.069.14-.066z" fill="#fff"/><path d="M39.62 19.867c-.146-.07-.25-.194-.368-.297a8.759 8.759 0 01-.893-.886c-.284-.332-.553-.675-.735-1.077-.089-.197-.168-.398-.149-.62.27.17.501.388.724.614a6.335 6.335 0 011.376 2.126c.01.026.017.053.025.08l.005.008.015.052z" fill="#FAFFAD"/><path d="M17.782 13.781c.011-.041.045-.065.073-.093.391-.404.785-.807 1.176-1.213.583-.607 1.165-1.215 1.747-1.824.149-.156.28-.33.446-.468-.011.117-.015.237-.037.353a.67.67 0 01-.194.352c-.69.686-1.378 1.375-2.066 2.062-.201.202-.405.4-.603.605-.15.155-.316.257-.542.226z" fill="#465461"/><path d="M22.019 24.376c.235.137.415.33.565.549-.026.048-.064.034-.095.034-.609 0-1.216.04-1.824.072-.165.008-.33.022-.494.034-.07.01-.169.048-.201-.02-.032-.07.054-.13.109-.177.422-.36.89-.612 1.464-.607.169 0 .329.03.476.115z" fill="#BDF935"/><path d="M8.662 19.387a24.7 24.7 0 01-2.25 2.319.184.184 0 01-.01-.141c.028-.093.054-.186.092-.275.357-.828.933-1.446 1.76-1.82a.744.744 0 01.408-.083z" fill="#A3B9C4"/><path d="M32.581 11.49c-.043.063-.019.12.022.171a.59.59 0 00.197.16c.252.13.523.192.802.21.318.019.636.014.95-.062.026-.007.056-.001.084-.001-.322.156-.636.286-1.019.254-.81-.067-1.622-.06-2.42.142-.076.02-.155.03-.234.04-.078.01-.157.017-.236.025.101-.161 1.311-.773 1.854-.939z" fill="#76A708"/><path d="M38.597 17.366c.053-.06.114-.026.173-.016.157.026.312.061.473.05.034-.002.068 0 .102-.006.225-.041.302-.186.213-.4-.093-.223-.244-.407-.4-.589-.023-.028-.089-.047-.043-.106.369.24.717.505 1.013.833.153.17.277.361.355.578.045.122.028.145-.098.178a1.22 1.22 0 01-.424.02 3.602 3.602 0 01-.735-.147 1.467 1.467 0 01-.629-.395z" fill="#BDF935"/><path d="M15.869 14.11c-.012.088-.08.135-.136.19l-3.026 3.028c-.044.044-.095.082-.125.138-.076.015-.151.047-.228.017-.02-.058.022-.078.047-.105a43.998 43.998 0 012.99-3.025c.113-.104.229-.205.36-.287.054-.033.11-.052.118.045z" fill="#C8D5DB"/><path d="M12.99 17.434c.695-.722 1.392-1.44 2.184-2.06a2.28 2.28 0 01.314-.205c.164-.09.212-.082.339.041a36.362 36.362 0 00-1.74 1.58c-.129.127-.277.238-.394.376-.16.192-.367.253-.601.266-.034.002-.069.001-.103.002z" fill="#465461"/><path d="M35 27.886c.104-.227.222-.414.333-.604.21-.363.434-.72.671-1.066l.06-.084c.016-.024.036-.048.067-.04.033.009.033.042.034.07.003.143-.005.288-.046.422-.127.421-.154.858-.222 1.289-.02.124-.035.144-.168.126-.236-.032-.47-.072-.73-.113z" fill="#76A708"/><path d="M3.791 23.656c.02.01.076.013.036.046-.337.277-.516.656-.684 1.043a9.704 9.704 0 00-.522 1.635c-.05.208-.093.418-.14.632-.036-.048-.004-.102-.024-.148.038-.304.073-.61.114-.914.075-.57.155-1.138.229-1.708.02-.156.083-.269.236-.322.252-.087.503-.176.755-.264z" fill="#C8D5DB"/><path d="M21.166 8.984c.01.116-.04.199-.121.283a38.91 38.91 0 00-.929.997c-.238.266-.48.53-.723.792-.27.291-.537.585-.807.876-.254.275-.505.554-.76.828-.274.295-.547.592-.818.89-.203.221-.41.44-.607.666-.037.042-.074.088-.128.112-.02-.136.063-.226.143-.314.163-.181.333-.357.5-.537 1.036-1.124 2.09-2.232 3.113-3.37.338-.375.667-.76 1.002-1.14.035-.039.053-.115.135-.083z" fill="#C6D4DA"/><path d="M22.019 24.376c-.142-.009-.275-.063-.418-.069-.503-.02-.932.167-1.325.459-.108.08-.212.164-.3.273.072.04.137.004.195.026-.097.038-.232.073-.285.003-.064-.084.06-.164.115-.238.119-.159.251-.308.362-.472.204-.302.484-.414.836-.36.308.049.584.171.82.378z" fill="#76A708"/><path d="M11.398 33.837c.416-.144.617-.481.829-.814.046.49.045.975.014 1.461-.109-.034-.623-.428-.843-.648z" fill="#FEFEFE"/><path d="M10.504 26.503a.95.95 0 010-.338c.034-.173.027-.348.058-.521.065-.364.079-.359.375-.247.1.037.2.078.3.118.07.03.091.072.053.147a2.007 2.007 0 01-.171.272c-.155.21-.318.413-.537.561-.018.012-.036.028-.078.008z" fill="#253039"/><path d="M20.584 16.993c.021-.104.05-.207.063-.312.03-.253-.065-.472-.203-.677a5.85 5.85 0 01.488-.543c.084-.085.157-.062.19.06a.96.96 0 01-.015.586 2.6 2.6 0 01-.523.886z" fill="#465461"/><path d="M19.192 24.485c-.08.09-.143.155-.2.224-.052.06-.114.118-.145.188-.117.268-.355.348-.606.403-.237.053-.479.087-.722.13.114-.223 1.28-.887 1.673-.945z" fill="#FDFEFE"/><path d="M28.202 9.377c-.05-.062-.114-.083-.194-.081-.248.005-.48.082-.713.154-.406.125-.809.264-1.214.393-.055.018-.113.07-.174.012.623-.342 1.268-.629 1.978-.741.123-.02.247-.035.371-.043.094-.006.125.047.076.129-.037.063-.086.118-.13.177z" fill="#F8FEAC"/><path d="M1.915 26.12a7.81 7.81 0 01-.248-.935c-.04-.224.157-.456.386-.465.078-.003.055.056.052.096-.02.26-.036.52-.065.78-.02.174-.018.351-.059.523-.022.02-.044.02-.066 0z" fill="#A2B8C3"/><path d="M35.377 11.595c-.025-.123-.11-.19-.218-.237a3.245 3.245 0 00-.547-.175.474.474 0 01-.155-.062c.394-.027.781.028 1.168.092.103.017.121.078.044.15-.091.085-.182.172-.292.232z" fill="#F6FDAB"/><path d="M8.122 29.796c-.01.218-.014.4-.088.57-.025.056-.03.148-.122.137-.08-.01-.161-.144-.15-.225a.163.163 0 01.013-.049c.077-.159.174-.302.347-.433z" fill="#FAFBFB"/><path d="M27.071 25.271l-1.08-.125-.254-.032c.217-.1.81-.047 1.402.123.003.062-.036.042-.068.035z" fill="#6A9A09"/><path d="M3.699 35.684c.053-.057.009-.142.058-.2a.487.487 0 01-.013.231c-.005.014-.02.033-.037.014-.009-.01-.006-.03-.008-.045z" fill="#5A7726"/><path d="M24.997 6.364c-.018-.035.002-.083-.04-.109-.002-.028 0-.057.035-.062.031-.004.031.024.032.044.001.044 0 .089-.027.127z" fill="#7B959F"/><path d="M27.071 25.271c.025-.007.053-.008.068-.034.035.001.058.02.099.05-.072.018-.121.022-.167-.015z" fill="#476C0E"/><path d="M1.915 26.12h.066c.006.03.015.08-.016.083-.045.004-.055-.042-.05-.084z" fill="#92A1AC"/><path d="M36.304 47.518c.014.021.005.053.033.067-.004.029-.017.063-.045.059-.038-.005-.02-.043-.016-.066.004-.021.018-.04.028-.06z" fill="#9E9DA1"/><path d="M8.473 29.586c.007.01.018.018.017.025a.034.034 0 01-.035.029c-.013-.001-.042 0-.023-.027.009-.013.027-.018.041-.027z" fill="#91979A"/><path d="M14.017 27.556c-.002-.03.007-.054.036-.067.004.03-.008.053-.036.067z" fill="#465461"/><path d="M3.96 32.645c.007-.022.023-.033.045-.026.018.006.019.02.002.03a2.484 2.484 0 00-.047-.004z" fill="#5F6324"/><path d="M24.956 6.256c.008.032-.006.053-.033.069-.004-.03.005-.055.034-.07z" fill="#7B959F"/><path d="M27.043 10.53c.011-.03.035-.037.064-.034-.013.026-.034.038-.064.034zm-2.702 13.299c.003-.02.013-.033.034-.035 0 .022-.013.032-.034.035z" fill="#76A708"/><path d="M39.605 19.816l-.008-.001.003-.008h.01l-.005.009z" fill="#BDF935"/><path d="M33.508 26.43c0-.021.015-.03.03-.037 0 .02-.008.034-.03.037zm-3.045-4.86c.02.002.033.012.036.032-.021 0-.033-.01-.036-.031z" fill="#465461"/><path d="M35.36 22.03a13.276 13.276 0 00-.658-1.133 9.952 9.952 0 00-.486-.677 6.66 6.66 0 00-.76-.83 7.032 7.032 0 00-1.185-.881 8.044 8.044 0 00-1.784-.761 13.139 13.139 0 00-1.356-.318 18.146 18.146 0 00-.954-.153c-.241-.03-.482-.065-.725-.086-.168-.014-.339-.016-.506-.054-.121-.027-.249-.023-.372-.033-.186-.014-.372-.034-.559-.046-.243-.015-.486-.02-.727-.062a.219.219 0 00-.051-.003c-.257.018-.509-.056-.765-.036a.506.506 0 01-.226-.053c.425-.077.817-.167 1.217-.227.29-.043.582-.082.873-.12.162-.02.328-.031.49-.05.237-.03.477-.003.711-.057.044-.01.09-.005.136-.005.29 0 .581.001.872-.002.415-.004.827.025 1.24.064a9.74 9.74 0 011.455.246c.754.19 1.474.469 2.115.918a4.422 4.422 0 011.516 1.785c.208.45.343.922.418 1.414.053.354.08.709.095 1.065 0 .026.008.055-.024.096z" fill="#C8D5DB"/><path d="M9.367 22.872c-.037-.044-.069-.089-.045-.154.013-.037.009-.08.023-.117.044-.119.045-.159-.108-.175a.603.603 0 01-.298-.119.295.295 0 00-.036-.023c-.013-.05.003-.057.02-.06.276-.052.509-.191.722-.367a13.07 13.07 0 001.547-1.492c.176-.203.39-.322.653-.368.28-.048.56-.107.836-.17.39-.089.719-.28.964-.602l.021-.027c.108-.124.146-.116.219.046.06.223-.065.384-.192.537-.116.14-.253.26-.383.388a.73.73 0 00-.205.35c-.05.199-.116.392-.18.587-.015.047-.054.103-.019.146.048.056.104-.002.156-.015a.193.193 0 01.067-.008c.117-.03.19-.118.265-.201.087-.097.164-.203.25-.301.091-.105.117-.104.234-.006.22.224.077.627-.17.847a1.373 1.373 0 01-.458.257c-.416.15-.848.208-1.287.243-.45.036-.91-.003-1.343.188a6 6 0 00-1.009.568c-.073.05-.145.122-.244.048z" fill="#011320"/><path d="M9.367 22.872c.072.01.128-.019.187-.062a4.81 4.81 0 011.096-.613c.283-.109.576-.15.882-.155.47-.005.938-.047 1.396-.163.188-.047.37-.11.541-.201.404-.213.539-.527.41-.957.148.108.274.238.37.395.142.231.1.45-.116.616-.22.168-.474.271-.733.358-.615.205-1.232.404-1.847.607-.384.126-.747.306-1.125.447-.24.09-.482.174-.743.178-.05 0-.103.002-.153-.006-.143-.021-.206-.099-.205-.245 0-.069.01-.136.04-.199z" fill="#465461"/><path d="M8.447 21.713c-.127.115-.218.261-.335.385-.037.04-.076.113-.134.074-.05-.032-.022-.106-.002-.16.057-.154.126-.304.21-.447a15.57 15.57 0 011.266-1.819c.177-.222.407-.38.665-.493a9.186 9.186 0 012.435-.691 4.95 4.95 0 01.832-.068c.061.002.127-.01.179.041-.017.07-.079.077-.13.092-.07.02-.145.027-.207.071-.317.14-.655.219-.985.32-.609.19-1.215.39-1.765.718-.387.23-.71.544-1.013.878-.298.328-.593.66-.884.993a.521.521 0 01-.132.106zm-3.382 4.411c-.03.055-.056.113-.093.162a.173.173 0 01-.212.064.17.17 0 01-.119-.186c.005-.056.023-.111.038-.166.06-.213.141-.42.189-.637.03-.136.026-.27.001-.406-.021-.12-.094-.175-.209-.19-.11-.016-.215.012-.32.034a1.393 1.393 0 01-.22.032c-.083.004-.14-.03-.17-.112a.172.172 0 01.051-.2.23.23 0 01.072-.045c.305-.117.62-.187.949-.177.186.006.328.081.413.252.067.078.057.172.038.258-.093.435-.168.876-.382 1.275l-.001.001c-.007.015-.02.025-.025.041z" fill="#011320"/><path d="M8.447 21.713c.492-.605 1.004-1.192 1.588-1.71.236-.209.5-.373.788-.502.774-.349 1.583-.591 2.403-.803.032.046-.016.046-.035.053-.383.157-.772.302-1.15.468-.474.208-.956.4-1.396.676-.139.087-.266.193-.392.298-.3.251-.6.503-.894.76-.248.217-.49.44-.734.66-.052.047-.09.12-.178.1z" fill="#C7D5DB"/><path d="M17.173 16.017c.18.192.326.386.521.538.346.269.707.483 1.152.547.206.03.404.02.61 0a1.407 1.407 0 01-.479.235c-.268.077-.534.133-.818.07-.322-.072-.58-.227-.757-.504-.168-.262-.285-.543-.229-.886z" fill="#C8D5DB"/><path d="M3.886 25.727c.002-.126 0-.274.045-.418.061-.19.2-.245.371-.143a.365.365 0 01.183.309c.015.207-.02.409-.083.605a3.959 3.959 0 01-.136.349c-.023.053-.06.099-.127.099-.074 0-.112-.05-.137-.11-.09-.214-.11-.44-.116-.691z" fill="#011320"/><path d="M13.129 21.229a.339.339 0 01-.208.103c-.08.013-.11-.019-.085-.093.09-.263.173-.527.245-.795a.637.637 0 01.191-.297c.116-.108.225-.225.34-.335a.878.878 0 00.273-.568c.097.126.074.27.047.407-.046.23-.155.437-.284.632-.116.175-.247.34-.35.523-.075.133-.151.266-.17.423zM5.09 26.082c.053-.18.101-.36.158-.537.074-.233.115-.473.176-.708.025-.095.009-.192.01-.288.236.056.3.154.254.387-.06.312-.222.578-.383.844-.063.105-.12.217-.214.302zm-.025.042c-.002-.02.006-.033.025-.04.003.02-.007.033-.025.04z" fill="#465461"/><path d="M23.898 43.522l-.035-.036a.69.69 0 01.308-.17c-.064.105-.173.15-.273.206z" fill="#BACBD3"/><path d="M24.17 43.316c.01-.013.017-.03.029-.04.015-.013.035-.035.051-.003.003.005-.018.026-.031.033-.014.007-.032.007-.048.01z" fill="#BACBD3"/><path d="M24.169 30.257a.107.107 0 01.076-.033c.273.008.547-.013.819.027.2.03.264.097.279.3.007.096.01.193.01.29l.01 3.433c0 .04.005.079.007.119-.002.17-.007.34-.005.511a.647.647 0 01-.37.622c-.228.123-.479.174-.728.228-.06.013-.087-.017-.092-.07-.004-.045-.003-.091-.003-.137v-2.235c0-1.019-.002-2.037-.003-3.055zm-7.997 4.341c-.017.255-.003.512-.03.767a.612.612 0 01-.18.392c-.26.254-.572.41-.913.515-.02.006-.044 0-.079 0v-1.538c.005-.46.01-.922.013-1.383l.022-2.647c.002-.167.003-.165.173-.179.182-.015.363-.035.544-.05.068-.007.137-.012.205-.005.166.017.244.099.248.268.006.222.003.444.002.666l-.01 3.11c0 .028.003.056.005.084z" fill="#011320"/><path d="M23.434 26.698c-.12.014-.244.052-.3-.009-.064-.071.032-.173.06-.261.016-.048.04-.093.066-.15.111.12.122.266.174.42z" fill="#091925"/><path d="M10.53 21.744c.085-.124.21-.207.314-.31.212-.206.442-.395.578-.668a.206.206 0 01.195-.117c.12.001.24.002.359.012.09.009.107.037.074.127-.065.182-.137.362-.205.543a.26.26 0 01-.214.174c-.348.061-.689.148-1.029.242-.025.015-.05.016-.072-.003z" fill="#BCF835"/><path d="M10.53 21.744l.072.003c-.018.025-.044.036-.073.028-.021-.006-.02-.02 0-.031z" fill="#7DA12A"/></svg>