<svg width="79" height="30" fill="none" xmlns="http://www.w3.org/2000/svg"><g opacity=".15" filter="url(#filter0_f)"><path d="M65.59 39.799c-.593-.318-1.222-.558-1.843-.813-2.338-.957-4.738-1.728-7.182-2.363-.194-.05-.389-.101-.595-.046-1.47.392-2.914.856-4.25 1.598-.862.479-1.7.998-2.556 1.488-2.329 1.336-4.683 2.625-7.132 3.73-1.854.837-3.746 1.567-5.723 2.059-1.776.441-3.578.67-5.408.685-2.485.02-4.915-.315-7.27-1.13-2.066-.714-3.95-1.747-5.583-3.216a13.16 13.16 0 01-.964-.958c-.114-.127-.207-.148-.362-.068-1.55.794-3.063 1.65-4.497 2.643-.087.06-.161.153-.314.154-.043-.23.001-.456.018-.679.072-.984.151-1.967.23-2.95.089-1.113.18-2.227.268-3.34l.269-3.434.278-3.553c.09-1.134.177-2.268.266-3.403.094-1.194.191-2.388.286-3.582l.194-2.468c.043-.562.086-1.124.131-1.686a1.252 1.252 0 00-.06-.504c-.205-.62-.398-1.244-.598-1.867-.093-.288-.097-.29-.322-.098-1.539 1.316-2.626 2.929-3.197 4.878-.412 1.405-.521 2.845-.481 4.302.03 1.068.17 2.125.327 3.18.042.279.09.556.134.835.007.049.01.1.006.15a.134.134 0 01-.108.129c-.067.016-.118-.013-.151-.07a.758.758 0 01-.063-.137c-.344-1.03-.736-2.044-.99-3.102-.33-1.374-.532-2.765-.491-4.183v-.143c-.102-.014-.102.06-.125.109-.652 1.443-1.191 2.923-1.473 4.488a22.24 22.24 0 00-.275 2.428c-.01.128.048.324-.163.328-.18.003-.163-.18-.181-.301-.193-1.285-.362-2.572-.318-3.877.1-2.965 1.108-5.574 3.022-7.843.9-1.068 1.898-2.026 3.038-2.836.238-.169.465-.353.695-.532.267-.21.266-.21.157-.521-.086-.247-.175-.493-.26-.74-.109-.313-.1-.33.21-.477.447-.211.921-.345 1.397-.474.816-.22 1.641-.397 2.472-.55.25-.047.479-.133.695-.273.81-.526 1.624-1.047 2.413-1.604.427-.3.693-.682.758-1.211.076-.63.176-1.256.226-1.889.023-.298-.01-.334-.311-.328-.816.016-1.558.278-2.25.693a5.257 5.257 0 00-1.676 1.629 2.604 2.604 0 00-.425 1.304c-.02.311-.013.624-.017.936-.001.09-.025.192-.132.111-.49-.368-1.074-.373-1.64-.44a24.313 24.313 0 00-1.837-.129c-.224-.01-.383.05-.473.278-.478 1.218-.943 2.439-1.189 3.73-.07.368-.113.736-.1 1.11.001.068.028.148-.058.186-.08.037-.13-.025-.183-.07-1.192-1.039-2.4-2.06-3.49-3.21-.382-.402-.728-.832-.978-1.334a2.236 2.236 0 01-.218-1.407c.045-.26-.016-.5-.102-.738a24 24 0 01-.73-2.425c-.005-.019-.015-.037-.02-.057-.23-.953.154-1.604 1.109-1.878.324-.094.469-.268.498-.602.004-.05.001-.1.003-.151.022-.51.152-.7.64-.865a50.221 50.221 0 002.294-.832c.964-.38 1.91-.8 2.852-1.229.383-.174.626-.437.76-.84.295-.893.726-1.722 1.249-2.503.71-1.062 1.65-1.83 2.864-2.257.558-.197 1.109-.419 1.663-.629a1.04 1.04 0 00.371-.253 5.57 5.57 0 012.582-1.49c.285-.076.505-.235.705-.442a94.48 94.48 0 013.539-3.51c.942-.88 1.888-1.755 2.904-2.551.325-.255.66-.495 1.013-.71.147-.089.3-.162.459-.227.272-.11.511-.08.713.143.163.178.162.223.391-.023 1.162-1.244 2.326-2.485 3.485-3.732a154.43 154.43 0 005.065-5.723c.318-.378.323-.377.576.035.402.654.752 1.331.974 2.069.014.047.018.1.07.131.07.015.103-.04.14-.086 1.522-1.87 2.918-3.823 3.994-5.99a15.47 15.47 0 001.146-3.043c.01-.039.024-.077.035-.116.025-.093.068-.169.177-.177.128-.009.17.08.205.18.186.554.349 1.113.473 1.683.507 2.317.223 4.559-.634 6.747-.19.487-.414.96-.645 1.43l-.155.322c.099.062.14-.018.193-.052 1.396-.891 2.854-1.65 4.456-2.102a6.856 6.856 0 011.877-.263c.15 0 .302.019.45.044.262.046.316.135.26.4a1.73 1.73 0 01-.193.473 7.322 7.322 0 01-1.16 1.577 1.953 1.953 0 00-.12.134c-.01.014-.009.038-.013.057.085.054.155-.01.227-.034 3.093-1.077 6.264-1.846 9.483-2.433.257-.047.512-.105.769-.153.098-.019.2-.037.299-.033.164.006.232.121.164.268-.029.063-.074.12-.113.178-.74 1.104-1.669 2.04-2.654 2.921-.45.403-.917.787-1.376 1.18-.017.065 0 .094.07.065 1.496-.63 3.045-1.026 4.678-1.051a9.408 9.408 0 012.684.346c.087.024.174.052.256.089.185.084.222.177.127.359a2.912 2.912 0 01-.615.777c-.488.459-1.05.81-1.638 1.124-.08.042-.156.09-.231.139-.013.008-.014.036-.028.076 3.438.735 6.59 2.147 9.576 3.995-.109.145-.246.152-.366.18-.782.187-1.58.296-2.362.49-.459.113-.922.208-1.382.313-.068.015-.133.043-.198.064.01.134.119.13.196.162.999.409 1.962.884 2.846 1.508.653.461 1.25.983 1.712 1.644.31.44.548.913.649 1.448.06.319.012.412-.3.518a3.486 3.486 0 01-1.368.168c-.37-.025-.734-.097-1.088-.163-.077.1-.004.15.03.202 1.157 1.806 1.778 3.792 1.998 5.916.083.803.13 1.605.096 2.411a6.016 6.016 0 01-.054.601c-.028.19-.117.242-.297.18-.113-.04-.22-.1-.327-.155-.679-.343-1.27-.812-1.85-1.296-.214-.18-.42-.371-.71-.56.372 3.77-.318 7.268-2.21 10.528.597.13 1.164.253 1.731.38.618.14 1.23.298 1.824.525.13.05.262.103.39.162.29.134.297.144.184.455-.613 1.692-1.177 3.4-1.729 5.113-.13.402-.157.801-.12 1.22.104 1.132.19 2.266.28 3.4.093 1.175.182 2.349.274 3.523l.271 3.463c.115 1.444.232 2.889.346 4.333.063.793.137 1.585.181 2.378.057.996.24 1.972.396 2.955.42 2.633.055 5.153-1.277 7.493a9.038 9.038 0 01-2.933 3.116c-.057.037-.129.059-.181.168.214.024.414.058.615.065a7.53 7.53 0 001.027-.023c.16-.016.321-.022.482-.026.237-.006.256.019.162.233a5.105 5.105 0 01-1.487 1.95c-.783.63-1.684 1.013-2.65 1.253-1.194.297-2.407.356-3.628.238-2.172-.209-4.215-.838-6.11-1.924-1.44-.825-2.694-1.868-3.64-3.25a7.69 7.69 0 01-1.235-3.052c-.012-.067-.038-.137.001-.209.111-.035.188.04.27.09a9.618 9.618 0 005.133 1.332c2.22-.045 4.207-.721 5.86-2.257 1.176-1.093 1.971-2.428 2.501-3.932.037-.104.078-.207.119-.31.06-.147.118-.03.176.002.19.105.261.3.348.477.55 1.124.68 2.318.564 3.547-.032.338-.065.679-.164 1.007-.008.026-.015.054-.026.081-.015.038-.003-.013-.01.027 0 .003.008-.015.017-.021.325-.677.602-1.367.676-2.12.072-.735.057-1.467-.101-2.193a.534.534 0 00-.306-.387c-.226-.11-.447-.231-.678-.332-.09-.041-.192-.069-.236-.173z" fill="#011320"/><path d="M46.174-27.638c-.039.685-.177 1.355-.331 2.02-.7 3.034-1.968 5.824-3.623 8.449-1.521 2.413-3.328 4.597-5.317 6.635a4.858 4.858 0 00-.382.428c-.12.156-.11.314 0 .44a.35.35 0 00.466.057c.1-.065.185-.154.274-.235.305-.276.557-.607.879-.865.378.274.564.999.377 1.477a1.724 1.724 0 01-.13.271c-.247.418-.58.77-.887 1.14-.333.402-.686.788-1.007 1.2A6.359 6.359 0 0035.27-4.03c-.077.358-.055.713.059.981.119-.03.116-.146.16-.226.21-.481.567-.856.911-1.233 1.398-1.534 2.945-2.886 4.763-3.914a22.92 22.92 0 017.92-2.733 26.363 26.363 0 015.172-.285c.169.007.339.015.504.057l2.42.337c.568.08 1.14.121 1.703.238 1.511.315 2.79 1.057 3.892 2.124 1.261 1.222 2.052 2.718 2.57 4.376.272.87.458 1.756.392 2.671C65.64-.325 65.26.908 64.642 2.07c-.26.488-.552.958-.85 1.425a85.535 85.535 0 00-2.506 4.162c-.02.02-.043.036-.053.065l-.003.002c-.17-.023-.14-.174-.164-.277a14.205 14.205 0 00-1.202-3.369A15.111 15.111 0 0057.682.91c-.551-.617-1.171-1.155-1.766-1.722l-.002-.001c-.029-.01-.045-.034-.064-.056-.673-.566-1.392-1.074-2.195-1.429a12.112 12.112 0 00-2.462-.797c-1.447-.296-2.909-.381-4.383-.33-2.358.08-4.652.526-6.919 1.147-.495.136-.494.136-.722-.318-.253-.506-.548-.985-.967-1.376-.23-.214-.484-.392-.795-.474-.276-.072-.325-.023-.252.26.005.02.013.038.02.057.12.318.017.612-.104.9-.165.393-.38.756-.66 1.078a24.376 24.376 0 01-1.403 1.49C34.121.2 33.2 1.026 32.346 1.923c-1.845 1.938-3.48 4.035-4.774 6.384-.238.432-.492.853-.729 1.285v.002c-.044.027-.028.086-.064.117-1.014 1.7-1.811 3.501-2.532 5.339-.14.356-.292.706-.439 1.059-.535 1.41-1.974 1.92-3.418 1.765a7.22 7.22 0 01-2.03-.54c-.17-.071-.17-.072-.297-.247.227-.08.462.01.682-.054.576-.024 1.134-.16 1.696-.273.095-.019.208-.033.232-.16.024-.124-.07-.179-.153-.235-.138-.093-.298-.16-.403-.338.172-.042.299.029.427.057.604.136.885-.096.847-.72-.017-.271-.067-.54-.058-.813.007-.23.038-.258.27-.252.1.003.201.013.301.024.614.07 1.104-.146 1.477-.635.259-.338.445-.717.617-1.104.446-.994.764-2.033 1.088-3.07.538-1.718 1.072-3.437 1.758-5.104.54-1.316 1.167-2.586 2.023-3.732.485-.65 1.078-1.194 1.653-1.758.238-.232.474-.467.707-.703.046-.046.12-.081.1-.167-.058-.065-.117-.02-.168 0-1.883.697-3.589 1.678-4.978 3.154a7.098 7.098 0 00-1.697 2.99c-.002.009-.003.02-.006.029-.087.295-.087.294-.363.18-.093-.038-.185-.08-.28-.112-.565-.197-1.024-.057-1.388.42-.104.137-.19.286-.255.444-.06.142-.15.174-.288.125a5.308 5.308 0 00-.845-.222c-1.499-.266-2.856.08-4.085.958-1.003.716-1.745 1.66-2.344 2.725a4.075 4.075 0 00-.098.187c-.111.222-.287.329-.537.308-.432-.035-.863-.064-1.294-.105-.49-.045-.98-.105-1.47-.15-.356-.032-.421.008-.529.349-.415 1.313-.88 2.611-1.21 3.95l-.013.06c-.062.21-.095.221-.25.076-.147-.138-.29-.279-.433-.421-.645-.65-1.284-1.308-1.871-2.012-.2-.24-.39-.488-.537-.765-.155-.292-.238-.593-.176-.929.05-.266.052-.54.13-.8.048.03.031.081.041.124-.005-.038.006-.073.012-.11a16.147 16.147 0 011.229-4.108A4.942 4.942 0 018.7 2.817c.343-.138.686-.279 1.03-.416.915-.365 1.801-.793 2.69-1.218.978-.468 1.79-1.14 2.54-1.911 1.227-1.263 2.398-2.577 3.557-3.903.33-.378.655-.763 1.034-1.097.809-.712 1.76-1.11 2.815-1.282l2.082-.339c.06-.01.12-.022.18-.02.114.001.14.052.087.152-.064.12-.202.2-.201.355.135.075.266-.003.393.018.916.024 1.658-.33 2.333-.947a407.2 407.2 0 013.968-3.573c.445-.396.896-.788 1.304-1.225.002.22-.027.44.011.66.045.256.135.486.392.603.178.08.262.028.277-.166.012-.148-.034-.302.046-.442.122-.006.201-.088.28-.163.73-.692 1.474-1.366 2.201-2.06.684-.653 1.37-1.303 2.025-1.984 2.075-2.162 4.11-4.359 5.84-6.816.894-1.269 1.72-2.577 2.282-4.034.061-.16.115-.322.168-.484.023-.07.02-.17.139-.163z" fill="#A3B9C4"/><path d="M61.595 18.474l-.017-1.6c-.004-.323-.003-.645-.008-.967-.004-.278-.034-.31-.303-.346-.448-.062-.474-.041-.473.4.001.604 0 1.209.01 1.813.003.173-.044.278-.216.345-.983.384-1.962.778-2.942 1.168-.017.006-.039.004-.08.008-.058-.08-.04-.179-.042-.275-.037-1.621-.037-3.242-.04-4.863a.872.872 0 00-.253-.652 2.002 2.002 0 01-.563-1.178c-.028-.221-.007-.253.215-.236.753.057 1.506.115 2.258.18.762.066 1.523.141 2.284.213 1.272.121 2.543.25 3.811.41 1.337.17 2.674.34 4.012.508.535.067.559.094.426.62-.085.338-.23.65-.48.894-.19.184-.253.393-.252.65.007 1.793.005 3.585.006 5.378 0 .05.005.101.002.151-.002.048.016.107-.038.136-.07.04-.109-.024-.153-.058-.677-.524-1.352-1.05-2.03-1.571-.256-.197-.51-.397-.778-.573a.635.635 0 01-.316-.602c.014-.655.002-1.31-.002-1.964-.001-.304-.014-.316-.32-.35l-.09-.01c-.288-.02-.319.003-.32.287-.001.715.002 1.43.004 2.146l.017 5.106c0 .05-.01.1-.014.15-.111.08-.233.043-.35.024-.852-.135-1.7-.296-2.554-.426-.373-.056-.386-.086-.386-.465V18.8c0-.109.024-.22-.024-.326z" fill="#fff"/><path d="M50.225 21.979c.034.372.02.745-.01 1.116-.047.577-.33 1.026-.8 1.356-.203.142-.415.27-.623.404.072.113.173.088.258.1.2.024.4.038.596.091.383.105.538.277.581.671.022.2.038.402.04.602.007 1.41.012 2.82.011 4.23 0 .335-.016.668.243.923-.076.098-.17.1-.254.13-.748.265-1.499.524-2.244.799-.242.09-.481.128-.738.106-.34-.03-.683-.044-1.024-.069-.202-.015-.226-.038-.204-.242.043-.404.193-.767.512-1.027.216-.177.295-.38.292-.654-.013-1.148-.012-2.296-.016-3.444 0-.03.002-.06 0-.09-.01-.182-.048-.215-.222-.154-.303.107-.6.228-.902.34-.236.087-.474.167-.71.254-.253.092-.276.122-.276.396 0 .674.007 1.349.008 2.023 0 .222.001.444-.01.665a.559.559 0 00.2.478c.323.291.532.651.606 1.086.055.32.054.327-.263.32-1.227-.028-2.454-.09-3.683-.07-.302.004-.604.01-.906.008-.196 0-.211-.017-.194-.208.04-.427.204-.804.531-1.084.223-.19.29-.413.288-.692-.007-.835-.004-1.671-.002-2.507l.015-5.83c0-.09.012-.179.018-.269.136-.117.302-.096.462-.097.785-.002 1.57.001 2.355-.002.388 0 .408-.02.409-.41.002-2.085-.001-4.169.003-6.253 0-.172-.053-.368.125-.5.183.13.12.328.12.5.005 2.628.004 5.257.004 7.886 0 .312.002.624 0 .936 0 .228.097.308.32.258.317-.07.623-.163.915-.305.463-.227.687-.593.698-1.109.006-.287-.072-.585.077-.86a.284.284 0 01.198-.061c1.001.07 2.007.073 3.006.175a.328.328 0 01.19.084z" fill="#C6D0DA"/><path d="M50.225 21.979c-.617-.03-1.236-.042-1.851-.112a2.03 2.03 0 00-.27-.007 9.31 9.31 0 01-1.256-.063c-.137-.142-.098-.322-.098-.488a2604.01 2604.01 0 01-.001-5.59c0-.232-.022-.462-.05-.692-.033-.273-.187-.405-.443-.458-.39-.08-.784-.039-1.175-.048-.12-.003-.242.023-.357-.035-.108.098-.06.227-.06.341 0 2.165.004 4.33.006 6.496 0 .46.046.414-.426.414h-2.9c-.036-.118-.02-.24-.019-.36.001-2.596 0-5.192.01-7.789 0-.313-.074-.555-.326-.765-.324-.269-.453-.653-.507-1.064-.018-.136.025-.213.172-.213l.12-.003c2.073-.002 4.146-.004 6.218.061.553.018 1.103.068 1.64.219.86.24 1.34.8 1.468 1.68.052.349.081.7.084 1.05.018 2.436.024 4.87.033 7.306 0 .04-.008.08-.012.12zm-25.088-.74c.001-1.007.002-2.013.005-3.02.002-.674.01-1.349.006-2.023-.001-.307.05-.593.172-.879.387-.916.766-1.836 1.177-2.742.147-.324.343-.476.705-.488.764-.027 1.527-.092 2.29-.141.463-.03.925-.054 1.387-.086a6.199 6.199 0 011.593.086c.833.159 1.3.649 1.441 1.49.105.62.087 1.244.084 1.868-.005 1.137-.016 2.275-.024 3.412 0 .06-.006.12-.01.18-.054.48-.015.961-.022 1.442-.008.481-.01.963.002 1.445.004.196-.08.278-.26.284-.621.022-1.24.085-1.86.126-.18.011-.36.03-.54.044-.237.018-.48.067-.707-.058-.117-.16-.084-.347-.085-.525-.002-1.95-.001-3.901-.001-5.852v-.24c-.007-.5-.175-.657-.666-.596-.3.038-.601.046-.9.087-.214.03-.303.128-.294.334.001.04-.003.08-.003.12.015 2.132-.105 4.261-.062 6.392.003.169.026.344-.068.501-.336.207-.722.147-1.085.196-.628.084-1.258.154-1.888.222-.384.042-.41.021-.405-.375.005-.401-.025-.803.018-1.204z" fill="#fff"/><path d="M19.769 23.547c.766.588 1.562 1.133 2.349 1.692.819.581 1.247 1.401 1.396 2.379.092.608.109 1.224.1 1.837-.012.956.023 1.913-.038 2.869a5.31 5.31 0 01-.16 1.011 2.529 2.529 0 01-1.115 1.522 5.76 5.76 0 01-1.417.66c-2.025.635-4.01 1.38-5.982 2.162-.072.029-.141.08-.254.063-.05-.124-.029-.262-.005-.394.085-.491.245-.957.54-1.363.162-.224.224-.461.223-.733-.003-1.762 0-3.524.002-5.286 0-.109-.022-.22.02-.326.097-.028.152.043.214.087.889.626 1.773 1.258 2.667 1.877.223.154.325.335.303.607-.018.23-.008.463-.002.695.005.181.026.2.193.15.337-.1.673-.206 1.007-.315.333-.11.5-.331.517-.694.037-.826.03-1.65-.023-2.474-.05-.811-.414-1.454-1.09-1.924a62.888 62.888 0 01-2.532-1.857c-.49-.379-.852-.849-1.014-1.458.099-.1.232-.116.36-.142 1.123-.234 2.253-.433 3.381-.64a.968.968 0 01.36-.005zm10.819-1.387c.553.017 1.1-.075 1.65-.103.46-.023.919-.09 1.382-.082.284.005.288-.004.29-.283.002-.826 0-1.651.005-2.477 0-.107-.036-.223.049-.318.004.392.014.784.013 1.177-.005 1.188-.027 2.376-.017 3.564.008 1.013-.366 1.816-1.199 2.404-.346.244-.69.487-1.06.695-.962.546-1.921 1.098-2.891 1.63-.285.157-.394.358-.39.68.013.865.005 1.731-.01 2.597-.003.242.055.42.257.57.325.24.478.59.532.983.037.27.027.283-.24.337a90.57 90.57 0 00-3.363.716c-.44.105-.878.212-1.325.32-.061-.155-.036-.295-.003-.427.105-.423.244-.83.562-1.151.14-.142.2-.325.205-.522.006-.332.008-.665.01-.997.016-2.084.033-4.168.045-6.253.007-1.228.006-2.457.01-3.685 0-.1-.014-.203.037-.297.04.401.013.803.016 1.205.004.345-.001.333.33.284.395-.059.793-.097 1.19-.143.507-.058 1.013-.117 1.52-.173.089-.01.18-.008.27-.01.122.11.09.259.092.395.004.633-.002 1.266.003 1.899.003.313.047.343.334.236.486-.182.925-.437 1.283-.821a.95.95 0 00.268-.62c.02-.35.073-.699.06-1.052-.003-.098-.001-.203.085-.278zm8.274-7.07c.004.1.012.2.012.3-.001 2.043-.002 4.086-.006 6.13-.003 2.022-.009 4.044-.015 6.067-.004.966-.008 1.932-.02 2.898a.707.707 0 00.249.585c.29.255.443.593.507.97.052.308.035.324-.272.34-.572.032-1.145.07-1.717.098a56.33 56.33 0 00-2.497.193c-.08.008-.16.012-.24.017-.3.017-.321-.008-.266-.291.082-.426.258-.807.578-1.104.186-.174.248-.371.247-.618-.005-1.017 0-2.033.005-3.05.008-1.851.018-3.703.028-5.554 0-.07.012-.14.018-.209.387-.18.808-.122 1.213-.152.531-.038 1.065-.004 1.598-.062.419-.046.424-.027.424-.467.001-1.873-.003-3.747.005-5.62 0-.162-.081-.372.149-.471z" fill="#C6D0DA"/><path d="M55.916-.812c.189.06.314.213.455.336 2.484 2.161 4.113 4.834 4.798 8.066.01.05.02.098.06.133-.336.628-.677 1.254-1.008 1.885-.074.141-.178.178-.32.16l-1.134-.144c-.397-.05-.794-.104-1.192-.154-.616-.078-1.232-.157-1.849-.23-.428-.05-.857-.09-1.286-.138-.518-.057-1.035-.118-1.552-.18-.151-.018-.177-.06-.11-.2.24-.505.344-1.047.45-1.589a.817.817 0 00-.002-.359c-.035-.141.012-.225.151-.279.377-.146.651-.423.909-.724.648-.758 1.206-1.58 1.727-2.429.117-.189.153-.197.306-.013.49.586.972 1.179 1.364 1.837.449.754.84 1.533 1.028 2.4.008.037.034.07.058.117.097-.045.099-.122.1-.199.019-.844-.014-1.684-.157-2.52a14.228 14.228 0 00-.7-2.582c-.406-1.088-.99-2.062-1.823-2.88-.098-.097-.223-.174-.273-.314z" fill="#465461"/><path d="M51.745 22.098c-.008-.623-.018-1.246-.023-1.87-.016-2.142-.034-4.284-.038-6.427 0-.293-.074-.516-.297-.716-.319-.286-.465-.673-.534-1.089-.038-.226-.007-.262.233-.251.703.032 1.407.062 2.11.102.783.045 1.565.098 2.348.15.268.019.277.032.248.287-.045.401-.178.771-.483 1.044-.21.187-.271.398-.269.667.019 1.92.029 3.842.041 5.763 0 .11-.006.221-.009.332.043.721.006 1.444.02 2.167.005.215-.137.215-.284.203-.64-.053-1.28-.11-1.919-.176-.28-.029-.562-.013-.839-.074-.107-.024-.22-.027-.305-.112zM38.862 15.09c-.093.104-.05.23-.05.347-.005 1.95-.005 3.9-.006 5.85v.121c-.001.329-.003.308-.328.336-.662.058-1.325.024-1.985.068-.34.022-.68.035-1.02.05-.045-.27-.01-.542-.008-.812.005-2.496.009-4.992.02-7.487a.649.649 0 00-.246-.55 1.504 1.504 0 01-.544-1.041c-.029-.282-.023-.292.258-.302a155.9 155.9 0 012.05-.067c.765-.018 1.53-.03 2.294-.041.379-.006.379.003.319.363-.064.38-.22.71-.505.97-.177.163-.238.362-.238.596 0 .533-.007 1.065-.011 1.598z" fill="#fff"/><path d="M26.843 9.592c.052-.24.19-.44.302-.652a29.513 29.513 0 012.874-4.451 34.211 34.211 0 011.558-1.84c1.141-1.261 2.397-2.407 3.62-3.586.499-.481.976-.986 1.38-1.553.258-.362.463-.75.563-1.191.034-.15.026-.3.035-.449.45.868.798 1.776.996 2.735.08.392.14.788.154 1.192.014.392-.13.704-.402.97-.504.493-1.057.928-1.643 1.318-1.189.79-2.392 1.558-3.578 2.352-1.152.77-2.295 1.557-3.383 2.417-.792.627-1.459 1.379-2.06 2.19-.137.183-.237.396-.416.548z" fill="#465461"/><path d="M51.745 22.098c.407.036.816.059 1.223.108.257.03.518.047.776.066.38.029.757.064 1.133.115.15.02.176-.003.177-.19.002-.593-.001-1.186 0-1.778 0-.11-.015-.221.018-.33.056.094.036.197.036.296.009 2.275.014 4.55.025 6.825.004.936.021 1.872.03 2.808.002.285-.002.29-.263.341a40.16 40.16 0 00-2.9.707c-.057.016-.112.046-.178.015-.06-.086-.039-.189-.04-.287-.015-2.567-.03-5.134-.043-7.7-.002-.332-.026-.664.006-.996z" fill="#C6D0DA"/><path d="M66.71 8.962c.026-2.664.288-5.299.982-7.88.2-.739.454-1.459.783-2.151.022-.046.042-.092.068-.135.099-.162.128-.167.272-.038.41.368.616.844.686 1.375.18 1.36.22 2.723.078 4.092-.229 2.216-.919 4.277-2.014 6.21-.05.087-.103.172-.158.256-.066.102-.16.14-.283.13-.35-.025-.412-.086-.413-.44-.002-.473 0-.946 0-1.42z" fill="#76A708"/><path d="M61.595 18.474c.085.095.048.211.049.318.004 1.378.005 2.757.009 4.135 0 .367-.026.31.299.36.781.121 1.558.267 2.339.387.207.032.412.078.619.117.007.503.016 1.006.02 1.51.007.855.012 1.711.017 2.567l.016 2.326c0 .05.003.1 0 .15-.007.226-.035.25-.251.186a15.6 15.6 0 00-2.147-.482c-.198-.03-.397-.061-.597-.085-.315-.039-.318-.037-.32-.344l-.01-2.114c-.008-1.199-.003-2.397-.026-3.595-.035-1.742-.015-3.484-.031-5.226 0-.07.009-.14.014-.21z" fill="#C6D0DA"/><path d="M24.53 5.838c.38.26.454.23.5-.213.06-.58.116-1.16.331-1.712.485-1.244 1.29-2.241 2.333-3.059.014-.01.037-.011.056-.016.07.041.018.085-.003.12-1.274 2.037-2.125 4.262-2.898 6.52-.512 1.494-1.003 2.995-1.506 4.49-.102.306-.213.608-.328.909-.144.378-.421.572-.83.587-.28.01-.562.033-.843.054-.371.027-.563.181-.679.537-.09.275-.075.556-.053.838.005.07.02.14.024.21.012.206-.063.265-.247.178-.227-.107-.447-.23-.672-.343-.405-.203-.498-.148-.506.294-.002.11 0 .22 0 .364-.147-.147-.14-.313-.157-.464a4.066 4.066 0 01.241-1.9c.417-1.115 1.05-2.069 2.003-2.813 1.463-1.142 2.535-2.576 3.118-4.354.025-.076.042-.155.117-.227z" fill="#BDF935"/><path d="M19.769 23.547c-.246.12-.518.13-.779.173-.925.152-1.842.345-2.763.516-.186.035-.367.095-.559.098-.127-.312-.15-.644-.189-.973-.078-.671-.073-1.346-.072-2.02.002-1.622.004-3.243.008-4.864 0-.311-.003-.623.09-.977.043.216.068.387.112.553.11.402.302.766.54 1.107a9.41 9.41 0 002.153 2.226c.261.192.378.413.365.738a8.875 8.875 0 00.11 1.714c.1.646.387 1.178.88 1.601.038.033.07.072.104.108z" fill="#fff"/><path d="M67.823-9.28c.153.085.306.172.423.307.103.2.097.427.166.637.238.728.664 1.346 1.137 1.934a15.298 15.298 0 002.136 2.152c.132.11.237.243.352.369.255.603.403 1.237.532 1.874.195.955.307 1.92.278 2.898-.003.1.057.225-.078.293-.51-.373-.867-.89-1.263-1.367-1.137-1.37-2.193-2.8-3.082-4.347-.608-1.056-1.159-2.139-1.374-3.357-.07-.395-.07-.782.142-1.14.154-.262.321-.327.631-.254z" fill="#BDF935"/><path d="M9.431 16.774a8.282 8.282 0 011.109-1.102c1.736-1.477 3.615-2.75 5.583-3.896 1.418-.825 2.797-1.708 4.075-2.74.746-.603 1.424-1.272 1.983-2.057a5.07 5.07 0 00.735-1.445c.009-.028.022-.056.03-.085.103-.42.408-.662.936-.283-.105 1.186-.61 2.202-1.343 3.113-.986 1.225-2.249 2.122-3.557 2.962-1.736 1.115-3.563 2.082-5.27 3.243-.842.573-1.646 1.194-2.368 1.915-.307.306-.565.654-.837.991a1.904 1.904 0 01-.68.54c-.394.184-.656.006-.649-.426.004-.271.103-.51.253-.73zM67.823-9.28c-.475.04-.706.298-.732.817-.026.512.11.997.265 1.474.314.962.79 1.847 1.306 2.712.868 1.453 1.874 2.807 2.956 4.106.38.455.767.903 1.151 1.355-.129.015-.199-.088-.281-.153-2.121-1.672-4.01-3.566-5.524-5.814-.98-1.457-1.814-2.99-2.329-4.68a9.76 9.76 0 01-.281-1.14c-.044-.246 0-.29.245-.212.46.144.915.306 1.354.506.65.295 1.292.603 1.87 1.028z" fill="#76A708"/><path d="M53.614 3.916a3.71 3.71 0 01-1.628 1.147 1.35 1.35 0 01-1.03-.049c-.494-.22-1.012-.306-1.55-.325-.923-.034-1.846-.082-2.769-.128a2.588 2.588 0 01-.711-.113c-.185-.063-.209-.127-.087-.285.252-.325.498-.656.816-.923.93-.641 1.974-.97 3.082-1.107.941-.116 1.858.067 2.77.269.285.063.553.18.792.354.415.303.518.68.315 1.16zm-8.585-.793c-.434.453-.916.827-1.578.837a4.89 4.89 0 01-1.831-.3 3.392 3.392 0 01-.544-.258c-.382-.23-.565-.565-.51-1.01.062-.492.203-.96.483-1.378.4-.438.947-.512 1.485-.56a4.26 4.26 0 012.143.383c.979.441 1.164 1.293.484 2.128a1.807 1.807 0 00-.072.096c-.02.021-.038.043-.06.062zM9.432 16.774c-.045.256-.186.488-.184.758.003.37.182.5.52.347.268-.122.505-.297.68-.537.744-1.02 1.691-1.824 2.706-2.556 1.249-.902 2.583-1.668 3.905-2.455 1.209-.72 2.416-1.442 3.534-2.304.857-.661 1.648-1.387 2.254-2.29.458-.68.799-1.416.914-2.241.017-.117.024-.241.122-.33.165.102.173.237.125.416-.372 1.383-1.08 2.569-2.076 3.591-.764.785-1.643 1.42-2.557 2.013-1.124.728-2.302 1.364-3.454 2.044-1.215.717-2.4 1.475-3.465 2.408-2.034 1.782-3.27 4.002-3.67 6.678-.07.467-.098.94-.145 1.41-.083.104.067.276-.103.354-.227-1.223-.183-2.443.044-3.66.067-.358.209-.693.32-1.037.07-.22.16-.434.18-.668-.023-.044-.053-.017-.082-.008-.204.123-.34.31-.48.494-.679.888-1.153 1.884-1.56 2.917a28.96 28.96 0 00-.966 2.887c-.02.073-.03.151-.108.23-.047-.132-.027-.24-.026-.344.03-2.022.639-3.874 1.663-5.602a14.605 14.605 0 011.692-2.308c.067-.075.126-.157.217-.207z" fill="#BDF935"/><path d="M18.745 17.033c-.195.104-.413.01-.632.07.124.13.285.16.428.214.792.303 1.604.514 2.462.495 1.187-.027 2.109-.506 2.696-1.564.029-.052.052-.11.11-.14-.068.358-.233.681-.362 1.016-.286.74-.597 1.467-.99 2.16-.36.636-.756.629-1.322.557-.21-.026-.404-.117-.597-.2-1.301-.567-2.404-1.404-3.35-2.456-.046-.052-.097-.102-.099-.206.275-.053.54.075.814.055.28-.022.561-.002.842 0z" fill="#465461"/><path d="M47.783 8.211c-.16.1-.249.235-.358.346-.302.307-.61.281-.847-.075-.092-.14-.173-.289-.343-.441-.044.465-.084.88-.122 1.296-.006.06 0 .122-.01.181-.016.104-.077.158-.187.152-.161-.01-.322-.01-.483-.024-.2-.018-.222-.04-.213-.245.014-.302.039-.603.06-.904l.156-2.139c.02-.269.023-.263.277-.274.34-.014.581.137.736.43.164.312.354.608.548.901.028.041.048.09.133.12.283-.303.577-.615.868-.93.238-.256.514-.328.835-.211.12.043.177.126.151.256-.162.84-.227 1.695-.36 2.54-.03.199-.059.398-.085.598-.014.114-.077.156-.185.144-.15-.018-.3-.033-.45-.054-.22-.031-.241-.05-.222-.268.027-.3.071-.6.1-.9.016-.153.062-.31.002-.499z" fill="#fff"/><path d="M53.614 3.916c.003-.08-.003-.162.01-.24.06-.366-.07-.643-.37-.856-.319-.229-.686-.335-1.06-.411-.5-.102-1.009-.15-1.518-.203-1.11-.115-2.123.21-3.121.622-.305.126-.6.274-.9.412.502-.588 1.108-1.05 1.778-1.427.698-.391 1.436-.67 2.239-.767.6-.073 1.184.012 1.761.152a5.652 5.652 0 011.858.846c.31.212.342.31.187.656-.207.46-.464.89-.864 1.216z" fill="#76A708"/><path d="M40.076 5.992h.724c.15 0 .221.064.214.22a3.56 3.56 0 00.008.392c.01.158-.063.21-.214.212-.382.008-.764.026-1.145.044-.193.01-.209.033-.211.243-.003.222.036.29.207.29.351 0 .703-.018 1.054-.024.28-.004.291.008.299.28.003.11.002.221.008.332.007.154-.065.217-.217.217-.332 0-.664.005-.995.013-.264.007-.388.25-.25.476.054.087.137.07.216.068.341-.008.683-.02 1.025-.026.257-.004.257-.002.285.265.057.542.04.539-.495.561-.532.022-1.065.026-1.596.087-.282.032-.288.016-.31-.259l-.225-2.978c-.021-.27-.006-.294.264-.313.45-.033.901-.083 1.354-.1zm4.776 3.585c-.257.038-.517-.007-.776-.012-.111-.002-.17-.071-.206-.184-.102-.325-.183-.373-.521-.372-.201 0-.402-.01-.603-.014-.236-.005-.276.02-.365.232-.128.301-.128.3-.465.299h-.531c-.038-.138.038-.219.072-.309.38-.996.795-1.977 1.22-2.953.144-.329.4-.43.733-.297.137.055.179.185.227.304.285.709.57 1.418.85 2.129.116.3.22.604.328.907.03.084.076.166.037.27z" fill="#fff"/><path d="M45.088 3.061c.035-.172.169-.293.233-.451.103-.252.187-.502.145-.785-.044-.301-.203-.519-.436-.693-.405-.305-.885-.427-1.369-.524a3.961 3.961 0 00-1.79.038c-.297.076-.553.234-.822.368.296-.691.825-1.068 1.566-1.157.78-.094 1.56-.169 2.344-.058.32.045.637.104.928.248.47.232.635.574.532 1.086a1.225 1.225 0 01-.066.232 4.369 4.369 0 01-1.265 1.696z" fill="#76A708"/><path d="M19.241 11.939c0 .182-.067.295-.129.407a4.752 4.752 0 00-.535 1.59c-.107.69-.105 1.377.179 2.036.085.2.048.267-.168.322-.73.183-1.393.033-1.989-.42-.063-.049-.116-.112-.17-.172-.053-.06-.06-.134-.003-.191.33-.334.423-.765.498-1.202a.43.43 0 01.284-.358c.4-.157.656-.486.928-.795.214-.242.383-.512.526-.803.11-.223.345-.29.579-.414z" fill="#253039"/><path d="M37.465 6.184c.651-.068.531.032.583.553.016.156-.055.215-.205.22-.18.006-.36.023-.54.039-.225.019-.266.056-.245.28.041.46.096.919.144 1.378.031.3.066.599.09.9.018.203.005.215-.202.248-.129.02-.26.026-.39.042-.245.03-.268.017-.298-.237-.086-.717-.17-1.435-.254-2.152-.035-.294-.039-.3-.336-.275-.18.015-.36.037-.538.062-.154.02-.222-.042-.23-.197-.005-.12-.038-.238-.048-.357-.017-.178.013-.215.185-.238.378-.049.757-.092 1.136-.139.378-.047.755-.109 1.148-.127zm-5.4.345c.105.436.194.875.266 1.318.039.234-.052.456-.065.686-.004.082-.084.111-.148.134-.34.12-.679.252-1.04.294-.758.089-1.516.173-2.273.258-.05.005-.1 0-.148 0-.047-.09.024-.133.067-.18.31-.346.66-.647 1.036-.918.684-.494 1.37-.985 2.055-1.475.071-.051.136-.122.25-.117z" fill="#fff"/><path d="M40.923 4.09c.416.242.734.583.999.97-.046.086-.114.06-.167.06-1.077 0-2.151.073-3.226.128-.29.015-.582.04-.872.06-.125.019-.299.085-.356-.037-.057-.12.096-.23.193-.312.746-.636 1.573-1.082 2.589-1.073.297.003.58.054.84.204z" fill="#BDF935"/><path d="M63.87 10.295c.184-.401.393-.731.589-1.068a30.21 30.21 0 011.187-1.885l.104-.148c.03-.042.065-.084.12-.07.06.015.059.073.06.124.006.252-.01.509-.081.745-.225.745-.272 1.517-.392 2.278-.035.22-.063.255-.298.223-.417-.056-.831-.127-1.29-.199z" fill="#76A708"/><path d="M8.702 2.817c.034.019.134.023.063.081-.596.49-.912 1.161-1.209 1.844-.405.932-.688 1.904-.922 2.89-.088.369-.164.74-.247 1.117-.064-.085-.009-.18-.044-.26.067-.54.13-1.078.201-1.616.134-1.007.276-2.013.405-3.02.035-.276.147-.475.418-.569.445-.154.89-.311 1.335-.467z" fill="#C8D5DB"/><path d="M40.923 4.09c-.25-.016-.486-.111-.739-.122-.888-.036-1.646.294-2.341.81-.191.142-.375.29-.532.484.129.072.243.008.346.046-.171.067-.41.13-.504.006-.114-.15.106-.29.203-.421.21-.28.444-.545.64-.834.36-.535.856-.732 1.479-.636a2.81 2.81 0 011.448.666z" fill="#76A708"/><path d="M22.149 20.814c.735-.255 1.091-.85 1.465-1.438.082.866.08 1.723.025 2.583-.193-.06-1.102-.757-1.49-1.145z" fill="#FEFEFE"/><path d="M20.569 7.85c-.033-.187-.04-.4 0-.598.06-.305.048-.615.102-.92.115-.643.14-.635.663-.438.178.067.353.14.53.21.125.051.161.127.094.259-.087.17-.19.329-.304.481-.273.37-.56.73-.948.992-.032.022-.063.05-.137.014z" fill="#253039"/><path d="M35.926 4.283c-.142.158-.252.273-.355.395-.09.107-.2.21-.254.334-.206.472-.629.614-1.072.712-.419.093-.846.154-1.276.23.2-.394 2.262-1.57 2.957-1.671z" fill="#FDFEFE"/><path d="M5.385 7.172c-.169-.545-.337-1.09-.438-1.652-.07-.397.278-.806.682-.822.137-.006.098.098.092.17-.035.46-.064.92-.115 1.378-.035.308-.032.621-.104.925-.039.037-.078.037-.117 0z" fill="#A2B8C3"/><path d="M16.358 13.67c-.017.386-.025.709-.157 1.01-.043.098-.051.26-.215.24-.14-.018-.284-.253-.265-.396.004-.03.01-.06.024-.087.136-.281.307-.535.613-.766z" fill="#FAFBFB"/><path d="M49.855 5.673l-1.909-.221c-.145-.017-.291-.037-.45-.057.384-.178 1.43-.083 2.479.218.004.11-.064.073-.12.06z" fill="#6A9A09"/><path d="M8.538 24.08c.094-.1.017-.25.103-.353a.86.86 0 01-.023.408c-.008.024-.035.058-.065.025-.015-.017-.01-.053-.015-.08z" fill="#5A7726"/><path d="M49.855 5.673c.043-.014.093-.014.12-.06.06.001.102.034.174.088-.127.031-.214.038-.294-.028z" fill="#476C0E"/><path d="M5.385 7.172h.117c.01.055.026.143-.028.148-.08.007-.098-.074-.09-.148z" fill="#92A1AC"/><path d="M16.978 13.3c.013.018.032.033.03.043-.006.032-.03.054-.062.052-.024-.002-.073 0-.04-.048.015-.022.048-.032.072-.047z" fill="#91979A"/><path d="M26.779 9.71c-.005-.052.011-.094.063-.116.007.054-.013.093-.063.117z" fill="#465461"/><path d="M9 18.707c.013-.039.04-.058.08-.045.03.01.033.034.002.053A11.65 11.65 0 009 18.707z" fill="#5F6324"/><path d="M45.029 3.123c.004-.036.022-.058.06-.062-.002.038-.024.057-.06.062z" fill="#76A708"/><path d="M61.233 7.72c0-.037.027-.05.054-.065 0 .036-.016.06-.054.065z" fill="#465461"/><path d="M18.558 1.432c-.065-.08-.121-.158-.08-.273.024-.065.017-.141.04-.206.08-.21.082-.281-.19-.31a1.068 1.068 0 01-.527-.21.51.51 0 00-.063-.04c-.023-.089.006-.102.035-.107.489-.092.9-.338 1.277-.65.98-.808 1.9-1.679 2.734-2.637a1.9 1.9 0 011.156-.65c.495-.085.987-.188 1.477-.3.689-.157 1.27-.495 1.703-1.065l.038-.047c.19-.219.258-.205.387.08.106.395-.115.68-.339.95-.205.246-.448.461-.678.687a1.29 1.29 0 00-.362.617c-.087.352-.205.694-.318 1.038-.027.084-.096.184-.033.258.083.1.183-.004.275-.026a.341.341 0 01.118-.014c.207-.052.337-.21.47-.356.153-.17.29-.358.44-.531.163-.186.208-.184.415-.011.387.396.136 1.109-.3 1.497a2.46 2.46 0 01-.811.455c-.735.266-1.498.367-2.274.43-.796.063-1.61-.007-2.374.332a10.61 10.61 0 00-1.784 1.004c-.129.09-.257.216-.432.085z" fill="#011320"/><path d="M18.558 1.432c.128.017.226-.034.33-.11A8.435 8.435 0 0120.826.24c.501-.193 1.019-.268 1.558-.274.831-.01 1.66-.084 2.47-.289.33-.083.652-.196.956-.356.713-.376.952-.93.723-1.691.263.19.486.421.655.698.252.409.178.796-.206 1.09-.388.296-.837.479-1.295.632-1.086.363-2.177.714-3.265 1.073-.678.223-1.32.54-1.989.79-.424.158-.851.308-1.312.314-.09.002-.182.004-.271-.01-.253-.038-.364-.175-.363-.432 0-.122.017-.24.071-.352z" fill="#465461"/><path d="M16.931-.617c-.223.203-.385.461-.59.68-.067.07-.135.2-.239.131-.087-.057-.037-.188-.003-.281a5.09 5.09 0 01.371-.791 27.522 27.522 0 012.238-3.216c.313-.393.72-.67 1.177-.873a16.237 16.237 0 014.304-1.22c.488-.07.977-.133 1.471-.12.108.003.223-.02.315.072-.03.125-.138.136-.23.163-.123.036-.255.047-.365.125-.56.249-1.158.387-1.741.567-1.077.333-2.148.687-3.12 1.267-.684.41-1.255.963-1.792 1.554-.526.58-1.046 1.164-1.56 1.754a.918.918 0 01-.236.188zM10.954 7.18c-.055.097-.1.2-.165.287a.306.306 0 01-.375.113.302.302 0 01-.21-.33c.009-.098.04-.196.067-.292.105-.378.25-.743.334-1.127a1.79 1.79 0 00.003-.718c-.039-.21-.168-.308-.37-.336-.194-.027-.38.022-.566.062a2.482 2.482 0 01-.388.055c-.148.008-.249-.053-.3-.197-.052-.141-.017-.257.09-.354a.407.407 0 01.126-.08c.54-.206 1.094-.33 1.677-.312.33.011.58.143.73.445.12.137.102.304.069.456-.166.769-.298 1.548-.677 2.253l-.001.003c-.013.025-.036.044-.044.073z" fill="#011320"/><path d="M8.87 6.478c.002-.222-.002-.485.08-.738.107-.338.351-.433.655-.254.208.122.308.31.324.546.025.367-.036.723-.147 1.07-.067.21-.155.414-.241.617-.04.094-.107.175-.225.175-.13 0-.197-.088-.242-.195-.159-.378-.194-.778-.204-1.22z" fill="#011320"/><path d="M11 7.105c.091-.316.177-.635.277-.948.13-.411.204-.836.312-1.252.043-.168.014-.34.018-.51.417.1.528.273.449.685-.106.552-.394 1.022-.678 1.491-.112.187-.214.384-.379.534zm-.046.075c-.004-.035.01-.059.044-.072.005.036-.012.059-.044.073z" fill="#465461"/><path d="M44.724 14.486a.188.188 0 01.135-.059c.482.015.966-.022 1.447.049.352.051.467.172.493.529.012.17.019.341.02.512l.017 6.07c0 .07.008.14.012.21-.004.301-.013.602-.009.904.008.503-.212.864-.653 1.1-.404.217-.848.306-1.29.403-.104.022-.151-.03-.16-.125-.008-.08-.006-.16-.006-.241v-3.952l-.006-5.4zM30.588 22.16c-.031.451-.005.904-.054 1.356-.03.274-.122.5-.32.693-.456.449-1.009.723-1.612.909-.035.01-.077.001-.139.001V22.4l.024-2.444.038-4.68c.003-.295.006-.292.306-.316.321-.027.64-.063.962-.09.12-.01.242-.02.36-.007.295.03.432.174.44.474.01.392.005.785.003 1.177l-.018 5.496c0 .05.006.1.01.15z" fill="#011320"/><path d="M43.424 8.194c-.21.026-.43.094-.529-.014-.114-.127.055-.307.106-.463.028-.084.071-.163.117-.265.196.212.215.47.306.742z" fill="#091925"/></g><defs><filter id="filter0_f" x=".251" y="-35.58" width="78.125" height="93.033" filterUnits="userSpaceOnUse" color-interpolation-filters="sRGB"><feFlood flood-opacity="0" result="BackgroundImageFix"/><feBlend in="SourceGraphic" in2="BackgroundImageFix" result="shape"/><feGaussianBlur stdDeviation="2" result="effect1_foregroundBlur"/></filter></defs></svg>