<svg width="11" height="18" fill="none" xmlns="http://www.w3.org/2000/svg"><path d="M5.358 17.097l-4.752-.542-.123-3.273 1.114 1.707L.195 9.374l2.068 2.63-1.141-3.322.657.46.868-1.63 1.118.803.63-3.342h.963v12.124z" fill="#2B7BFB"/><path d="M5.358 17.097l4.753-.542.123-3.273-1.114 1.707 1.402-5.615-2.068 2.63 1.141-3.322-.657.46-.868-1.63-1.118.803-.63-3.342h-.964v12.124z" fill="#2B7BFB"/><path d="M5.486.184A2.468 2.468 0 003.021 2.65a2.468 2.468 0 002.465 2.465A2.468 2.468 0 007.951 2.65 2.468 2.468 0 005.486.184zm0 .669a1.797 1.797 0 110 3.593 1.797 1.797 0 010-3.593z" fill="#2B7BFB"/><path d="M5.486 1.766a.884.884 0 10.883.883.884.884 0 00-.883-.883zm0 .669a.215.215 0 110 .43.215.215 0 010-.43z" fill="#2B7BFB"/></svg>