<svg width="27" height="18" fill="none" xmlns="http://www.w3.org/2000/svg"><path d="M22.8 11.587c1.044-7.144-1.036-10.46-5.075-11.218 2.16 2.764 3.048 5.546 2.15 8.368-.567-2.53-1.87-4.01-3.68-4.77.933 1.832 1.444 3.496.846 4.715L14.833 5.89l-.395 2.993-.85 1.15-.849-1.15-.395-2.993-2.208 2.793c-.598-1.22-.087-2.883.845-4.714-1.81.758-3.112 2.24-3.679 4.769-.898-2.822-.01-5.604 2.15-8.368-4.04.758-6.12 4.074-5.075 11.218L.407 10.06l4.185 6.99 1.834-1.364 3.281 1.709h7.763l3.28-1.71 1.835 1.365 4.185-6.99-3.97 1.526z" fill="#2B7BFB"/></svg>