<svg width="30" height="18" fill="none" xmlns="http://www.w3.org/2000/svg"><path d="M28.811 13.508c-.922-1.164-2.159-.825-2.33-.9-.193-3.2-.057-6.14.447-8.788a32.818 32.818 0 01-2.518-.285c-.599 1.464-.856 3.518-.831 6.056l-2.087-.024-.196-9.182-1.874.114-1.598.07-.668 3.121h1.247l-.008 7.719-2.592-.008V5.524l-.937.263-.936-.263V11.4l-2.592.008-.008-7.719h1.247L11.908.57 10.311.5 8.436.385l-.195 9.182-2.087.024C6.178 7.053 5.922 5 5.323 3.535c-.786.124-1.631.216-2.519.285.505 2.648.64 5.589.449 8.789-.172.074-1.41-.265-2.331.899-.844 1.063-.579 4.056-.579 4.056H29.39s.265-2.993-.579-4.056z" fill="#fff"/></svg>