<svg width="10" height="17" fill="none" xmlns="http://www.w3.org/2000/svg"><path d="M4.704 16.633l1.714-.14 1.062-1.484 1.44.812.266-2.192-.674.583.63-3.731-1.087 1.563-2.543-3.118-.808-.187v7.894zm0-10.04L7.262 9.44l.492-1.75c-1.637-1.545-2.533-3.507-3.05-5.682v4.585z" fill="#fff"/><path d="M4.704 1.128c.301 1.283.726 2.482 1.323 3.566C7.815 3.733 7.623.25 4.704.107v1.02zm0 15.505l-1.713-.14-1.062-1.484-1.441.812-.266-2.192.675.583-.631-3.731 1.088 1.563 2.543-3.118.807-.187v7.894zm0-10.04L2.147 9.44l-.492-1.75c1.636-1.545 2.532-3.507 3.05-5.682v4.585z" fill="#fff"/><path d="M4.704 1.128c-.3 1.283-.726 2.482-1.322 3.566C1.594 3.733 1.785.25 4.704.107v1.02z" fill="#fff"/></svg>