<svg width="14" height="14" fill="none" xmlns="http://www.w3.org/2000/svg"><path d="M7.066 5.372a1.53 1.53 0 00-1.53 1.529 1.53 1.53 0 001.53 1.528A1.53 1.53 0 008.596 6.9a1.53 1.53 0 00-1.53-1.529z" fill="#173E7C"/><path d="M8.901 2.917h-3.67c-1.181 0-2.168.97-2.168 2.15v3.667c0 1.18.987 2.145 2.168 2.145H8.9c1.18 0 2.153-.965 2.153-2.145V5.066c0-1.18-.972-2.15-2.153-2.15zM7.066 9.346a2.446 2.446 0 11-.002-4.893 2.446 2.446 0 01.002 4.893zm2.63-4.748a.326.326 0 110-.653.326.326 0 010 .653z" fill="#173E7C"/><path d="M10.5 0h-7A3.5 3.5 0 000 3.5v7A3.5 3.5 0 003.5 14h7a3.5 3.5 0 003.5-3.5v-7A3.5 3.5 0 0010.5 0zm1.488 8.734c0 1.688-1.398 3.079-3.087 3.079h-3.67c-1.69 0-3.043-1.39-3.043-3.079V5.066A3.043 3.043 0 015.23 2.013H8.9c1.69 0 3.087 1.366 3.087 3.053v3.668z" fill="#173E7C"/></svg>