<svg width="23" height="14" fill="none" xmlns="http://www.w3.org/2000/svg"><path d="M21.97 12.487c-.06-.11-.429-.997-2.203-2.819-1.856-1.908-1.607-1.598.63-4.897 1.362-2.009 1.906-3.236 1.736-3.76-.162-.5-1.164-.368-1.164-.368l-3.331.021s-.247-.037-.43.085c-.18.12-.295.395-.295.395s-.527 1.555-1.231 2.877c-1.484 2.79-2.079 2.937-2.321 2.764-.564-.403-.423-1.623-.423-2.488 0-2.703.37-3.83-.722-4.122-.363-.097-.629-.161-1.555-.172C9.47-.01 8.463.008 7.895.316c-.38.206-.672.664-.493.69.22.032.719.149.983.548.343.513.33 1.67.33 1.67s.197 3.182-.458 3.578c-.45.271-1.067-.282-2.39-2.814-.678-1.296-1.19-2.73-1.19-2.73s-.1-.268-.276-.41C4.19.675 3.89.62 3.89.62L.722.64S.247.657.072.885c-.155.204-.012.624-.012.624s2.48 6.422 5.287 9.66c2.576 2.967 5.5 2.772 5.5 2.772h1.324s.4-.05.604-.293c.188-.224.181-.644.181-.644s-.026-1.968.8-2.258c.813-.285 1.858 1.902 2.965 2.744.837.637 1.473.497 1.473.497l2.96-.046s1.55-.106.815-1.454z" fill="#112648"/></svg>