<svg width="25" height="16" fill="none" xmlns="http://www.w3.org/2000/svg"><path d="M24.777 13.329c-.067-.113-.483-1.016-2.483-2.872-2.094-1.944-1.813-1.629.71-4.99 1.536-2.047 2.15-3.297 1.957-3.831-.182-.51-1.312-.375-1.312-.375l-3.757.022s-.278-.038-.486.086c-.201.121-.33.403-.33.403s-.596 1.584-1.39 2.931c-1.674 2.843-2.344 2.993-2.617 2.816-.636-.411-.477-1.653-.477-2.535 0-2.754.417-3.903-.814-4.2-.41-.098-.71-.164-1.755-.175-1.34-.014-2.477.005-3.119.319-.428.21-.758.676-.556.703.248.033.81.152 1.11.558.385.523.371 1.702.371 1.702s.222 3.242-.517 3.645c-.508.277-1.203-.287-2.696-2.867a24.05 24.05 0 01-1.342-2.782s-.11-.272-.31-.417a1.558 1.558 0 00-.577-.233L.814 1.26s-.536.016-.732.249c-.175.207-.014.636-.014.636s2.797 6.542 5.962 9.84c2.905 3.025 6.202 2.826 6.202 2.826h1.494s.452-.05.682-.298c.212-.229.204-.657.204-.657s-.03-2.005.902-2.3c.917-.29 2.095 1.938 3.344 2.796.944.648 1.661.506 1.661.506l3.34-.047s1.746-.108.918-1.481z" fill="#1E4179"/></svg>