<svg width="25" height="18" fill="none" xmlns="http://www.w3.org/2000/svg"><g clip-path="url(#clip0)"><path d="M24.461 2.729A3.119 3.119 0 0022.263.538C20.312.005 12.506.005 12.506.005s-7.805 0-9.756.512A3.182 3.182 0 00.552 2.73C.038 4.673.038 8.707.038 8.707s0 4.053.514 5.978a3.12 3.12 0 002.198 2.19c1.971.533 9.757.533 9.757.533s7.805 0 9.756-.512a3.12 3.12 0 002.198-2.19c.514-1.945.514-5.979.514-5.979s.02-4.054-.514-5.998zm-14.44 9.704V4.981l6.49 3.726-6.49 3.726z" fill="#1E4179"/></g><defs><clipPath id="clip0"><path fill="#fff" d="M0 0h25v17.416H0z"/></clipPath></defs></svg>