<svg width="191" height="160" viewBox="0 0 191 160" fill="none" xmlns="http://www.w3.org/2000/svg">
<path d="M156.82 176.422C157.222 175.493 161.563 168.675 160.191 148.718C158.758 127.824 158.463 130.912 211.176 126.644C243.28 124.045 259.975 120.778 263.026 117.023C265.938 113.445 254.586 108.278 254.586 108.278L220.639 88.9066C220.639 88.9066 218.475 87.2703 215.504 86.8295C212.603 86.4131 208.923 87.1922 208.923 87.1922C208.923 87.1922 189.406 92.2828 170.231 95.1181C129.78 101.109 122.416 98.4063 121.537 96.0765C119.498 90.6564 132.037 85.0708 139.917 80.5217C164.549 66.3018 178.567 62.5375 170.158 54.6181C167.36 51.9864 165.251 50.0915 155.956 44.6127C144.036 37.5859 133.661 31.7902 125.082 30.0802C119.363 28.9402 112.224 29.6417 113.797 30.8244C115.736 32.2825 119.729 35.8133 118.778 39.4585C117.565 44.1625 106.904 50.1712 106.904 50.1712C106.904 50.1712 79.9066 68.0586 69.6612 66.3058C62.6253 65.0993 61.4213 58.5807 71.0804 37.5237C76.0209 26.7447 83.8896 16.2043 83.8896 16.2043C83.8896 16.2043 85.3238 14.2254 84.8401 12.4459C84.2568 10.2863 81.7272 8.24522 81.7272 8.24522L49.4366 -10.1703C49.4366 -10.1703 44.4813 -12.8697 40.6305 -12.6891C37.1998 -12.5241 34.8177 -9.47929 34.8177 -9.47929C34.8177 -9.47929 1.45003 38.8003 0.400656 72.2483C-0.534376 102.923 30.8639 119.001 30.8639 119.001L44.2859 126.749C44.2859 126.749 48.7905 128.833 53.0758 128.742C57.0251 128.667 60.7831 126.417 60.7831 126.417C60.7831 126.417 78.4418 115.914 89.4502 119.22C100.29 122.478 90.9528 140.091 94.5002 150.995C97.182 159.238 104.898 162.224 104.898 162.224L135.32 179.303C135.32 179.303 151.98 187.808 156.82 176.422Z" fill="url(#paint0_linear)"/>
<defs>
<linearGradient id="paint0_linear" x1="160.27" y1="47.0695" x2="96.5084" y2="157.517" gradientUnits="userSpaceOnUse">
<stop stop-color="#448CFF"/>
<stop offset="1" stop-color="#44BCFF"/>
</linearGradient>
</defs>
</svg>
