<svg width="55" height="50" fill="none" xmlns="http://www.w3.org/2000/svg"><path d="M21.091 49.918h-.276a95.588 95.588 0 000-3.558l.089-.011c.529-.067 1.08-.133 1.61-.278l.407-.111h-.419c-6.427.067-12.061.322-17.243.812-.265-.112-.518-.223-.783-.334a49.065 49.065 0 01-1.94-.856A99.324 99.324 0 01.772 43.58l-.695-.8c.496-1.846.981-3.736 1.444-5.56l.408-1.6c.364-.323.74-.645 1.092-.968.496-.444 1.014-.911 1.532-1.345.133-.022.265-.044.408-.066.22-.045.452-.078.684-.1l.088-.012-.055-.078c-1.169-1.723-.617-3.957-.154-5.191.463.533.98 1.067 1.631 1.323l.166.066-.1-.144a1.611 1.611 0 00-.385-.39c-.1-.088-.21-.177-.298-.277-.96-1-1.488-2.502-1.455-4.092.022-1.178.253-2.379.683-3.468.033.078.055.155.088.233.166.456.331.934.728 1.268l.21.178-.133-.245a6.358 6.358 0 01-.606-3.858c.143-1.112.562-2.234 1.224-3.368l.21.433.12.256-.022-.29c-.088-1.389.1-2.579.54-3.535.31-.644.783-1.145 1.357-1.412.187.79.44 1.39.793 1.89l.133.178-.033-.222c-.155-1.167-.265-2.68.297-4.036a4.328 4.328 0 012.988-2.601 1.66 1.66 0 00-.022.233c-.055.423-.11.856.088 1.245l.077.145.034-.167c.231-1.378 1.025-2.646 2.116-3.402.155-.022.243-.122.342-.222.066-.067.121-.134.199-.167a6.49 6.49 0 011.61-.678c-.364 1.2-.354 2.468.01 3.58l.033.1.067-.09c.937-1.244 2.348-2.078 3.847-2.29h.022l.011-.022c.629-1.078 1.246-2.167 1.853-3.224l.408-.722h5.457c.54.922 1.07 1.856 1.588 2.768.22.39.44.778.672 1.167l.011.023h.022c1.489.21 2.889 1.045 3.859 2.29l.066.078.033-.1c.364-1.123.364-2.38.011-3.558 1.71.445 3.131 1.59 3.826 3.08.121.2.187.422.254.644.066.234.143.478.275.69l.077.122.022-.145a3.85 3.85 0 00-.022-1.39c1.257.312 2.36 1.212 2.889 2.38.54 1.167.661 2.635.364 4.258l-.033.2.132-.145c.463-.522.65-1.211.827-1.89 1.19.5 1.753 1.813 1.885 2.88.088.389.077.79.066 1.167 0 .278-.01.556.022.834l.023.233.088-.222c.033-.078.055-.144.077-.222.01-.045.033-.078.044-.123 1.466 2.224 1.72 5.037.64 7.182l-.144.278.232-.21c.386-.368.573-.868.727-1.346a.293.293 0 01.077-.167c.695 2.035.85 3.758.464 5.27a5.27 5.27 0 01-1.93 2.935l-.143.111.176-.011a.763.763 0 00.397-.122c.496-.312.926-.756 1.279-1.157.452 1.223.992 3.436-.143 5.215l-.055.077.099.012c.76.044 1.532.122 2.27.189.52.044 1.048.1 1.578.144.341 1.256.672 2.524.98 3.769.254 1 .53 2.045.795 3.068-.155.1-.31.19-.464.29-.341.21-.683.422-1.025.644l-.033.022.011.045c.177.656.33 1.334.485 1.99.166.723.342 1.468.54 2.19a82.86 82.86 0 01-3.12.69c-.683.144-1.378.288-2.072.444a1.728 1.728 0 01-.497.067c-.187 0-.374-.022-.562-.045l-.375-.033c-4.377-.278-7.74-.434-10.914-.523-.783-.044-1.588-.055-2.37-.066-.817-.011-1.655-.022-2.482-.078l-.507-.033.485.144c.42.122.871.211 1.456.311a89.007 89.007 0 000 3.436c-1.797-.045-3.65-.423-5.502-1.123a.494.494 0 00-.176-.034.498.498 0 00-.22.056c-2.195.812-4.014 1.2-5.756 1.2z" fill="#080B0B"/><path d="M26.163.145h3.616c.53.911 1.058 1.845 1.576 2.746l.662 1.167.022.044.055.011c1.466.212 2.867 1.046 3.826 2.268l.132.167.066-.2a6.01 6.01 0 00.033-3.502c1.654.456 3.021 1.579 3.694 3.024.11.19.176.4.242.623.067.244.144.489.276.7l.154.245.044-.29a4.43 4.43 0 000-1.322c1.202.322 2.26 1.2 2.768 2.323.529 1.156.661 2.613.364 4.225l-.078.389.265-.3c.452-.512.662-1.212.827-1.846 1.124.512 1.665 1.78 1.786 2.802.077.378.077.767.066 1.156 0 .278-.01.556.022.845l.044.478.166-.445c.033-.077.055-.155.077-.222v-.011c1.4 2.201 1.632 4.936.584 7.037l-.286.556.452-.433c.396-.367.584-.879.75-1.368v-.022c0-.011 0-.022.01-.033.662 1.979.794 3.646.42 5.125a5.21 5.21 0 01-1.908 2.901l-.287.212.353-.011a.815.815 0 00.419-.134c.474-.3.882-.711 1.224-1.1.44 1.222.926 3.357-.177 5.08l-.099.156.188.011c.76.044 1.532.122 2.27.189.508.044 1.026.1 1.533.133.331 1.234.662 2.502.97 3.725.254.99.519 2.023.783 3.024l-.43.267c-.342.21-.683.422-1.025.644l-.066.045.022.078c.176.656.33 1.334.485 1.99.165.7.342 1.423.53 2.134-1.015.245-2.063.467-3.066.678-.683.145-1.378.29-2.073.445a1.621 1.621 0 01-.485.056c-.187 0-.375-.022-.562-.045l-.375-.033c-4.377-.278-7.74-.434-10.915-.523-.794-.044-1.598-.055-2.37-.066a47.007 47.007 0 01-2.48-.078l-1.015-.067.97.278c.408.122.85.211 1.411.3a83.9 83.9 0 000 3.336c-1.775-.056-3.605-.423-5.424-1.112a.62.62 0 00-.198-.034.642.642 0 00-.243.056c-2.183.834-4.002 1.212-5.733 1.212h-.22c.01-1.045.01-2.146 0-3.458h.032c.53-.066 1.081-.133 1.621-.278l.816-.222-.783.033c-6.416.067-12.061.323-17.232.812-.254-.111-.518-.222-.772-.334-.64-.266-1.29-.544-1.918-.856-.595-.656-1.19-1.334-1.764-1.99-.232-.255-.452-.511-.684-.778.485-1.845.97-3.713 1.434-5.525.132-.523.275-1.056.407-1.579.364-.311.728-.645 1.08-.956.497-.445 1.004-.9 1.522-1.334.133-.022.265-.045.386-.067a6.99 6.99 0 01.673-.1l.187-.022-.099-.156c-1.125-1.667-.628-3.813-.176-5.058.452.522.959 1.022 1.598 1.267l.32.122-.187-.289a1.702 1.702 0 00-.397-.4 3.386 3.386 0 01-.287-.267c-.948-.99-1.477-2.468-1.444-4.058.022-1.123.231-2.257.628-3.313l.033.1c.166.467.342.945.739 1.29l.43.356-.254-.5c-.595-1.146-.805-2.49-.595-3.803.143-1.067.53-2.168 1.169-3.257.01.022.022.055.033.078.044.1.099.2.121.266l.243.512-.034-.567c-.088-1.379.089-2.557.54-3.502.287-.612.728-1.09 1.269-1.357.187.768.44 1.357.782 1.835l.254.356-.055-.445c-.155-1.156-.265-2.668.297-4.013a4.252 4.252 0 012.878-2.546c-.011.055-.011.1-.022.155-.055.434-.11.867.1 1.279l.154.3.055-.334c.231-1.356 1.003-2.612 2.083-3.357.166-.033.265-.145.353-.234a.61.61 0 01.188-.155 6.351 6.351 0 011.5-.645c-.332 1.178-.32 2.424.032 3.513l.066.2.122-.167c.937-1.234 2.326-2.056 3.814-2.268l.055-.01.023-.045C22.756 2.99 23.384 1.89 23.99.834l.397-.7c.595.01 1.18.01 1.775.01zm0-.112h-1.841c-.761 1.323-1.511 2.657-2.283 3.98-1.532.212-2.955 1.079-3.88 2.313-.386-1.167-.353-2.468.021-3.636-.606.145-1.18.4-1.72.712-.209.1-.286.356-.54.39-1.135.777-1.918 2.078-2.15 3.446-.231-.467-.088-1.023-.044-1.524-1.389.3-2.58 1.323-3.109 2.646-.54 1.279-.485 2.713-.309 4.07-.407-.568-.639-1.246-.804-1.935-.65.278-1.147.823-1.445 1.456-.518 1.101-.617 2.357-.55 3.558-.067-.133-.188-.39-.254-.523-.64 1.057-1.125 2.235-1.29 3.47-.21 1.311 0 2.69.606 3.868-.474-.4-.617-1.045-.838-1.6a9.892 9.892 0 00-.75 3.612c-.033 1.49.43 3.047 1.478 4.136.198.245.496.4.672.667-.683-.267-1.201-.834-1.676-1.378-.65 1.678-.937 3.757.122 5.325-.375.033-.739.122-1.103.178-.893.756-1.753 1.567-2.646 2.334-.573 2.39-1.19 4.803-1.83 7.193.827.945 1.654 1.89 2.492 2.824.893.434 1.83.812 2.745 1.212 5.733-.533 11.5-.756 17.254-.811-.573.155-1.157.222-1.742.3.011 1.223.022 2.446 0 3.657h.331c1.985 0 3.925-.522 5.777-1.223a.447.447 0 01.199-.055c.055 0 .099.011.154.033 1.786.678 3.671 1.09 5.579 1.123a94.862 94.862 0 010-3.546 13.086 13.086 0 01-1.489-.312c1.61.1 3.23.056 4.851.145 3.639.1 7.277.289 10.915.522.309.023.629.078.938.078.176 0 .341-.011.507-.066 1.742-.39 3.506-.734 5.248-1.157-.386-1.4-.673-2.824-1.048-4.236.507-.322 1.014-.633 1.522-.956-.618-2.301-1.18-4.613-1.808-6.904-1.301-.1-2.591-.255-3.892-.333 1.025-1.601.771-3.658.12-5.348-.396.456-.815.9-1.322 1.223a.635.635 0 01-.364.111 5.293 5.293 0 001.952-2.968c.452-1.79.11-3.658-.486-5.37a.311.311 0 00-.154.245c-.154.478-.342.967-.717 1.323 1.17-2.335.728-5.225-.705-7.338-.055.145-.1.3-.154.445-.067-.667.055-1.345-.089-2.001-.143-1.212-.793-2.48-1.973-2.946-.177.667-.364 1.4-.838 1.923.265-1.423.242-2.957-.375-4.291a4.404 4.404 0 00-3.01-2.424c.11.478.11.978.044 1.456-.253-.4-.275-.911-.518-1.334-.739-1.59-2.282-2.724-3.958-3.135.375 1.167.397 2.457.022 3.624-.96-1.223-2.36-2.09-3.903-2.312-.76-1.323-1.51-2.657-2.271-3.969-1.224.033-2.448.033-3.671.033z" fill="#fff"/><path d="M24.322.034h5.512c.772 1.312 1.521 2.646 2.271 3.969 1.533.222 2.944 1.09 3.903 2.312.375-1.167.353-2.457-.022-3.624 1.676.411 3.22 1.545 3.958 3.135.243.411.265.923.518 1.323.066-.49.077-.978-.044-1.456a4.402 4.402 0 013.01 2.423c.617 1.334.629 2.869.375 4.292.463-.534.661-1.257.838-1.924 1.18.467 1.83 1.735 1.973 2.946.144.668.022 1.346.089 2.002.055-.145.11-.3.165-.445 1.433 2.112 1.874 5.003.706 7.338.374-.356.562-.845.716-1.323a.365.365 0 01.154-.245c.596 1.712.949 3.58.486 5.37a5.37 5.37 0 01-1.952 2.968.821.821 0 00.364-.111c.507-.323.926-.767 1.334-1.223.65 1.69.904 3.747-.121 5.348 1.3.077 2.59.233 3.892.333.617 2.301 1.19 4.614 1.808 6.904-.507.322-1.026.634-1.522.956.375 1.4.662 2.835 1.048 4.236-1.742.422-3.506.756-5.248 1.156-.474.133-.97.022-1.456-.011a298.508 298.508 0 00-10.914-.523c-1.61-.088-3.242-.044-4.852-.144.486.145.993.233 1.489.311a94.862 94.862 0 000 3.547c-1.908-.045-3.793-.456-5.579-1.123a.433.433 0 00-.353.022c-1.94.745-4.013 1.279-6.108 1.223.022-1.223.011-2.446 0-3.669.585-.066 1.169-.133 1.742-.289-5.755.056-11.521.278-17.254.812-.915-.4-1.841-.767-2.745-1.212-.85-.956-1.665-1.901-2.503-2.846.64-2.39 1.246-4.803 1.863-7.204.893-.779 1.753-1.579 2.646-2.335.364-.056.728-.145 1.103-.178-1.059-1.567-.772-3.646-.121-5.325.474.545.992 1.112 1.675 1.378-.176-.266-.463-.422-.672-.667-1.048-1.09-1.5-2.646-1.478-4.135a9.94 9.94 0 01.75-3.614c.22.556.364 1.201.838 1.601-.617-1.178-.816-2.557-.606-3.868.165-1.235.64-2.413 1.29-3.47.066.134.187.401.253.523-.077-1.2.033-2.457.551-3.557.298-.634.794-1.19 1.445-1.457.154.678.397 1.357.805 1.935-.177-1.346-.232-2.78.308-4.058.518-1.334 1.72-2.346 3.11-2.657-.045.5-.188 1.056.043 1.523.232-1.368 1.004-2.668 2.15-3.447.243-.033.331-.289.54-.389a6.47 6.47 0 011.72-.711c-.374 1.167-.407 2.468-.021 3.635.937-1.234 2.359-2.101 3.88-2.312.739-1.312 1.5-2.646 2.25-3.97zm-1.985 4.514c-1.863.2-3.506 1.445-4.355 3.112-.088.156-.143.356-.298.478.144-1.534-.573-3.023-.253-4.547-1.434.623-2.668 1.868-3.032 3.425-.298 1.223.121 2.49.783 3.513-.254.289-.43.633-.673.922-.342-1.723-1.566-3.268-1.334-5.091-.43.155-.783.467-1.091.8-1.08 1.234-1.665 2.969-1.312 4.592.231 1.223.926 2.29 1.753 3.19-.133.267-.243.545-.386.812-.254-.867-.982-1.445-1.566-2.09-.65-.678-1.158-1.512-1.378-2.435-.419.3-.673.79-.816 1.268-.408.989-.485 2.1-.342 3.157.254 1.745 1.456 3.224 2.922 4.113-.066.256-.11.512-.143.779-.375-.412-.816-.745-1.246-1.101-.97-.8-1.996-1.69-2.404-2.935-.165.178-.22.422-.308.645-.596 1.667-.496 3.613.374 5.17.684 1.245 1.908 2.112 3.264 2.479.022.2.033.411-.121.567-.585-.4-1.29-.578-1.919-.89-1.07-.467-2.05-1.19-2.635-2.234-.066.355-.198.711-.21 1.078-.154.956-.076 1.968.254 2.868.342 1.201 1.147 2.257 2.161 2.98.254.189.353.511.518.756-.22-.022-.44-.078-.661-.056a.451.451 0 00-.441-.066l.011-.056c-.662-.145-1.301-.456-1.786-.945-.54 1.634-.1 3.502 1.003 4.792l-1.94.166c-.728.645-1.445 1.29-2.172 1.935-.11.1-.232.211-.243.367-.562 2.179-1.124 4.358-1.698 6.548.717.778 1.39 1.612 2.117 2.368.904.4 1.808.79 2.734 1.134 2.591-.222 5.182-.322 7.773-.5l-.066-.034c.76.045 1.544 0 2.304-.066.078.01.22.022.298.033l-.055-.044c1.014-.034 2.04-.023 3.065-.09 1.224-.01 2.436-.055 3.66-.055.441.367.926.69 1.4 1.012-.077.01-.22.055-.297.066l.01.023c-.727.11-1.466.233-2.193.333-.033.79.022 1.579-.022 2.357a8.12 8.12 0 001.709-.222c1.268-.19 2.491-.612 3.682-1.079 1.709.7 3.517 1.19 5.37 1.301-.012-.8.01-1.6-.012-2.401a23.466 23.466 0 01-2.48-.39c.463-.344.959-.655 1.41-1.022 1.224.01 2.46.044 3.683.055 1.014.078 2.04.045 3.054.112h.254c.75.066 1.51.077 2.26.088.849.123 1.709.067 2.558.156 1.665.09 3.318.19 4.983.322.276.056.54-.044.816-.1 1.455-.322 2.922-.622 4.377-.944a548.86 548.86 0 00-.981-4.08c.507-.312 1.003-.634 1.51-.946-.54-2.034-1.036-4.069-1.599-6.092-1.488-.133-2.987-.278-4.476-.378 1.08-1.279 1.5-3.124.97-4.736-.771.79-1.896 1.034-2.954 1.112.187-.278.308-.645.617-.823 1.07-.7 1.841-1.823 2.216-3.035.397-1.256.33-2.613-.033-3.87-.408.813-1.114 1.435-1.896 1.88-.882.534-1.886.778-2.768 1.312a5.619 5.619 0 010-.612c1.61-.422 3.01-1.612 3.595-3.19.617-1.635.562-3.558-.254-5.115-.254.823-.816 1.501-1.411 2.09-.706.7-1.555 1.246-2.25 1.957-.032-.256-.065-.522-.132-.767.982-.623 1.864-1.445 2.393-2.501.695-1.335.76-2.947.342-4.38-.199-.612-.452-1.257-.97-1.668-.221.934-.728 1.767-1.39 2.457-.573.645-1.312 1.223-1.554 2.09-.155-.267-.243-.567-.375-.834.827-.878 1.51-1.946 1.742-3.146.32-1.49-.133-3.08-1.036-4.28-.364-.479-.794-.934-1.368-1.157.11.712-.066 1.423-.264 2.101-.254.69-.54 1.368-.805 2.057-.121.311-.199.623-.287.934-.21-.311-.419-.634-.65-.934.683-1.056 1.091-2.379.75-3.624-.408-1.501-1.61-2.69-3-3.313.243 1.223-.176 2.446-.23 3.658-.1.21-.1.51 0 .722 0 .067.01.2.01.267-.297-.411-.463-.89-.783-1.29-.904-1.323-2.381-2.245-3.98-2.39-.76-1.3-1.51-2.601-2.238-3.913-1.643-.023-3.296.01-4.94 0a113.526 113.526 0 01-2.193 3.958z" fill="#fff"/><path d="M17.144 12.34c.166-.222.33-.433.496-.655.155.1.309.2.452.3l-.32.489a3.698 3.698 0 00-.628-.133zm18.876-.333c.164-.1.33-.211.495-.322.166.222.342.433.507.655a8.39 8.39 0 00-.727.145c-.088-.167-.188-.322-.276-.478zm-20.772 3.502c.242.078.474.156.705.233a6.843 6.843 0 01-.242.356c-.243 0-.496.011-.739.011.1-.2.188-.4.276-.6zm22.899.256c.265-.078.518-.167.772-.256.099.211.187.411.286.623a10.25 10.25 0 00-.826-.034l-.232-.333zM22.7 20.434c.85-1 1.952-1.834 3.242-2.112.033.033.1.1.132.144.044.045.133.145.177.19.628-.056 1.257-.1 1.896-.045l.1.044c.385.056.771-.01 1.157-.033.121.011.232.044.342.078h-.133c-1.102.044-2.215-.045-3.307.178-.904.155-1.786.433-2.58.878-.386.189-.683.467-1.025.678zm6.539-.234c.397.156.782.345 1.135.59-.43 1.223-1.61 2.012-2.8 2.346-1.533.289-3.175.01-4.498-.823-.133-.1-.287-.222-.353-.378.783-.8 1.786-1.423 2.888-1.668.066.423-.12.812-.22 1.223-.199.034-.33.19-.485.3.397.445.937.768 1.532.834.982.156 2.007-.389 2.48-1.267.2-.345.265-.756.32-1.156zm-5.535 3.447c.739 0 1.532-.033 2.194.334-.75.11-1.521.01-2.194-.334zm6.384 10.551c1.786.044 3.583.077 5.369.122.21.011.419.022.628.044.022.323.055.645.1.956.022.212.033.423.055.634.044.49.099.99.143 1.479h-.386c-.53-.011-1.058-.034-1.587-.034h-.1c-.044-.344-.055-.7-.066-1.056-.463-.033-.937-.022-1.4-.044.055.467.077.934.1 1.39.473.01.936.01 1.41.033.022.456.044.9.1 1.345-.474-.011-.949-.011-1.434-.033.033.467.044.922.077 1.39.486.033.97.022 1.456.044-.044-.345-.066-.7-.088-1.045.264.022.529.033.782.033.441 0 .882.033 1.334.022.022.123.055.256.067.378.01.212.022.423.044.634.066.7.121 1.4.21 2.09-2.206-.078-4.422-.111-6.627-.155 0-.679-.011-1.368-.055-2.046.242 0 .485 0 .739.011-.044-1.379-.122-2.746-.144-4.125-.242 0-.474 0-.716-.022 0-.69-.022-1.378-.044-2.068l.033.023zm1.069 4.213c-.011.767.033 1.523.066 2.29-.231 0-.463-.01-.705-.01-.011.488 0 .989.01 1.478 2.007.055 4.025.111 6.042.144-.022-.833-.154-1.667-.22-2.501-.518-.089-1.037-.056-1.555-.067 0 .345.011.678.022 1.023-.65-.022-1.312-.067-1.973-.022-.066-.645-.077-1.3-.11-1.946.474 0 .948.067 1.422 0-.022-.11-.055-.222-.077-.344-.97-.067-1.952-.034-2.922-.045zm-7.365-2.746c.43-.511.926-1 1.444-1.445 1.379-.033 2.757-.011 4.135-.011.022.911.011 1.823.055 2.746-.694.01-1.39.01-2.084 0 .011-.234.011-.467.011-.69-.507.012-1.025.012-1.532.012 0 .255-.011.511-.022.767 1.213.367 2.414.745 3.627 1.1.011.067.022.2.022.267.033.89.022 1.79.055 2.69-.176.167-.341.323-.507.49-.32.289-.628.578-.937.878-1.521 0-3.032.011-4.553.033l.099-2.735a68.788 68.788 0 012.15-.01 348.1 348.1 0 00-.033.678c.54-.012 1.07-.012 1.61-.012v-.745a140.028 140.028 0 00-3.683-1.078c.055-1 .11-1.968.143-2.935zm.42 2.713c.087.055.176.111.275.155a52.14 52.14 0 013.109.912c.1.39.022.8.033 1.2-.717.045-1.422.023-2.139.045 0-.233 0-.456-.01-.69-.53 0-1.048-.021-1.578 0-.033.724-.055 1.457-.099 2.18 1.4-.011 2.8.044 4.2-.033.354-.267.651-.612.982-.912.11-.122.287-.245.276-.434-.011-.8-.066-1.6-.078-2.412-1.664-.011-3.318-.011-4.972-.011zm-7.311-3.958c.596-.011 1.18-.056 1.765-.056 1.047-.022 2.105-.066 3.153-.089l.198.2c.353.378.706.768 1.08 1.123 0 .356-.01.712-.043 1.068-.022.21-.034.422-.044.645-.023.522-.034 1.044-.067 1.567-.022.256-.044.511-.044.767-.01.478-.055.956-.033 1.434-.496.5-1.07.934-1.543 1.457-.43 0-.86.022-1.29.033-.342-.011-.673.011-1.015.033-.805.012-1.61.056-2.414.078-.265 0-.54.011-.805.034.077-.69.165-1.379.243-2.068l.727-.034c.133-1.39.309-2.768.452-4.158-.231.023-.463.045-.705.056.11-.69.154-1.4.264-2.09h.121zm2.37 1.99c-.01.356-.032.7-.065 1.056l-.044.033c.01.056.022.156.022.212-.055.322-.066.656-.088.978l-.056.033c.011.056.023.156.023.212-.056.333-.067.667-.089 1.011l-.033.034c-.01.078-.022.222-.033.3 0 .067-.01.189-.01.256.594-.034 1.19-.034 1.785-.045.055-.511.088-1.034.1-1.545.11-.612.099-1.234.154-1.857.022-.244.044-.489.055-.734-.562.034-1.136.023-1.72.056zm1.875 2.023c-.044.745-.132 1.49-.143 2.235-.772.167-1.588.1-2.37.122.044-.778.143-1.545.198-2.312-.518 0-1.025 0-1.544.055-.12.767-.187 1.535-.264 2.302-.243.033-.485.066-.717.078-.077.478-.132.956-.187 1.445.573.055 1.157 0 1.742-.011 1.025-.09 2.061-.056 3.098-.09.33.034.54-.277.76-.466.276-.278.607-.49.838-.8.1-.846.089-1.702.155-2.558-.53-.055-1.048-.022-1.566 0zm15.623-4.057c.76.066 1.543.022 2.293.133.75 1.212 1.477 2.435 2.238 3.635.044-.311-.077-.622-.11-.922-.121-.89-.276-1.768-.386-2.657.893.066 1.786.11 2.68.166.11.69.242 1.379.363 2.068-.232-.022-.463-.033-.695-.056.11.579.199 1.168.32 1.757.022.122.033.233.055.356.11.69.232 1.367.342 2.057.243.01.485.022.728.044.11.69.253 1.367.352 2.068-.826-.056-1.653-.122-2.47-.145-.65-.978-1.29-1.967-1.917-2.957-.166-.256-.298-.545-.508-.767.21 1.2.32 2.413.518 3.613-.98-.022-1.962-.089-2.943-.111-.055-.478-.077-.967-.166-1.445-.022-.19-.033-.378-.077-.567.243-.045.496-.034.75-.023-.165-1.378-.309-2.757-.474-4.135l-.684-.034c-.077-.711-.132-1.39-.21-2.078zM38.18 38.6c.077.756.166 1.512.265 2.257l-.728.033c.044.49.077.99.176 1.479.783 0 1.555.089 2.338.089-.122-1.1-.32-2.201-.42-3.313a7 7 0 01.508-.156c.694 1.134 1.422 2.246 2.139 3.358.088.1.154.267.32.255.617.045 1.234.1 1.863.09-.1-.49-.166-.99-.298-1.48-.231-.022-.463-.044-.683-.077-.188-.767-.254-1.556-.43-2.324-1.676-.089-3.363-.2-5.05-.21zm-25.777-3.947c.474-.022.948-.055 1.422-.077.31-.011.629-.034.938-.045.386.445.782.89 1.18 1.334a309.564 309.564 0 00-.695 5.47c-.54.478-1.07.967-1.62 1.423-.684.122-1.401.078-2.096.167-.419.022-.838.044-1.246.067-.264-.29-.529-.567-.782-.845-.133-.156-.276-.312-.408-.456.386-1.835.672-3.691 1.08-5.515.452-.444.937-.855 1.4-1.3.188-.256.54-.178.827-.223zm-.341 2.08a.874.874 0 00-.034.41.457.457 0 00-.066.445l-.055-.01c-.132.955-.32 1.9-.463 2.845-.022.112-.044.345-.066.456.386-.033.772-.044 1.147-.078.22.034.44 0 .65-.022.188-1.378.408-2.757.617-4.136-.573 0-1.146.056-1.73.09zm1.708 1.923c-.132.778-.22 1.567-.352 2.346-.772.088-1.555.11-2.327.166.033-.811.265-1.6.353-2.401-.518.011-1.025.022-1.532.1-.166.923-.375 1.846-.508 2.768.331.345.629.723.993 1.034.507.056 1.014-.044 1.521-.055.53-.056 1.07 0 1.588-.112.386-.266.705-.622 1.08-.911.166-.167.43-.312.43-.578.1-.8.232-1.601.287-2.402-.518-.01-1.026.023-1.533.045zm30.386-3.891l.463.033c.419.022.838.055 1.257.089.066 0 .198.011.264.022.364.033.728.067 1.092.089l.342.033c.297.034.584.056.882.067.584.078 1.168.111 1.752.167.177.022.353.033.54.044h.111c.276 1.045.53 2.09.827 3.136-.42-.034-.827-.056-1.235-.112a1.296 1.296 0 00-.463 0c-.121-.344-.187-.711-.276-1.067a7.244 7.244 0 00-.705-.067c.231.912.43 1.835.65 2.746.11.467.232.945.32 1.423.232.023.463.056.695.045.209.69.341 1.4.529 2.101-.188-.011-.375-.033-.563-.044-.297-.023-.584-.056-.881-.067l-.441-.033c-.364-.034-.74-.056-1.103-.09-.232-.022-.452-.044-.684-.055-.132-.69-.286-1.379-.419-2.068.243.011.486.034.717.045-.309-1.39-.584-2.78-.893-4.158a14.495 14.495 0 00-.694-.056c.077.345.143.69.231 1.034h-.132l-1.191-.067c-.143-.022-.287-.033-.43-.055a122.306 122.306 0 00-.562-3.135zm4.013 6.681h-.684c.066.49.177.979.276 1.468 1.025.122 2.05.211 3.076.244-.11-.489-.22-.978-.342-1.456-.242-.045-.496-.089-.738-.133-.188-.79-.353-1.58-.563-2.357-.507-.045-1.003-.067-1.51-.123.121.79.33 1.568.485 2.357zM7.673 34.987c.364-.022.717-.056 1.081-.078.33-.022.661-.044.992-.078-.231 1.045-.408 2.101-.64 3.146a2.286 2.286 0 00-.55.012l-.364.044-1.059.067-.099.01c.088-.344.165-.7.243-1.044-.585.044-1.158.1-1.742.155-.31 1.401-.662 2.78-.982 4.18.254-.022.508-.055.761-.088l.794-.067c.066 0 .187-.011.254-.022.066-.356.143-.7.242-1.045l-1.091.1c.132-.5.253-1.012.352-1.523 1.059-.09 2.106-.178 3.165-.245-.342 1.534-.607 3.09-.927 4.625a30.98 30.98 0 00-1.422.122c-.353.023-.716.056-1.07.078-.738.056-1.488.1-2.226.2-.408-.4-.761-.845-1.147-1.278.485-1.846.97-3.691 1.433-5.537.596-.511 1.147-1.078 1.775-1.545l.474-.033c.177-.023.342-.034.519-.056l.893-.067.341-.033zm-1.61 4.124a7.389 7.389 0 00-.187.857c.353-.023.695-.045 1.037-.056-.1.511-.232 1.023-.342 1.545-.783.145-1.588.156-2.37.223.176-.823.419-1.646.573-2.468-.496.044-.992.088-1.489.122-.231.722-.374 1.478-.595 2.212-.055.223-.143.445-.143.678.264.367.584.69.893 1.023 1.466-.1 2.933-.255 4.399-.344a68.19 68.19 0 00.783-3.97c-.85.045-1.71.112-2.558.178z" fill="#fff"/><path d="M22.337 4.547c.75-1.3 1.488-2.613 2.25-3.913 1.642.01 3.296-.011 4.938 0 .728 1.312 1.489 2.612 2.238 3.913 1.6.133 3.087 1.056 3.98 2.39.31.4.486.879.783 1.29 0-.067-.01-.2-.01-.267.154-.222.12-.489 0-.722.054-1.212.473-2.435.23-3.658 1.39.611 2.603 1.8 3 3.313.341 1.245-.067 2.58-.75 3.624.231.3.43.623.65.934.089-.311.166-.634.287-.934.33.034.309-.422.441-.633.121-.467.54-.923.364-1.424.198-.678.375-1.39.264-2.1.574.222 1.004.677 1.368 1.155.904 1.201 1.356 2.791 1.036 4.28-.232 1.201-.915 2.269-1.742 3.147.132.278.22.567.375.834.242-.867.981-1.445 1.554-2.09.662-.678 1.18-1.523 1.39-2.457.518.411.771 1.045.97 1.667.419 1.434.353 3.047-.342 4.38-.53 1.057-1.411 1.88-2.392 2.502.055.256.099.512.132.767.694-.711 1.532-1.256 2.249-1.957.595-.589 1.158-1.267 1.411-2.09.816 1.557.882 3.48.254 5.114-.585 1.58-1.985 2.769-3.594 3.191-.011.2-.023.412 0 .612.882-.523 1.885-.778 2.767-1.312.783-.434 1.477-1.067 1.896-1.879.364 1.256.43 2.613.033 3.869-.375 1.223-1.146 2.335-2.216 3.035-.309.178-.43.545-.617.823 1.058-.09 2.183-.323 2.955-1.112.529 1.612.12 3.458-.97 4.736 1.499.111 2.987.256 4.476.378.562 2.023 1.058 4.069 1.598 6.092-.507.312-1.014.634-1.51.945.342 1.357.661 2.724.981 4.08-1.455.323-2.922.634-4.377.946-.265.055-.54.144-.816.1a184.255 184.255 0 00-4.983-.323c-.85-.089-1.71-.033-2.558-.155l.265-.134c-.838-.055-1.71-.178-2.525.045h-.254l.232-.2c-.838-.056-1.687-.034-2.536-.056-.265-.022-.507.056-.75.144-1.224-.01-2.447-.044-3.682-.055-.452.367-.937.678-1.411 1.023.816.166 1.642.31 2.48.389.011.8 0 1.6.011 2.401-1.852-.111-3.66-.611-5.369-1.3-1.19.466-2.414.889-3.682 1.078-.496-.123-.993 0-1.489.033.022-.678-.11-1.39.066-2.034.673-.134 1.357-.2 2.03-.334-.023-.033-.067-.111-.09-.144l-.01-.023c.077-.022.22-.055.297-.066-.474-.323-.959-.645-1.4-1.012-1.224 0-2.447.044-3.66.056-.53-.19-1.08-.112-1.632-.112-.551 0-1.091.011-1.643.034.056.044.166.133.21.166l.055.045c-.077-.011-.22-.022-.297-.033-.827-.212-1.687-.1-2.525-.045.055.022.165.09.22.111l.066.034c-2.59.178-5.181.278-7.772.5A52.472 52.472 0 012.8 45.015c-.738-.767-1.4-1.59-2.116-2.368.573-2.18 1.135-4.358 1.697-6.548.022-.156.133-.267.243-.367.728-.645 1.455-1.29 2.172-1.935l1.94-.166c-1.102-1.29-1.532-3.158-1.003-4.792.485.49 1.114.8 1.786.945l-.01.056c-.012.033-.023.1-.034.122.154.078.32 0 .474-.067.22-.022.441.045.662.056-.177-.256-.276-.567-.519-.756-1.014-.723-1.819-1.79-2.16-2.98.055-.333 0-.667-.089-1-.154-.612.022-1.268-.176-1.88.011-.366.143-.722.21-1.078.584 1.034 1.565 1.757 2.634 2.235.629.311 1.334.49 1.919.89.154-.156.132-.367.121-.568-1.378-.355-2.613-1.234-3.296-2.479-.871-1.556-.97-3.502-.375-5.17.088-.222.143-.466.308-.644.397 1.245 1.423 2.134 2.404 2.935.43.344.87.689 1.246 1.1.033-.267.077-.522.143-.778-1.477-.89-2.68-2.368-2.933-4.113.22-.412.122-.89.144-1.334-.011-.612.264-1.201.198-1.813.143-.478.408-.967.816-1.267.21.923.728 1.757 1.378 2.435.573.645 1.312 1.223 1.566 2.09.143-.267.253-.545.386-.812-.827-.9-1.522-1.968-1.753-3.19-.342-1.635.231-3.37 1.312-4.592.297-.345.661-.645 1.091-.8-.232 1.834.992 3.368 1.334 5.091.243-.289.42-.633.673-.922-.673-1.023-1.08-2.302-.783-3.514.364-1.556 1.599-2.801 3.032-3.424-.32 1.534.397 3.024.253 4.547.155-.122.199-.311.298-.478.838-1.69 2.48-2.935 4.344-3.135zm6.604-2.49c-2.833 4.958-5.678 9.917-8.511 14.875-.96 1.701-1.963 3.38-2.911 5.08.728-.844 1.246-1.856 1.996-2.679-.43.9-.893 1.768-1.313 2.669.441-.49.761-1.068 1.17-1.59.33-.434.584-.923.98-1.312-.44.912-.926 1.801-1.345 2.724.254-.3.474-.634.706-.945l-.066.089c.176-.045.33-.023.375.189a4.582 4.582 0 00-.177.411c.728-.9 1.334-1.912 2.062-2.824-.243.645-.628 1.234-.904 1.857.76-.59 1.169-1.49 1.643-2.302 1.047-1.834 2.094-3.668 3.153-5.503a2.95 2.95 0 00.198-.422 75.828 75.828 0 001.996-3.458c.33-.5.628-1.034.904-1.556.077-.612.022-1.234.11-1.846.265.767.364 1.579.452 2.38.033-.045.11-.123.154-.167.089.378.078.778.221 1.134 2.811 4.914 5.623 9.816 8.434 14.73.904 1.58 1.808 3.169 2.712 4.759-.363-1.134-.992-2.18-1.422-3.291.607.756 1.059 1.645 1.654 2.412-.419-1.1-1.003-2.134-1.411-3.235.595.8 1.047 1.712 1.687 2.48-.122-.279-.254-.556-.375-.846l.044.09c.066-.178.132-.356.187-.534.11.178.243.333.375.489-.474-1.09-.981-2.157-1.455-3.246.463.5.738 1.156 1.18 1.678a4.324 4.324 0 00-.607-1.523c-1.444-2.512-2.877-5.025-4.31-7.526-.166-.29-.32-.59-.53-.845-.397-.823-.893-1.601-1.334-2.402-1.907-3.324-3.793-6.67-5.722-9.994zm8.5 3.013c.1.867-.01 1.734-.165 2.579-.121.578-.077 1.178-.088 1.756-.507-.366-.915-.856-1.378-1.278-1.004-1.012-1.985-2.257-3.451-2.546.242.422.452.878.75 1.267.352.167.76.234 1.102.445.463.3.871.667 1.29 1.023 4.223 3.691 6.814 9.172 7.09 14.797-.023.434.23.812.484 1.123 0-.278-.01-.556-.01-.845.584-.278 1.2-.522 1.708-.945.992-.789 1.533-2.012 1.742-3.246-.309.345-.562.756-.915 1.067-.54.512-1.19.879-1.753 1.357-.33.266-.562.633-.827.967a23.951 23.951 0 00-.695-4.036c.441-.256.893-.511 1.235-.9.97-1.045 1.312-2.524 1.4-3.914-.275.367-.44.79-.716 1.157-.507.744-1.158 1.367-1.62 2.134-.21.334-.254.734-.43 1.09a21.205 21.205 0 00-1.886-4.47c.44-.656.97-1.267 1.257-2.012.364-.89.375-1.89.077-2.802-.176.445-.232.923-.419 1.357-.243.622-.65 1.156-.871 1.779-.154.41-.176.845-.231 1.267-.31-.378-.53-.8-.805-1.2-.552-.801-1.18-1.546-1.82-2.28.574-.923.74-2.057.607-3.124-.121-.545-.243-1.156-.662-1.567zm-21.29 1.223c-.23 1.167-.11 2.457.541 3.48-.739.833-1.444 1.7-2.062 2.634-.187.29-.341.59-.562.845-.055-.522-.1-1.056-.342-1.523-.463-.912-1.014-1.823-1.102-2.868a.284.284 0 00-.166.244c-.176.767-.198 1.601.089 2.346.275.823.837 1.5 1.334 2.201-.816 1.401-1.39 2.935-1.919 4.47-.253-1.379-1.4-2.257-2.128-3.38-.242-.323-.363-.712-.628-1.023.132 1.312.386 2.702 1.246 3.747.375.478.904.789 1.422 1.09a19.863 19.863 0 00-.694 4.013c-.254-.245-.43-.567-.695-.812-.584-.545-1.301-.912-1.874-1.456-.353-.312-.596-.712-.926-1.045.209 1.245.793 2.49 1.808 3.257.474.378 1.036.611 1.598.845l.033.667a1.62 1.62 0 00.463-1.156c.353-5.981 3.341-11.774 8.082-15.398.342-.256.738-.4 1.135-.545.22-.055.31-.289.42-.456.154-.3.374-.555.44-.889-1.532.422-2.502 1.768-3.605 2.824-.386.333-.716.745-1.135 1.045.088-.867.01-1.734-.155-2.58-.121-.577-.077-1.167-.099-1.745-.298.323-.408.756-.518 1.168zm8.678.166l.055-.11a3.267 3.267 0 00-.276.066c-.022-.056-.066-.19-.088-.245.066-.133.121-.267.165-.4-.32.367-.562.79-.86 1.167-.132-.244.011-.489.088-.722l-.12-.045c.021-.055.076-.167.099-.233-.75.9-1.346 1.912-2.073 2.835.22-.656.628-1.223.882-1.868-.53.5-1.003 1.067-1.345 1.712-1.29 2.257-2.58 4.514-3.87 6.76-.166.277-.33.555-.463.856-1.059 1.756-2.062 3.568-3.098 5.347-1.28 2.257-2.591 4.503-3.859 6.77a7.037 7.037 0 01-.187.3c-.067.101-.133.212-.199.312 7.056-.022 14.112 0 21.168-.022.64-.022 1.301.145 1.919-.067-.298-.078-.618-.166-.926-.1-.75-.078-1.51-.133-2.26-.211a.962.962 0 01-.089-.111c.86-.09 1.72-.09 2.58-.156a9.952 9.952 0 00-.562-.111c-.011-.044-.044-.122-.055-.167-.287-.044-.585-.022-.86-.133.309-.1.75.078.97-.211-.055-.023-.154-.056-.21-.078.045-.034.122-.111.166-.156a9.863 9.863 0 00-.992-.044c.12-.09.231-.178.32-.3.032 0 .087-.012.11-.012-1.147-.233-2.316-.21-3.462-.433.683-.056 1.356-.078 2.04-.111a3.345 3.345 0 00-1.434-.256c-3.142.022-6.284-.034-9.415.022a14.733 14.733 0 00-1.566-.011c-.562-.011-1.136-.044-1.698 0-.739.3-1.433.667-2.172.99l-.397-.1c.397-.49.915-.846 1.28-1.357l-.166.033c.419-.467.948-.833 1.312-1.367 2.701-4.747 5.435-9.472 8.136-14.23h.022c.827-1.524 1.731-2.991 2.57-4.503-.64.767-1.136 1.656-1.776 2.424.375-.879.86-1.701 1.246-2.58-.253.278-.44.578-.65.856zm-7.343 3.87c.44.155.893.244 1.356.31a6.44 6.44 0 00.441-.755c-.419-.134-.871-.223-1.301-.112-.22.123-.353.356-.496.556zm17.342-.423c.122.267.276.522.463.745a8.82 8.82 0 001.423-.334c-.166-.2-.32-.434-.551-.556-.453-.1-.905-.01-1.335.145zM17.144 12.34c.21.034.42.078.629.134.11-.156.209-.322.32-.49-.155-.1-.31-.2-.453-.3-.154.223-.33.434-.496.657zm18.875-.333c.088.156.188.322.276.478.242-.056.485-.1.727-.144-.165-.223-.341-.434-.507-.656-.165.11-.33.21-.496.322zm-5.093.189a195.17 195.17 0 001.576 3.457c-.64-.789-1.124-1.7-1.72-2.534.1.456.375.845.54 1.267-.088.089-.187.178-.275.278-.155-.245-.309-.49-.507-.69a88.297 88.297 0 001.422 3.136.322.322 0 00-.11-.034c-.54-.767-.993-1.612-1.577-2.334.485 1.09.992 2.179 1.477 3.28-.463-.523-.727-1.19-1.201-1.701.198.956.771 1.756 1.235 2.59 1.113 1.957 2.227 3.891 3.34 5.848.088.155.188.3.287.444a62.015 62.015 0 001.786 3.136c.309.589.529 1.278 1.113 1.645.474.345.915.745 1.423 1.045l.363.345c-1.168-.556-2.359-1.068-3.528-1.612-.253-.134-.55-.078-.827-.09H19.162c-1.412 0-2.823 0-4.234-.01l.121.1c.585.1 1.18.1 1.764.189l.088.1c-.848.1-1.72.044-2.546.222l3.362.3.011.09c-.937.088-1.885.088-2.822.166.309.044.617.1.926.133a1.88 1.88 0 00-.254.145c.364.022.717.078 1.048.245-.342.033-.695.055-1.036.11 1.124.2 2.282.178 3.406.379-.661.122-1.345.055-2.006.166.496.212 1.047.234 1.576.312 2.735-.011 5.48.033 8.214-.023 1.334.045 2.68.012 4.013.023 3.903 0 7.806.01 11.698-.011-1.147-1.913-2.216-3.87-3.34-5.793-1.985-3.468-3.97-6.948-5.965-10.406-.794-1.334-1.467-2.668-2.26-3.913zm-15.777 1.4c-.232.223-.353.546-.497.823.695.012 1.4.045 2.084-.077.154-.267.309-.534.452-.8-.672-.145-1.4-.234-2.04.055zm21.774-.066c.121.29.276.556.463.812.706.089 1.411.11 2.128.077-.143-.344-.276-.778-.672-.9-.629-.211-1.301-.089-1.919.011zM25.48 14.764c-.838 1.479-1.698 2.957-2.536 4.436.629-.645 1.356-1.2 2.205-1.534 1.114-.49 2.382-.478 3.54-.156.694.19 1.278.612 1.863 1.012-.276-.39-.684-.634-1.07-.9-.75-.479-1.598-.823-2.492-.812.629-.467 1.478-.567 2.239-.445-.54-.411-1.213-.578-1.864-.734.298-.178.64-.255.982-.311a4.676 4.676 0 00-2.867-.556zm-10.231.745l-.265.6c.243 0 .496-.01.739-.01a6.81 6.81 0 01.242-.357 10.696 10.696 0 00-.716-.233zm22.899.256l.232.333c.275 0 .55.011.826.034-.099-.212-.198-.412-.286-.623-.254.089-.518.167-.772.256zm-24.674 1.478c-.166.267-.232.578-.32.867.53-.044 1.08-.066 1.577-.277.22-.3.374-.634.54-.968-.618-.022-1.28.034-1.797.378zm25.336-.367c.176.334.363.668.562.99.54.122 1.08.244 1.631.244-.099-.289-.132-.633-.341-.867-.53-.367-1.224-.4-1.852-.367zm-12.867 1.457c-1.29.267-2.403 1.112-3.241 2.112.341-.211.65-.489 1.003-.678.805-.445 1.687-.723 2.58-.878.132.155.32.189.507.133.794-.155 1.62-.078 2.426-.111.165.011.297-.045.386-.2h.132a1.639 1.639 0 00-.342-.078c-1.091-.4-2.304-.567-3.45-.3zM29.24 20.2c-.056.4-.122.8-.32 1.156-.463.878-1.5 1.423-2.48 1.267-.596-.066-1.136-.4-1.533-.834.154-.11.286-.278.485-.3.1-.4.287-.79.22-1.223-1.091.245-2.105.856-2.888 1.668.066.156.22.278.353.378.32.445.816.667 1.267.934-1.113-.034-2.249-.367-3.098-1.112-.198.49-.363 1-.341 1.523.033.734.452 1.412 1.047 1.823-.265-.444-.342-.956-.408-1.456.739.767 1.808 1.045 2.812 1.234-.331-.222-.717-.345-1.048-.567a5.19 5.19 0 01-1.246-1.112c2.084.89 4.51 1 6.637.234.42-.167.85-.311 1.191-.6-1.235.455-2.59.566-3.892.366.11-.133.298-.122.452-.155.386-.045.761-.167 1.125-.312 1.19-.333 2.37-1.122 2.8-2.345a7.226 7.226 0 00-1.135-.567zm-.783.378c-.132.344-.309.678-.596.911.067.09.144.19.221.278.298-.311.53-.667.64-1.09-.067-.022-.199-.077-.265-.1zm-.937 1.134c-.1.055-.21.122-.309.177.055.09.1.178.154.267.133-.044.265-.089.397-.144-.088-.1-.165-.2-.242-.3zm-1.753.266c.132.067.253.123.386.178l.066-.333c-.188-.2-.32.044-.452.155zm.76.278c.133 0 .265 0 .397-.01a3.767 3.767 0 00-.066-.345h-.297c0 .122-.022.233-.034.355zm19.78 3.313c-.618.39-1.334.59-1.996.89.21.422.452.822.684 1.234 1.223-.578 2.127-1.723 2.513-3.024-.374.322-.76.656-1.201.9zM6.68 24.725c.342 1.268 1.257 2.302 2.382 2.947.297-.378.496-.823.738-1.235-.584-.266-1.201-.444-1.753-.767-.507-.233-.904-.633-1.367-.945zm-.099 5.615c.739 1.123 2.018 1.868 3.34 2.012a36.253 36.253 0 00-.804-1.423 9.057 9.057 0 01-2.536-.59zm38.412.578c-.31.467-.596.945-.838 1.445 1.378-.122 2.657-.9 3.473-2.023-.86.3-1.731.556-2.635.578zm-28.578 3.09c-.11.479-.132.979-.209 1.457-.43-.434-.794-.923-1.224-1.345-.54-.09-1.091.044-1.643.044-.595.056-1.201.011-1.786.145-.55.4-.992.934-1.521 1.356.055-.445.165-.878.231-1.312-1.444.1-2.877.211-4.321.334-.32.044-.706-.023-.96.233a51.84 51.84 0 01-1.41 1.256c-.155.134-.343.278-.376.5-.485 1.89-.97 3.792-1.466 5.682.353.5.794.923 1.18 1.39.11.11.21.278.386.233 1.708-.167 3.44-.267 5.148-.434.122-.5.188-1.011.331-1.512.485.434.849 1.001 1.367 1.401.96-.01 1.918-.122 2.878-.144.308-.045.683.033.926-.2.496-.434.981-.89 1.5-1.312-.034.467-.1.922-.144 1.378 1.951-.055 3.914-.166 5.865-.178.133-.01.287.012.397-.1.518-.444.992-.922 1.51-1.367.034.467-.01.934-.01 1.4 1.72.012 3.44-.01 5.148-.033.574-.411 1.004-.99 1.555-1.423.055.478.044.956.088 1.446 2.69.044 5.37.089 8.06.2 1.058.022 2.105.122 3.153.122-.1-.678-.22-1.356-.265-2.035.54.668.915 1.446 1.433 2.124 1.08.022 2.161.167 3.242.156-.133-.845-.32-1.69-.441-2.546-.044-.123-.022-.29-.144-.378-.22-.045-.452-.067-.672-.1-.133-1.079-.42-2.146-.507-3.224.143.01.286.033.419.088.099.323.143.656.22.99.75.089 1.51.1 2.26.167.188-.023.199.2.243.333.132.634.264 1.257.397 1.89-.243-.022-.485-.044-.728-.022.188.856.364 1.712.54 2.58.055.133.044.388.243.388 1.312.09 2.624.2 3.936.323.165.01.342.01.507 0-.265-.979-.441-1.968-.728-2.946-.231-.045-.496-.023-.716-.134-.166-.722-.364-1.434-.496-2.157.804.056 1.61.2 2.414.2-.33-1.334-.694-2.668-1.025-4.002-1.5-.178-3.01-.278-4.52-.411-2.14-.145-4.29-.334-6.428-.4.088.644.22 1.278.275 1.934-.485-.611-.804-1.334-1.245-1.99-3.22-.178-6.44-.244-9.658-.278-1.544 0-3.087-.044-4.631.022-.562.467-1.047 1.034-1.577 1.535-.485-.49-.937-1.012-1.433-1.49-1.83 0-3.704.089-5.568.167zm2.646 9.762c-3.461.144-6.934.233-10.396.522.176.1.386.078.584.078a410.437 410.437 0 0136.052 0c.199.022.397 0 .596-.067-.97-.11-1.94-.155-2.911-.2a281.405 281.405 0 00-23.925-.333zm-8.985 1.223c-.64.122-1.29.022-1.918.2.959.044 1.907-.134 2.866-.111 5.832-.334 11.687-.378 17.53-.4 4.961.055 9.923.11 14.884.4 1.025-.023 2.05.155 3.076.11-.43-.1-.87-.133-1.312-.133-2.194-.21-4.41-.3-6.615-.422-9.493-.467-19.018-.322-28.511.356zm16.626 1.156c-1.533.578-3.142.934-4.763 1.134-.022.256-.033.5-.022.756 1.896-.19 3.738-.745 5.48-1.523.297-.134.617-.256.86-.49-.508-.01-1.059-.077-1.555.123zm2.26 1.39c.871.222 1.753.444 2.657.478 0-.234-.01-.478-.01-.712-.387-.067-.784-.133-1.17-.2-.54-.156-1.047.156-1.477.434z" fill="#141E1F"/><path d="M19.735 36.821c.265-.01.53-.022.794-.033-.066 1.09-.133 2.168-.232 3.246a5.997 5.997 0 01-.893 0c.122-1.067.133-2.157.331-3.213zm17.055.056c.155.011.31.011.475.022a104.5 104.5 0 01.353 3.246c-.166 0-.32 0-.485-.01-.089-.345-.122-.701-.155-1.057-.705-.055-1.41.011-2.117-.078-.044-.378-.088-.767-.066-1.145.706-.01 1.4.067 2.095.045a16.006 16.006 0 01-.1-1.023zm-24.32.267c.264-.023.529-.034.793-.045-.132 1.09-.32 2.168-.474 3.247a7.665 7.665 0 01-.87.022c.176-1.079.33-2.157.55-3.224zm-6.572.478a9.44 9.44 0 01.805-.045c-.055.223-.066.467-.198.656a4.411 4.411 0 01-.76.078c.043-.222.098-.456.153-.69z" fill="#141E1F"/><path d="M28.941 2.057c1.93 3.324 3.815 6.67 5.733 9.994.441.8.937 1.58 1.334 2.402 0 .456.254.856.441 1.256.783 1.69 1.599 3.38 2.36 5.092.088.211.209.434.132.667-.166.723-.496 1.4-.662 2.135-2.811-4.914-5.623-9.817-8.434-14.731-.143-.356-.132-.767-.22-1.134-.177-1.223-.364-2.435-.54-3.658-.023.178-.056.356-.078.545-.21.445-.33.912-.43 1.4-.187.968-.518 1.913-.584 2.902a59.688 59.688 0 01-1.996 3.458c-.231.2-.463.4-.628.645-.662.923-1.356 1.823-1.996 2.768-.154.222-.32.456-.595.534-.772.267-1.555.478-2.36.622 2.845-4.98 5.7-9.939 8.523-14.897z" fill="#FFCC25"/><path d="M21.201 10.462c.706-.267 1.478-.167 2.216-.167-2.7 4.747-5.424 9.483-8.136 14.23-.353.523-.882.9-1.312 1.368-.739.711-1.5 1.412-2.205 2.157.253-.112.496-.234.739-.356.529.055 1.014-.19 1.51-.334 1.036-.344 2.106-.589 3.12-1.023a14.68 14.68 0 011.566.012c2.513.222 5.027.344 7.552.489.22 0 .397.144.54.278.518.489.926 1.09 1.334 1.667-6.009.023-12.017.011-18.026.011-.011-.133-.011-.266-.022-.41 1.268-2.269 2.58-4.503 3.859-6.771 1.036-1.78 2.028-3.591 3.098-5.348.21-.189.419-.378.573-.623 1.059-1.6 2.117-3.201 3.175-4.791.11-.167.232-.334.42-.39z" fill="#FFCC25"/><path d="M32.678 18.733c.1-.9.331-1.79.475-2.68 1.995 3.47 3.969 6.938 5.964 10.407 1.125 1.923 2.194 3.88 3.34 5.792-3.902.011-7.805 0-11.697.011-1.334-.011-2.679.022-4.013-.022-1.477-.267-2.977-.278-4.465-.378-.496-.045-1.015.022-1.5-.122-.705-.545-1.157-1.357-1.62-2.113h16.581c.276.011.574-.044.827.09 1.18.544 2.36 1.055 3.528 1.611l-.363-.344a14.943 14.943 0 00-1.092-1.268c-.463-.489-.882-1.034-1.444-1.423a48.796 48.796 0 01-1.786-3.135c-.066-.278-.11-.567-.22-.834a92.95 92.95 0 00-2.371-4.97.937.937 0 01-.144-.622z" fill="#FFCC25"/><path d="M29.095 4.069c.177 1.223.353 2.435.54 3.658a2.12 2.12 0 01-.154.166c-.088-.8-.198-1.612-.452-2.379.011-.3 0-.6-.01-.9.021-.19.043-.367.076-.545zM11.764 28.038c.705-.744 1.466-1.434 2.205-2.156l.165-.034c-.364.512-.882.879-1.279 1.357l.397.1c-.253.11-.507.244-.76.367a22.45 22.45 0 01-.728.366zm16.857-.144c.992-.067 1.985-.078 2.966-.19-.22.29-.662.112-.97.212.275.111.573.1.86.134.01.044.044.122.055.166-.97-.1-1.952-.155-2.91-.322zm-13.075 3.168c.066-.033.198-.11.253-.144.628.033 1.246.133 1.874.167.22.033.441.078.662.133a92.52 92.52 0 01-1.753.078c-.32-.156-.673-.211-1.037-.234zm5.864 15.776l2.195-.333c.022.033.066.11.088.144-.673.134-1.356.2-2.029.334-.176.645-.044 1.356-.066 2.034.496-.033.992-.155 1.489-.033-.563.144-1.136.2-1.71.222.056-.79 0-1.578.034-2.368z" fill="#00011A"/><path d="M28.588 6.003a5.67 5.67 0 01.43-1.4c.011.3.011.6.011.9-.088.612-.033 1.234-.11 1.846a19.719 19.719 0 01-.904 1.556c.055-.99.386-1.934.573-2.902z" fill="#F39A31"/><path d="M37.441 5.07c.42.41.54 1.022.64 1.578.132 1.068-.022 2.202-.607 3.124.64.734 1.268 1.468 1.82 2.28.275.4.507.822.804 1.2.056-.422.089-.856.232-1.267.22-.623.64-1.168.87-1.78.188-.433.243-.922.42-1.355.298.911.287 1.912-.077 2.801-.287.745-.816 1.357-1.257 2.013a21.8 21.8 0 011.885 4.469c.177-.356.22-.756.43-1.09.463-.767 1.125-1.4 1.62-2.134.277-.367.442-.79.718-1.157-.1 1.39-.43 2.869-1.4 3.914-.343.389-.794.645-1.236.9a23.76 23.76 0 01.695 4.036c.265-.334.496-.69.827-.967.573-.467 1.224-.845 1.753-1.357.353-.31.595-.711.915-1.067-.21 1.234-.76 2.457-1.742 3.246-.507.423-1.124.668-1.709.945.011.278.011.556.011.845-.264-.322-.518-.689-.485-1.122-.276-5.626-2.866-11.107-7.09-14.798-.418-.356-.826-.723-1.289-1.023-.342-.211-.739-.278-1.103-.444-.297-.39-.507-.834-.75-1.268 1.467.29 2.448 1.534 3.452 2.546.463.422.87.912 1.378 1.279.01-.59-.022-1.179.088-1.757.176-.856.287-1.723.187-2.59zM16.152 6.293c.1-.412.22-.834.518-1.146.022.579-.022 1.168.1 1.746.165.845.242 1.712.154 2.58.419-.301.75-.712 1.135-1.046 1.103-1.045 2.073-2.39 3.605-2.824-.066.334-.297.6-.44.89-.11.178-.199.4-.42.455-.396.145-.793.278-1.135.545-4.752 3.624-7.729 9.417-8.082 15.398.011.434-.165.845-.463 1.156-.022-.222-.022-.445-.033-.667-.562-.233-1.113-.467-1.598-.845-1.026-.767-1.61-2.012-1.808-3.257.33.333.573.734.926 1.045.573.545 1.29.912 1.874 1.456.264.245.43.567.695.812.088-1.357.33-2.702.694-4.014-.518-.3-1.047-.611-1.422-1.09-.86-1.044-1.114-2.434-1.246-3.746.265.3.397.7.628 1.023.717 1.112 1.875 2.001 2.128 3.38.53-1.534 1.092-3.069 1.919-4.47-.497-.7-1.059-1.378-1.334-2.2-.287-.746-.265-1.58-.089-2.347.011-.122.067-.2.166-.244.088 1.045.64 1.957 1.102 2.868.243.467.298 1 .342 1.523.232-.255.386-.555.562-.845a22.528 22.528 0 012.062-2.634c-.65-1.046-.772-2.335-.54-3.502z" fill="#283A3A"/><path d="M17.486 10.328c.143-.2.276-.422.496-.545.43-.11.882-.022 1.301.112-.132.255-.287.511-.441.756a8.94 8.94 0 01-1.356-.323zm17.342-.422c.42-.156.882-.245 1.323-.145.243.123.386.356.552.556a8.822 8.822 0 01-1.422.334 3.344 3.344 0 01-.453-.745zm-19.679 3.691c.65-.29 1.378-.2 2.05-.067-.143.267-.297.534-.452.8-.683.123-1.389.1-2.083.078.132-.278.253-.589.485-.811zm21.774-.067c.629-.1 1.29-.222 1.919-.011.397.122.529.556.672.9-.706.034-1.422.023-2.128-.077a3.95 3.95 0 01-.463-.812zm-23.45 3.713c.518-.344 1.18-.4 1.786-.378-.166.334-.32.667-.54.968-.497.21-1.048.233-1.577.277.1-.289.165-.6.33-.867zm25.336-.367c.628-.022 1.323 0 1.852.367.21.245.242.578.341.867-.55-.01-1.091-.133-1.631-.244-.188-.334-.375-.656-.563-.99zm7.497 8.694c.44-.244.827-.578 1.212-.9-.386 1.3-1.29 2.446-2.513 3.024-.243-.412-.486-.812-.684-1.234.662-.3 1.367-.5 1.985-.89zm-39.625-.845c.463.312.86.7 1.367.945.563.323 1.18.5 1.753.767-.242.412-.452.857-.738 1.235-1.114-.634-2.04-1.68-2.382-2.947zm-.099 5.615a9.057 9.057 0 002.536.589c.275.467.551.934.805 1.423-1.323-.144-2.602-.89-3.341-2.012zm38.412.578c.915-.022 1.786-.278 2.635-.578-.816 1.123-2.095 1.9-3.473 2.023.242-.5.529-.978.838-1.445zm-28.578 3.091c1.864-.078 3.738-.167 5.601-.178.485.489.948 1 1.434 1.49.54-.5 1.014-1.068 1.576-1.535 1.544-.055 3.087-.022 4.63-.022 3.22.033 6.44.1 9.659.278.43.656.76 1.378 1.245 1.99-.066-.645-.187-1.29-.275-1.934 2.15.066 4.289.244 6.428.4 1.51.133 3.02.233 4.52.411.342 1.334.705 2.657 1.025 4.002-.805 0-1.61-.144-2.414-.2.132.723.33 1.434.496 2.157.22.111.474.089.716.133.276.968.463 1.968.728 2.947a2.581 2.581 0 01-.507 0 156.646 156.646 0 00-3.936-.323c-.198 0-.188-.255-.243-.389a71.455 71.455 0 00-.54-2.58c.243-.021.485-.01.728.023-.133-.634-.265-1.256-.397-1.89-.044-.133-.044-.345-.243-.333-.75-.067-1.51-.078-2.26-.167-.077-.334-.11-.667-.22-.99a1.755 1.755 0 00-.42-.089c.089 1.09.376 2.146.508 3.224.22.034.452.045.672.1.122.078.1.245.144.379.121.856.309 1.7.44 2.546-1.08.01-2.16-.134-3.24-.156-.519-.678-.894-1.457-1.434-2.124.055.679.176 1.357.265 2.035-1.059 0-2.106-.1-3.153-.122-2.69-.112-5.37-.156-8.06-.2-.044-.479-.033-.968-.088-1.446-.551.434-.981 1.023-1.555 1.423-1.72.011-3.44.034-5.148.034.01-.467.044-.934.01-1.401-.518.444-.992.923-1.51 1.367-.099.111-.253.09-.397.1-1.962.011-3.914.123-5.865.178.044-.456.11-.923.143-1.378-.507.422-.992.878-1.5 1.312-.242.244-.616.166-.925.2-.96.022-1.919.133-2.878.144-.518-.389-.882-.956-1.367-1.4-.132.5-.21 1.011-.33 1.511-1.71.167-3.44.267-5.15.434-.176.044-.286-.122-.385-.234-.386-.466-.827-.889-1.18-1.39.496-1.89.992-3.78 1.466-5.68.033-.223.22-.356.375-.5.474-.412.937-.834 1.411-1.257.254-.256.64-.2.96-.233 1.433-.123 2.877-.234 4.321-.334-.066.445-.176.878-.231 1.312.53-.434.97-.956 1.521-1.356.585-.134 1.191-.09 1.787-.145.55 0 1.102-.122 1.642-.044.43.422.794.922 1.224 1.345.044-.467.066-.967.176-1.445zm13.561.044l.11.145h-.043c.01.689.044 1.378.044 2.067.242.012.474.012.716.023.022 1.378.1 2.757.144 4.124-.243-.01-.497-.01-.74-.01.056.677.056 1.367.056 2.045 2.205.044 4.421.078 6.626.155-.088-.689-.143-1.39-.21-2.09.2-.066.21-.622-.044-.633-.022-.134-.044-.256-.066-.378l.066-.145c-.463 0-.97-.111-1.4.122-.264 0-.529-.01-.782-.033.022.356.044.7.088 1.045-.485-.011-.97-.011-1.456-.044-.044-.467-.044-.923-.077-1.39.474.022.948.022 1.434.033-.067-.444-.089-.9-.1-1.345-.463-.022-.937-.022-1.41-.033-.023-.467-.034-.934-.1-1.39.463.011.937.011 1.4.044.011.345.022.7.066 1.057h.1l-.1.155c.563-.01 1.169.134 1.698-.122h.386c-.044-.49-.088-.99-.143-1.479.198-.066.21-.622-.056-.633-.044-.323-.088-.634-.099-.956-.21-.011-.419-.034-.628-.045.066-.033.22-.1.286-.122-.804-.156-1.642-.078-2.458-.1-1.103.067-2.205-.178-3.308-.067zm-13.23.211l.154.156h-.099c-.11.69-.154 1.39-.264 2.09.231-.011.463-.033.705-.056-.154 1.39-.32 2.769-.452 4.158l-.727.034c-.078.689-.166 1.378-.243 2.068.265-.023.54-.034.805-.034.231.167.53.134.794.145.64 0 1.268-.011 1.907-.067a7.868 7.868 0 01-.287-.156c.342-.022.673-.044 1.015-.033.463.111 1.025.211 1.455-.022l-.165-.011c.474-.523 1.047-.956 1.543-1.457l.132.1c.012-.5.155-1.078-.099-1.534 0-.256.022-.511.044-.767.044.044.122.145.166.19.01-.58.154-1.213-.1-1.758.012-.21.023-.422.045-.644.044 0 .12.01.154.01-.011-.433.187-.989-.188-1.322-.352-.356-.672-.767-1.069-1.079l.055.2-.198-.2c-1.048.023-2.106.067-3.153.09-.607-.256-1.301-.123-1.93-.1zm7.045 1.401c-.033.967-.088 1.934-.11 2.902 1.235.344 2.459.7 3.682 1.078 0 .245-.01.5 0 .745-.54 0-1.07 0-1.61.011l.034-.678c-.717-.022-1.433 0-2.15.011-.044.912-.077 1.823-.1 2.735 1.522-.022 3.033-.033 4.554-.033.309-.3.617-.59.937-.879.375.023.706-.4.662-.767-.011-.856.022-1.723-.044-2.579a2.227 2.227 0 00-.155.178 2.181 2.181 0 01-.022-.267c-1.213-.356-2.425-.734-3.627-1.1.022-.256.022-.512.022-.768.507.011 1.025 0 1.533-.01 0 .233-.012.455-.012.688.695.012 1.39.023 2.084 0-.044-.911-.044-1.823-.055-2.745-1.378.01-2.756-.023-4.134.01-.563.456-1.059.946-1.489 1.468zm-11.587-1.167c.044.044.143.122.198.155-.286.045-.64-.033-.838.223-.463.433-.948.856-1.4 1.3-.408 1.824-.694 3.68-1.08 5.515.132.155.275.3.408.456.044.4.419.667.705.9.53.1 1.07.045 1.61.011-.066-.033-.21-.1-.276-.133.695-.09 1.412-.045 2.095-.167.551-.456 1.08-.945 1.62-1.423.221-1.823.442-3.658.695-5.47-.397-.445-.782-.89-1.18-1.334-.308.011-.628.034-.937.045-.496-.256-1.08-.1-1.62-.078zm24.564-.122c.077.689.132 1.367.22 2.056l.684.034c.165 1.378.298 2.757.474 4.135-.254-.01-.507-.022-.75.023-.154.033-.099.289-.11.41-.033.1.1.346.187.168.078.478.1.967.166 1.445.981.022 1.962.089 2.944.111-.199-1.2-.31-2.412-.519-3.613.21.222.342.5.508.767.628.99 1.267 1.979 1.918 2.957.827.034 1.654.1 2.47.145-.1-.69-.243-1.379-.353-2.068-.243-.022-.485-.033-.728-.045-.11-.689-.232-1.367-.342-2.056.243.01.144-.623-.055-.356-.11-.578-.198-1.167-.32-1.757.232.011.464.034.695.056-.121-.69-.254-1.379-.364-2.068-.893-.056-1.786-.1-2.679-.167.1.89.265 1.768.386 2.657.033.312.143.612.11.923-.76-1.2-1.5-2.423-2.238-3.635-.772-.1-1.543-.056-2.304-.122zm7.85.422l-.463-.033c.198 1.033.386 2.067.584 3.101.143.023.287.045.43.056l-.1.156c.42.022.916.166 1.29-.09h.133c-.088-.344-.154-.689-.232-1.033.232.01.463.033.695.055.309 1.39.573 2.78.893 4.158-.242-.01-.485-.033-.716-.044.132.69.286 1.378.418 2.068.232.022.452.033.684.055-.066.045-.199.123-.265.167.452.011.96.189 1.367-.078l.441.034c-.066.033-.209.089-.286.122.375.067.827.2 1.169-.056.187.011.374.023.562.045-.199-.7-.32-1.412-.53-2.102l.089-.133c-.21-.033-.43-.056-.64-.078-.121-.478-.22-.956-.33-1.434-.033.045-.11.133-.144.178-.231-.912-.419-1.834-.65-2.746.231.011.474.033.705.067.089.355.166.722.276 1.067 0 .211.463.211.463 0 .408.056.827.078 1.235.111-.287-1.045-.54-2.09-.827-3.135h-.11c.01-.245-.507-.256-.54-.045-.585-.055-1.17-.088-1.753-.166.066-.034.209-.09.286-.123-.375-.044-.838-.21-1.169.056l-.341-.033c.044-.045.132-.123.176-.167-.419-.022-.893-.167-1.268.078a1.96 1.96 0 01-.264-.023l.099-.144c-.452-.011-.97-.178-1.367.089zm-37.133.033c.044.045.143.123.187.167l-.363.033c-.298-.277-.772-.077-1.147-.089.066.034.187.112.254.156-.177.011-.342.033-.519.056 0-.223-.694-.178-.474.033-.617.467-1.18 1.034-1.775 1.545-.463 1.846-.948 3.691-1.433 5.537.375.422.739.878 1.147 1.278.738-.1 1.488-.144 2.227-.2.353.278.849.09 1.268.09-.044-.045-.144-.123-.188-.167.474-.045.948-.078 1.422-.123.32-1.545.585-3.09.927-4.625-1.059.067-2.106.156-3.165.245-.099.511-.22 1.023-.352 1.523l1.091-.1c-.1.345-.176.69-.243 1.045-.066 0-.187.011-.253.022-.33-.267-.783-.1-1.158-.078.122.056.243.1.364.145a17.58 17.58 0 00-.76.089c.32-1.39.672-2.78.98-4.18.585-.056 1.158-.111 1.743-.156-.078.345-.166.7-.243 1.045l.1-.011c.33.256.793.111 1.168.078l-.11-.145.363-.044c.034.2.53.222.552-.011.231-1.045.408-2.102.64-3.147-.332.034-.662.056-.993.078-.353-.289-.849-.1-1.257-.089zm22.425 1.89c-.121.19-.022.445-.044.656-.375.056-.75 0-1.125.045.353.178.75.267 1.125.378.066.722.033 1.445.066 2.168h.552c-.034-1.079-.1-2.157-.11-3.236-.155-.01-.31-.022-.464-.01zm3.407.078c0 .145 0 .29.011.434.165.022.33.033.507.033-.01-.156-.01-.322-.022-.478-.165 0-.33 0-.496.011zm-17.067.145c-.165 1.078-.287 2.156-.43 3.235.177.01.353.01.53.01.143-1.078.264-2.156.363-3.234-.154-.011-.309-.011-.463-.011zm20.54-.067c.01.344.044.678.1 1.023-.706.01-1.401-.056-2.096-.045-.01.39.033.767.066 1.145.706.09 1.412.023 2.117.078.033.356.066.712.155 1.056.165 0 .32 0 .485.011-.1-1.09-.232-2.168-.353-3.246-.154-.011-.32-.011-.474-.022zm-30.893.745l-.165.69c.254-.012.518-.023.76-.079.133-.189.144-.433.2-.656-.254.011-.519.023-.795.045zm17.486 1.367c-.01.067-.022.2-.033.267.309.011.629.033.937.022-.231-.233-.595-.267-.904-.289zm10.1.545l.032.49c.188-.012.364-.012.552-.012-.044-.156.022-.345-.1-.467-.165-.011-.33-.022-.485-.011z" fill="#283A3A"/><path d="M12.062 36.732c.573-.033 1.146-.077 1.73-.089-.198 1.379-.43 2.758-.617 4.136-.22.022-.43.056-.65.022a8.357 8.357 0 00-.893-.155c-.045-.056-.144-.167-.188-.223.154-.956.33-1.9.463-2.846l.055.011c.033.011.088.023.122.034.066-.156 0-.323-.056-.467a.909.909 0 01.034-.423zm.407.412c-.22 1.067-.374 2.157-.55 3.224.286.01.583 0 .87-.022.155-1.079.342-2.157.474-3.247-.275.011-.54.023-.794.045zm14.234 9.005c.496-.2 1.036-.133 1.566-.122-.243.233-.563.355-.86.489-1.731.778-3.584 1.323-5.48 1.523-.011-.256 0-.5.022-.756 1.62-.2 3.23-.556 4.752-1.134zm2.26 1.39c.43-.278.948-.59 1.477-.434.386.067.783.133 1.17.2.01.234.01.478.01.712-.904-.034-1.786-.256-2.657-.478z" fill="#283A3A"/><path d="M24.829 6.46c.21-.279.396-.59.65-.835-.397.868-.87 1.701-1.246 2.58.64-.767 1.136-1.657 1.775-2.424-.838 1.512-1.742 2.98-2.569 4.503h-.022c-.738.01-1.51-.1-2.216.166-.187.056-.308.223-.419.379-1.058 1.6-2.116 3.201-3.175 4.791-.154.245-.364.434-.573.623.132-.3.297-.578.463-.856 1.29-2.257 2.58-4.514 3.87-6.76.341-.645.816-1.212 1.345-1.712-.254.645-.65 1.212-.882 1.868.727-.923 1.323-1.935 2.073-2.835-.022.055-.078.167-.1.233-.397.834-.838 1.635-1.201 2.468.43-.555.804-1.145 1.223-1.712.298-.389.54-.811.86-1.167a3.072 3.072 0 01-.165.4c-.386.756-.76 1.523-1.136 2.28.53-.623.96-1.324 1.445-1.99zm6.096 5.736c.794 1.256 1.478 2.58 2.228 3.858-.133.9-.364 1.779-.474 2.68a.977.977 0 00.132.633c.838 1.634 1.62 3.29 2.37 4.97.11.266.166.555.22.833a5.928 5.928 0 01-.286-.445c-1.114-1.956-2.227-3.89-3.34-5.847-.464-.834-1.048-1.635-1.235-2.59.474.51.738 1.189 1.201 1.7-.474-1.1-.992-2.179-1.477-3.28.595.734 1.047 1.568 1.577 2.335.022.011.077.022.11.034-.485-1.034-.96-2.08-1.422-3.136.198.212.352.445.507.69.397.567.727 1.178 1.157 1.712-.275-.667-.606-1.312-.882-1.98-.165-.433-.43-.822-.54-1.266.595.822 1.08 1.734 1.72 2.534a163.007 163.007 0 01-1.566-3.435zm-5.545.823c.176-.256.397-.456.628-.645-.066.144-.121.289-.198.422-1.059 1.835-2.106 3.67-3.153 5.503-.474.812-.882 1.713-1.643 2.302.276-.634.65-1.212.904-1.857-.728.9-1.334 1.912-2.062 2.824.055-.133.11-.278.177-.411.363-.756.75-1.501 1.124-2.257-.518.622-.948 1.323-1.433 1.979-.232.322-.452.645-.706.945.42-.923.893-1.812 1.345-2.724-.396.378-.65.878-.98 1.312-.398.522-.729 1.1-1.17 1.59.42-.9.883-1.768 1.313-2.669-.75.823-1.257 1.846-1.996 2.68.948-1.701 1.951-3.38 2.91-5.081a15.68 15.68 0 002.36-.623c.265-.077.441-.31.595-.533.64-.934 1.334-1.835 1.985-2.757zm10.628 1.423c.21.267.353.556.53.845a1664.98 1664.98 0 004.31 7.526c.287.467.496.979.607 1.523-.441-.522-.706-1.178-1.18-1.678.474 1.09.981 2.156 1.455 3.246a5.234 5.234 0 01-.375-.49c-.44-.655-.838-1.356-1.323-1.978.353.811.728 1.623 1.103 2.434.121.278.253.556.375.845-.64-.767-1.103-1.667-1.687-2.479.397 1.1.992 2.135 1.411 3.235-.595-.767-1.047-1.645-1.654-2.412.43 1.112 1.059 2.157 1.422 3.29a407.077 407.077 0 00-2.712-4.758c.166-.733.485-1.412.662-2.134.077-.234-.055-.456-.133-.667-.76-1.712-1.565-3.391-2.359-5.092-.198-.4-.452-.79-.452-1.256zM13.263 27.316c.728-.311 1.434-.69 2.172-.99.563-.044 1.136-.01 1.698 0-1.014.423-2.084.667-3.12 1.023-.496.145-.981.39-1.51.334.253-.134.507-.256.76-.367zm5.436-.979c3.142-.055 6.273 0 9.415-.022a3.54 3.54 0 011.433.256c-.683.033-1.356.055-2.04.111 1.147.223 2.327.2 3.463.434-.034 0-.089.01-.11.01-.927.079-1.864.045-2.79.2 1.102.101 2.194.223 3.296.301.056.022.155.056.21.078-.981.111-1.974.122-2.966.189.96.167 1.94.211 2.91.333.188.034.376.067.563.112-.86.077-1.72.066-2.58.155a.982.982 0 01.088.111c.75.067 1.51.134 2.26.212-.209.055-.43.1-.65.1-.981-.011-1.973-.011-2.955 0-.033-.034-.088-.1-.12-.134-.409-.578-.817-1.178-1.335-1.667-.154-.145-.33-.278-.54-.278-2.525-.156-5.039-.278-7.552-.5zm18.489 1.968c.562.378.981.934 1.444 1.423.386.4.75.834 1.092 1.268-.508-.3-.949-.69-1.423-1.045-.584-.356-.805-1.056-1.113-1.646zm-22.282 1.323c1.411.011 2.822.011 4.234.011.452.756.904 1.568 1.62 2.113.485.133 1.004.066 1.5.122 1.488.1 2.999.111 4.465.378-2.734.044-5.48.011-8.214.022-.529-.066-1.08-.1-1.576-.311.661-.111 1.345-.044 2.006-.167-1.124-.2-2.282-.178-3.407-.378.342-.055.695-.089 1.037-.111.584-.033 1.168-.044 1.753-.078l-.662-.133c.044-.034.133-.111.177-.145-.309-.022-.618-.044-.926-.089.253-.1.529-.11.804-.11a.56.56 0 00-.022-.134l-.01-.09-3.363-.3c.838-.177 1.698-.122 2.547-.222l-.089-.1c-.584-.1-1.18-.089-1.764-.189l-.11-.089z" fill="#F39A30"/><path d="M23.803 6.181l.121.045c-.077.233-.22.478-.088.722-.419.567-.793 1.157-1.223 1.713.352-.856.793-1.657 1.19-2.48zm-.419 2.269c.386-.757.761-1.524 1.136-2.28.022.056.066.19.088.245.066-.011.21-.045.276-.067l-.055.111c-.486.667-.916 1.368-1.445 1.99zm7.652 6.214l.275-.278c.276.667.607 1.312.882 1.979-.43-.534-.76-1.134-1.157-1.701zm-9.879 4.225c-.364.756-.75 1.5-1.124 2.257-.044-.212-.199-.234-.375-.19l.066-.088c.474-.656.904-1.357 1.433-1.98zm18.875 4.536c.485.633.882 1.323 1.323 1.979-.055.177-.121.355-.187.533l-.044-.089c-.364-.8-.739-1.612-1.092-2.423zM28.07 27.327c.926-.156 1.863-.122 2.79-.2a1.036 1.036 0 01-.32.3c.33 0 .661.011.992.044a2.128 2.128 0 00-.166.156c-1.102-.078-2.194-.189-3.296-.3zm-6.097 6.937c.397.312.717.712 1.07 1.079.374.333.176.89.187 1.323-.044 0-.121-.011-.154-.011.033-.356.044-.712.044-1.068-.375-.356-.728-.745-1.08-1.123l-.067-.2zm-2.701 2.146c.573-.033 1.158-.022 1.73-.067a7.85 7.85 0 01-.054.734c-.044-.178-.088-.367-.144-.545-.474-.033-.948 0-1.422.056 0 .244 0 .5-.01.756-.045.033-.122.1-.166.133.033-.367.055-.711.066-1.067zm-9.779 5.737c.264.278.529.556.782.845l1.246-.067c.066.033.21.1.276.133-.53.034-1.08.09-1.61-.01-.275-.234-.65-.501-.694-.901zm10.54.411l1.29-.033.165.01c-.43.234-.992.134-1.455.023z" fill="#000B1C"/><path d="M36.504 7.249c.122.222.166.489 0 .722-.088-.222-.099-.511 0-.722zM12.988 45.515c.838-.055 1.709-.166 2.524.045-.76.066-1.543.11-2.304.066a2.043 2.043 0 01-.22-.11z" fill="#000203"/><path d="M40.727 8.46c.176.5-.243.957-.364 1.423-.132.212-.11.668-.44.634.264-.69.55-1.367.804-2.057z" fill="#070B0C"/><path d="M8.048 15.665c-.154-1.057-.077-2.168.342-3.158.066.623-.21 1.2-.198 1.812-.022.456.077.934-.144 1.346z" fill="#0A0D0D"/><path d="M25.48 14.764a4.676 4.676 0 012.866.556c-.342.056-.684.133-.982.311.64.156 1.323.323 1.864.734-.761-.111-1.61-.022-2.238.445.893-.011 1.753.344 2.491.811.386.256.794.512 1.07.9-.585-.4-1.169-.822-1.864-1.01-1.157-.323-2.425-.334-3.539.155-.849.333-1.576.89-2.205 1.534.838-1.479 1.698-2.946 2.536-4.436zm-4.554 8.906c-.022-.534.143-1.046.341-1.524.85.745 1.985 1.067 3.099 1.112-.453-.267-.96-.49-1.268-.934 1.323.834 2.965 1.1 4.498.823-.364.144-.739.267-1.125.311-.154.033-.341.022-.452.156 1.301.2 2.646.089 3.892-.367-.342.3-.783.445-1.19.6-2.14.778-4.554.656-6.638-.233.353.433.783.811 1.246 1.111.331.212.717.334 1.048.567-1.004-.2-2.073-.466-2.812-1.234.066.5.143 1.012.408 1.457-.595-.434-1.014-1.123-1.047-1.846zm2.778-.023c.673.345 1.455.445 2.194.334-.662-.379-1.466-.345-2.194-.334z" fill="#A78F85"/><path d="M25.942 18.333c1.147-.267 2.36-.1 3.451.3-.386.022-.772.089-1.158.033-.022-.01-.077-.033-.099-.044-.64-.334-1.378-.1-2.061-.145-.034-.044-.1-.11-.133-.144z" fill="#AD948A"/><path d="M26.075 18.466c.683.045 1.433-.189 2.061.145-.628-.045-1.268-.011-1.896.044-.033-.044-.121-.133-.165-.189z" fill="#9A8278"/><path d="M26.284 18.878c1.091-.223 2.205-.134 3.308-.178a.395.395 0 01-.386.2c-.805.022-1.621-.045-2.426.111a.449.449 0 01-.496-.133z" fill="#13191A"/><path d="M28.456 20.579c.066.022.198.077.265.11-.1.423-.342.779-.64 1.09-.077-.089-.143-.189-.22-.278.286-.244.463-.578.595-.922zm-.937 1.134c.077.1.154.21.231.31a5.652 5.652 0 00-.397.145c-.055-.088-.099-.177-.154-.266.11-.078.21-.134.32-.19zm-1.753.267c.132-.112.264-.356.44-.156-.021.11-.032.222-.065.333-.122-.066-.254-.122-.375-.178zm.76.277c.012-.122.023-.233.045-.355h.297a3.8 3.8 0 00.066.344c-.143.011-.275.011-.408.011z" fill="#FF2360"/><path d="M5.645 23.358c.198.611.022 1.256.176 1.879.077.322.144.656.088 1a5.466 5.466 0 01-.264-2.879z" fill="#020505"/><path d="M10.077 28.372c0 .133.011.267.022.411 6.009 0 12.017.023 18.026-.01.033.033.1.1.121.133H9.768l.133-.223.176-.311z" fill="#FFE926"/><path d="M9.702 28.983c.066-.1.132-.21.199-.31l-.133.222h21.433c.22 0 .441-.045.65-.1.31-.067.63.022.927.1-.618.21-1.28.044-1.919.066-7.045.034-14.1 0-21.157.023z" fill="#916328"/><path d="M7.442 29.973c.011-.033.022-.1.033-.122a.451.451 0 01.441.066c-.143.056-.309.134-.474.056z" fill="#010405"/><path d="M14.884 30.785c.937-.078 1.885-.078 2.822-.167 0 .033.011.1.022.133-.275.011-.55.011-.804.111.308.045.617.067.926.09-.044.033-.133.11-.177.144-.628-.034-1.245-.145-1.874-.167-.298-.044-.606-.1-.915-.144z" fill="#FFB734"/><path d="M29.977 34.053c1.103-.111 2.205.133 3.308.044.816.023 1.654-.055 2.459.1a3.2 3.2 0 01-.287.123 858.687 858.687 0 00-5.37-.122l-.11-.145z" fill="#132525"/><path d="M16.747 34.264c.64-.022 1.323-.155 1.93.1-.596.012-1.18.056-1.764.056a2.033 2.033 0 01-.166-.156zm18.489 5.214c.43-.233.938-.122 1.4-.122l-.066.145c-.44.01-.882-.023-1.334-.023z" fill="#0B1F1F"/><path d="M12.205 34.498c.529-.023 1.124-.178 1.62.078-.474.022-.948.055-1.422.077a11.242 11.242 0 01-.198-.155zm37.772 3.824a1.61 1.61 0 01.463 0c0 .2-.463.2-.463 0zM4.95 41.168c.375-.022.827-.178 1.158.078l-.794.067a2.768 2.768 0 01-.364-.145zm44.53 2.335c.067-.033.21-.089.288-.122l.882.066c-.353.245-.794.123-1.17.056z" fill="#0C2020"/><path d="M44.619 34.798c.386-.267.915-.1 1.356-.067l-.1.145c-.418-.023-.837-.056-1.256-.078zm-37.133.033c.419 0 .904-.2 1.268.09-.353.021-.717.055-1.08.077a2.529 2.529 0 00-.188-.167zm38.665.067c.386-.245.85-.1 1.268-.078-.044.045-.132.122-.176.167a18.078 18.078 0 01-1.092-.089zM8.544 37.989c.188-.023.364-.034.552-.011-.033.233-.518.21-.552.01zm8.06 4.681c.805-.023 1.61-.068 2.414-.079.066.034.21.111.287.156-.628.056-1.268.067-1.907.067-.265-.011-.552.01-.794-.145zm-11.014.666c.353-.022.716-.055 1.07-.078.043.045.143.123.187.167-.408-.011-.904.19-1.257-.089z" fill="#0D2121"/><path d="M6.163 34.943c.364 0 .849-.2 1.147.088-.298.034-.596.045-.893.067a3.092 3.092 0 00-.254-.155zm41.421.077c.331-.267.783-.1 1.17-.055l-.287.122a12.246 12.246 0 01-.883-.067z" fill="#0A1F1F"/><path d="M5.424 35.187c-.231-.222.474-.267.474-.033l-.474.033z" fill="#071D1D"/><path d="M50.22 35.254c.022-.212.54-.2.54.044-.188 0-.364-.022-.54-.044zM23.02 37.3c.254.544.11 1.178.1 1.756-.044-.044-.122-.145-.166-.19.033-.522.055-1.044.066-1.567zm11.378.1c.53 0 1.059.022 1.588.033-.53.255-1.136.111-1.698.122l.11-.156zm-15.203.31c.077.279.143.557.121.846a3.12 3.12 0 00-.198.133c.01-.334.022-.656.077-.978zm-.111 1.224c.078.322.276.778-.088 1.011.011-.344.033-.678.088-1.011z" fill="#071C1C"/><path d="M36.196 35.32c.264.012.253.567.055.634-.022-.211-.033-.422-.055-.634zm.44 4.559c.254.01.243.567.045.633-.022-.21-.022-.422-.044-.633z" fill="#061B1B"/><path d="M19.393 36.588c.474-.056.948-.09 1.422-.056.045.178.1.356.144.545-.044.623-.033 1.245-.155 1.857-.033-.067-.099-.212-.132-.278-.1.511-.044 1.045-.1 1.556-.076.134-.242.1-.374.122a9.52 9.52 0 01-1.257-.066c.011-.078.022-.223.033-.3l.033-.034c.353-.233.155-.678.088-1.011a1.376 1.376 0 01-.021-.212l.055-.033c.055-.033.154-.1.198-.133.022-.29-.044-.568-.121-.845a1.377 1.377 0 01-.022-.212l.044-.033c.044-.033.121-.1.165-.133v-.734zm.342.233c-.198 1.056-.22 2.146-.33 3.224.297.011.595.011.892 0 .088-1.078.166-2.168.232-3.246-.254 0-.53.011-.794.022z" fill="#2A3C3C"/><path d="M29.911 36.721c.155-.01.309 0 .463 0 .011 1.079.078 2.157.11 3.236h-.55c-.034-.723 0-1.446-.067-2.169-.375-.11-.772-.2-1.124-.377.374-.034.75.01 1.124-.045.022-.2-.066-.456.044-.645z" fill="#131D1F"/><path d="M33.318 36.8h.496c0 .155.011.31.022.477l-.507-.033c0-.156 0-.3-.011-.445z" fill="#111B1C"/><path d="M16.251 36.944h.463c-.1 1.078-.22 2.156-.364 3.235-.176 0-.353 0-.529-.011.154-1.068.276-2.157.43-3.224z" fill="#141D1F"/><path d="M12.04 37.144c.066.144.132.311.055.467-.034-.011-.089-.023-.122-.034a.394.394 0 01.066-.433zm33.13.778l1.19.067c-.374.267-.87.11-1.29.089l.1-.156zm-38.048.188l1.059-.066.11.145c-.386.033-.838.178-1.169-.078z" fill="#081D1D"/><path d="M29.47 38.389c.033-.045.122-.134.155-.178.066.856.033 1.723.044 2.58.044.366-.287.789-.662.766.176-.166.342-.322.507-.489-.022-.89-.022-1.779-.044-2.68z" fill="#081C1C"/><path d="M21.146 38.433c.518-.022 1.037-.055 1.555-.01-.066.844-.055 1.7-.155 2.556-.242.312-.573.523-.837.8-.232.19-.43.501-.761.468-1.037.033-2.062 0-3.098.089-.574.01-1.158.066-1.742.01.055-.477.099-.966.187-1.444.243-.023.485-.045.717-.078.077-.767.154-1.535.264-2.302.508-.055 1.026-.055 1.544-.055-.055.767-.154 1.534-.198 2.312.782-.022 1.598.045 2.37-.122.022-.734.11-1.479.154-2.224zm3.065-.055c1.654 0 3.308 0 4.962.01.01.801.066 1.602.077 2.413.022.19-.155.312-.276.434-.33.3-.628.634-.981.912-1.4.078-2.8.022-4.2.033.054-.723.076-1.456.099-2.18.529-.021 1.047 0 1.576 0 0 .234 0 .457.011.69.717-.022 1.433 0 2.139-.044-.011-.4.066-.812-.033-1.2a58.75 58.75 0 00-3.11-.913 3.254 3.254 0 01-.264-.155zm6.946.033c.97.011 1.951-.022 2.922.045.022.11.055.222.077.344-.474.056-.948-.01-1.422 0 .022.645.033 1.301.11 1.946.65-.034 1.312.01 1.973.022-.01-.345-.022-.678-.022-1.023.518.011 1.048-.022 1.555.067.066.834.198 1.668.22 2.501-2.017-.044-4.024-.089-6.041-.144-.023-.49-.034-.978-.011-1.479.231 0 .463.011.705.011-.033-.767-.077-1.534-.066-2.29zm-17.387.245a17.536 17.536 0 011.533-.045c-.066.8-.188 1.601-.287 2.402-.01.267-.264.411-.43.578-.375.289-.683.645-1.08.911-.518.112-1.059.067-1.588.112-.507.01-1.014.11-1.521.055-.353-.311-.662-.69-.993-1.034.133-.934.342-1.845.508-2.768a14.18 14.18 0 011.532-.1c-.1.8-.32 1.59-.353 2.401.772-.044 1.555-.078 2.327-.166.12-.779.22-1.557.352-2.346zm24.41-.056c1.687.011 3.363.122 5.05.211.176.767.242 1.557.43 2.324.231.033.463.056.683.078.121.489.199.99.298 1.478-.618.011-1.246-.044-1.863-.089-.166.012-.232-.155-.32-.255-.717-1.112-1.444-2.224-2.14-3.347-.164.045-.34.09-.506.156.11 1.112.297 2.201.419 3.313-.783 0-1.555-.089-2.338-.089-.099-.49-.132-.978-.176-1.479.243-.01.485-.022.728-.033a78.82 78.82 0 01-.265-2.268zm-32.116.511c.849-.066 1.698-.133 2.558-.177a68.183 68.183 0 01-.783 3.969c-1.466.089-2.933.233-4.4.344-.308-.333-.628-.656-.892-1.023 0-.233.088-.455.143-.678.21-.733.364-1.478.595-2.212.497-.034.993-.078 1.489-.122-.154.833-.397 1.645-.573 2.468.793-.067 1.587-.078 2.37-.223.11-.511.232-1.023.342-1.545-.342.022-.695.044-1.037.056.045-.29.11-.579.188-.857zm42.105 2.335c-.143-.79-.353-1.567-.485-2.357.496.056 1.003.078 1.51.123.21.778.375 1.567.563 2.356.242.045.496.09.738.134.121.49.232.978.342 1.456a40.484 40.484 0 01-3.076-.244c-.1-.49-.21-.979-.276-1.468h.684z" fill="#E0E0E0"/><path d="M43.472 38.489c.199-.267.298.367.055.356-.022-.111-.033-.234-.055-.356z" fill="#091E1E"/><path d="M20.573 40.212c.055-.522.01-1.045.1-1.556l.131.278c0 .511-.033 1.034-.099 1.545-.595.011-1.19.011-1.786.044 0-.066.011-.189.011-.255.42.044.838.078 1.257.066.143-.01.309.012.386-.122z" fill="#0D2020"/><path d="M23.384 38.99c.309.021.673.055.904.288-.308.011-.628-.01-.937-.022.011-.067.033-.2.033-.267z" fill="#131D1E"/><path d="M33.483 39.534c.166 0 .32 0 .485.011.122.111.067.311.1.467-.188 0-.364.011-.552.011a93.608 93.608 0 00-.033-.489z" fill="#121D1F"/><path d="M22.91 39.634c.254.456.11 1.034.1 1.534l-.133-.1c-.01-.478.022-.956.033-1.434z" fill="#061C1B"/><path d="M49.657 39.923c.033-.044.11-.133.144-.178.11.478.209.968.33 1.434.21.023.43.056.64.078l-.088.134a7.29 7.29 0 01-.695-.045c-.11-.478-.231-.956-.33-1.423z" fill="#122525"/><path d="M11.444 40.423c.044.056.143.167.188.223.297.033.606.089.893.155-.386.034-.772.045-1.147.078a7.53 7.53 0 00.066-.456z" fill="#061919"/><path d="M37.276 41.024c.011-.123-.044-.367.11-.412.033.19.055.378.077.567-.088.19-.22-.055-.187-.155z" fill="#091D1D"/><path d="M47.96 43.414c.066-.044.198-.122.264-.167.364.034.739.056 1.103.09-.408.266-.916.088-1.368.077z" fill="#0F2222"/><path d="M19.062 43.77a286.147 286.147 0 0123.925.322c.97.045 1.951.09 2.91.2-.187.067-.396.09-.595.067-12.006-.511-24.046-.534-36.052 0-.198 0-.408.022-.584-.078 3.462-.278 6.935-.367 10.396-.511z" fill="#2B3E3E"/><path d="M10.077 44.993c9.482-.678 19.007-.823 28.511-.356 2.205.122 4.41.211 6.615.422.441 0 .882.034 1.312.134-1.025.044-2.05-.134-3.076-.111-4.95-.29-9.923-.345-14.884-.4-5.843.022-11.698.077-17.53.4-.96-.023-1.907.155-2.866.11.628-.177 1.29-.077 1.918-.2z" fill="#2B3E3E"/><path d="M15.556 45.382a40.543 40.543 0 011.643-.033c.54 0 1.103-.078 1.632.11-1.014.067-2.04.067-3.065.09-.055-.045-.154-.134-.21-.167zm22.503.188c.827-.221 1.687-.1 2.525-.044l-.265.134c-.75-.022-1.51-.022-2.26-.09z" fill="#000303"/><path d="M34.751 45.46c.243-.09.496-.167.75-.145.838.022 1.687 0 2.536.056l-.232.2c-1.025-.067-2.04-.033-3.054-.111z" fill="#080B0B"/></svg>