<svg width="38" height="33" fill="none" xmlns="http://www.w3.org/2000/svg"><g clip-path="url(#clip0)"><path d="M36.703 1.526c-.213-.459-.55-.82-.957-1.014a2.12 2.12 0 00-.957-.211c-.089 0-.178.009-.275.017a4.028 4.028 0 00-.922.212c-4.165 1.357-8.33 2.705-12.504 4.062C15.106 6.531 9.124 8.48 3.133 10.426c-.869.3-1.604.837-2.065 1.507-.479.678-.727 1.533-.718 2.476l.106 6.38.133 8.953c.018.996.248 1.736.7 2.283.328.397.798.66 1.32.74.143.027.284.035.435.035.381 0 .798-.079 1.232-.237l17.964-6.081 12.247-4.142c.639-.22 1.498-.67 1.959-1.524.514-.934.514-2.027.514-2.979l.08-14.285c.009-.634-.027-1.357-.337-2.026z" fill="#fff"/><path d="M34.549.662c.354-.035.718 0 1.037.159.354.176.629.484.788.846.266.581.31 1.242.302 1.877l-.08 14.284c0 .952 0 1.957-.47 2.812-.363.678-1.054 1.119-1.763 1.365-10.077 3.41-20.144 6.812-30.22 10.223-.47.176-.984.273-1.48.194a1.862 1.862 0 01-1.108-.617c-.479-.573-.603-1.34-.62-2.063-.08-5.11-.151-10.23-.231-15.342-.009-.793.186-1.612.656-2.264.452-.652 1.143-1.12 1.896-1.375L33.698.874a3.28 3.28 0 01.85-.212zM28.93 4.354c.027 4.407.089 8.813.124 13.219-.008.035.036.07.071.044 1.604-.538 3.208-1.075 4.812-1.622.027-.008.045-.026.045-.052l.053-13.228c.009-.044-.018-.097-.071-.07-1.675.573-3.359 1.137-5.034 1.71zm-.735.212c-1.613.546-3.226 1.084-4.84 1.63-.017.009-.035.018-.035.035 0 1.463.01 2.926.01 4.389 0 .053.044.08.07.123 1.63 2.08 3.253 4.168 4.883 6.248.018.044.089.018.08-.026-.035-4.116-.062-8.222-.097-12.337.017-.053-.027-.089-.071-.062zm-10.44 3.542a.066.066 0 00-.044.062c.017 1.384.026 2.767.044 4.142 0 .018 0 .044.018.062.815 1.066 1.622 2.14 2.437 3.207l-2.375.82c-.027.009-.027.035-.027.061l.027 2.503c-.01.035.035.07.062.053 1.303-.44 2.614-.881 3.917-1.322.478.617.948 1.243 1.418 1.868a.047.047 0 00.062.018c1.622-.555 3.252-1.102 4.874-1.648.018-.053-.035-.088-.062-.132a8112.755 8112.755 0 01-8.073-10.337c-.027-.035-.054-.097-.116-.08-.718.239-1.444.486-2.162.723zm-.753.274c-1.587.528-3.164 1.066-4.75 1.603-.045.01-.045.053-.036.089.044 1.577.071 3.146.124 4.723 1.587 2.027 3.19 4.045 4.786 6.072.017.035.088.035.088-.018l-.133-12.434a.052.052 0 00-.08-.035zm-8.88 3.022c-1.666.564-3.333 1.12-5.007 1.683-.036.01-.045.036-.036.062.027 4.397.062 8.795.098 13.192 0 .044.053.044.08.026 1.612-.546 3.234-1.084 4.847-1.63.062-.017.027-.106.044-.15l.053-13.147c-.008-.036-.053-.053-.08-.036zm.726.08a.067.067 0 00-.017.044c-.01 2.546-.018 5.102-.027 7.649 0 .035.036.061.053.097 1.037 1.339 2.065 2.678 3.102 4.018.027.035.053.097.106.07 1.613-.537 3.217-1.083 4.83-1.63.045-.009.053-.061.027-.088L8.928 11.501c-.026-.026-.053-.035-.08-.018zm24.053 6.168c-.054.009-.027.062-.018.088.31.9.602 1.798.913 2.697.47-.141.93-.309 1.391-.459 0-.114-.062-.237-.106-.343-.355.106-.7.238-1.055.343l-.292-.872c.283-.097.558-.185.841-.282.045-.097-.044-.264-.097-.352-.284.088-.576.194-.86.282l-.292-.873c.346-.114.7-.238 1.046-.352a1.073 1.073 0 00-.115-.335c-.453.15-.896.317-1.356.458zm-1.551.511c-.257.088-.514.177-.771.256-.053.009-.018.07-.01.097.31.899.603 1.815.931 2.705a4.77 4.77 0 00.337-.114c-.124-.406-.275-.811-.408-1.217.062-.035.142-.053.213-.07.284.344.558.705.85 1.049.134 0 .276-.07.4-.124-.284-.387-.603-.749-.895-1.128.416-.37.31-1.119-.195-1.357-.142-.07-.302-.14-.452-.097zm-3.067 1.04c-.044.009-.035.053-.026.08.319.898.602 1.815.93 2.705.461-.159.93-.3 1.392-.476-.027-.115-.053-.247-.124-.335-.346.106-.692.238-1.046.344l-.293-.873c.284-.097.576-.185.86-.29a1.057 1.057 0 00-.106-.335c-.293.079-.576.194-.869.282l-.292-.873c.345-.114.7-.229 1.045-.352-.008-.115-.062-.23-.106-.335-.46.14-.904.308-1.365.458zm-1.63.538c-.373.105-.594.537-.479.899.169.493.328.978.496 1.462.124.362.568.564.93.423.373-.114.612-.564.453-.916a2.03 2.03 0 00-.337.106c.044.193-.062.431-.275.475-.168.036-.38-.044-.425-.211l-.479-1.401c-.053-.15-.008-.353.133-.44.195-.133.47-.036.559.175.115-.008.23-.07.345-.105-.097-.38-.558-.59-.921-.467zm-1.977.66c.187.609.408 1.199.603 1.807-.443-.52-.877-1.049-1.33-1.56-.106.044-.248.053-.327.133.31.925.611 1.85.948 2.767.115-.036.222-.071.337-.115-.186-.6-.408-1.198-.603-1.798.443.511.869 1.031 1.312 1.542.106-.017.257-.052.337-.123-.32-.925-.612-1.86-.949-2.767-.106.035-.221.07-.328.114zm-3.367 1.137c.026.115.062.238.115.335.177-.035.346-.114.523-.158.24.696.47 1.392.709 2.088-.169.062-.346.115-.514.176.026.115.062.23.115.335.46-.14.93-.3 1.383-.467a1.07 1.07 0 00-.116-.335c-.177.035-.345.115-.523.168-.239-.697-.47-1.393-.709-2.089.169-.062.355-.106.514-.185a1.154 1.154 0 00-.115-.335c-.46.15-.921.309-1.382.467zm-1.206.406c.071.581.16 1.163.23 1.753-.026.018-.061.027-.07-.008-.275-.476-.54-.943-.807-1.42-.061-.193-.274-.008-.407.01 0 .035.018.061.035.088.479.837.949 1.674 1.436 2.511a.696.696 0 00.328-.114c-.133-.979-.257-1.965-.399-2.944-.115.036-.248.062-.346.124zm-7.506 2.502c-.372.106-.602.547-.478.917.08.185.194.37.38.45.337.15.683.29 1.02.44.204.132.195.467-.01.59-.176.159-.478.044-.557-.167a2.12 2.12 0 00-.337.114c.088.335.47.547.806.494a.741.741 0 00.63-.67c.017-.282-.124-.59-.4-.705-.336-.15-.673-.29-1.01-.432a.357.357 0 01-.115-.52c.124-.202.443-.22.585-.035.044.035.053.15.133.106.089-.044.213-.044.284-.115a.735.735 0 00-.93-.467zm-1.63.547c-.098.044-.222.053-.31.114.23.705.478 1.41.708 2.115.045.168-.053.37-.221.423-.169.07-.39 0-.47-.158-.248-.714-.479-1.428-.736-2.133-.097-.018-.203.062-.3.08-.054.008-.036.061-.027.096.239.688.47 1.384.7 2.071.124.353.558.529.895.414a.74.74 0 00.496-.907c-.23-.697-.47-1.393-.709-2.089a.02.02 0 00-.027-.026zM7.35 26.209c-.01.106.062.229.097.343.177-.026.346-.114.523-.167.284.81.54 1.64.842 2.441.106-.035.222-.07.337-.114-.257-.82-.55-1.63-.816-2.45.169-.062.346-.115.514-.177-.026-.114-.053-.246-.124-.343-.46.15-.912.308-1.373.467zm-1.383.485c.133.978.248 1.973.399 2.943.106-.035.222-.07.328-.115.026-.123-.044-.255-.027-.37.178-.07.364-.132.55-.185.08.088.115.212.195.309.106-.018.212-.071.31-.098.035-.008.026-.044.009-.07-.488-.837-.957-1.683-1.445-2.52a1.133 1.133 0 00-.319.105zm-1.772.572c.186.608.407 1.199.602 1.807-.443-.511-.877-1.04-1.32-1.551-.106.026-.257.053-.337.123.31.925.612 1.86.948 2.767a4.77 4.77 0 00.337-.114c-.186-.6-.408-1.199-.603-1.798.444.511.869 1.04 1.321 1.551.115-.018.23-.062.346-.115-.32-.925-.62-1.859-.949-2.784-.124.035-.23.07-.345.114z" fill="#000"/><path d="M31.306 18.569c.221-.062.47.088.54.3a.448.448 0 01-.23.554c-.106.044-.213.07-.31.106l-.293-.872c.089-.027.186-.062.293-.088zM6.492 27.76c.061-.036.08.053.106.088.141.264.31.511.433.784a2.485 2.485 0 01-.407.141 13.227 13.227 0 01-.132-1.013z" fill="#161511"/><path d="M28.93 4.354c1.676-.572 3.36-1.136 5.035-1.7.053-.027.08.026.07.07l-.053 13.227c0 .027-.026.044-.044.053-1.604.538-3.208 1.084-4.812 1.622-.036.017-.08-.01-.071-.044-.036-4.415-.098-8.821-.124-13.228zm-.735.212c.044-.027.089.009.08.053.035 4.115.062 8.222.097 12.337.01.044-.062.07-.08.026-1.63-2.08-3.252-4.168-4.882-6.247-.027-.036-.071-.071-.071-.124 0-1.463-.018-2.926-.01-4.388 0-.018.027-.027.036-.036 1.604-.537 3.217-1.084 4.83-1.621zM17.756 8.108c.717-.238 1.444-.475 2.162-.713.053-.027.08.044.115.079 2.694 3.445 5.38 6.891 8.074 10.337.026.044.08.079.062.132-1.622.555-3.253 1.101-4.875 1.648-.026.009-.053.009-.062-.018-.47-.617-.94-1.242-1.418-1.868-1.302.44-2.614.881-3.917 1.322-.035.017-.07-.018-.062-.053l-.026-2.503c0-.026 0-.053.026-.061.789-.274 1.587-.547 2.375-.82-.806-1.075-1.622-2.141-2.437-3.208a.162.162 0 01-.017-.061c-.018-1.384-.027-2.767-.045-4.142 0-.035.018-.07.045-.07zm-.754.274c.027-.018.071 0 .071.035l.133 12.434c0 .044-.07.053-.089.018-1.595-2.027-3.19-4.045-4.785-6.072-.053-1.569-.08-3.146-.124-4.723 0-.036-.01-.08.035-.089 1.595-.537 3.173-1.075 4.76-1.603zm-8.88 3.022c.036-.017.08 0 .071.044L8.14 24.596c-.009.053.027.132-.044.15-1.613.546-3.235 1.084-4.848 1.63-.027.018-.08.01-.08-.026-.035-4.398-.062-8.795-.097-13.192 0-.027.009-.062.035-.062 1.675-.573 3.35-1.137 5.016-1.692zm.727.079c.026-.017.053-.008.07.018 2.668 3.384 5.336 6.768 7.994 10.143.036.027.018.08-.026.088-1.613.547-3.217 1.084-4.83 1.63-.053.027-.08-.035-.106-.07-1.037-1.34-2.065-2.679-3.102-4.018-.018-.027-.053-.053-.053-.097.009-2.547.026-5.103.026-7.65.01-.017.018-.026.027-.043z" fill="#FFED00"/><path d="M16.577 22.534a2.272 2.272 0 012.26 1.48c.195.52.177 1.12-.045 1.63a2.26 2.26 0 01-3.438.909 2.217 2.217 0 01-.789-1.129 2.26 2.26 0 01.062-1.489c.301-.784 1.099-1.357 1.95-1.4zm-.045.123a2.143 2.143 0 00-1.418.714 2.12 2.12 0 00-.062 2.732 2.2 2.2 0 001.17.74 2.14 2.14 0 001.56-.229c.381-.22.691-.555.869-.952a2.16 2.16 0 00.08-1.595 2.158 2.158 0 00-.825-1.057 2.164 2.164 0 00-1.373-.353z" fill="#fff"/><path d="M16.55 22.975c0-.097.106-.177.204-.159.08.009.15.088.141.176h-.088c0-.097-.15-.123-.177-.026a2.947 2.947 0 000 .396c.018.097.177.07.168-.026h-.088v-.088h.177c.008.088 0 .194-.089.247-.106.061-.248-.018-.257-.133.01-.132.01-.255.01-.387zm-.656.017c.107-.044.222-.079.328-.123.018.026.018.053.035.08-.044.017-.08.026-.124.043.062.168.115.326.177.494.045-.018.08-.035.124-.044.01.026.018.053.027.08-.106.043-.221.078-.328.114-.017-.027-.017-.053-.035-.08.044-.017.08-.026.124-.044-.062-.167-.115-.326-.177-.493-.044.017-.08.035-.124.044-.009-.018-.018-.044-.027-.07zm1.082.538c.115-.203.239-.414.354-.617l.08.026c-.036.238-.063.468-.107.706a24.78 24.78 0 00-.08-.027c0-.026.01-.062.01-.088a.806.806 0 00-.134-.044c-.017.061-.061.08-.123.044zm.194-.159c-.035.044.053.044.08.062.009-.08.044-.168.026-.247l-.106.185zm.231.291l.425-.529c.026.018.053.044.08.062a.859.859 0 00-.018.15c.044-.018.097-.035.141-.053.027.018.053.044.08.062-.142.185-.292.37-.443.546-.026-.018-.044-.035-.07-.053.115-.14.23-.282.336-.423-.053.018-.106.044-.16.062.01-.053.018-.115.027-.168-.115.141-.221.282-.345.423-.027-.026-.088-.052-.053-.079zm-2.056-.3c.088-.079.186-.15.274-.22a.495.495 0 01.053.07l-.106.08c.133.159.257.317.39.476-.018.026-.045.035-.062.053-.133-.159-.257-.318-.39-.476l-.106.08c-.018-.018-.027-.045-.053-.063zm2.907.282c.026-.017.053-.026.07-.044.063.097.125.194.187.3-.027.018-.044.026-.071.044-.027-.035-.044-.07-.071-.114-.15.088-.301.185-.452.273.018.035.044.07.07.114a.804.804 0 01-.07.044 8.756 8.756 0 01-.186-.3c.027-.017.044-.035.07-.043.027.035.045.07.072.105.15-.088.301-.185.452-.273a.317.317 0 01-.071-.106zm-3.236.141a.211.211 0 01.053-.07c.169.114.337.238.506.352.053-.07.097-.14.15-.211.027.018.053.035.071.053-.07.097-.133.194-.204.282a22.799 22.799 0 00-.576-.406zm-.15.3c.168.044.345.097.513.141.089.027.15.123.124.212-.018.088-.115.15-.195.132a11.324 11.324 0 01-.53-.15c0-.027.017-.053.017-.08.177.045.354.098.531.142.089.008.124-.124.044-.168-.177-.053-.354-.097-.53-.15l.026-.079zm3.076.273c.23-.044.46-.097.69-.14.01.026.01.052.019.079-.133.088-.275.176-.408.264.15-.026.292-.062.443-.088.009.026.009.053.018.088-.23.044-.461.097-.692.14a.243.243 0 00-.017-.078c.133-.088.274-.177.407-.265-.15.027-.292.062-.443.088-.008-.035-.008-.061-.017-.088zm-1.924.009h.346c.017.026 0 .062.008.088h-.132v.608c-.027.009-.062 0-.089 0v-.617h-.133c0-.017-.008-.053 0-.079zm.479 0h.088v.308h.178v-.308h.088v.696h-.088v-.308h-.178v.308h-.088v-.696zm.496.026c0-.008 0-.026.018-.026h.345c0 .026.01.062 0 .088h-.265v.22h.221v.089h-.221v.22h.265v.088h-.354c-.009-.23-.009-.458-.009-.678zm-2.251.362l.7-.053a.297.297 0 01.008.088c-.177.009-.363.027-.54.044.053.026.106.053.15.08-.044.035-.097.061-.141.096.177-.017.363-.026.54-.044 0 .027.009.062.009.088l-.7.053c0-.035-.008-.07-.008-.097a.966.966 0 00.123-.088c-.044-.017-.088-.044-.141-.062.009-.035 0-.07 0-.105zm3.27.325c-.08-.105.018-.272.15-.263l.39.052a.172.172 0 01.124.238c-.026.07-.115.124-.186.106.01-.026.01-.053.01-.08.097.018.14-.14.044-.167-.133-.017-.266-.044-.39-.053-.097.01-.097.159 0 .168.009-.027.009-.062.018-.088.026 0 .062.009.088.009l-.026.176c-.089-.01-.177-.018-.222-.097zm-2.242.318a.567.567 0 01.08-.07l.301.326a.567.567 0 01-.08.07 1.46 1.46 0 00-.115-.123l-.585.529c-.026-.027-.062-.053-.07-.089.195-.176.39-.352.576-.528-.027-.036-.071-.07-.107-.115zm-.524-.018c.124-.061.204.142.08.186-.124.052-.204-.142-.08-.185zm2.864 0c.124-.061.204.142.08.186-.116.052-.195-.142-.08-.185zm-.63.089c.027-.036.063-.062.09-.089.203.212.416.423.62.644-.01.035-.053.053-.071.08-.168-.16-.32-.336-.488-.494l.054.211c-.071-.018-.142-.044-.213-.062l.479.503a.341.341 0 01-.08.079l-.62-.643c.026-.027.052-.062.088-.08.062.01.124.036.195.053a3.17 3.17 0 00-.053-.202zm-1.258.237c.142.036.292.089.434.133l-.027.105a3.467 3.467 0 00-.327-.096l-.08.264.265.08c0 .034-.017.07-.026.105-.089-.018-.177-.053-.266-.08l-.08.265c.107.035.213.062.32.097-.01.035-.018.07-.036.106-.142-.036-.292-.088-.434-.133.08-.282.169-.564.257-.846zm.683.089c.035-.01.07-.027.106-.018.124.273.248.546.363.828a.447.447 0 01-.106.018c-.018-.027-.027-.062-.045-.097-.062.009-.115.026-.177.035 0 .035.01.07 0 .106-.035.018-.07.018-.106.026-.018-.29-.026-.599-.035-.898zm.124.36c.009.098 0 .195.009.292.044-.01.088-.018.132-.035-.044-.089-.08-.186-.124-.274-.008-.009-.026.01-.017.018z" fill="#fff"/></g><defs><clipPath id="clip0"><path fill="#fff" d="M.318 0h37.049v33H.318z"/></clipPath></defs></svg>